<svg width="360" height="120" viewBox="0 0 360 120" fill="none" xmlns="http://www.w3.org/2000/svg">
<rect width="360" height="54" fill="#121212"/>
<rect opacity="0.12" y="53" width="360" height="1" fill="white"/>
<mask id="mask0" mask-type="alpha" maskUnits="userSpaceOnUse" x="283" y="9" width="69" height="36">
<rect x="283" y="9" width="69" height="36" rx="4" fill="white"/>
</mask>
<g mask="url(#mask0)">
<path d="M341.975 28.3975H339.541C339.568 29.1904 339.767 29.7829 340.136 30.1748C340.509 30.5667 341.043 30.7627 341.735 30.7627C342.237 30.7627 342.704 30.6875 343.137 30.5371L343.328 31.9316C342.781 32.0638 342.216 32.1299 341.633 32.1299C340.466 32.1299 339.548 31.8018 338.878 31.1455C338.208 30.4893 337.855 29.5732 337.818 28.3975H336.643V27.4336H337.818V26.5586H336.643V25.5947H337.825C337.884 24.4326 338.256 23.5303 338.939 22.8877C339.623 22.2406 340.541 21.917 341.694 21.917C342.177 21.917 342.722 21.9876 343.328 22.1289L343.137 23.5303C342.672 23.3753 342.209 23.2979 341.749 23.2979C341.061 23.2979 340.532 23.4938 340.163 23.8857C339.794 24.2777 339.589 24.8473 339.548 25.5947H341.975V26.5586H339.541V27.4336H341.975V28.3975Z" fill="white"/>
</g>
<path d="M18.5635 32H17.251V22.0469H18.5635V32ZM22.7373 22.8125V24.6035H24.1182V25.5811H22.7373V30.168C22.7373 30.4642 22.7988 30.6875 22.9219 30.8379C23.0449 30.9837 23.2546 31.0566 23.5508 31.0566C23.6966 31.0566 23.8971 31.0293 24.1523 30.9746V32C23.8197 32.0911 23.4961 32.1367 23.1816 32.1367C22.6165 32.1367 22.1904 31.9658 21.9033 31.624C21.6162 31.2822 21.4727 30.7969 21.4727 30.168V25.5811H20.126V24.6035H21.4727V22.8125H22.7373ZM28.9209 32.1367C27.9183 32.1367 27.1025 31.8086 26.4736 31.1523C25.8447 30.4915 25.5303 29.6097 25.5303 28.5068V28.2744C25.5303 27.5407 25.6693 26.8867 25.9473 26.3125C26.2298 25.7337 26.6217 25.2826 27.123 24.959C27.6289 24.6309 28.1758 24.4668 28.7637 24.4668C29.7253 24.4668 30.4727 24.7835 31.0059 25.417C31.5391 26.0505 31.8057 26.9574 31.8057 28.1377V28.6641H26.7949C26.8132 29.3932 27.0251 29.9834 27.4307 30.4346C27.8408 30.8812 28.3604 31.1045 28.9893 31.1045C29.4359 31.1045 29.8141 31.0133 30.124 30.8311C30.4339 30.6488 30.7051 30.4072 30.9375 30.1064L31.71 30.708C31.0902 31.6605 30.1605 32.1367 28.9209 32.1367ZM28.7637 25.5059C28.2533 25.5059 27.8249 25.6927 27.4785 26.0664C27.1322 26.4355 26.918 26.9551 26.8359 27.625H30.541V27.5293C30.5046 26.8867 30.3314 26.39 30.0215 26.0391C29.7116 25.6836 29.2923 25.5059 28.7637 25.5059ZM34.7148 24.6035L34.749 25.4238C35.2913 24.7858 36.0228 24.4668 36.9434 24.4668C37.9779 24.4668 38.682 24.8633 39.0557 25.6562C39.3018 25.3008 39.6208 25.0137 40.0127 24.7949C40.4092 24.5762 40.8763 24.4668 41.4141 24.4668C43.0365 24.4668 43.8613 25.3258 43.8887 27.0439V32H42.624V27.1191C42.624 26.5905 42.5033 26.1963 42.2617 25.9365C42.0202 25.6722 41.6146 25.54 41.0449 25.54C40.5755 25.54 40.1859 25.6813 39.876 25.9639C39.5661 26.2419 39.3861 26.6178 39.3359 27.0918V32H38.0645V27.1533C38.0645 26.0778 37.5381 25.54 36.4854 25.54C35.6559 25.54 35.0885 25.8932 34.7832 26.5996V32H33.5186V24.6035H34.7148Z" fill="white" fill-opacity="0.6"/>
<rect y="33" width="360" height="54" fill="#121212"/>
<rect opacity="0.12" y="86" width="360" height="1" fill="white"/>
<mask id="mask1" mask-type="alpha" maskUnits="userSpaceOnUse" x="283" y="42" width="69" height="36">
<rect x="283" y="42" width="69" height="36" rx="4" fill="white"/>
</mask>
<g mask="url(#mask1)">
<path d="M341.975 61.3975H339.541C339.568 62.1904 339.767 62.7829 340.136 63.1748C340.509 63.5667 341.043 63.7627 341.735 63.7627C342.237 63.7627 342.704 63.6875 343.137 63.5371L343.328 64.9316C342.781 65.0638 342.216 65.1299 341.633 65.1299C340.466 65.1299 339.548 64.8018 338.878 64.1455C338.208 63.4893 337.855 62.5732 337.818 61.3975H336.643V60.4336H337.818V59.5586H336.643V58.5947H337.825C337.884 57.4326 338.256 56.5303 338.939 55.8877C339.623 55.2406 340.541 54.917 341.694 54.917C342.177 54.917 342.722 54.9876 343.328 55.1289L343.137 56.5303C342.672 56.3753 342.209 56.2979 341.749 56.2979C341.061 56.2979 340.532 56.4938 340.163 56.8857C339.794 57.2777 339.589 57.8473 339.548 58.5947H341.975V59.5586H339.541V60.4336H341.975V61.3975Z" fill="white"/>
</g>
<path d="M18.5635 65H17.251V55.0469H18.5635V65ZM22.7373 55.8125V57.6035H24.1182V58.5811H22.7373V63.168C22.7373 63.4642 22.7988 63.6875 22.9219 63.8379C23.0449 63.9837 23.2546 64.0566 23.5508 64.0566C23.6966 64.0566 23.8971 64.0293 24.1523 63.9746V65C23.8197 65.0911 23.4961 65.1367 23.1816 65.1367C22.6165 65.1367 22.1904 64.9658 21.9033 64.624C21.6162 64.2822 21.4727 63.7969 21.4727 63.168V58.5811H20.126V57.6035H21.4727V55.8125H22.7373ZM28.9209 65.1367C27.9183 65.1367 27.1025 64.8086 26.4736 64.1523C25.8447 63.4915 25.5303 62.6097 25.5303 61.5068V61.2744C25.5303 60.5407 25.6693 59.8867 25.9473 59.3125C26.2298 58.7337 26.6217 58.2826 27.123 57.959C27.6289 57.6309 28.1758 57.4668 28.7637 57.4668C29.7253 57.4668 30.4727 57.7835 31.0059 58.417C31.5391 59.0505 31.8057 59.9574 31.8057 61.1377V61.6641H26.7949C26.8132 62.3932 27.0251 62.9834 27.4307 63.4346C27.8408 63.8812 28.3604 64.1045 28.9893 64.1045C29.4359 64.1045 29.8141 64.0133 30.124 63.8311C30.4339 63.6488 30.7051 63.4072 30.9375 63.1064L31.71 63.708C31.0902 64.6605 30.1605 65.1367 28.9209 65.1367ZM28.7637 58.5059C28.2533 58.5059 27.8249 58.6927 27.4785 59.0664C27.1322 59.4355 26.918 59.9551 26.8359 60.625H30.541V60.5293C30.5046 59.8867 30.3314 59.39 30.0215 59.0391C29.7116 58.6836 29.2923 58.5059 28.7637 58.5059ZM34.7148 57.6035L34.749 58.4238C35.2913 57.7858 36.0228 57.4668 36.9434 57.4668C37.9779 57.4668 38.682 57.8633 39.0557 58.6562C39.3018 58.3008 39.6208 58.0137 40.0127 57.7949C40.4092 57.5762 40.8763 57.4668 41.4141 57.4668C43.0365 57.4668 43.8613 58.3258 43.8887 60.0439V65H42.624V60.1191C42.624 59.5905 42.5033 59.1963 42.2617 58.9365C42.0202 58.6722 41.6146 58.54 41.0449 58.54C40.5755 58.54 40.1859 58.6813 39.876 58.9639C39.5661 59.2419 39.3861 59.6178 39.3359 60.0918V65H38.0645V60.1533C38.0645 59.0778 37.5381 58.54 36.4854 58.54C35.6559 58.54 35.0885 58.8932 34.7832 59.5996V65H33.5186V57.6035H34.7148Z" fill="white" fill-opacity="0.6"/>
<rect y="66" width="360" height="54" fill="#121212"/>
<rect opacity="0.12" y="119" width="360" height="1" fill="white"/>
<mask id="mask2" mask-type="alpha" maskUnits="userSpaceOnUse" x="283" y="75" width="69" height="36">
<rect x="283" y="75" width="69" height="36" rx="4" fill="white"/>
</mask>
<g mask="url(#mask2)">
<path d="M332.975 94.3975H330.541C330.568 95.1904 330.767 95.7829 331.136 96.1748C331.509 96.5667 332.043 96.7627 332.735 96.7627C333.237 96.7627 333.704 96.6875 334.137 96.5371L334.328 97.9316C333.781 98.0638 333.216 98.1299 332.633 98.1299C331.466 98.1299 330.548 97.8018 329.878 97.1455C329.208 96.4893 328.855 95.5732 328.818 94.3975H327.643V93.4336H328.818V92.5586H327.643V91.5947H328.825C328.884 90.4326 329.256 89.5303 329.939 88.8877C330.623 88.2406 331.541 87.917 332.694 87.917C333.177 87.917 333.722 87.9876 334.328 88.1289L334.137 89.5303C333.672 89.3753 333.209 89.2979 332.749 89.2979C332.061 89.2979 331.532 89.4938 331.163 89.8857C330.794 90.2777 330.589 90.8473 330.548 91.5947H332.975V92.5586H330.541V93.4336H332.975V94.3975ZM342.182 94.3975H339.748C339.775 95.1904 339.974 95.7829 340.343 96.1748C340.716 96.5667 341.25 96.7627 341.942 96.7627C342.444 96.7627 342.911 96.6875 343.344 96.5371L343.535 97.9316C342.988 98.0638 342.423 98.1299 341.84 98.1299C340.673 98.1299 339.755 97.8018 339.085 97.1455C338.415 96.4893 338.062 95.5732 338.025 94.3975H336.85V93.4336H338.025V92.5586H336.85V91.5947H338.032C338.091 90.4326 338.463 89.5303 339.146 88.8877C339.83 88.2406 340.748 87.917 341.901 87.917C342.384 87.917 342.929 87.9876 343.535 88.1289L343.344 89.5303C342.879 89.3753 342.416 89.2979 341.956 89.2979C341.268 89.2979 340.739 89.4938 340.37 89.8857C340.001 90.2777 339.796 90.8473 339.755 91.5947H342.182V92.5586H339.748V93.4336H342.182V94.3975Z" fill="white"/>
</g>
<path d="M24.0322 89.127H20.833V98H19.5273V89.127H16.335V88.0469H24.0322V89.127ZM24.542 94.2334C24.542 93.5088 24.6833 92.8571 24.9658 92.2783C25.2529 91.6995 25.6494 91.2529 26.1553 90.9385C26.6657 90.624 27.2467 90.4668 27.8984 90.4668C28.9056 90.4668 29.7191 90.8154 30.3389 91.5127C30.9632 92.21 31.2754 93.1374 31.2754 94.2949V94.3838C31.2754 95.1038 31.1364 95.751 30.8584 96.3252C30.585 96.8949 30.1908 97.3392 29.6758 97.6582C29.1654 97.9772 28.5775 98.1367 27.9121 98.1367C26.9095 98.1367 26.096 97.7881 25.4717 97.0908C24.8519 96.3936 24.542 95.4707 24.542 94.3223V94.2334ZM25.8135 94.3838C25.8135 95.2041 26.0026 95.8626 26.3809 96.3594C26.7637 96.8561 27.2741 97.1045 27.9121 97.1045C28.5547 97.1045 29.0651 96.8538 29.4434 96.3525C29.8216 95.8467 30.0107 95.1403 30.0107 94.2334C30.0107 93.4222 29.8171 92.766 29.4297 92.2646C29.0469 91.7588 28.5365 91.5059 27.8984 91.5059C27.2741 91.5059 26.7705 91.7542 26.3877 92.251C26.0049 92.7477 25.8135 93.4587 25.8135 94.3838ZM34.8271 88.8125V90.6035H36.208V91.5811H34.8271V96.168C34.8271 96.4642 34.8887 96.6875 35.0117 96.8379C35.1348 96.9837 35.3444 97.0566 35.6406 97.0566C35.7865 97.0566 35.987 97.0293 36.2422 96.9746V98C35.9095 98.0911 35.5859 98.1367 35.2715 98.1367C34.7064 98.1367 34.2803 97.9658 33.9932 97.624C33.7061 97.2822 33.5625 96.7969 33.5625 96.168V91.5811H32.2158V90.6035H33.5625V88.8125H34.8271ZM42.5078 98C42.4349 97.8542 42.3757 97.5944 42.3301 97.2207C41.7422 97.8314 41.0404 98.1367 40.2246 98.1367C39.4954 98.1367 38.8962 97.9316 38.4268 97.5215C37.9619 97.1068 37.7295 96.5827 37.7295 95.9492C37.7295 95.179 38.0212 94.582 38.6045 94.1582C39.1924 93.7298 40.0173 93.5156 41.0791 93.5156H42.3096V92.9346C42.3096 92.4925 42.1774 92.1416 41.9131 91.8818C41.6488 91.6175 41.2591 91.4854 40.7441 91.4854C40.293 91.4854 39.9147 91.5993 39.6094 91.8271C39.304 92.055 39.1514 92.3307 39.1514 92.6543H37.8799C37.8799 92.2852 38.0098 91.9297 38.2695 91.5879C38.5339 91.2415 38.8893 90.9681 39.3359 90.7676C39.7871 90.5671 40.2816 90.4668 40.8193 90.4668C41.6715 90.4668 42.3392 90.681 42.8223 91.1094C43.3053 91.5332 43.556 92.1188 43.5742 92.8662V96.2705C43.5742 96.9495 43.6608 97.4896 43.834 97.8906V98H42.5078ZM40.4092 97.0361C40.8057 97.0361 41.1816 96.9336 41.5371 96.7285C41.8926 96.5234 42.1501 96.2568 42.3096 95.9287V94.4111H41.3184C39.7689 94.4111 38.9941 94.8646 38.9941 95.7715C38.9941 96.168 39.1263 96.4779 39.3906 96.7012C39.6549 96.9245 39.9945 97.0361 40.4092 97.0361ZM47.1807 98H45.916V87.5H47.1807V98Z" fill="white" fill-opacity="0.6"/>
</svg>
