<svg width="230" height="93" viewBox="0 0 230 93" fill="none" xmlns="http://www.w3.org/2000/svg">
<path d="M1.15527 11V1.04688H4.40918C5.48926 1.04688 6.30046 1.27018 6.84277 1.7168C7.38965 2.16341 7.66309 2.82422 7.66309 3.69922C7.66309 4.16406 7.53092 4.5765 7.2666 4.93652C7.00228 5.29199 6.64225 5.56771 6.18652 5.76367C6.72428 5.91406 7.14811 6.20117 7.45801 6.625C7.77246 7.04427 7.92969 7.54557 7.92969 8.12891C7.92969 9.02214 7.6403 9.72396 7.06152 10.2344C6.48275 10.7448 5.66471 11 4.60742 11H1.15527ZM2.46777 6.34473V9.92676H4.63477C5.24544 9.92676 5.72624 9.76953 6.07715 9.45508C6.43262 9.13607 6.61035 8.69857 6.61035 8.14258C6.61035 6.94401 5.95866 6.34473 4.65527 6.34473H2.46777ZM2.46777 5.29199H4.4502C5.02441 5.29199 5.48242 5.14844 5.82422 4.86133C6.17057 4.57422 6.34375 4.18457 6.34375 3.69238C6.34375 3.14551 6.18424 2.74902 5.86523 2.50293C5.54622 2.25228 5.06087 2.12695 4.40918 2.12695H2.46777V5.29199ZM9.59473 7.2334C9.59473 6.50879 9.736 5.8571 10.0186 5.27832C10.3057 4.69954 10.7021 4.25293 11.208 3.93848C11.7184 3.62402 12.2995 3.4668 12.9512 3.4668C13.9583 3.4668 14.7718 3.81543 15.3916 4.5127C16.016 5.20996 16.3281 6.13737 16.3281 7.29492V7.38379C16.3281 8.10384 16.1891 8.75098 15.9111 9.3252C15.6377 9.89486 15.2435 10.3392 14.7285 10.6582C14.2181 10.9772 13.6302 11.1367 12.9648 11.1367C11.9622 11.1367 11.1488 10.7881 10.5244 10.0908C9.90462 9.39355 9.59473 8.4707 9.59473 7.32227V7.2334ZM10.8662 7.38379C10.8662 8.2041 11.0553 8.86263 11.4336 9.35938C11.8164 9.85612 12.3268 10.1045 12.9648 10.1045C13.6074 10.1045 14.1178 9.85384 14.4961 9.35254C14.8743 8.84668 15.0635 8.1403 15.0635 7.2334C15.0635 6.4222 14.8698 5.76595 14.4824 5.26465C14.0996 4.75879 13.5892 4.50586 12.9512 4.50586C12.3268 4.50586 11.8232 4.75423 11.4404 5.25098C11.0576 5.74772 10.8662 6.45866 10.8662 7.38379ZM17.8564 7.24023C17.8564 6.10547 18.1253 5.19401 18.6631 4.50586C19.2008 3.81315 19.9049 3.4668 20.7754 3.4668C21.6413 3.4668 22.3271 3.76302 22.833 4.35547V0.5H24.0977V11H22.9355L22.874 10.207C22.3682 10.8268 21.6641 11.1367 20.7617 11.1367C19.9049 11.1367 19.2054 10.7858 18.6631 10.084C18.1253 9.38216 17.8564 8.46615 17.8564 7.33594V7.24023ZM19.1211 7.38379C19.1211 8.22233 19.2943 8.87858 19.6406 9.35254C19.987 9.8265 20.4655 10.0635 21.0762 10.0635C21.8783 10.0635 22.4639 9.70345 22.833 8.9834V5.58594C22.4548 4.88867 21.8737 4.54004 21.0898 4.54004C20.4701 4.54004 19.987 4.7793 19.6406 5.25781C19.2943 5.73633 19.1211 6.44499 19.1211 7.38379ZM28.7363 9.14746L30.459 3.60352H31.8125L28.8389 12.1416C28.3786 13.3721 27.6471 13.9873 26.6445 13.9873L26.4053 13.9668L25.9336 13.8779V12.8525L26.2754 12.8799C26.7038 12.8799 27.0365 12.7933 27.2734 12.6201C27.515 12.4469 27.7132 12.1302 27.8682 11.6699L28.1484 10.918L25.5098 3.60352H26.8906L28.7363 9.14746ZM43.3115 11H36.79V10.0908L40.2354 6.2627C40.7458 5.68392 41.0967 5.21452 41.2881 4.85449C41.484 4.48991 41.582 4.11393 41.582 3.72656C41.582 3.20703 41.4248 2.78092 41.1104 2.44824C40.7959 2.11556 40.3766 1.94922 39.8525 1.94922C39.2236 1.94922 38.7337 2.12923 38.3828 2.48926C38.0365 2.84473 37.8633 3.34147 37.8633 3.97949H36.5986C36.5986 3.06348 36.8926 2.32292 37.4805 1.75781C38.0729 1.19271 38.8636 0.910156 39.8525 0.910156C40.7777 0.910156 41.5091 1.15397 42.0469 1.6416C42.5846 2.12467 42.8535 2.76953 42.8535 3.57617C42.8535 4.55599 42.2292 5.72266 40.9805 7.07617L38.3145 9.96777H43.3115V11ZM44.9902 10.3369C44.9902 10.1182 45.054 9.93587 45.1816 9.79004C45.3138 9.64421 45.5098 9.57129 45.7695 9.57129C46.0293 9.57129 46.2253 9.64421 46.3574 9.79004C46.4941 9.93587 46.5625 10.1182 46.5625 10.3369C46.5625 10.5465 46.4941 10.722 46.3574 10.8633C46.2253 11.0046 46.0293 11.0752 45.7695 11.0752C45.5098 11.0752 45.3138 11.0046 45.1816 10.8633C45.054 10.722 44.9902 10.5465 44.9902 10.3369ZM44.9971 4.30078C44.9971 4.08203 45.0609 3.89974 45.1885 3.75391C45.3206 3.60807 45.5166 3.53516 45.7764 3.53516C46.0361 3.53516 46.2321 3.60807 46.3643 3.75391C46.501 3.89974 46.5693 4.08203 46.5693 4.30078C46.5693 4.51042 46.501 4.68587 46.3643 4.82715C46.2321 4.96842 46.0361 5.03906 45.7764 5.03906C45.5166 5.03906 45.3206 4.96842 45.1885 4.82715C45.0609 4.68587 44.9971 4.51042 44.9971 4.30078ZM53.9121 9.92676H58.6289V11H52.5928V1.04688H53.9121V9.92676ZM59.8428 7.2334C59.8428 6.50879 59.984 5.8571 60.2666 5.27832C60.5537 4.69954 60.9502 4.25293 61.4561 3.93848C61.9665 3.62402 62.5475 3.4668 63.1992 3.4668C64.2064 3.4668 65.0199 3.81543 65.6396 4.5127C66.264 5.20996 66.5762 6.13737 66.5762 7.29492V7.38379C66.5762 8.10384 66.4372 8.75098 66.1592 9.3252C65.8857 9.89486 65.4915 10.3392 64.9766 10.6582C64.4661 10.9772 63.8783 11.1367 63.2129 11.1367C62.2103 11.1367 61.3968 10.7881 60.7725 10.0908C60.1527 9.39355 59.8428 8.4707 59.8428 7.32227V7.2334ZM61.1143 7.38379C61.1143 8.2041 61.3034 8.86263 61.6816 9.35938C62.0645 9.85612 62.5749 10.1045 63.2129 10.1045C63.8555 10.1045 64.3659 9.85384 64.7441 9.35254C65.1224 8.84668 65.3115 8.1403 65.3115 7.2334C65.3115 6.4222 65.1178 5.76595 64.7305 5.26465C64.3477 4.75879 63.8372 4.50586 63.1992 4.50586C62.5749 4.50586 62.0713 4.75423 61.6885 5.25098C61.3057 5.74772 61.1143 6.45866 61.1143 7.38379ZM71.9873 4.73828C71.7959 4.70638 71.5885 4.69043 71.3652 4.69043C70.5358 4.69043 69.973 5.04362 69.6768 5.75V11H68.4121V3.60352H69.6426L69.6631 4.45801C70.0778 3.7972 70.6657 3.4668 71.4268 3.4668C71.6729 3.4668 71.8597 3.4987 71.9873 3.5625V4.73828ZM76.3389 11.1367C75.3363 11.1367 74.5205 10.8086 73.8916 10.1523C73.2627 9.49154 72.9482 8.6097 72.9482 7.50684V7.27441C72.9482 6.54069 73.0872 5.88672 73.3652 5.3125C73.6478 4.73372 74.0397 4.28255 74.541 3.95898C75.0469 3.63086 75.5938 3.4668 76.1816 3.4668C77.1432 3.4668 77.8906 3.78353 78.4238 4.41699C78.957 5.05046 79.2236 5.95736 79.2236 7.1377V7.66406H74.2129C74.2311 8.39323 74.443 8.9834 74.8486 9.43457C75.2588 9.88118 75.7783 10.1045 76.4072 10.1045C76.8538 10.1045 77.2321 10.0133 77.542 9.83105C77.8519 9.64876 78.123 9.40723 78.3555 9.10645L79.1279 9.70801C78.5081 10.6605 77.5785 11.1367 76.3389 11.1367ZM76.1816 4.50586C75.6712 4.50586 75.2428 4.69271 74.8965 5.06641C74.5501 5.43555 74.3359 5.95508 74.2539 6.625H77.959V6.5293C77.9225 5.88672 77.7493 5.38997 77.4395 5.03906C77.1296 4.68359 76.7103 4.50586 76.1816 4.50586ZM82.1328 3.60352L82.167 4.42383C82.7093 3.78581 83.4408 3.4668 84.3613 3.4668C85.3958 3.4668 86.0999 3.86328 86.4736 4.65625C86.7197 4.30078 87.0387 4.01367 87.4307 3.79492C87.8271 3.57617 88.2943 3.4668 88.832 3.4668C90.4544 3.4668 91.2793 4.32585 91.3066 6.04395V11H90.042V6.11914C90.042 5.59049 89.9212 5.19629 89.6797 4.93652C89.4382 4.6722 89.0326 4.54004 88.4629 4.54004C87.9935 4.54004 87.6038 4.68132 87.2939 4.96387C86.984 5.24186 86.804 5.61784 86.7539 6.0918V11H85.4824V6.15332C85.4824 5.0778 84.9561 4.54004 83.9033 4.54004C83.0739 4.54004 82.5065 4.89323 82.2012 5.59961V11H80.9365V3.60352H82.1328ZM98.5674 11H97.3027V3.60352H98.5674V11ZM97.2002 1.6416C97.2002 1.43652 97.2617 1.26335 97.3848 1.12207C97.5124 0.980794 97.6992 0.910156 97.9453 0.910156C98.1914 0.910156 98.3783 0.980794 98.5059 1.12207C98.6335 1.26335 98.6973 1.43652 98.6973 1.6416C98.6973 1.84668 98.6335 2.01758 98.5059 2.1543C98.3783 2.29102 98.1914 2.35938 97.9453 2.35938C97.6992 2.35938 97.5124 2.29102 97.3848 2.1543C97.2617 2.01758 97.2002 1.84668 97.2002 1.6416ZM107.096 7.38379C107.096 8.50944 106.838 9.41634 106.323 10.1045C105.808 10.7926 105.111 11.1367 104.231 11.1367C103.334 11.1367 102.627 10.8519 102.112 10.2822V13.8438H100.848V3.60352H102.003L102.064 4.42383C102.579 3.78581 103.295 3.4668 104.211 3.4668C105.1 3.4668 105.801 3.80176 106.316 4.47168C106.836 5.1416 107.096 6.07357 107.096 7.26758V7.38379ZM105.831 7.24023C105.831 6.40625 105.653 5.74772 105.298 5.26465C104.942 4.78158 104.455 4.54004 103.835 4.54004C103.069 4.54004 102.495 4.87956 102.112 5.55859V9.09277C102.491 9.76725 103.069 10.1045 103.849 10.1045C104.455 10.1045 104.936 9.86523 105.291 9.38672C105.651 8.90365 105.831 8.18815 105.831 7.24023ZM113.266 9.03809C113.266 8.69629 113.136 8.43197 112.876 8.24512C112.621 8.05371 112.172 7.88965 111.529 7.75293C110.891 7.61621 110.383 7.45215 110.005 7.26074C109.631 7.06934 109.353 6.84147 109.171 6.57715C108.993 6.31283 108.904 5.99837 108.904 5.63379C108.904 5.02767 109.16 4.51497 109.67 4.0957C110.185 3.67643 110.841 3.4668 111.639 3.4668C112.477 3.4668 113.156 3.68327 113.676 4.11621C114.2 4.54915 114.462 5.10286 114.462 5.77734H113.19C113.19 5.43099 113.042 5.13249 112.746 4.88184C112.454 4.63118 112.085 4.50586 111.639 4.50586C111.178 4.50586 110.818 4.60612 110.559 4.80664C110.299 5.00716 110.169 5.26921 110.169 5.59277C110.169 5.89811 110.29 6.12826 110.531 6.2832C110.773 6.43815 111.208 6.58626 111.837 6.72754C112.47 6.86882 112.983 7.03743 113.375 7.2334C113.767 7.42936 114.056 7.66634 114.243 7.94434C114.435 8.21777 114.53 8.55273 114.53 8.94922C114.53 9.61003 114.266 10.141 113.737 10.542C113.209 10.9385 112.523 11.1367 111.68 11.1367C111.087 11.1367 110.563 11.0319 110.107 10.8223C109.652 10.6126 109.294 10.321 109.034 9.94727C108.779 9.56901 108.651 9.16113 108.651 8.72363H109.916C109.939 9.14746 110.107 9.4847 110.422 9.73535C110.741 9.98145 111.16 10.1045 111.68 10.1045C112.158 10.1045 112.541 10.0088 112.828 9.81738C113.12 9.62142 113.266 9.36165 113.266 9.03809ZM120.994 10.2686C120.502 10.8473 119.78 11.1367 118.827 11.1367C118.039 11.1367 117.437 10.9089 117.022 10.4531C116.612 9.99284 116.405 9.3138 116.4 8.41602V3.60352H117.665V8.38184C117.665 9.50293 118.121 10.0635 119.032 10.0635C119.998 10.0635 120.641 9.70345 120.96 8.9834V3.60352H122.225V11H121.021L120.994 10.2686ZM125.592 3.60352L125.626 4.42383C126.168 3.78581 126.9 3.4668 127.82 3.4668C128.855 3.4668 129.559 3.86328 129.933 4.65625C130.179 4.30078 130.498 4.01367 130.89 3.79492C131.286 3.57617 131.753 3.4668 132.291 3.4668C133.913 3.4668 134.738 4.32585 134.766 6.04395V11H133.501V6.11914C133.501 5.59049 133.38 5.19629 133.139 4.93652C132.897 4.6722 132.492 4.54004 131.922 4.54004C131.452 4.54004 131.063 4.68132 130.753 4.96387C130.443 5.24186 130.263 5.61784 130.213 6.0918V11H128.941V6.15332C128.941 5.0778 128.415 4.54004 127.362 4.54004C126.533 4.54004 125.965 4.89323 125.66 5.59961V11H124.396V3.60352H125.592ZM140.345 7.24023C140.345 6.10547 140.614 5.19401 141.151 4.50586C141.689 3.81315 142.393 3.4668 143.264 3.4668C144.13 3.4668 144.815 3.76302 145.321 4.35547V0.5H146.586V11H145.424L145.362 10.207C144.856 10.8268 144.152 11.1367 143.25 11.1367C142.393 11.1367 141.694 10.7858 141.151 10.084C140.614 9.38216 140.345 8.46615 140.345 7.33594V7.24023ZM141.609 7.38379C141.609 8.22233 141.783 8.87858 142.129 9.35254C142.475 9.8265 142.954 10.0635 143.564 10.0635C144.367 10.0635 144.952 9.70345 145.321 8.9834V5.58594C144.943 4.88867 144.362 4.54004 143.578 4.54004C142.958 4.54004 142.475 4.7793 142.129 5.25781C141.783 5.73633 141.609 6.44499 141.609 7.38379ZM148.47 7.2334C148.47 6.50879 148.611 5.8571 148.894 5.27832C149.181 4.69954 149.577 4.25293 150.083 3.93848C150.593 3.62402 151.174 3.4668 151.826 3.4668C152.833 3.4668 153.647 3.81543 154.267 4.5127C154.891 5.20996 155.203 6.13737 155.203 7.29492V7.38379C155.203 8.10384 155.064 8.75098 154.786 9.3252C154.513 9.89486 154.118 10.3392 153.604 10.6582C153.093 10.9772 152.505 11.1367 151.84 11.1367C150.837 11.1367 150.024 10.7881 149.399 10.0908C148.78 9.39355 148.47 8.4707 148.47 7.32227V7.2334ZM149.741 7.38379C149.741 8.2041 149.93 8.86263 150.309 9.35938C150.691 9.85612 151.202 10.1045 151.84 10.1045C152.482 10.1045 152.993 9.85384 153.371 9.35254C153.749 8.84668 153.938 8.1403 153.938 7.2334C153.938 6.4222 153.745 5.76595 153.357 5.26465C152.975 4.75879 152.464 4.50586 151.826 4.50586C151.202 4.50586 150.698 4.75423 150.315 5.25098C149.933 5.74772 149.741 6.45866 149.741 7.38379ZM158.413 11H157.148V0.5H158.413V11ZM160.358 7.2334C160.358 6.50879 160.5 5.8571 160.782 5.27832C161.069 4.69954 161.466 4.25293 161.972 3.93848C162.482 3.62402 163.063 3.4668 163.715 3.4668C164.722 3.4668 165.535 3.81543 166.155 4.5127C166.78 5.20996 167.092 6.13737 167.092 7.29492V7.38379C167.092 8.10384 166.953 8.75098 166.675 9.3252C166.401 9.89486 166.007 10.3392 165.492 10.6582C164.982 10.9772 164.394 11.1367 163.729 11.1367C162.726 11.1367 161.912 10.7881 161.288 10.0908C160.668 9.39355 160.358 8.4707 160.358 7.32227V7.2334ZM161.63 7.38379C161.63 8.2041 161.819 8.86263 162.197 9.35938C162.58 9.85612 163.09 10.1045 163.729 10.1045C164.371 10.1045 164.882 9.85384 165.26 9.35254C165.638 8.84668 165.827 8.1403 165.827 7.2334C165.827 6.4222 165.633 5.76595 165.246 5.26465C164.863 4.75879 164.353 4.50586 163.715 4.50586C163.09 4.50586 162.587 4.75423 162.204 5.25098C161.821 5.74772 161.63 6.45866 161.63 7.38379ZM172.503 4.73828C172.312 4.70638 172.104 4.69043 171.881 4.69043C171.051 4.69043 170.489 5.04362 170.192 5.75V11H168.928V3.60352H170.158L170.179 4.45801C170.593 3.7972 171.181 3.4668 171.942 3.4668C172.188 3.4668 172.375 3.4987 172.503 3.5625V4.73828ZM181.951 9.03809C181.951 8.69629 181.821 8.43197 181.562 8.24512C181.306 8.05371 180.857 7.88965 180.215 7.75293C179.577 7.61621 179.069 7.45215 178.69 7.26074C178.317 7.06934 178.039 6.84147 177.856 6.57715C177.679 6.31283 177.59 5.99837 177.59 5.63379C177.59 5.02767 177.845 4.51497 178.355 4.0957C178.87 3.67643 179.527 3.4668 180.324 3.4668C181.163 3.4668 181.842 3.68327 182.361 4.11621C182.885 4.54915 183.147 5.10286 183.147 5.77734H181.876C181.876 5.43099 181.728 5.13249 181.432 4.88184C181.14 4.63118 180.771 4.50586 180.324 4.50586C179.864 4.50586 179.504 4.60612 179.244 4.80664C178.984 5.00716 178.854 5.26921 178.854 5.59277C178.854 5.89811 178.975 6.12826 179.217 6.2832C179.458 6.43815 179.894 6.58626 180.522 6.72754C181.156 6.86882 181.669 7.03743 182.061 7.2334C182.452 7.42936 182.742 7.66634 182.929 7.94434C183.12 8.21777 183.216 8.55273 183.216 8.94922C183.216 9.61003 182.951 10.141 182.423 10.542C181.894 10.9385 181.208 11.1367 180.365 11.1367C179.773 11.1367 179.249 11.0319 178.793 10.8223C178.337 10.6126 177.979 10.321 177.72 9.94727C177.465 9.56901 177.337 9.16113 177.337 8.72363H178.602C178.624 9.14746 178.793 9.4847 179.107 9.73535C179.426 9.98145 179.846 10.1045 180.365 10.1045C180.844 10.1045 181.227 10.0088 181.514 9.81738C181.805 9.62142 181.951 9.36165 181.951 9.03809ZM186.487 11H185.223V3.60352H186.487V11ZM185.12 1.6416C185.12 1.43652 185.182 1.26335 185.305 1.12207C185.432 0.980794 185.619 0.910156 185.865 0.910156C186.111 0.910156 186.298 0.980794 186.426 1.12207C186.553 1.26335 186.617 1.43652 186.617 1.6416C186.617 1.84668 186.553 2.01758 186.426 2.1543C186.298 2.29102 186.111 2.35938 185.865 2.35938C185.619 2.35938 185.432 2.29102 185.305 2.1543C185.182 2.01758 185.12 1.84668 185.12 1.6416ZM190.483 1.8125V3.60352H191.864V4.58105H190.483V9.16797C190.483 9.46419 190.545 9.6875 190.668 9.83789C190.791 9.98372 191.001 10.0566 191.297 10.0566C191.443 10.0566 191.643 10.0293 191.898 9.97461V11C191.566 11.0911 191.242 11.1367 190.928 11.1367C190.363 11.1367 189.937 10.9658 189.649 10.624C189.362 10.2822 189.219 9.79688 189.219 9.16797V4.58105H187.872V3.60352H189.219V1.8125H190.483ZM5.52344 31C5.45052 30.8542 5.39128 30.5944 5.3457 30.2207C4.75781 30.8314 4.05599 31.1367 3.24023 31.1367C2.51107 31.1367 1.91178 30.9316 1.44238 30.5215C0.977539 30.1068 0.745117 29.5827 0.745117 28.9492C0.745117 28.179 1.03678 27.582 1.62012 27.1582C2.20801 26.7298 3.03288 26.5156 4.09473 26.5156H5.3252V25.9346C5.3252 25.4925 5.19303 25.1416 4.92871 24.8818C4.66439 24.6175 4.27474 24.4854 3.75977 24.4854C3.30859 24.4854 2.93034 24.5993 2.625 24.8271C2.31966 25.055 2.16699 25.3307 2.16699 25.6543H0.895508C0.895508 25.2852 1.02539 24.9297 1.28516 24.5879C1.54948 24.2415 1.90495 23.9681 2.35156 23.7676C2.80273 23.5671 3.2972 23.4668 3.83496 23.4668C4.68717 23.4668 5.35482 23.681 5.83789 24.1094C6.32096 24.5332 6.57161 25.1188 6.58984 25.8662V29.2705C6.58984 29.9495 6.67643 30.4896 6.84961 30.8906V31H5.52344ZM3.4248 30.0361C3.82129 30.0361 4.19727 29.9336 4.55273 29.7285C4.9082 29.5234 5.16569 29.2568 5.3252 28.9287V27.4111H4.33398C2.78451 27.4111 2.00977 27.8646 2.00977 28.7715C2.00977 29.168 2.14193 29.4779 2.40625 29.7012C2.67057 29.9245 3.01009 30.0361 3.4248 30.0361ZM10.0117 23.6035L10.0459 24.4238C10.5882 23.7858 11.3197 23.4668 12.2402 23.4668C13.2747 23.4668 13.9788 23.8633 14.3525 24.6562C14.5986 24.3008 14.9176 24.0137 15.3096 23.7949C15.7061 23.5762 16.1732 23.4668 16.7109 23.4668C18.3333 23.4668 19.1582 24.3258 19.1855 26.0439V31H17.9209V26.1191C17.9209 25.5905 17.8001 25.1963 17.5586 24.9365C17.3171 24.6722 16.9115 24.54 16.3418 24.54C15.8724 24.54 15.4827 24.6813 15.1729 24.9639C14.863 25.2419 14.6829 25.6178 14.6328 26.0918V31H13.3613V26.1533C13.3613 25.0778 12.835 24.54 11.7822 24.54C10.9528 24.54 10.3854 24.8932 10.0801 25.5996V31H8.81543V23.6035H10.0117ZM24.4189 31.1367C23.4163 31.1367 22.6006 30.8086 21.9717 30.1523C21.3428 29.4915 21.0283 28.6097 21.0283 27.5068V27.2744C21.0283 26.5407 21.1673 25.8867 21.4453 25.3125C21.7279 24.7337 22.1198 24.2826 22.6211 23.959C23.127 23.6309 23.6738 23.4668 24.2617 23.4668C25.2233 23.4668 25.9707 23.7835 26.5039 24.417C27.0371 25.0505 27.3037 25.9574 27.3037 27.1377V27.6641H22.293C22.3112 28.3932 22.5231 28.9834 22.9287 29.4346C23.3389 29.8812 23.8584 30.1045 24.4873 30.1045C24.9339 30.1045 25.3122 30.0133 25.6221 29.8311C25.932 29.6488 26.2031 29.4072 26.4355 29.1064L27.208 29.708C26.5882 30.6605 25.6585 31.1367 24.4189 31.1367ZM24.2617 24.5059C23.7513 24.5059 23.3229 24.6927 22.9766 25.0664C22.6302 25.4355 22.416 25.9551 22.334 26.625H26.0391V26.5293C26.0026 25.8867 25.8294 25.39 25.5195 25.0391C25.2096 24.6836 24.7904 24.5059 24.2617 24.5059ZM30.7393 21.8125V23.6035H32.1201V24.5811H30.7393V29.168C30.7393 29.4642 30.8008 29.6875 30.9238 29.8379C31.0469 29.9837 31.2565 30.0566 31.5527 30.0566C31.6986 30.0566 31.8991 30.0293 32.1543 29.9746V31C31.8216 31.0911 31.498 31.1367 31.1836 31.1367C30.6185 31.1367 30.1924 30.9658 29.9053 30.624C29.6182 30.2822 29.4746 29.7969 29.4746 29.168V24.5811H28.1279V23.6035H29.4746V21.8125H30.7393ZM33.8125 32.9824L33.0947 32.4902C33.5231 31.8932 33.7464 31.278 33.7646 30.6445V29.5029H35.002V30.4941C35.002 30.9544 34.888 31.4147 34.6602 31.875C34.4368 32.3353 34.1543 32.7044 33.8125 32.9824ZM43.541 30.1045C43.9922 30.1045 44.3864 29.9678 44.7236 29.6943C45.0609 29.4209 45.2477 29.0791 45.2842 28.6689H46.4805C46.4577 29.0928 46.3118 29.4961 46.043 29.8789C45.7741 30.2617 45.4141 30.5671 44.9629 30.7949C44.5163 31.0228 44.0423 31.1367 43.541 31.1367C42.5339 31.1367 41.7318 30.8018 41.1348 30.1318C40.5423 29.4574 40.2461 28.5368 40.2461 27.3701V27.1582C40.2461 26.4382 40.3783 25.7979 40.6426 25.2373C40.9069 24.6768 41.2852 24.2415 41.7773 23.9316C42.2741 23.6217 42.8597 23.4668 43.5342 23.4668C44.3636 23.4668 45.0518 23.7152 45.5986 24.2119C46.1501 24.7087 46.444 25.3535 46.4805 26.1465H45.2842C45.2477 25.668 45.0654 25.276 44.7373 24.9707C44.4137 24.6608 44.0127 24.5059 43.5342 24.5059C42.8916 24.5059 42.3926 24.7383 42.0371 25.2031C41.6862 25.6634 41.5107 26.3311 41.5107 27.2061V27.4453C41.5107 28.2975 41.6862 28.9538 42.0371 29.4141C42.388 29.8743 42.8893 30.1045 43.541 30.1045ZM47.8174 27.2334C47.8174 26.5088 47.9587 25.8571 48.2412 25.2783C48.5283 24.6995 48.9248 24.2529 49.4307 23.9385C49.9411 23.624 50.5221 23.4668 51.1738 23.4668C52.181 23.4668 52.9945 23.8154 53.6143 24.5127C54.2386 25.21 54.5508 26.1374 54.5508 27.2949V27.3838C54.5508 28.1038 54.4118 28.751 54.1338 29.3252C53.8604 29.8949 53.4661 30.3392 52.9512 30.6582C52.4408 30.9772 51.8529 31.1367 51.1875 31.1367C50.1849 31.1367 49.3714 30.7881 48.7471 30.0908C48.1273 29.3936 47.8174 28.4707 47.8174 27.3223V27.2334ZM49.0889 27.3838C49.0889 28.2041 49.278 28.8626 49.6562 29.3594C50.0391 29.8561 50.5495 30.1045 51.1875 30.1045C51.8301 30.1045 52.3405 29.8538 52.7188 29.3525C53.097 28.8467 53.2861 28.1403 53.2861 27.2334C53.2861 26.4222 53.0924 25.766 52.7051 25.2646C52.3223 24.7588 51.8118 24.5059 51.1738 24.5059C50.5495 24.5059 50.0459 24.7542 49.6631 25.251C49.2803 25.7477 49.0889 26.4587 49.0889 27.3838ZM57.583 23.6035L57.624 24.5332C58.1891 23.8223 58.9274 23.4668 59.8389 23.4668C61.402 23.4668 62.1904 24.3486 62.2041 26.1123V31H60.9395V26.1055C60.9349 25.5723 60.8118 25.1781 60.5703 24.9229C60.3333 24.6676 59.9619 24.54 59.4561 24.54C59.0459 24.54 58.6859 24.6494 58.376 24.8682C58.0661 25.0869 57.8245 25.374 57.6514 25.7295V31H56.3867V23.6035H57.583ZM68.668 29.0381C68.668 28.6963 68.5381 28.432 68.2783 28.2451C68.0231 28.0537 67.5742 27.8896 66.9316 27.7529C66.2936 27.6162 65.7855 27.4521 65.4072 27.2607C65.0335 27.0693 64.7555 26.8415 64.5732 26.5771C64.3955 26.3128 64.3066 25.9984 64.3066 25.6338C64.3066 25.0277 64.5618 24.515 65.0723 24.0957C65.5872 23.6764 66.2435 23.4668 67.041 23.4668C67.8796 23.4668 68.5586 23.6833 69.0781 24.1162C69.6022 24.5492 69.8643 25.1029 69.8643 25.7773H68.5928C68.5928 25.431 68.4447 25.1325 68.1484 24.8818C67.8568 24.6312 67.4876 24.5059 67.041 24.5059C66.5807 24.5059 66.2207 24.6061 65.9609 24.8066C65.7012 25.0072 65.5713 25.2692 65.5713 25.5928C65.5713 25.8981 65.6921 26.1283 65.9336 26.2832C66.1751 26.4382 66.6104 26.5863 67.2393 26.7275C67.8727 26.8688 68.3854 27.0374 68.7773 27.2334C69.1693 27.4294 69.4587 27.6663 69.6455 27.9443C69.8369 28.2178 69.9326 28.5527 69.9326 28.9492C69.9326 29.61 69.6683 30.141 69.1396 30.542C68.611 30.9385 67.9251 31.1367 67.082 31.1367C66.4896 31.1367 65.9655 31.0319 65.5098 30.8223C65.054 30.6126 64.6963 30.321 64.4365 29.9473C64.1813 29.569 64.0537 29.1611 64.0537 28.7236H65.3184C65.3411 29.1475 65.5098 29.4847 65.8242 29.7354C66.1432 29.9814 66.5625 30.1045 67.082 30.1045C67.5605 30.1045 67.9434 30.0088 68.2305 29.8174C68.5221 29.6214 68.668 29.3617 68.668 29.0381ZM74.8994 31.1367C73.8968 31.1367 73.0811 30.8086 72.4521 30.1523C71.8232 29.4915 71.5088 28.6097 71.5088 27.5068V27.2744C71.5088 26.5407 71.6478 25.8867 71.9258 25.3125C72.2083 24.7337 72.6003 24.2826 73.1016 23.959C73.6074 23.6309 74.1543 23.4668 74.7422 23.4668C75.7038 23.4668 76.4512 23.7835 76.9844 24.417C77.5176 25.0505 77.7842 25.9574 77.7842 27.1377V27.6641H72.7734C72.7917 28.3932 73.0036 28.9834 73.4092 29.4346C73.8193 29.8812 74.3389 30.1045 74.9678 30.1045C75.4144 30.1045 75.7926 30.0133 76.1025 29.8311C76.4124 29.6488 76.6836 29.4072 76.916 29.1064L77.6885 29.708C77.0687 30.6605 76.139 31.1367 74.8994 31.1367ZM74.7422 24.5059C74.2318 24.5059 73.8034 24.6927 73.457 25.0664C73.1107 25.4355 72.8965 25.9551 72.8145 26.625H76.5195V26.5293C76.4831 25.8867 76.3099 25.39 76 25.0391C75.6901 24.6836 75.2708 24.5059 74.7422 24.5059ZM82.4707 30.1045C82.9219 30.1045 83.3161 29.9678 83.6533 29.6943C83.9906 29.4209 84.1774 29.0791 84.2139 28.6689H85.4102C85.3874 29.0928 85.2415 29.4961 84.9727 29.8789C84.7038 30.2617 84.3438 30.5671 83.8926 30.7949C83.446 31.0228 82.972 31.1367 82.4707 31.1367C81.4635 31.1367 80.6615 30.8018 80.0645 30.1318C79.472 29.4574 79.1758 28.5368 79.1758 27.3701V27.1582C79.1758 26.4382 79.3079 25.7979 79.5723 25.2373C79.8366 24.6768 80.2148 24.2415 80.707 23.9316C81.2038 23.6217 81.7894 23.4668 82.4639 23.4668C83.2933 23.4668 83.9814 23.7152 84.5283 24.2119C85.0798 24.7087 85.3737 25.3535 85.4102 26.1465H84.2139C84.1774 25.668 83.9951 25.276 83.667 24.9707C83.3434 24.6608 82.9424 24.5059 82.4639 24.5059C81.8213 24.5059 81.3223 24.7383 80.9668 25.2031C80.6159 25.6634 80.4404 26.3311 80.4404 27.2061V27.4453C80.4404 28.2975 80.6159 28.9538 80.9668 29.4141C81.3177 29.8743 81.819 30.1045 82.4707 30.1045ZM88.7979 21.8125V23.6035H90.1787V24.5811H88.7979V29.168C88.7979 29.4642 88.8594 29.6875 88.9824 29.8379C89.1055 29.9837 89.3151 30.0566 89.6113 30.0566C89.7572 30.0566 89.9577 30.0293 90.2129 29.9746V31C89.8802 31.0911 89.5566 31.1367 89.2422 31.1367C88.6771 31.1367 88.251 30.9658 87.9639 30.624C87.6768 30.2822 87.5332 29.7969 87.5332 29.168V24.5811H86.1865V23.6035H87.5332V21.8125H88.7979ZM94.9814 31.1367C93.9788 31.1367 93.1631 30.8086 92.5342 30.1523C91.9053 29.4915 91.5908 28.6097 91.5908 27.5068V27.2744C91.5908 26.5407 91.7298 25.8867 92.0078 25.3125C92.2904 24.7337 92.6823 24.2826 93.1836 23.959C93.6895 23.6309 94.2363 23.4668 94.8242 23.4668C95.7858 23.4668 96.5332 23.7835 97.0664 24.417C97.5996 25.0505 97.8662 25.9574 97.8662 27.1377V27.6641H92.8555C92.8737 28.3932 93.0856 28.9834 93.4912 29.4346C93.9014 29.8812 94.4209 30.1045 95.0498 30.1045C95.4964 30.1045 95.8747 30.0133 96.1846 29.8311C96.4945 29.6488 96.7656 29.4072 96.998 29.1064L97.7705 29.708C97.1507 30.6605 96.221 31.1367 94.9814 31.1367ZM94.8242 24.5059C94.3138 24.5059 93.8854 24.6927 93.5391 25.0664C93.1927 25.4355 92.9785 25.9551 92.8965 26.625H96.6016V26.5293C96.5651 25.8867 96.3919 25.39 96.082 25.0391C95.7721 24.6836 95.3529 24.5059 94.8242 24.5059ZM101.302 21.8125V23.6035H102.683V24.5811H101.302V29.168C101.302 29.4642 101.363 29.6875 101.486 29.8379C101.609 29.9837 101.819 30.0566 102.115 30.0566C102.261 30.0566 102.462 30.0293 102.717 29.9746V31C102.384 31.0911 102.061 31.1367 101.746 31.1367C101.181 31.1367 100.755 30.9658 100.468 30.624C100.181 30.2822 100.037 29.7969 100.037 29.168V24.5811H98.6904V23.6035H100.037V21.8125H101.302ZM108.982 30.2686C108.49 30.8473 107.768 31.1367 106.815 31.1367C106.027 31.1367 105.425 30.9089 105.011 30.4531C104.601 29.9928 104.393 29.3138 104.389 28.416V23.6035H105.653V28.3818C105.653 29.5029 106.109 30.0635 107.021 30.0635C107.987 30.0635 108.629 29.7035 108.948 28.9834V23.6035H110.213V31H109.01L108.982 30.2686ZM115.966 24.7383C115.774 24.7064 115.567 24.6904 115.344 24.6904C114.514 24.6904 113.951 25.0436 113.655 25.75V31H112.391V23.6035H113.621L113.642 24.458C114.056 23.7972 114.644 23.4668 115.405 23.4668C115.651 23.4668 115.838 23.4987 115.966 23.5625V24.7383ZM125.674 31C125.601 30.8542 125.542 30.5944 125.496 30.2207C124.908 30.8314 124.206 31.1367 123.391 31.1367C122.661 31.1367 122.062 30.9316 121.593 30.5215C121.128 30.1068 120.896 29.5827 120.896 28.9492C120.896 28.179 121.187 27.582 121.771 27.1582C122.358 26.7298 123.183 26.5156 124.245 26.5156H125.476V25.9346C125.476 25.4925 125.343 25.1416 125.079 24.8818C124.815 24.6175 124.425 24.4854 123.91 24.4854C123.459 24.4854 123.081 24.5993 122.775 24.8271C122.47 25.055 122.317 25.3307 122.317 25.6543H121.046C121.046 25.2852 121.176 24.9297 121.436 24.5879C121.7 24.2415 122.055 23.9681 122.502 23.7676C122.953 23.5671 123.448 23.4668 123.985 23.4668C124.838 23.4668 125.505 23.681 125.988 24.1094C126.471 24.5332 126.722 25.1188 126.74 25.8662V29.2705C126.74 29.9495 126.827 30.4896 127 30.8906V31H125.674ZM123.575 30.0361C123.972 30.0361 124.348 29.9336 124.703 29.7285C125.059 29.5234 125.316 29.2568 125.476 28.9287V27.4111H124.484C122.935 27.4111 122.16 27.8646 122.16 28.7715C122.16 29.168 122.292 29.4779 122.557 29.7012C122.821 29.9245 123.16 30.0361 123.575 30.0361ZM128.665 27.2402C128.665 26.1055 128.934 25.194 129.472 24.5059C130.009 23.8132 130.714 23.4668 131.584 23.4668C132.45 23.4668 133.136 23.763 133.642 24.3555V20.5H134.906V31H133.744L133.683 30.207C133.177 30.8268 132.473 31.1367 131.57 31.1367C130.714 31.1367 130.014 30.7858 129.472 30.084C128.934 29.3822 128.665 28.4661 128.665 27.3359V27.2402ZM129.93 27.3838C129.93 28.2223 130.103 28.8786 130.449 29.3525C130.796 29.8265 131.274 30.0635 131.885 30.0635C132.687 30.0635 133.272 29.7035 133.642 28.9834V25.5859C133.263 24.8887 132.682 24.54 131.898 24.54C131.279 24.54 130.796 24.7793 130.449 25.2578C130.103 25.7363 129.93 26.445 129.93 27.3838ZM138.499 31H137.234V23.6035H138.499V31ZM137.132 21.6416C137.132 21.4365 137.193 21.2633 137.316 21.1221C137.444 20.9808 137.631 20.9102 137.877 20.9102C138.123 20.9102 138.31 20.9808 138.438 21.1221C138.565 21.2633 138.629 21.4365 138.629 21.6416C138.629 21.8467 138.565 22.0176 138.438 22.1543C138.31 22.291 138.123 22.3594 137.877 22.3594C137.631 22.3594 137.444 22.291 137.316 22.1543C137.193 22.0176 137.132 21.8467 137.132 21.6416ZM147.027 27.3838C147.027 28.5094 146.77 29.4163 146.255 30.1045C145.74 30.7926 145.043 31.1367 144.163 31.1367C143.265 31.1367 142.559 30.8519 142.044 30.2822V33.8438H140.779V23.6035H141.935L141.996 24.4238C142.511 23.7858 143.227 23.4668 144.143 23.4668C145.031 23.4668 145.733 23.8018 146.248 24.4717C146.768 25.1416 147.027 26.0736 147.027 27.2676V27.3838ZM145.763 27.2402C145.763 26.4062 145.585 25.7477 145.229 25.2646C144.874 24.7816 144.386 24.54 143.767 24.54C143.001 24.54 142.427 24.8796 142.044 25.5586V29.0928C142.422 29.7673 143.001 30.1045 143.78 30.1045C144.386 30.1045 144.867 29.8652 145.223 29.3867C145.583 28.9036 145.763 28.1882 145.763 27.2402ZM150.265 31H149V23.6035H150.265V31ZM148.897 21.6416C148.897 21.4365 148.959 21.2633 149.082 21.1221C149.21 20.9808 149.396 20.9102 149.643 20.9102C149.889 20.9102 150.076 20.9808 150.203 21.1221C150.331 21.2633 150.395 21.4365 150.395 21.6416C150.395 21.8467 150.331 22.0176 150.203 22.1543C150.076 22.291 149.889 22.3594 149.643 22.3594C149.396 22.3594 149.21 22.291 149.082 22.1543C148.959 22.0176 148.897 21.8467 148.897 21.6416ZM156.852 29.0381C156.852 28.6963 156.722 28.432 156.462 28.2451C156.207 28.0537 155.758 27.8896 155.115 27.7529C154.477 27.6162 153.969 27.4521 153.591 27.2607C153.217 27.0693 152.939 26.8415 152.757 26.5771C152.579 26.3128 152.49 25.9984 152.49 25.6338C152.49 25.0277 152.745 24.515 153.256 24.0957C153.771 23.6764 154.427 23.4668 155.225 23.4668C156.063 23.4668 156.742 23.6833 157.262 24.1162C157.786 24.5492 158.048 25.1029 158.048 25.7773H156.776C156.776 25.431 156.628 25.1325 156.332 24.8818C156.04 24.6312 155.671 24.5059 155.225 24.5059C154.764 24.5059 154.404 24.6061 154.145 24.8066C153.885 25.0072 153.755 25.2692 153.755 25.5928C153.755 25.8981 153.876 26.1283 154.117 26.2832C154.359 26.4382 154.794 26.5863 155.423 26.7275C156.056 26.8688 156.569 27.0374 156.961 27.2334C157.353 27.4294 157.642 27.6663 157.829 27.9443C158.021 28.2178 158.116 28.5527 158.116 28.9492C158.116 29.61 157.852 30.141 157.323 30.542C156.795 30.9385 156.109 31.1367 155.266 31.1367C154.673 31.1367 154.149 31.0319 153.693 30.8223C153.238 30.6126 152.88 30.321 152.62 29.9473C152.365 29.569 152.237 29.1611 152.237 28.7236H153.502C153.525 29.1475 153.693 29.4847 154.008 29.7354C154.327 29.9814 154.746 30.1045 155.266 30.1045C155.744 30.1045 156.127 30.0088 156.414 29.8174C156.706 29.6214 156.852 29.3617 156.852 29.0381ZM162.98 30.1045C163.432 30.1045 163.826 29.9678 164.163 29.6943C164.5 29.4209 164.687 29.0791 164.724 28.6689H165.92C165.897 29.0928 165.751 29.4961 165.482 29.8789C165.214 30.2617 164.854 30.5671 164.402 30.7949C163.956 31.0228 163.482 31.1367 162.98 31.1367C161.973 31.1367 161.171 30.8018 160.574 30.1318C159.982 29.4574 159.686 28.5368 159.686 27.3701V27.1582C159.686 26.4382 159.818 25.7979 160.082 25.2373C160.346 24.6768 160.725 24.2415 161.217 23.9316C161.714 23.6217 162.299 23.4668 162.974 23.4668C163.803 23.4668 164.491 23.7152 165.038 24.2119C165.59 24.7087 165.883 25.3535 165.92 26.1465H164.724C164.687 25.668 164.505 25.276 164.177 24.9707C163.853 24.6608 163.452 24.5059 162.974 24.5059C162.331 24.5059 161.832 24.7383 161.477 25.2031C161.126 25.6634 160.95 26.3311 160.95 27.2061V27.4453C160.95 28.2975 161.126 28.9538 161.477 29.4141C161.827 29.8743 162.329 30.1045 162.98 30.1045ZM168.966 31H167.701V23.6035H168.966V31ZM167.599 21.6416C167.599 21.4365 167.66 21.2633 167.783 21.1221C167.911 20.9808 168.098 20.9102 168.344 20.9102C168.59 20.9102 168.777 20.9808 168.904 21.1221C169.032 21.2633 169.096 21.4365 169.096 21.6416C169.096 21.8467 169.032 22.0176 168.904 22.1543C168.777 22.291 168.59 22.3594 168.344 22.3594C168.098 22.3594 167.911 22.291 167.783 22.1543C167.66 22.0176 167.599 21.8467 167.599 21.6416ZM172.442 23.6035L172.483 24.5332C173.049 23.8223 173.787 23.4668 174.698 23.4668C176.261 23.4668 177.05 24.3486 177.063 26.1123V31H175.799V26.1055C175.794 25.5723 175.671 25.1781 175.43 24.9229C175.193 24.6676 174.821 24.54 174.315 24.54C173.905 24.54 173.545 24.6494 173.235 24.8682C172.925 25.0869 172.684 25.374 172.511 25.7295V31H171.246V23.6035H172.442ZM178.92 27.2402C178.92 26.0872 179.187 25.1712 179.72 24.4922C180.253 23.8086 180.959 23.4668 181.839 23.4668C182.741 23.4668 183.445 23.7858 183.951 24.4238L184.013 23.6035H185.168V30.8223C185.168 31.7793 184.883 32.5335 184.313 33.085C183.748 33.6364 182.987 33.9121 182.03 33.9121C181.497 33.9121 180.975 33.7982 180.465 33.5703C179.954 33.3424 179.565 33.0303 179.296 32.6338L179.952 31.875C180.494 32.5449 181.158 32.8799 181.941 32.8799C182.557 32.8799 183.035 32.7067 183.377 32.3604C183.723 32.014 183.896 31.5264 183.896 30.8975V30.2617C183.391 30.8451 182.7 31.1367 181.825 31.1367C180.959 31.1367 180.257 30.7881 179.72 30.0908C179.187 29.3936 178.92 28.4434 178.92 27.2402ZM180.191 27.3838C180.191 28.2178 180.362 28.874 180.704 29.3525C181.046 29.8265 181.524 30.0635 182.14 30.0635C182.937 30.0635 183.523 29.7012 183.896 28.9766V25.5996C183.509 24.8932 182.928 24.54 182.153 24.54C181.538 24.54 181.057 24.7793 180.711 25.2578C180.365 25.7363 180.191 26.445 180.191 27.3838ZM194.124 31.1367C193.121 31.1367 192.306 30.8086 191.677 30.1523C191.048 29.4915 190.733 28.6097 190.733 27.5068V27.2744C190.733 26.5407 190.872 25.8867 191.15 25.3125C191.433 24.7337 191.825 24.2826 192.326 23.959C192.832 23.6309 193.379 23.4668 193.967 23.4668C194.928 23.4668 195.676 23.7835 196.209 24.417C196.742 25.0505 197.009 25.9574 197.009 27.1377V27.6641H191.998C192.016 28.3932 192.228 28.9834 192.634 29.4346C193.044 29.8812 193.563 30.1045 194.192 30.1045C194.639 30.1045 195.017 30.0133 195.327 29.8311C195.637 29.6488 195.908 29.4072 196.141 29.1064L196.913 29.708C196.293 30.6605 195.364 31.1367 194.124 31.1367ZM193.967 24.5059C193.456 24.5059 193.028 24.6927 192.682 25.0664C192.335 25.4355 192.121 25.9551 192.039 26.625H195.744V26.5293C195.708 25.8867 195.535 25.39 195.225 25.0391C194.915 24.6836 194.495 24.5059 193.967 24.5059ZM200.103 31H198.838V20.5H200.103V31ZM203.757 31H202.492V23.6035H203.757V31ZM202.39 21.6416C202.39 21.4365 202.451 21.2633 202.574 21.1221C202.702 20.9808 202.889 20.9102 203.135 20.9102C203.381 20.9102 203.568 20.9808 203.695 21.1221C203.823 21.2633 203.887 21.4365 203.887 21.6416C203.887 21.8467 203.823 22.0176 203.695 22.1543C203.568 22.291 203.381 22.3594 203.135 22.3594C202.889 22.3594 202.702 22.291 202.574 22.1543C202.451 22.0176 202.39 21.8467 202.39 21.6416ZM207.753 21.8125V23.6035H209.134V24.5811H207.753V29.168C207.753 29.4642 207.814 29.6875 207.938 29.8379C208.061 29.9837 208.27 30.0566 208.566 30.0566C208.712 30.0566 208.913 30.0293 209.168 29.9746V31C208.835 31.0911 208.512 31.1367 208.197 31.1367C207.632 31.1367 207.206 30.9658 206.919 30.624C206.632 30.2822 206.488 29.7969 206.488 29.168V24.5811H205.142V23.6035H206.488V21.8125H207.753ZM210.826 32.9824L210.108 32.4902C210.537 31.8932 210.76 31.278 210.778 30.6445V29.5029H212.016V30.4941C212.016 30.9544 211.902 31.4147 211.674 31.875C211.451 32.3353 211.168 32.7044 210.826 32.9824ZM5.26367 49.0381C5.26367 48.6963 5.13379 48.432 4.87402 48.2451C4.61882 48.0537 4.16992 47.8896 3.52734 47.7529C2.88932 47.6162 2.38118 47.4521 2.00293 47.2607C1.62923 47.0693 1.35124 46.8415 1.16895 46.5771C0.991211 46.3128 0.902344 45.9984 0.902344 45.6338C0.902344 45.0277 1.15755 44.515 1.66797 44.0957C2.18294 43.6764 2.83919 43.4668 3.63672 43.4668C4.47526 43.4668 5.1543 43.6833 5.67383 44.1162C6.19792 44.5492 6.45996 45.1029 6.45996 45.7773H5.18848C5.18848 45.431 5.04036 45.1325 4.74414 44.8818C4.45247 44.6312 4.08333 44.5059 3.63672 44.5059C3.17643 44.5059 2.81641 44.6061 2.55664 44.8066C2.29688 45.0072 2.16699 45.2692 2.16699 45.5928C2.16699 45.8981 2.28776 46.1283 2.5293 46.2832C2.77083 46.4382 3.20605 46.5863 3.83496 46.7275C4.46842 46.8688 4.98112 47.0374 5.37305 47.2334C5.76497 47.4294 6.05436 47.6663 6.24121 47.9443C6.43262 48.2178 6.52832 48.5527 6.52832 48.9492C6.52832 49.61 6.264 50.141 5.73535 50.542C5.20671 50.9385 4.52083 51.1367 3.67773 51.1367C3.08529 51.1367 2.5612 51.0319 2.10547 50.8223C1.64974 50.6126 1.29199 50.321 1.03223 49.9473C0.777018 49.569 0.649414 49.1611 0.649414 48.7236H1.91406C1.93685 49.1475 2.10547 49.4847 2.41992 49.7354C2.73893 49.9814 3.1582 50.1045 3.67773 50.1045C4.15625 50.1045 4.53906 50.0088 4.82617 49.8174C5.11784 49.6214 5.26367 49.3617 5.26367 49.0381ZM11.4951 51.1367C10.4925 51.1367 9.67676 50.8086 9.04785 50.1523C8.41895 49.4915 8.10449 48.6097 8.10449 47.5068V47.2744C8.10449 46.5407 8.24349 45.8867 8.52148 45.3125C8.80404 44.7337 9.19596 44.2826 9.69727 43.959C10.2031 43.6309 10.75 43.4668 11.3379 43.4668C12.2995 43.4668 13.0469 43.7835 13.5801 44.417C14.1133 45.0505 14.3799 45.9574 14.3799 47.1377V47.6641H9.36914C9.38737 48.3932 9.59928 48.9834 10.0049 49.4346C10.415 49.8812 10.9346 50.1045 11.5635 50.1045C12.0101 50.1045 12.3883 50.0133 12.6982 49.8311C13.0081 49.6488 13.2793 49.4072 13.5117 49.1064L14.2842 49.708C13.6644 50.6605 12.7347 51.1367 11.4951 51.1367ZM11.3379 44.5059C10.8275 44.5059 10.3991 44.6927 10.0527 45.0664C9.70638 45.4355 9.49219 45.9551 9.41016 46.625H13.1152V46.5293C13.0788 45.8867 12.9056 45.39 12.5957 45.0391C12.2858 44.6836 11.8665 44.5059 11.3379 44.5059ZM15.792 47.2402C15.792 46.1055 16.0609 45.194 16.5986 44.5059C17.1364 43.8132 17.8405 43.4668 18.7109 43.4668C19.5768 43.4668 20.2627 43.763 20.7686 44.3555V40.5H22.0332V51H20.8711L20.8096 50.207C20.3037 50.8268 19.5996 51.1367 18.6973 51.1367C17.8405 51.1367 17.141 50.7858 16.5986 50.084C16.0609 49.3822 15.792 48.4661 15.792 47.3359V47.2402ZM17.0566 47.3838C17.0566 48.2223 17.2298 48.8786 17.5762 49.3525C17.9225 49.8265 18.401 50.0635 19.0117 50.0635C19.8138 50.0635 20.3994 49.7035 20.7686 48.9834V45.5859C20.3903 44.8887 19.8092 44.54 19.0254 44.54C18.4056 44.54 17.9225 44.7793 17.5762 45.2578C17.2298 45.7363 17.0566 46.445 17.0566 47.3838ZM27.667 47.2402C27.667 46.1055 27.9359 45.194 28.4736 44.5059C29.0114 43.8132 29.7155 43.4668 30.5859 43.4668C31.4518 43.4668 32.1377 43.763 32.6436 44.3555V40.5H33.9082V51H32.7461L32.6846 50.207C32.1787 50.8268 31.4746 51.1367 30.5723 51.1367C29.7155 51.1367 29.016 50.7858 28.4736 50.084C27.9359 49.3822 27.667 48.4661 27.667 47.3359V47.2402ZM28.9316 47.3838C28.9316 48.2223 29.1048 48.8786 29.4512 49.3525C29.7975 49.8265 30.276 50.0635 30.8867 50.0635C31.6888 50.0635 32.2744 49.7035 32.6436 48.9834V45.5859C32.2653 44.8887 31.6842 44.54 30.9004 44.54C30.2806 44.54 29.7975 44.7793 29.4512 45.2578C29.1048 45.7363 28.9316 46.445 28.9316 47.3838ZM35.792 47.2334C35.792 46.5088 35.9333 45.8571 36.2158 45.2783C36.5029 44.6995 36.8994 44.2529 37.4053 43.9385C37.9157 43.624 38.4967 43.4668 39.1484 43.4668C40.1556 43.4668 40.9691 43.8154 41.5889 44.5127C42.2132 45.21 42.5254 46.1374 42.5254 47.2949V47.3838C42.5254 48.1038 42.3864 48.751 42.1084 49.3252C41.835 49.8949 41.4408 50.3392 40.9258 50.6582C40.4154 50.9772 39.8275 51.1367 39.1621 51.1367C38.1595 51.1367 37.346 50.7881 36.7217 50.0908C36.1019 49.3936 35.792 48.4707 35.792 47.3223V47.2334ZM37.0635 47.3838C37.0635 48.2041 37.2526 48.8626 37.6309 49.3594C38.0137 49.8561 38.5241 50.1045 39.1621 50.1045C39.8047 50.1045 40.3151 49.8538 40.6934 49.3525C41.0716 48.8467 41.2607 48.1403 41.2607 47.2334C41.2607 46.4222 41.0671 45.766 40.6797 45.2646C40.2969 44.7588 39.7865 44.5059 39.1484 44.5059C38.5241 44.5059 38.0205 44.7542 37.6377 45.251C37.2549 45.7477 37.0635 46.4587 37.0635 47.3838ZM51.1533 51.1367C50.1507 51.1367 49.335 50.8086 48.7061 50.1523C48.0771 49.4915 47.7627 48.6097 47.7627 47.5068V47.2744C47.7627 46.5407 47.9017 45.8867 48.1797 45.3125C48.4622 44.7337 48.8542 44.2826 49.3555 43.959C49.8613 43.6309 50.4082 43.4668 50.9961 43.4668C51.9577 43.4668 52.7051 43.7835 53.2383 44.417C53.7715 45.0505 54.0381 45.9574 54.0381 47.1377V47.6641H49.0273C49.0456 48.3932 49.2575 48.9834 49.6631 49.4346C50.0732 49.8812 50.5928 50.1045 51.2217 50.1045C51.6683 50.1045 52.0465 50.0133 52.3564 49.8311C52.6663 49.6488 52.9375 49.4072 53.1699 49.1064L53.9424 49.708C53.3226 50.6605 52.3929 51.1367 51.1533 51.1367ZM50.9961 44.5059C50.4857 44.5059 50.0573 44.6927 49.7109 45.0664C49.3646 45.4355 49.1504 45.9551 49.0684 46.625H52.7734V46.5293C52.737 45.8867 52.5638 45.39 52.2539 45.0391C51.944 44.6836 51.5247 44.5059 50.9961 44.5059ZM57.1318 51H55.8672V43.6035H57.1318V51ZM55.7646 41.6416C55.7646 41.4365 55.8262 41.2633 55.9492 41.1221C56.0768 40.9808 56.2637 40.9102 56.5098 40.9102C56.7559 40.9102 56.9427 40.9808 57.0703 41.1221C57.1979 41.2633 57.2617 41.4365 57.2617 41.6416C57.2617 41.8467 57.1979 42.0176 57.0703 42.1543C56.9427 42.291 56.7559 42.3594 56.5098 42.3594C56.2637 42.3594 56.0768 42.291 55.9492 42.1543C55.8262 42.0176 55.7646 41.8467 55.7646 41.6416ZM63.9785 50.2686C63.4863 50.8473 62.764 51.1367 61.8115 51.1367C61.0231 51.1367 60.4215 50.9089 60.0068 50.4531C59.5967 49.9928 59.3893 49.3138 59.3848 48.416V43.6035H60.6494V48.3818C60.6494 49.5029 61.1051 50.0635 62.0166 50.0635C62.9827 50.0635 63.6253 49.7035 63.9443 48.9834V43.6035H65.209V51H64.0059L63.9785 50.2686ZM71.6934 49.0381C71.6934 48.6963 71.5635 48.432 71.3037 48.2451C71.0485 48.0537 70.5996 47.8896 69.957 47.7529C69.319 47.6162 68.8109 47.4521 68.4326 47.2607C68.0589 47.0693 67.7809 46.8415 67.5986 46.5771C67.4209 46.3128 67.332 45.9984 67.332 45.6338C67.332 45.0277 67.5872 44.515 68.0977 44.0957C68.6126 43.6764 69.2689 43.4668 70.0664 43.4668C70.9049 43.4668 71.584 43.6833 72.1035 44.1162C72.6276 44.5492 72.8896 45.1029 72.8896 45.7773H71.6182C71.6182 45.431 71.4701 45.1325 71.1738 44.8818C70.8822 44.6312 70.513 44.5059 70.0664 44.5059C69.6061 44.5059 69.2461 44.6061 68.9863 44.8066C68.7266 45.0072 68.5967 45.2692 68.5967 45.5928C68.5967 45.8981 68.7174 46.1283 68.959 46.2832C69.2005 46.4382 69.6357 46.5863 70.2646 46.7275C70.8981 46.8688 71.4108 47.0374 71.8027 47.2334C72.1947 47.4294 72.484 47.6663 72.6709 47.9443C72.8623 48.2178 72.958 48.5527 72.958 48.9492C72.958 49.61 72.6937 50.141 72.165 50.542C71.6364 50.9385 70.9505 51.1367 70.1074 51.1367C69.515 51.1367 68.9909 51.0319 68.5352 50.8223C68.0794 50.6126 67.7217 50.321 67.4619 49.9473C67.2067 49.569 67.0791 49.1611 67.0791 48.7236H68.3438C68.3665 49.1475 68.5352 49.4847 68.8496 49.7354C69.1686 49.9814 69.5879 50.1045 70.1074 50.1045C70.5859 50.1045 70.9688 50.0088 71.2559 49.8174C71.5475 49.6214 71.6934 49.3617 71.6934 49.0381ZM76.0449 43.6035L76.0791 44.4238C76.6214 43.7858 77.3529 43.4668 78.2734 43.4668C79.3079 43.4668 80.012 43.8633 80.3857 44.6562C80.6318 44.3008 80.9508 44.0137 81.3428 43.7949C81.7393 43.5762 82.2064 43.4668 82.7441 43.4668C84.3665 43.4668 85.1914 44.3258 85.2188 46.0439V51H83.9541V46.1191C83.9541 45.5905 83.8333 45.1963 83.5918 44.9365C83.3503 44.6722 82.9447 44.54 82.375 44.54C81.9056 44.54 81.516 44.6813 81.2061 44.9639C80.8962 45.2419 80.7161 45.6178 80.666 46.0918V51H79.3945V46.1533C79.3945 45.0778 78.8682 44.54 77.8154 44.54C76.986 44.54 76.4186 44.8932 76.1133 45.5996V51H74.8486V43.6035H76.0449ZM87.0479 47.2334C87.0479 46.5088 87.1891 45.8571 87.4717 45.2783C87.7588 44.6995 88.1553 44.2529 88.6611 43.9385C89.1715 43.624 89.7526 43.4668 90.4043 43.4668C91.4115 43.4668 92.2249 43.8154 92.8447 44.5127C93.4691 45.21 93.7812 46.1374 93.7812 47.2949V47.3838C93.7812 48.1038 93.6423 48.751 93.3643 49.3252C93.0908 49.8949 92.6966 50.3392 92.1816 50.6582C91.6712 50.9772 91.0833 51.1367 90.418 51.1367C89.4154 51.1367 88.6019 50.7881 87.9775 50.0908C87.3577 49.3936 87.0479 48.4707 87.0479 47.3223V47.2334ZM88.3193 47.3838C88.3193 48.2041 88.5085 48.8626 88.8867 49.3594C89.2695 49.8561 89.7799 50.1045 90.418 50.1045C91.0605 50.1045 91.571 49.8538 91.9492 49.3525C92.3275 48.8467 92.5166 48.1403 92.5166 47.2334C92.5166 46.4222 92.3229 45.766 91.9355 45.2646C91.5527 44.7588 91.0423 44.5059 90.4043 44.5059C89.7799 44.5059 89.2764 44.7542 88.8936 45.251C88.5107 45.7477 88.3193 46.4587 88.3193 47.3838ZM95.3096 47.2402C95.3096 46.1055 95.5785 45.194 96.1162 44.5059C96.654 43.8132 97.3581 43.4668 98.2285 43.4668C99.0944 43.4668 99.7803 43.763 100.286 44.3555V40.5H101.551V51H100.389L100.327 50.207C99.8213 50.8268 99.1172 51.1367 98.2148 51.1367C97.3581 51.1367 96.6585 50.7858 96.1162 50.084C95.5785 49.3822 95.3096 48.4661 95.3096 47.3359V47.2402ZM96.5742 47.3838C96.5742 48.2223 96.7474 48.8786 97.0938 49.3525C97.4401 49.8265 97.9186 50.0635 98.5293 50.0635C99.3314 50.0635 99.917 49.7035 100.286 48.9834V45.5859C99.9079 44.8887 99.3268 44.54 98.543 44.54C97.9232 44.54 97.4401 44.7793 97.0938 45.2578C96.7474 45.7363 96.5742 46.445 96.5742 47.3838ZM109.208 41.8125V43.6035H110.589V44.5811H109.208V49.168C109.208 49.4642 109.27 49.6875 109.393 49.8379C109.516 49.9837 109.725 50.0566 110.021 50.0566C110.167 50.0566 110.368 50.0293 110.623 49.9746V51C110.29 51.0911 109.967 51.1367 109.652 51.1367C109.087 51.1367 108.661 50.9658 108.374 50.624C108.087 50.2822 107.943 49.7969 107.943 49.168V44.5811H106.597V43.6035H107.943V41.8125H109.208ZM115.392 51.1367C114.389 51.1367 113.573 50.8086 112.944 50.1523C112.315 49.4915 112.001 48.6097 112.001 47.5068V47.2744C112.001 46.5407 112.14 45.8867 112.418 45.3125C112.701 44.7337 113.092 44.2826 113.594 43.959C114.1 43.6309 114.646 43.4668 115.234 43.4668C116.196 43.4668 116.943 43.7835 117.477 44.417C118.01 45.0505 118.276 45.9574 118.276 47.1377V47.6641H113.266C113.284 48.3932 113.496 48.9834 113.901 49.4346C114.312 49.8812 114.831 50.1045 115.46 50.1045C115.907 50.1045 116.285 50.0133 116.595 49.8311C116.905 49.6488 117.176 49.4072 117.408 49.1064L118.181 49.708C117.561 50.6605 116.631 51.1367 115.392 51.1367ZM115.234 44.5059C114.724 44.5059 114.296 44.6927 113.949 45.0664C113.603 45.4355 113.389 45.9551 113.307 46.625H117.012V46.5293C116.975 45.8867 116.802 45.39 116.492 45.0391C116.182 44.6836 115.763 44.5059 115.234 44.5059ZM121.186 43.6035L121.22 44.4238C121.762 43.7858 122.493 43.4668 123.414 43.4668C124.449 43.4668 125.153 43.8633 125.526 44.6562C125.772 44.3008 126.091 44.0137 126.483 43.7949C126.88 43.5762 127.347 43.4668 127.885 43.4668C129.507 43.4668 130.332 44.3258 130.359 46.0439V51H129.095V46.1191C129.095 45.5905 128.974 45.1963 128.732 44.9365C128.491 44.6722 128.085 44.54 127.516 44.54C127.046 44.54 126.657 44.6813 126.347 44.9639C126.037 45.2419 125.857 45.6178 125.807 46.0918V51H124.535V46.1533C124.535 45.0778 124.009 44.54 122.956 44.54C122.127 44.54 121.559 44.8932 121.254 45.5996V51H119.989V43.6035H121.186ZM138.771 47.3838C138.771 48.5094 138.514 49.4163 137.999 50.1045C137.484 50.7926 136.787 51.1367 135.907 51.1367C135.009 51.1367 134.303 50.8519 133.788 50.2822V53.8438H132.523V43.6035H133.679L133.74 44.4238C134.255 43.7858 134.971 43.4668 135.887 43.4668C136.775 43.4668 137.477 43.8018 137.992 44.4717C138.512 45.1416 138.771 46.0736 138.771 47.2676V47.3838ZM137.507 47.2402C137.507 46.4062 137.329 45.7477 136.974 45.2646C136.618 44.7816 136.131 44.54 135.511 44.54C134.745 44.54 134.171 44.8796 133.788 45.5586V49.0928C134.166 49.7673 134.745 50.1045 135.524 50.1045C136.131 50.1045 136.611 49.8652 136.967 49.3867C137.327 48.9036 137.507 48.1882 137.507 47.2402ZM140.3 47.2334C140.3 46.5088 140.441 45.8571 140.724 45.2783C141.011 44.6995 141.407 44.2529 141.913 43.9385C142.424 43.624 143.005 43.4668 143.656 43.4668C144.663 43.4668 145.477 43.8154 146.097 44.5127C146.721 45.21 147.033 46.1374 147.033 47.2949V47.3838C147.033 48.1038 146.894 48.751 146.616 49.3252C146.343 49.8949 145.949 50.3392 145.434 50.6582C144.923 50.9772 144.335 51.1367 143.67 51.1367C142.667 51.1367 141.854 50.7881 141.229 50.0908C140.61 49.3936 140.3 48.4707 140.3 47.3223V47.2334ZM141.571 47.3838C141.571 48.2041 141.76 48.8626 142.139 49.3594C142.521 49.8561 143.032 50.1045 143.67 50.1045C144.312 50.1045 144.823 49.8538 145.201 49.3525C145.579 48.8467 145.769 48.1403 145.769 47.2334C145.769 46.4222 145.575 45.766 145.188 45.2646C144.805 44.7588 144.294 44.5059 143.656 44.5059C143.032 44.5059 142.528 44.7542 142.146 45.251C141.763 45.7477 141.571 46.4587 141.571 47.3838ZM152.444 44.7383C152.253 44.7064 152.046 44.6904 151.822 44.6904C150.993 44.6904 150.43 45.0436 150.134 45.75V51H148.869V43.6035H150.1L150.12 44.458C150.535 43.7972 151.123 43.4668 151.884 43.4668C152.13 43.4668 152.317 43.4987 152.444 43.5625V44.7383ZM158.96 51H157.695V43.6035H158.96V51ZM157.593 41.6416C157.593 41.4365 157.654 41.2633 157.777 41.1221C157.905 40.9808 158.092 40.9102 158.338 40.9102C158.584 40.9102 158.771 40.9808 158.898 41.1221C159.026 41.2633 159.09 41.4365 159.09 41.6416C159.09 41.8467 159.026 42.0176 158.898 42.1543C158.771 42.291 158.584 42.3594 158.338 42.3594C158.092 42.3594 157.905 42.291 157.777 42.1543C157.654 42.0176 157.593 41.8467 157.593 41.6416ZM162.437 43.6035L162.478 44.5332C163.043 43.8223 163.781 43.4668 164.692 43.4668C166.256 43.4668 167.044 44.3486 167.058 46.1123V51H165.793V46.1055C165.788 45.5723 165.665 45.1781 165.424 44.9229C165.187 44.6676 164.815 44.54 164.31 44.54C163.899 44.54 163.539 44.6494 163.229 44.8682C162.92 45.0869 162.678 45.374 162.505 45.7295V51H161.24V43.6035H162.437ZM172.182 50.1045C172.633 50.1045 173.027 49.9678 173.364 49.6943C173.701 49.4209 173.888 49.0791 173.925 48.6689H175.121C175.098 49.0928 174.952 49.4961 174.684 49.8789C174.415 50.2617 174.055 50.5671 173.604 50.7949C173.157 51.0228 172.683 51.1367 172.182 51.1367C171.174 51.1367 170.372 50.8018 169.775 50.1318C169.183 49.4574 168.887 48.5368 168.887 47.3701V47.1582C168.887 46.4382 169.019 45.7979 169.283 45.2373C169.548 44.6768 169.926 44.2415 170.418 43.9316C170.915 43.6217 171.5 43.4668 172.175 43.4668C173.004 43.4668 173.692 43.7152 174.239 44.2119C174.791 44.7087 175.085 45.3535 175.121 46.1465H173.925C173.888 45.668 173.706 45.276 173.378 44.9707C173.054 44.6608 172.653 44.5059 172.175 44.5059C171.532 44.5059 171.033 44.7383 170.678 45.2031C170.327 45.6634 170.151 46.3311 170.151 47.2061V47.4453C170.151 48.2975 170.327 48.9538 170.678 49.4141C171.029 49.8743 171.53 50.1045 172.182 50.1045ZM178.167 51H176.902V43.6035H178.167V51ZM176.8 41.6416C176.8 41.4365 176.861 41.2633 176.984 41.1221C177.112 40.9808 177.299 40.9102 177.545 40.9102C177.791 40.9102 177.978 40.9808 178.105 41.1221C178.233 41.2633 178.297 41.4365 178.297 41.6416C178.297 41.8467 178.233 42.0176 178.105 42.1543C177.978 42.291 177.791 42.3594 177.545 42.3594C177.299 42.3594 177.112 42.291 176.984 42.1543C176.861 42.0176 176.8 41.8467 176.8 41.6416ZM180.14 47.2402C180.14 46.1055 180.409 45.194 180.946 44.5059C181.484 43.8132 182.188 43.4668 183.059 43.4668C183.924 43.4668 184.61 43.763 185.116 44.3555V40.5H186.381V51H185.219L185.157 50.207C184.651 50.8268 183.947 51.1367 183.045 51.1367C182.188 51.1367 181.489 50.7858 180.946 50.084C180.409 49.3822 180.14 48.4661 180.14 47.3359V47.2402ZM181.404 47.3838C181.404 48.2223 181.577 48.8786 181.924 49.3525C182.27 49.8265 182.749 50.0635 183.359 50.0635C184.161 50.0635 184.747 49.7035 185.116 48.9834V45.5859C184.738 44.8887 184.157 44.54 183.373 44.54C182.753 44.54 182.27 44.7793 181.924 45.2578C181.577 45.7363 181.404 46.445 181.404 47.3838ZM189.974 51H188.709V43.6035H189.974V51ZM188.606 41.6416C188.606 41.4365 188.668 41.2633 188.791 41.1221C188.919 40.9808 189.105 40.9102 189.352 40.9102C189.598 40.9102 189.785 40.9808 189.912 41.1221C190.04 41.2633 190.104 41.4365 190.104 41.6416C190.104 41.8467 190.04 42.0176 189.912 42.1543C189.785 42.291 189.598 42.3594 189.352 42.3594C189.105 42.3594 188.919 42.291 188.791 42.1543C188.668 42.0176 188.606 41.8467 188.606 41.6416ZM191.946 47.2402C191.946 46.1055 192.215 45.194 192.753 44.5059C193.291 43.8132 193.995 43.4668 194.865 43.4668C195.731 43.4668 196.417 43.763 196.923 44.3555V40.5H198.188V51H197.025L196.964 50.207C196.458 50.8268 195.754 51.1367 194.852 51.1367C193.995 51.1367 193.295 50.7858 192.753 50.084C192.215 49.3822 191.946 48.4661 191.946 47.3359V47.2402ZM193.211 47.3838C193.211 48.2223 193.384 48.8786 193.73 49.3525C194.077 49.8265 194.555 50.0635 195.166 50.0635C195.968 50.0635 196.554 49.7035 196.923 48.9834V45.5859C196.545 44.8887 195.964 44.54 195.18 44.54C194.56 44.54 194.077 44.7793 193.73 45.2578C193.384 45.7363 193.211 46.445 193.211 47.3838ZM204.973 50.2686C204.48 50.8473 203.758 51.1367 202.806 51.1367C202.017 51.1367 201.416 50.9089 201.001 50.4531C200.591 49.9928 200.383 49.3138 200.379 48.416V43.6035H201.644V48.3818C201.644 49.5029 202.099 50.0635 203.011 50.0635C203.977 50.0635 204.619 49.7035 204.938 48.9834V43.6035H206.203V51H205L204.973 50.2686ZM209.577 43.6035L209.618 44.5332C210.183 43.8223 210.922 43.4668 211.833 43.4668C213.396 43.4668 214.185 44.3486 214.198 46.1123V51H212.934V46.1055C212.929 45.5723 212.806 45.1781 212.564 44.9229C212.327 44.6676 211.956 44.54 211.45 44.54C211.04 44.54 210.68 44.6494 210.37 44.8682C210.06 45.0869 209.819 45.374 209.646 45.7295V51H208.381V43.6035H209.577ZM218.071 41.8125V43.6035H219.452V44.5811H218.071V49.168C218.071 49.4642 218.133 49.6875 218.256 49.8379C218.379 49.9837 218.589 50.0566 218.885 50.0566C219.031 50.0566 219.231 50.0293 219.486 49.9746V51C219.154 51.0911 218.83 51.1367 218.516 51.1367C217.951 51.1367 217.524 50.9658 217.237 50.624C216.95 50.2822 216.807 49.7969 216.807 49.168V44.5811H215.46V43.6035H216.807V41.8125H218.071ZM5.52344 70.2686C5.03125 70.8473 4.30892 71.1367 3.35645 71.1367C2.56803 71.1367 1.96647 70.9089 1.55176 70.4531C1.1416 69.9928 0.934245 69.3138 0.929688 68.416V63.6035H2.19434V68.3818C2.19434 69.5029 2.65007 70.0635 3.56152 70.0635C4.52767 70.0635 5.17025 69.7035 5.48926 68.9834V63.6035H6.75391V71H5.55078L5.52344 70.2686ZM10.6475 61.8125V63.6035H12.0283V64.5811H10.6475V69.168C10.6475 69.4642 10.709 69.6875 10.832 69.8379C10.9551 69.9837 11.1647 70.0566 11.4609 70.0566C11.6068 70.0566 11.8073 70.0293 12.0625 69.9746V71C11.7298 71.0911 11.4062 71.1367 11.0918 71.1367C10.5267 71.1367 10.1006 70.9658 9.81348 70.624C9.52637 70.2822 9.38281 69.7969 9.38281 69.168V64.5811H8.03613V63.6035H9.38281V61.8125H10.6475ZM18.8584 71H17.5938V60.5H18.8584V71ZM25.7051 71C25.6322 70.8542 25.5729 70.5944 25.5273 70.2207C24.9395 70.8314 24.2376 71.1367 23.4219 71.1367C22.6927 71.1367 22.0934 70.9316 21.624 70.5215C21.1592 70.1068 20.9268 69.5827 20.9268 68.9492C20.9268 68.179 21.2184 67.582 21.8018 67.1582C22.3896 66.7298 23.2145 66.5156 24.2764 66.5156H25.5068V65.9346C25.5068 65.4925 25.3747 65.1416 25.1104 64.8818C24.846 64.6175 24.4564 64.4854 23.9414 64.4854C23.4902 64.4854 23.112 64.5993 22.8066 64.8271C22.5013 65.055 22.3486 65.3307 22.3486 65.6543H21.0771C21.0771 65.2852 21.207 64.9297 21.4668 64.5879C21.7311 64.2415 22.0866 63.9681 22.5332 63.7676C22.9844 63.5671 23.4788 63.4668 24.0166 63.4668C24.8688 63.4668 25.5365 63.681 26.0195 64.1094C26.5026 64.5332 26.7533 65.1188 26.7715 65.8662V69.2705C26.7715 69.9495 26.8581 70.4896 27.0312 70.8906V71H25.7051ZM23.6064 70.0361C24.0029 70.0361 24.3789 69.9336 24.7344 69.7285C25.0898 69.5234 25.3473 69.2568 25.5068 68.9287V67.4111H24.5156C22.9661 67.4111 22.1914 67.8646 22.1914 68.7715C22.1914 69.168 22.3236 69.4779 22.5879 69.7012C22.8522 69.9245 23.1917 70.0361 23.6064 70.0361ZM35.2656 67.3838C35.2656 68.514 35.0059 69.4232 34.4863 70.1113C33.9668 70.7949 33.2695 71.1367 32.3945 71.1367C31.4603 71.1367 30.738 70.8063 30.2275 70.1455L30.166 71H29.0039V60.5H30.2686V64.417C30.779 63.7835 31.4831 63.4668 32.3809 63.4668C33.2786 63.4668 33.9827 63.8063 34.4932 64.4854C35.0081 65.1644 35.2656 66.0941 35.2656 67.2744V67.3838ZM34.001 67.2402C34.001 66.3789 33.8346 65.7135 33.502 65.2441C33.1693 64.7747 32.6908 64.54 32.0664 64.54C31.2324 64.54 30.6331 64.9274 30.2686 65.7021V68.9014C30.6559 69.6761 31.2598 70.0635 32.0801 70.0635C32.6862 70.0635 33.1579 69.8288 33.4951 69.3594C33.8324 68.89 34.001 68.1836 34.001 67.2402ZM36.7803 67.2334C36.7803 66.5088 36.9215 65.8571 37.2041 65.2783C37.4912 64.6995 37.8877 64.2529 38.3936 63.9385C38.904 63.624 39.485 63.4668 40.1367 63.4668C41.1439 63.4668 41.9574 63.8154 42.5771 64.5127C43.2015 65.21 43.5137 66.1374 43.5137 67.2949V67.3838C43.5137 68.1038 43.3747 68.751 43.0967 69.3252C42.8232 69.8949 42.429 70.3392 41.9141 70.6582C41.4036 70.9772 40.8158 71.1367 40.1504 71.1367C39.1478 71.1367 38.3343 70.7881 37.71 70.0908C37.0902 69.3936 36.7803 68.4707 36.7803 67.3223V67.2334ZM38.0518 67.3838C38.0518 68.2041 38.2409 68.8626 38.6191 69.3594C39.002 69.8561 39.5124 70.1045 40.1504 70.1045C40.793 70.1045 41.3034 69.8538 41.6816 69.3525C42.0599 68.8467 42.249 68.1403 42.249 67.2334C42.249 66.4222 42.0553 65.766 41.668 65.2646C41.2852 64.7588 40.7747 64.5059 40.1367 64.5059C39.5124 64.5059 39.0088 64.7542 38.626 65.251C38.2432 65.7477 38.0518 66.4587 38.0518 67.3838ZM48.9248 64.7383C48.7334 64.7064 48.526 64.6904 48.3027 64.6904C47.4733 64.6904 46.9105 65.0436 46.6143 65.75V71H45.3496V63.6035H46.5801L46.6006 64.458C47.0153 63.7972 47.6032 63.4668 48.3643 63.4668C48.6104 63.4668 48.7972 63.4987 48.9248 63.5625V64.7383ZM53.2764 71.1367C52.2738 71.1367 51.458 70.8086 50.8291 70.1523C50.2002 69.4915 49.8857 68.6097 49.8857 67.5068V67.2744C49.8857 66.5407 50.0247 65.8867 50.3027 65.3125C50.5853 64.7337 50.9772 64.2826 51.4785 63.959C51.9844 63.6309 52.5312 63.4668 53.1191 63.4668C54.0807 63.4668 54.8281 63.7835 55.3613 64.417C55.8945 65.0505 56.1611 65.9574 56.1611 67.1377V67.6641H51.1504C51.1686 68.3932 51.3805 68.9834 51.7861 69.4346C52.1963 69.8812 52.7158 70.1045 53.3447 70.1045C53.7913 70.1045 54.1696 70.0133 54.4795 69.8311C54.7894 69.6488 55.0605 69.4072 55.293 69.1064L56.0654 69.708C55.4456 70.6605 54.516 71.1367 53.2764 71.1367ZM53.1191 64.5059C52.6087 64.5059 52.1803 64.6927 51.834 65.0664C51.4876 65.4355 51.2734 65.9551 51.1914 66.625H54.8965V66.5293C54.86 65.8867 54.6868 65.39 54.377 65.0391C54.0671 64.6836 53.6478 64.5059 53.1191 64.5059ZM64.6729 71.1367C63.6702 71.1367 62.8545 70.8086 62.2256 70.1523C61.5967 69.4915 61.2822 68.6097 61.2822 67.5068V67.2744C61.2822 66.5407 61.4212 65.8867 61.6992 65.3125C61.9818 64.7337 62.3737 64.2826 62.875 63.959C63.3809 63.6309 63.9277 63.4668 64.5156 63.4668C65.4772 63.4668 66.2246 63.7835 66.7578 64.417C67.291 65.0505 67.5576 65.9574 67.5576 67.1377V67.6641H62.5469C62.5651 68.3932 62.777 68.9834 63.1826 69.4346C63.5928 69.8812 64.1123 70.1045 64.7412 70.1045C65.1878 70.1045 65.5661 70.0133 65.876 69.8311C66.1859 69.6488 66.457 69.4072 66.6895 69.1064L67.4619 69.708C66.8421 70.6605 65.9124 71.1367 64.6729 71.1367ZM64.5156 64.5059C64.0052 64.5059 63.5768 64.6927 63.2305 65.0664C62.8841 65.4355 62.6699 65.9551 62.5879 66.625H66.293V66.5293C66.2565 65.8867 66.0833 65.39 65.7734 65.0391C65.4635 64.6836 65.0443 64.5059 64.5156 64.5059ZM70.9932 61.8125V63.6035H72.374V64.5811H70.9932V69.168C70.9932 69.4642 71.0547 69.6875 71.1777 69.8379C71.3008 69.9837 71.5104 70.0566 71.8066 70.0566C71.9525 70.0566 72.153 70.0293 72.4082 69.9746V71C72.0755 71.0911 71.752 71.1367 71.4375 71.1367C70.8724 71.1367 70.4463 70.9658 70.1592 70.624C69.8721 70.2822 69.7285 69.7969 69.7285 69.168V64.5811H68.3818V63.6035H69.7285V61.8125H70.9932ZM77.5225 67.2402C77.5225 66.1055 77.7913 65.194 78.3291 64.5059C78.8669 63.8132 79.571 63.4668 80.4414 63.4668C81.3073 63.4668 81.9932 63.763 82.499 64.3555V60.5H83.7637V71H82.6016L82.54 70.207C82.0342 70.8268 81.3301 71.1367 80.4277 71.1367C79.571 71.1367 78.8714 70.7858 78.3291 70.084C77.7913 69.3822 77.5225 68.4661 77.5225 67.3359V67.2402ZM78.7871 67.3838C78.7871 68.2223 78.9603 68.8786 79.3066 69.3525C79.653 69.8265 80.1315 70.0635 80.7422 70.0635C81.5443 70.0635 82.1299 69.7035 82.499 68.9834V65.5859C82.1208 64.8887 81.5397 64.54 80.7559 64.54C80.1361 64.54 79.653 64.7793 79.3066 65.2578C78.9603 65.7363 78.7871 66.445 78.7871 67.3838ZM85.6475 67.2334C85.6475 66.5088 85.7887 65.8571 86.0713 65.2783C86.3584 64.6995 86.7549 64.2529 87.2607 63.9385C87.7712 63.624 88.3522 63.4668 89.0039 63.4668C90.0111 63.4668 90.8245 63.8154 91.4443 64.5127C92.0687 65.21 92.3809 66.1374 92.3809 67.2949V67.3838C92.3809 68.1038 92.2419 68.751 91.9639 69.3252C91.6904 69.8949 91.2962 70.3392 90.7812 70.6582C90.2708 70.9772 89.6829 71.1367 89.0176 71.1367C88.015 71.1367 87.2015 70.7881 86.5771 70.0908C85.9574 69.3936 85.6475 68.4707 85.6475 67.3223V67.2334ZM86.9189 67.3838C86.9189 68.2041 87.1081 68.8626 87.4863 69.3594C87.8691 69.8561 88.3796 70.1045 89.0176 70.1045C89.6602 70.1045 90.1706 69.8538 90.5488 69.3525C90.9271 68.8467 91.1162 68.1403 91.1162 67.2334C91.1162 66.4222 90.9225 65.766 90.5352 65.2646C90.1523 64.7588 89.6419 64.5059 89.0039 64.5059C88.3796 64.5059 87.876 64.7542 87.4932 65.251C87.1104 65.7477 86.9189 66.4587 86.9189 67.3838ZM95.5908 71H94.3262V60.5H95.5908V71ZM97.5361 67.2334C97.5361 66.5088 97.6774 65.8571 97.96 65.2783C98.2471 64.6995 98.6436 64.2529 99.1494 63.9385C99.6598 63.624 100.241 63.4668 100.893 63.4668C101.9 63.4668 102.713 63.8154 103.333 64.5127C103.957 65.21 104.27 66.1374 104.27 67.2949V67.3838C104.27 68.1038 104.131 68.751 103.853 69.3252C103.579 69.8949 103.185 70.3392 102.67 70.6582C102.16 70.9772 101.572 71.1367 100.906 71.1367C99.9036 71.1367 99.0902 70.7881 98.4658 70.0908C97.846 69.3936 97.5361 68.4707 97.5361 67.3223V67.2334ZM98.8076 67.3838C98.8076 68.2041 98.9967 68.8626 99.375 69.3594C99.7578 69.8561 100.268 70.1045 100.906 70.1045C101.549 70.1045 102.059 69.8538 102.438 69.3525C102.816 68.8467 103.005 68.1403 103.005 67.2334C103.005 66.4222 102.811 65.766 102.424 65.2646C102.041 64.7588 101.531 64.5059 100.893 64.5059C100.268 64.5059 99.7646 64.7542 99.3818 65.251C98.999 65.7477 98.8076 66.4587 98.8076 67.3838ZM109.681 64.7383C109.489 64.7064 109.282 64.6904 109.059 64.6904C108.229 64.6904 107.666 65.0436 107.37 65.75V71H106.105V63.6035H107.336L107.356 64.458C107.771 63.7972 108.359 63.4668 109.12 63.4668C109.366 63.4668 109.553 63.4987 109.681 63.5625V64.7383ZM114.032 71.1367C113.03 71.1367 112.214 70.8086 111.585 70.1523C110.956 69.4915 110.642 68.6097 110.642 67.5068V67.2744C110.642 66.5407 110.781 65.8867 111.059 65.3125C111.341 64.7337 111.733 64.2826 112.234 63.959C112.74 63.6309 113.287 63.4668 113.875 63.4668C114.837 63.4668 115.584 63.7835 116.117 64.417C116.65 65.0505 116.917 65.9574 116.917 67.1377V67.6641H111.906C111.924 68.3932 112.136 68.9834 112.542 69.4346C112.952 69.8812 113.472 70.1045 114.101 70.1045C114.547 70.1045 114.925 70.0133 115.235 69.8311C115.545 69.6488 115.816 69.4072 116.049 69.1064L116.821 69.708C116.201 70.6605 115.272 71.1367 114.032 71.1367ZM113.875 64.5059C113.365 64.5059 112.936 64.6927 112.59 65.0664C112.243 65.4355 112.029 65.9551 111.947 66.625H115.652V66.5293C115.616 65.8867 115.443 65.39 115.133 65.0391C114.823 64.6836 114.404 64.5059 113.875 64.5059ZM123.549 63.6035L123.583 64.4238C124.125 63.7858 124.857 63.4668 125.777 63.4668C126.812 63.4668 127.516 63.8633 127.89 64.6562C128.136 64.3008 128.455 64.0137 128.847 63.7949C129.243 63.5762 129.71 63.4668 130.248 63.4668C131.87 63.4668 132.695 64.3258 132.723 66.0439V71H131.458V66.1191C131.458 65.5905 131.337 65.1963 131.096 64.9365C130.854 64.6722 130.449 64.54 129.879 64.54C129.41 64.54 129.02 64.6813 128.71 64.9639C128.4 65.2419 128.22 65.6178 128.17 66.0918V71H126.898V66.1533C126.898 65.0778 126.372 64.54 125.319 64.54C124.49 64.54 123.923 64.8932 123.617 65.5996V71H122.353V63.6035H123.549ZM139.453 71C139.38 70.8542 139.321 70.5944 139.275 70.2207C138.688 70.8314 137.986 71.1367 137.17 71.1367C136.441 71.1367 135.841 70.9316 135.372 70.5215C134.907 70.1068 134.675 69.5827 134.675 68.9492C134.675 68.179 134.966 67.582 135.55 67.1582C136.138 66.7298 136.963 66.5156 138.024 66.5156H139.255V65.9346C139.255 65.4925 139.123 65.1416 138.858 64.8818C138.594 64.6175 138.204 64.4854 137.689 64.4854C137.238 64.4854 136.86 64.5993 136.555 64.8271C136.249 65.055 136.097 65.3307 136.097 65.6543H134.825C134.825 65.2852 134.955 64.9297 135.215 64.5879C135.479 64.2415 135.835 63.9681 136.281 63.7676C136.732 63.5671 137.227 63.4668 137.765 63.4668C138.617 63.4668 139.285 63.681 139.768 64.1094C140.251 64.5332 140.501 65.1188 140.52 65.8662V69.2705C140.52 69.9495 140.606 70.4896 140.779 70.8906V71H139.453ZM137.354 70.0361C137.751 70.0361 138.127 69.9336 138.482 69.7285C138.838 69.5234 139.095 69.2568 139.255 68.9287V67.4111H138.264C136.714 67.4111 135.939 67.8646 135.939 68.7715C135.939 69.168 136.072 69.4779 136.336 69.7012C136.6 69.9245 136.94 70.0361 137.354 70.0361ZM142.451 67.2402C142.451 66.0872 142.718 65.1712 143.251 64.4922C143.784 63.8086 144.491 63.4668 145.37 63.4668C146.272 63.4668 146.977 63.7858 147.482 64.4238L147.544 63.6035H148.699V70.8223C148.699 71.7793 148.414 72.5335 147.845 73.085C147.28 73.6364 146.519 73.9121 145.562 73.9121C145.028 73.9121 144.507 73.7982 143.996 73.5703C143.486 73.3424 143.096 73.0303 142.827 72.6338L143.483 71.875C144.026 72.5449 144.689 72.8799 145.473 72.8799C146.088 72.8799 146.566 72.7067 146.908 72.3604C147.255 72.014 147.428 71.5264 147.428 70.8975V70.2617C146.922 70.8451 146.231 71.1367 145.356 71.1367C144.491 71.1367 143.789 70.7881 143.251 70.0908C142.718 69.3936 142.451 68.4434 142.451 67.2402ZM143.723 67.3838C143.723 68.2178 143.894 68.874 144.235 69.3525C144.577 69.8265 145.056 70.0635 145.671 70.0635C146.468 70.0635 147.054 69.7012 147.428 68.9766V65.5996C147.04 64.8932 146.459 64.54 145.685 64.54C145.069 64.54 144.589 64.7793 144.242 65.2578C143.896 65.7363 143.723 66.445 143.723 67.3838ZM152.06 63.6035L152.101 64.5332C152.666 63.8223 153.404 63.4668 154.315 63.4668C155.879 63.4668 156.667 64.3486 156.681 66.1123V71H155.416V66.1055C155.411 65.5723 155.288 65.1781 155.047 64.9229C154.81 64.6676 154.438 64.54 153.933 64.54C153.522 64.54 153.162 64.6494 152.853 64.8682C152.543 65.0869 152.301 65.374 152.128 65.7295V71H150.863V63.6035H152.06ZM163.404 71C163.331 70.8542 163.272 70.5944 163.227 70.2207C162.639 70.8314 161.937 71.1367 161.121 71.1367C160.392 71.1367 159.793 70.9316 159.323 70.5215C158.858 70.1068 158.626 69.5827 158.626 68.9492C158.626 68.179 158.918 67.582 159.501 67.1582C160.089 66.7298 160.914 66.5156 161.976 66.5156H163.206V65.9346C163.206 65.4925 163.074 65.1416 162.81 64.8818C162.545 64.6175 162.156 64.4854 161.641 64.4854C161.189 64.4854 160.811 64.5993 160.506 64.8271C160.201 65.055 160.048 65.3307 160.048 65.6543H158.776C158.776 65.2852 158.906 64.9297 159.166 64.5879C159.43 64.2415 159.786 63.9681 160.232 63.7676C160.684 63.5671 161.178 63.4668 161.716 63.4668C162.568 63.4668 163.236 63.681 163.719 64.1094C164.202 64.5332 164.452 65.1188 164.471 65.8662V69.2705C164.471 69.9495 164.557 70.4896 164.73 70.8906V71H163.404ZM161.306 70.0361C161.702 70.0361 162.078 69.9336 162.434 69.7285C162.789 69.5234 163.047 69.2568 163.206 68.9287V67.4111H162.215C160.665 67.4111 159.891 67.8646 159.891 68.7715C159.891 69.168 160.023 69.4779 160.287 69.7012C160.551 69.9245 160.891 70.0361 161.306 70.0361ZM174.992 71C174.919 70.8542 174.86 70.5944 174.814 70.2207C174.227 70.8314 173.525 71.1367 172.709 71.1367C171.98 71.1367 171.381 70.9316 170.911 70.5215C170.446 70.1068 170.214 69.5827 170.214 68.9492C170.214 68.179 170.506 67.582 171.089 67.1582C171.677 66.7298 172.502 66.5156 173.563 66.5156H174.794V65.9346C174.794 65.4925 174.662 65.1416 174.397 64.8818C174.133 64.6175 173.743 64.4854 173.229 64.4854C172.777 64.4854 172.399 64.5993 172.094 64.8271C171.788 65.055 171.636 65.3307 171.636 65.6543H170.364C170.364 65.2852 170.494 64.9297 170.754 64.5879C171.018 64.2415 171.374 63.9681 171.82 63.7676C172.271 63.5671 172.766 63.4668 173.304 63.4668C174.156 63.4668 174.824 63.681 175.307 64.1094C175.79 64.5332 176.04 65.1188 176.059 65.8662V69.2705C176.059 69.9495 176.145 70.4896 176.318 70.8906V71H174.992ZM172.894 70.0361C173.29 70.0361 173.666 69.9336 174.021 69.7285C174.377 69.5234 174.634 69.2568 174.794 68.9287V67.4111H173.803C172.253 67.4111 171.479 67.8646 171.479 68.7715C171.479 69.168 171.611 69.4779 171.875 69.7012C172.139 69.9245 172.479 70.0361 172.894 70.0361ZM179.665 71H178.4V60.5H179.665V71ZM183.319 71H182.055V63.6035H183.319V71ZM181.952 61.6416C181.952 61.4365 182.014 61.2633 182.137 61.1221C182.264 60.9808 182.451 60.9102 182.697 60.9102C182.943 60.9102 183.13 60.9808 183.258 61.1221C183.385 61.2633 183.449 61.4365 183.449 61.6416C183.449 61.8467 183.385 62.0176 183.258 62.1543C183.13 62.291 182.943 62.3594 182.697 62.3594C182.451 62.3594 182.264 62.291 182.137 62.1543C182.014 62.0176 181.952 61.8467 181.952 61.6416ZM185.292 67.2402C185.292 66.0781 185.559 65.1598 186.092 64.4854C186.625 63.8063 187.34 63.4668 188.238 63.4668C189.113 63.4668 189.804 63.7607 190.31 64.3486L190.364 63.6035H191.526V73.8438H190.262V70.3164C189.751 70.8633 189.072 71.1367 188.225 71.1367C187.331 71.1367 186.618 70.7904 186.085 70.0977C185.556 69.4004 185.292 68.4775 185.292 67.3291V67.2402ZM186.557 67.3838C186.557 68.2314 186.734 68.8968 187.09 69.3799C187.45 69.863 187.933 70.1045 188.539 70.1045C189.291 70.1045 189.865 69.7718 190.262 69.1064V65.4834C189.861 64.8317 189.291 64.5059 188.553 64.5059C187.942 64.5059 187.457 64.7497 187.097 65.2373C186.737 65.7204 186.557 66.4359 186.557 67.3838ZM198.373 70.2686C197.881 70.8473 197.159 71.1367 196.206 71.1367C195.418 71.1367 194.816 70.9089 194.401 70.4531C193.991 69.9928 193.784 69.3138 193.779 68.416V63.6035H195.044V68.3818C195.044 69.5029 195.5 70.0635 196.411 70.0635C197.377 70.0635 198.02 69.7035 198.339 68.9834V63.6035H199.604V71H198.4L198.373 70.2686ZM206.348 71C206.275 70.8542 206.215 70.5944 206.17 70.2207C205.582 70.8314 204.88 71.1367 204.064 71.1367C203.335 71.1367 202.736 70.9316 202.267 70.5215C201.802 70.1068 201.569 69.5827 201.569 68.9492C201.569 68.179 201.861 67.582 202.444 67.1582C203.032 66.7298 203.857 66.5156 204.919 66.5156H206.149V65.9346C206.149 65.4925 206.017 65.1416 205.753 64.8818C205.489 64.6175 205.099 64.4854 204.584 64.4854C204.133 64.4854 203.755 64.5993 203.449 64.8271C203.144 65.055 202.991 65.3307 202.991 65.6543H201.72C201.72 65.2852 201.85 64.9297 202.109 64.5879C202.374 64.2415 202.729 63.9681 203.176 63.7676C203.627 63.5671 204.121 63.4668 204.659 63.4668C205.511 63.4668 206.179 63.681 206.662 64.1094C207.145 64.5332 207.396 65.1188 207.414 65.8662V69.2705C207.414 69.9495 207.501 70.4896 207.674 70.8906V71H206.348ZM204.249 70.0361C204.646 70.0361 205.021 69.9336 205.377 69.7285C205.732 69.5234 205.99 69.2568 206.149 68.9287V67.4111H205.158C203.609 67.4111 202.834 67.8646 202.834 68.7715C202.834 69.168 202.966 69.4779 203.23 69.7012C203.495 69.9245 203.834 70.0361 204.249 70.0361ZM209.674 70.3369C209.674 70.1182 209.738 69.9359 209.865 69.79C209.997 69.6442 210.193 69.5713 210.453 69.5713C210.713 69.5713 210.909 69.6442 211.041 69.79C211.178 69.9359 211.246 70.1182 211.246 70.3369C211.246 70.5465 211.178 70.722 211.041 70.8633C210.909 71.0046 210.713 71.0752 210.453 71.0752C210.193 71.0752 209.997 71.0046 209.865 70.8633C209.738 70.722 209.674 70.5465 209.674 70.3369ZM224.516 61.0469V67.8145C224.511 68.7533 224.215 69.5212 223.627 70.1182C223.044 70.7152 222.251 71.0501 221.248 71.123L220.899 71.1367C219.81 71.1367 218.942 70.8428 218.295 70.2549C217.648 69.667 217.32 68.8581 217.311 67.8281V61.0469H218.609V67.7871C218.609 68.5072 218.808 69.0677 219.204 69.4688C219.601 69.8652 220.166 70.0635 220.899 70.0635C221.642 70.0635 222.21 69.8652 222.602 69.4688C222.998 69.0723 223.196 68.514 223.196 67.7939V61.0469H224.516ZM228.354 61.8125V63.6035H229.735V64.5811H228.354V69.168C228.354 69.4642 228.416 69.6875 228.539 69.8379C228.662 69.9837 228.872 70.0566 229.168 70.0566C229.314 70.0566 229.514 70.0293 229.77 69.9746V71C229.437 71.0911 229.113 71.1367 228.799 71.1367C228.234 71.1367 227.808 70.9658 227.521 70.624C227.233 70.2822 227.09 69.7969 227.09 69.168V64.5811H225.743V63.6035H227.09V61.8125H228.354ZM4.02637 91.1367C3.02376 91.1367 2.20801 90.8086 1.5791 90.1523C0.950195 89.4915 0.635742 88.6097 0.635742 87.5068V87.2744C0.635742 86.5407 0.77474 85.8867 1.05273 85.3125C1.33529 84.7337 1.72721 84.2826 2.22852 83.959C2.73438 83.6309 3.28125 83.4668 3.86914 83.4668C4.83073 83.4668 5.57812 83.7835 6.11133 84.417C6.64453 85.0505 6.91113 85.9574 6.91113 87.1377V87.6641H1.90039C1.91862 88.3932 2.13053 88.9834 2.53613 89.4346C2.94629 89.8812 3.46582 90.1045 4.09473 90.1045C4.54134 90.1045 4.9196 90.0133 5.22949 89.8311C5.53939 89.6488 5.81055 89.4072 6.04297 89.1064L6.81543 89.708C6.19564 90.6605 5.26595 91.1367 4.02637 91.1367ZM3.86914 84.5059C3.35872 84.5059 2.93034 84.6927 2.58398 85.0664C2.23763 85.4355 2.02344 85.9551 1.94141 86.625H5.64648V86.5293C5.61003 85.8867 5.43685 85.39 5.12695 85.0391C4.81706 84.6836 4.39779 84.5059 3.86914 84.5059ZM9.82715 83.6035L9.86816 84.5332C10.4333 83.8223 11.1715 83.4668 12.083 83.4668C13.6462 83.4668 14.4346 84.3486 14.4482 86.1123V91H13.1836V86.1055C13.179 85.5723 13.056 85.1781 12.8145 84.9229C12.5775 84.6676 12.2061 84.54 11.7002 84.54C11.29 84.54 10.93 84.6494 10.6201 84.8682C10.3102 85.0869 10.0687 85.374 9.89551 85.7295V91H8.63086V83.6035H9.82715ZM17.9795 91H16.7148V83.6035H17.9795V91ZM16.6123 81.6416C16.6123 81.4365 16.6738 81.2633 16.7969 81.1221C16.9245 80.9808 17.1113 80.9102 17.3574 80.9102C17.6035 80.9102 17.7904 80.9808 17.918 81.1221C18.0456 81.2633 18.1094 81.4365 18.1094 81.6416C18.1094 81.8467 18.0456 82.0176 17.918 82.1543C17.7904 82.291 17.6035 82.3594 17.3574 82.3594C17.1113 82.3594 16.9245 82.291 16.7969 82.1543C16.6738 82.0176 16.6123 81.8467 16.6123 81.6416ZM21.4492 83.6035L21.4834 84.4238C22.0257 83.7858 22.7572 83.4668 23.6777 83.4668C24.7122 83.4668 25.4163 83.8633 25.79 84.6562C26.0361 84.3008 26.3551 84.0137 26.7471 83.7949C27.1436 83.5762 27.6107 83.4668 28.1484 83.4668C29.7708 83.4668 30.5957 84.3258 30.623 86.0439V91H29.3584V86.1191C29.3584 85.5905 29.2376 85.1963 28.9961 84.9365C28.7546 84.6722 28.349 84.54 27.7793 84.54C27.3099 84.54 26.9202 84.6813 26.6104 84.9639C26.3005 85.2419 26.1204 85.6178 26.0703 86.0918V91H24.7988V86.1533C24.7988 85.0778 24.2725 84.54 23.2197 84.54C22.3903 84.54 21.8229 84.8932 21.5176 85.5996V91H20.2529V83.6035H21.4492ZM41.0762 91C41.0033 90.8542 40.944 90.5944 40.8984 90.2207C40.3105 90.8314 39.6087 91.1367 38.793 91.1367C38.0638 91.1367 37.4645 90.9316 36.9951 90.5215C36.5303 90.1068 36.2979 89.5827 36.2979 88.9492C36.2979 88.179 36.5895 87.582 37.1729 87.1582C37.7607 86.7298 38.5856 86.5156 39.6475 86.5156H40.8779V85.9346C40.8779 85.4925 40.7458 85.1416 40.4814 84.8818C40.2171 84.6175 39.8275 84.4854 39.3125 84.4854C38.8613 84.4854 38.4831 84.5993 38.1777 84.8271C37.8724 85.055 37.7197 85.3307 37.7197 85.6543H36.4482C36.4482 85.2852 36.5781 84.9297 36.8379 84.5879C37.1022 84.2415 37.4577 83.9681 37.9043 83.7676C38.3555 83.5671 38.8499 83.4668 39.3877 83.4668C40.2399 83.4668 40.9076 83.681 41.3906 84.1094C41.8737 84.5332 42.1243 85.1188 42.1426 85.8662V89.2705C42.1426 89.9495 42.2292 90.4896 42.4023 90.8906V91H41.0762ZM38.9775 90.0361C39.374 90.0361 39.75 89.9336 40.1055 89.7285C40.4609 89.5234 40.7184 89.2568 40.8779 88.9287V87.4111H39.8867C38.3372 87.4111 37.5625 87.8646 37.5625 88.7715C37.5625 89.168 37.6947 89.4779 37.959 89.7012C38.2233 89.9245 38.5628 90.0361 38.9775 90.0361ZM44.0674 87.2402C44.0674 86.1055 44.3363 85.194 44.874 84.5059C45.4118 83.8132 46.1159 83.4668 46.9863 83.4668C47.8522 83.4668 48.5381 83.763 49.0439 84.3555V80.5H50.3086V91H49.1465L49.085 90.207C48.5791 90.8268 47.875 91.1367 46.9727 91.1367C46.1159 91.1367 45.4163 90.7858 44.874 90.084C44.3363 89.3822 44.0674 88.4661 44.0674 87.3359V87.2402ZM45.332 87.3838C45.332 88.2223 45.5052 88.8786 45.8516 89.3525C46.1979 89.8265 46.6764 90.0635 47.2871 90.0635C48.0892 90.0635 48.6748 89.7035 49.0439 88.9834V85.5859C48.6657 84.8887 48.0846 84.54 47.3008 84.54C46.681 84.54 46.1979 84.7793 45.8516 85.2578C45.5052 85.7363 45.332 86.445 45.332 87.3838ZM57.4395 83.6035L57.4736 84.4238C58.016 83.7858 58.7474 83.4668 59.668 83.4668C60.7025 83.4668 61.4066 83.8633 61.7803 84.6562C62.0264 84.3008 62.3454 84.0137 62.7373 83.7949C63.1338 83.5762 63.6009 83.4668 64.1387 83.4668C65.7611 83.4668 66.5859 84.3258 66.6133 86.0439V91H65.3486V86.1191C65.3486 85.5905 65.2279 85.1963 64.9863 84.9365C64.7448 84.6722 64.3392 84.54 63.7695 84.54C63.3001 84.54 62.9105 84.6813 62.6006 84.9639C62.2907 85.2419 62.1107 85.6178 62.0605 86.0918V91H60.7891V86.1533C60.7891 85.0778 60.2627 84.54 59.21 84.54C58.3805 84.54 57.8132 84.8932 57.5078 85.5996V91H56.2432V83.6035H57.4395ZM70.1514 91H68.8867V83.6035H70.1514V91ZM68.7842 81.6416C68.7842 81.4365 68.8457 81.2633 68.9688 81.1221C69.0964 80.9808 69.2832 80.9102 69.5293 80.9102C69.7754 80.9102 69.9622 80.9808 70.0898 81.1221C70.2174 81.2633 70.2812 81.4365 70.2812 81.6416C70.2812 81.8467 70.2174 82.0176 70.0898 82.1543C69.9622 82.291 69.7754 82.3594 69.5293 82.3594C69.2832 82.3594 69.0964 82.291 68.9688 82.1543C68.8457 82.0176 68.7842 81.8467 68.7842 81.6416ZM73.6279 83.6035L73.6689 84.5332C74.234 83.8223 74.9723 83.4668 75.8838 83.4668C77.4469 83.4668 78.2354 84.3486 78.249 86.1123V91H76.9844V86.1055C76.9798 85.5723 76.8568 85.1781 76.6152 84.9229C76.3783 84.6676 76.0068 84.54 75.501 84.54C75.0908 84.54 74.7308 84.6494 74.4209 84.8682C74.111 85.0869 73.8695 85.374 73.6963 85.7295V91H72.4316V83.6035H73.6279ZM81.7803 91H80.5156V83.6035H81.7803V91ZM80.4131 81.6416C80.4131 81.4365 80.4746 81.2633 80.5977 81.1221C80.7253 80.9808 80.9121 80.9102 81.1582 80.9102C81.4043 80.9102 81.5911 80.9808 81.7188 81.1221C81.8464 81.2633 81.9102 81.4365 81.9102 81.6416C81.9102 81.8467 81.8464 82.0176 81.7188 82.1543C81.5911 82.291 81.4043 82.3594 81.1582 82.3594C80.9121 82.3594 80.7253 82.291 80.5977 82.1543C80.4746 82.0176 80.4131 81.8467 80.4131 81.6416ZM85.25 83.6035L85.2842 84.4238C85.8265 83.7858 86.5579 83.4668 87.4785 83.4668C88.513 83.4668 89.2171 83.8633 89.5908 84.6562C89.8369 84.3008 90.1559 84.0137 90.5479 83.7949C90.9443 83.5762 91.4115 83.4668 91.9492 83.4668C93.5716 83.4668 94.3965 84.3258 94.4238 86.0439V91H93.1592V86.1191C93.1592 85.5905 93.0384 85.1963 92.7969 84.9365C92.5553 84.6722 92.1497 84.54 91.5801 84.54C91.1107 84.54 90.721 84.6813 90.4111 84.9639C90.1012 85.2419 89.9212 85.6178 89.8711 86.0918V91H88.5996V86.1533C88.5996 85.0778 88.0732 84.54 87.0205 84.54C86.1911 84.54 85.6237 84.8932 85.3184 85.5996V91H84.0537V83.6035H85.25ZM102.751 89.2842L104.583 83.6035H105.875L103.223 91H102.259L99.5791 83.6035H100.871L102.751 89.2842ZM110.315 91.1367C109.313 91.1367 108.497 90.8086 107.868 90.1523C107.239 89.4915 106.925 88.6097 106.925 87.5068V87.2744C106.925 86.5407 107.064 85.8867 107.342 85.3125C107.624 84.7337 108.016 84.2826 108.518 83.959C109.023 83.6309 109.57 83.4668 110.158 83.4668C111.12 83.4668 111.867 83.7835 112.4 84.417C112.934 85.0505 113.2 85.9574 113.2 87.1377V87.6641H108.189C108.208 88.3932 108.42 88.9834 108.825 89.4346C109.235 89.8812 109.755 90.1045 110.384 90.1045C110.83 90.1045 111.209 90.0133 111.519 89.8311C111.828 89.6488 112.1 89.4072 112.332 89.1064L113.104 89.708C112.485 90.6605 111.555 91.1367 110.315 91.1367ZM110.158 84.5059C109.648 84.5059 109.219 84.6927 108.873 85.0664C108.527 85.4355 108.312 85.9551 108.23 86.625H111.936V86.5293C111.899 85.8867 111.726 85.39 111.416 85.0391C111.106 84.6836 110.687 84.5059 110.158 84.5059ZM116.116 83.6035L116.157 84.5332C116.722 83.8223 117.461 83.4668 118.372 83.4668C119.935 83.4668 120.724 84.3486 120.737 86.1123V91H119.473V86.1055C119.468 85.5723 119.345 85.1781 119.104 84.9229C118.867 84.6676 118.495 84.54 117.989 84.54C117.579 84.54 117.219 84.6494 116.909 84.8682C116.599 85.0869 116.358 85.374 116.185 85.7295V91H114.92V83.6035H116.116ZM124.269 91H123.004V83.6035H124.269V91ZM122.901 81.6416C122.901 81.4365 122.963 81.2633 123.086 81.1221C123.214 80.9808 123.4 80.9102 123.646 80.9102C123.893 80.9102 124.079 80.9808 124.207 81.1221C124.335 81.2633 124.398 81.4365 124.398 81.6416C124.398 81.8467 124.335 82.0176 124.207 82.1543C124.079 82.291 123.893 82.3594 123.646 82.3594C123.4 82.3594 123.214 82.291 123.086 82.1543C122.963 82.0176 122.901 81.8467 122.901 81.6416ZM131.115 91C131.042 90.8542 130.983 90.5944 130.938 90.2207C130.35 90.8314 129.648 91.1367 128.832 91.1367C128.103 91.1367 127.504 90.9316 127.034 90.5215C126.569 90.1068 126.337 89.5827 126.337 88.9492C126.337 88.179 126.629 87.582 127.212 87.1582C127.8 86.7298 128.625 86.5156 129.687 86.5156H130.917V85.9346C130.917 85.4925 130.785 85.1416 130.521 84.8818C130.256 84.6175 129.867 84.4854 129.352 84.4854C128.9 84.4854 128.522 84.5993 128.217 84.8271C127.911 85.055 127.759 85.3307 127.759 85.6543H126.487C126.487 85.2852 126.617 84.9297 126.877 84.5879C127.141 84.2415 127.497 83.9681 127.943 83.7676C128.395 83.5671 128.889 83.4668 129.427 83.4668C130.279 83.4668 130.947 83.681 131.43 84.1094C131.913 84.5332 132.163 85.1188 132.182 85.8662V89.2705C132.182 89.9495 132.268 90.4896 132.441 90.8906V91H131.115ZM129.017 90.0361C129.413 90.0361 129.789 89.9336 130.145 89.7285C130.5 89.5234 130.757 89.2568 130.917 88.9287V87.4111H129.926C128.376 87.4111 127.602 87.8646 127.602 88.7715C127.602 89.168 127.734 89.4779 127.998 89.7012C128.262 89.9245 128.602 90.0361 129.017 90.0361ZM135.604 83.6035L135.638 84.4238C136.18 83.7858 136.911 83.4668 137.832 83.4668C138.867 83.4668 139.571 83.8633 139.944 84.6562C140.19 84.3008 140.509 84.0137 140.901 83.7949C141.298 83.5762 141.765 83.4668 142.303 83.4668C143.925 83.4668 144.75 84.3258 144.777 86.0439V91H143.513V86.1191C143.513 85.5905 143.392 85.1963 143.15 84.9365C142.909 84.6722 142.503 84.54 141.934 84.54C141.464 84.54 141.075 84.6813 140.765 84.9639C140.455 85.2419 140.275 85.6178 140.225 86.0918V91H138.953V86.1533C138.953 85.0778 138.427 84.54 137.374 84.54C136.545 84.54 135.977 84.8932 135.672 85.5996V91H134.407V83.6035H135.604ZM146.9 92.9824L146.183 92.4902C146.611 91.8932 146.834 91.278 146.853 90.6445V89.5029H148.09V90.4941C148.09 90.9544 147.976 91.4147 147.748 91.875C147.525 92.3353 147.242 92.7044 146.9 92.9824Z" fill="white" fill-opacity="0.6"/>
</svg>
