<svg width="360" height="65" viewBox="0 0 360 65" fill="none" xmlns="http://www.w3.org/2000/svg">
<path d="M18.4746 26.9268H23.1914V28H17.1553V18.0469H18.4746V26.9268ZM24.4053 24.2334C24.4053 23.5088 24.5465 22.8571 24.8291 22.2783C25.1162 21.6995 25.5127 21.2529 26.0186 20.9385C26.529 20.624 27.11 20.4668 27.7617 20.4668C28.7689 20.4668 29.5824 20.8154 30.2021 21.5127C30.8265 22.21 31.1387 23.1374 31.1387 24.2949V24.3838C31.1387 25.1038 30.9997 25.751 30.7217 26.3252C30.4482 26.8949 30.054 27.3392 29.5391 27.6582C29.0286 27.9772 28.4408 28.1367 27.7754 28.1367C26.7728 28.1367 25.9593 27.7881 25.335 27.0908C24.7152 26.3936 24.4053 25.4707 24.4053 24.3223V24.2334ZM25.6768 24.3838C25.6768 25.2041 25.8659 25.8626 26.2441 26.3594C26.627 26.8561 27.1374 27.1045 27.7754 27.1045C28.418 27.1045 28.9284 26.8538 29.3066 26.3525C29.6849 25.8467 29.874 25.1403 29.874 24.2334C29.874 23.4222 29.6803 22.766 29.293 22.2646C28.9102 21.7588 28.3997 21.5059 27.7617 21.5059C27.1374 21.5059 26.6338 21.7542 26.251 22.251C25.8682 22.7477 25.6768 23.4587 25.6768 24.3838ZM36.5498 21.7383C36.3584 21.7064 36.151 21.6904 35.9277 21.6904C35.0983 21.6904 34.5355 22.0436 34.2393 22.75V28H32.9746V20.6035H34.2051L34.2256 21.458C34.6403 20.7972 35.2282 20.4668 35.9893 20.4668C36.2354 20.4668 36.4222 20.4987 36.5498 20.5625V21.7383ZM40.9014 28.1367C39.8988 28.1367 39.083 27.8086 38.4541 27.1523C37.8252 26.4915 37.5107 25.6097 37.5107 24.5068V24.2744C37.5107 23.5407 37.6497 22.8867 37.9277 22.3125C38.2103 21.7337 38.6022 21.2826 39.1035 20.959C39.6094 20.6309 40.1562 20.4668 40.7441 20.4668C41.7057 20.4668 42.4531 20.7835 42.9863 21.417C43.5195 22.0505 43.7861 22.9574 43.7861 24.1377V24.6641H38.7754C38.7936 25.3932 39.0055 25.9834 39.4111 26.4346C39.8213 26.8812 40.3408 27.1045 40.9697 27.1045C41.4163 27.1045 41.7946 27.0133 42.1045 26.8311C42.4144 26.6488 42.6855 26.4072 42.918 26.1064L43.6904 26.708C43.0706 27.6605 42.141 28.1367 40.9014 28.1367ZM40.7441 21.5059C40.2337 21.5059 39.8053 21.6927 39.459 22.0664C39.1126 22.4355 38.8984 22.9551 38.8164 23.625H42.5215V23.5293C42.485 22.8867 42.3118 22.39 42.002 22.0391C41.6921 21.6836 41.2728 21.5059 40.7441 21.5059ZM46.6953 20.6035L46.7295 21.4238C47.2718 20.7858 48.0033 20.4668 48.9238 20.4668C49.9583 20.4668 50.6624 20.8633 51.0361 21.6562C51.2822 21.3008 51.6012 21.0137 51.9932 20.7949C52.3896 20.5762 52.8568 20.4668 53.3945 20.4668C55.0169 20.4668 55.8418 21.3258 55.8691 23.0439V28H54.6045V23.1191C54.6045 22.5905 54.4837 22.1963 54.2422 21.9365C54.0007 21.6722 53.5951 21.54 53.0254 21.54C52.556 21.54 52.1663 21.6813 51.8564 21.9639C51.5465 22.2419 51.3665 22.6178 51.3164 23.0918V28H50.0449V23.1533C50.0449 22.0778 49.5186 21.54 48.4658 21.54C47.6364 21.54 47.069 21.8932 46.7637 22.5996V28H45.499V20.6035H46.6953ZM63.1299 28H61.8652V20.6035H63.1299V28ZM61.7627 18.6416C61.7627 18.4365 61.8242 18.2633 61.9473 18.1221C62.0749 17.9808 62.2617 17.9102 62.5078 17.9102C62.7539 17.9102 62.9408 17.9808 63.0684 18.1221C63.196 18.2633 63.2598 18.4365 63.2598 18.6416C63.2598 18.8467 63.196 19.0176 63.0684 19.1543C62.9408 19.291 62.7539 19.3594 62.5078 19.3594C62.2617 19.3594 62.0749 19.291 61.9473 19.1543C61.8242 19.0176 61.7627 18.8467 61.7627 18.6416ZM71.6582 24.3838C71.6582 25.5094 71.4007 26.4163 70.8857 27.1045C70.3708 27.7926 69.6735 28.1367 68.7939 28.1367C67.8962 28.1367 67.1898 27.8519 66.6748 27.2822V30.8438H65.4102V20.6035H66.5654L66.627 21.4238C67.1419 20.7858 67.8574 20.4668 68.7734 20.4668C69.6621 20.4668 70.3639 20.8018 70.8789 21.4717C71.3984 22.1416 71.6582 23.0736 71.6582 24.2676V24.3838ZM70.3936 24.2402C70.3936 23.4062 70.2158 22.7477 69.8604 22.2646C69.5049 21.7816 69.0173 21.54 68.3975 21.54C67.6318 21.54 67.0576 21.8796 66.6748 22.5586V26.0928C67.0531 26.7673 67.6318 27.1045 68.4111 27.1045C69.0173 27.1045 69.498 26.8652 69.8535 26.3867C70.2135 25.9036 70.3936 25.1882 70.3936 24.2402ZM77.8281 26.0381C77.8281 25.6963 77.6982 25.432 77.4385 25.2451C77.1833 25.0537 76.7344 24.8896 76.0918 24.7529C75.4538 24.6162 74.9456 24.4521 74.5674 24.2607C74.1937 24.0693 73.9157 23.8415 73.7334 23.5771C73.5557 23.3128 73.4668 22.9984 73.4668 22.6338C73.4668 22.0277 73.722 21.515 74.2324 21.0957C74.7474 20.6764 75.4036 20.4668 76.2012 20.4668C77.0397 20.4668 77.7188 20.6833 78.2383 21.1162C78.7624 21.5492 79.0244 22.1029 79.0244 22.7773H77.7529C77.7529 22.431 77.6048 22.1325 77.3086 21.8818C77.0169 21.6312 76.6478 21.5059 76.2012 21.5059C75.7409 21.5059 75.3809 21.6061 75.1211 21.8066C74.8613 22.0072 74.7314 22.2692 74.7314 22.5928C74.7314 22.8981 74.8522 23.1283 75.0938 23.2832C75.3353 23.4382 75.7705 23.5863 76.3994 23.7275C77.0329 23.8688 77.5456 24.0374 77.9375 24.2334C78.3294 24.4294 78.6188 24.6663 78.8057 24.9443C78.9971 25.2178 79.0928 25.5527 79.0928 25.9492C79.0928 26.61 78.8285 27.141 78.2998 27.542C77.7712 27.9385 77.0853 28.1367 76.2422 28.1367C75.6497 28.1367 75.1257 28.0319 74.6699 27.8223C74.2142 27.6126 73.8564 27.321 73.5967 26.9473C73.3415 26.569 73.2139 26.1611 73.2139 25.7236H74.4785C74.5013 26.1475 74.6699 26.4847 74.9844 26.7354C75.3034 26.9814 75.7227 27.1045 76.2422 27.1045C76.7207 27.1045 77.1035 27.0088 77.3906 26.8174C77.6823 26.6214 77.8281 26.3617 77.8281 26.0381ZM85.5566 27.2686C85.0645 27.8473 84.3421 28.1367 83.3896 28.1367C82.6012 28.1367 81.9997 27.9089 81.585 27.4531C81.1748 26.9928 80.9674 26.3138 80.9629 25.416V20.6035H82.2275V25.3818C82.2275 26.5029 82.6833 27.0635 83.5947 27.0635C84.5609 27.0635 85.2035 26.7035 85.5225 25.9834V20.6035H86.7871V28H85.584L85.5566 27.2686ZM90.1543 20.6035L90.1885 21.4238C90.7308 20.7858 91.4622 20.4668 92.3828 20.4668C93.4173 20.4668 94.1214 20.8633 94.4951 21.6562C94.7412 21.3008 95.0602 21.0137 95.4521 20.7949C95.8486 20.5762 96.3158 20.4668 96.8535 20.4668C98.4759 20.4668 99.3008 21.3258 99.3281 23.0439V28H98.0635V23.1191C98.0635 22.5905 97.9427 22.1963 97.7012 21.9365C97.4596 21.6722 97.054 21.54 96.4844 21.54C96.015 21.54 95.6253 21.6813 95.3154 21.9639C95.0055 22.2419 94.8255 22.6178 94.7754 23.0918V28H93.5039V23.1533C93.5039 22.0778 92.9775 21.54 91.9248 21.54C91.0954 21.54 90.528 21.8932 90.2227 22.5996V28H88.958V20.6035H90.1543ZM104.907 24.2402C104.907 23.1055 105.176 22.194 105.714 21.5059C106.252 20.8132 106.956 20.4668 107.826 20.4668C108.692 20.4668 109.378 20.763 109.884 21.3555V17.5H111.148V28H109.986L109.925 27.207C109.419 27.8268 108.715 28.1367 107.812 28.1367C106.956 28.1367 106.256 27.7858 105.714 27.084C105.176 26.3822 104.907 25.4661 104.907 24.3359V24.2402ZM106.172 24.3838C106.172 25.2223 106.345 25.8786 106.691 26.3525C107.038 26.8265 107.516 27.0635 108.127 27.0635C108.929 27.0635 109.515 26.7035 109.884 25.9834V22.5859C109.506 21.8887 108.924 21.54 108.141 21.54C107.521 21.54 107.038 21.7793 106.691 22.2578C106.345 22.7363 106.172 23.445 106.172 24.3838ZM113.032 24.2334C113.032 23.5088 113.174 22.8571 113.456 22.2783C113.743 21.6995 114.14 21.2529 114.646 20.9385C115.156 20.624 115.737 20.4668 116.389 20.4668C117.396 20.4668 118.209 20.8154 118.829 21.5127C119.453 22.21 119.766 23.1374 119.766 24.2949V24.3838C119.766 25.1038 119.627 25.751 119.349 26.3252C119.075 26.8949 118.681 27.3392 118.166 27.6582C117.656 27.9772 117.068 28.1367 116.402 28.1367C115.4 28.1367 114.586 27.7881 113.962 27.0908C113.342 26.3936 113.032 25.4707 113.032 24.3223V24.2334ZM114.304 24.3838C114.304 25.2041 114.493 25.8626 114.871 26.3594C115.254 26.8561 115.764 27.1045 116.402 27.1045C117.045 27.1045 117.555 26.8538 117.934 26.3525C118.312 25.8467 118.501 25.1403 118.501 24.2334C118.501 23.4222 118.307 22.766 117.92 22.2646C117.537 21.7588 117.027 21.5059 116.389 21.5059C115.764 21.5059 115.261 21.7542 114.878 22.251C114.495 22.7477 114.304 23.4587 114.304 24.3838ZM122.976 28H121.711V17.5H122.976V28ZM124.921 24.2334C124.921 23.5088 125.062 22.8571 125.345 22.2783C125.632 21.6995 126.028 21.2529 126.534 20.9385C127.045 20.624 127.626 20.4668 128.277 20.4668C129.285 20.4668 130.098 20.8154 130.718 21.5127C131.342 22.21 131.654 23.1374 131.654 24.2949V24.3838C131.654 25.1038 131.515 25.751 131.237 26.3252C130.964 26.8949 130.57 27.3392 130.055 27.6582C129.544 27.9772 128.956 28.1367 128.291 28.1367C127.288 28.1367 126.475 27.7881 125.851 27.0908C125.231 26.3936 124.921 25.4707 124.921 24.3223V24.2334ZM126.192 24.3838C126.192 25.2041 126.382 25.8626 126.76 26.3594C127.143 26.8561 127.653 27.1045 128.291 27.1045C128.934 27.1045 129.444 26.8538 129.822 26.3525C130.201 25.8467 130.39 25.1403 130.39 24.2334C130.39 23.4222 130.196 22.766 129.809 22.2646C129.426 21.7588 128.915 21.5059 128.277 21.5059C127.653 21.5059 127.149 21.7542 126.767 22.251C126.384 22.7477 126.192 23.4587 126.192 24.3838ZM137.065 21.7383C136.874 21.7064 136.667 21.6904 136.443 21.6904C135.614 21.6904 135.051 22.0436 134.755 22.75V28H133.49V20.6035H134.721L134.741 21.458C135.156 20.7972 135.744 20.4668 136.505 20.4668C136.751 20.4668 136.938 20.4987 137.065 20.5625V21.7383ZM146.514 26.0381C146.514 25.6963 146.384 25.432 146.124 25.2451C145.869 25.0537 145.42 24.8896 144.777 24.7529C144.139 24.6162 143.631 24.4521 143.253 24.2607C142.879 24.0693 142.601 23.8415 142.419 23.5771C142.241 23.3128 142.152 22.9984 142.152 22.6338C142.152 22.0277 142.408 21.515 142.918 21.0957C143.433 20.6764 144.089 20.4668 144.887 20.4668C145.725 20.4668 146.404 20.6833 146.924 21.1162C147.448 21.5492 147.71 22.1029 147.71 22.7773H146.438C146.438 22.431 146.29 22.1325 145.994 21.8818C145.702 21.6312 145.333 21.5059 144.887 21.5059C144.426 21.5059 144.066 21.6061 143.807 21.8066C143.547 22.0072 143.417 22.2692 143.417 22.5928C143.417 22.8981 143.538 23.1283 143.779 23.2832C144.021 23.4382 144.456 23.5863 145.085 23.7275C145.718 23.8688 146.231 24.0374 146.623 24.2334C147.015 24.4294 147.304 24.6663 147.491 24.9443C147.683 25.2178 147.778 25.5527 147.778 25.9492C147.778 26.61 147.514 27.141 146.985 27.542C146.457 27.9385 145.771 28.1367 144.928 28.1367C144.335 28.1367 143.811 28.0319 143.355 27.8223C142.9 27.6126 142.542 27.321 142.282 26.9473C142.027 26.569 141.899 26.1611 141.899 25.7236H143.164C143.187 26.1475 143.355 26.4847 143.67 26.7354C143.989 26.9814 144.408 27.1045 144.928 27.1045C145.406 27.1045 145.789 27.0088 146.076 26.8174C146.368 26.6214 146.514 26.3617 146.514 26.0381ZM151.05 28H149.785V20.6035H151.05V28ZM149.683 18.6416C149.683 18.4365 149.744 18.2633 149.867 18.1221C149.995 17.9808 150.182 17.9102 150.428 17.9102C150.674 17.9102 150.861 17.9808 150.988 18.1221C151.116 18.2633 151.18 18.4365 151.18 18.6416C151.18 18.8467 151.116 19.0176 150.988 19.1543C150.861 19.291 150.674 19.3594 150.428 19.3594C150.182 19.3594 149.995 19.291 149.867 19.1543C149.744 19.0176 149.683 18.8467 149.683 18.6416ZM155.046 18.8125V20.6035H156.427V21.5811H155.046V26.168C155.046 26.4642 155.107 26.6875 155.23 26.8379C155.354 26.9837 155.563 27.0566 155.859 27.0566C156.005 27.0566 156.206 27.0293 156.461 26.9746V28C156.128 28.0911 155.805 28.1367 155.49 28.1367C154.925 28.1367 154.499 27.9658 154.212 27.624C153.925 27.2822 153.781 26.7969 153.781 26.168V21.5811H152.435V20.6035H153.781V18.8125H155.046ZM166.449 28C166.376 27.8542 166.317 27.5944 166.271 27.2207C165.684 27.8314 164.982 28.1367 164.166 28.1367C163.437 28.1367 162.838 27.9316 162.368 27.5215C161.903 27.1068 161.671 26.5827 161.671 25.9492C161.671 25.179 161.963 24.582 162.546 24.1582C163.134 23.7298 163.959 23.5156 165.021 23.5156H166.251V22.9346C166.251 22.4925 166.119 22.1416 165.854 21.8818C165.59 21.6175 165.201 21.4854 164.686 21.4854C164.234 21.4854 163.856 21.5993 163.551 21.8271C163.245 22.055 163.093 22.3307 163.093 22.6543H161.821C161.821 22.2852 161.951 21.9297 162.211 21.5879C162.475 21.2415 162.831 20.9681 163.277 20.7676C163.729 20.5671 164.223 20.4668 164.761 20.4668C165.613 20.4668 166.281 20.681 166.764 21.1094C167.247 21.5332 167.497 22.1188 167.516 22.8662V26.2705C167.516 26.9495 167.602 27.4896 167.775 27.8906V28H166.449ZM164.351 27.0361C164.747 27.0361 165.123 26.9336 165.479 26.7285C165.834 26.5234 166.091 26.2568 166.251 25.9287V24.4111H165.26C163.71 24.4111 162.936 24.8646 162.936 25.7715C162.936 26.168 163.068 26.4779 163.332 26.7012C163.596 26.9245 163.936 27.0361 164.351 27.0361ZM170.938 20.6035L170.972 21.4238C171.514 20.7858 172.245 20.4668 173.166 20.4668C174.201 20.4668 174.905 20.8633 175.278 21.6562C175.524 21.3008 175.843 21.0137 176.235 20.7949C176.632 20.5762 177.099 20.4668 177.637 20.4668C179.259 20.4668 180.084 21.3258 180.111 23.0439V28H178.847V23.1191C178.847 22.5905 178.726 22.1963 178.484 21.9365C178.243 21.6722 177.837 21.54 177.268 21.54C176.798 21.54 176.409 21.6813 176.099 21.9639C175.789 22.2419 175.609 22.6178 175.559 23.0918V28H174.287V23.1533C174.287 22.0778 173.761 21.54 172.708 21.54C171.879 21.54 171.311 21.8932 171.006 22.5996V28H169.741V20.6035H170.938ZM185.345 28.1367C184.342 28.1367 183.526 27.8086 182.897 27.1523C182.269 26.4915 181.954 25.6097 181.954 24.5068V24.2744C181.954 23.5407 182.093 22.8867 182.371 22.3125C182.654 21.7337 183.046 21.2826 183.547 20.959C184.053 20.6309 184.6 20.4668 185.188 20.4668C186.149 20.4668 186.896 20.7835 187.43 21.417C187.963 22.0505 188.229 22.9574 188.229 24.1377V24.6641H183.219C183.237 25.3932 183.449 25.9834 183.854 26.4346C184.265 26.8812 184.784 27.1045 185.413 27.1045C185.86 27.1045 186.238 27.0133 186.548 26.8311C186.858 26.6488 187.129 26.4072 187.361 26.1064L188.134 26.708C187.514 27.6605 186.584 28.1367 185.345 28.1367ZM185.188 21.5059C184.677 21.5059 184.249 21.6927 183.902 22.0664C183.556 22.4355 183.342 22.9551 183.26 23.625H186.965V23.5293C186.928 22.8867 186.755 22.39 186.445 22.0391C186.135 21.6836 185.716 21.5059 185.188 21.5059ZM191.665 18.8125V20.6035H193.046V21.5811H191.665V26.168C191.665 26.4642 191.727 26.6875 191.85 26.8379C191.973 26.9837 192.182 27.0566 192.479 27.0566C192.624 27.0566 192.825 27.0293 193.08 26.9746V28C192.747 28.0911 192.424 28.1367 192.109 28.1367C191.544 28.1367 191.118 27.9658 190.831 27.624C190.544 27.2822 190.4 26.7969 190.4 26.168V21.5811H189.054V20.6035H190.4V18.8125H191.665ZM194.738 29.9824L194.021 29.4902C194.449 28.8932 194.672 28.278 194.69 27.6445V26.5029H195.928V27.4941C195.928 27.9544 195.814 28.4147 195.586 28.875C195.363 29.3353 195.08 29.7044 194.738 29.9824ZM204.467 27.1045C204.918 27.1045 205.312 26.9678 205.649 26.6943C205.987 26.4209 206.174 26.0791 206.21 25.6689H207.406C207.383 26.0928 207.238 26.4961 206.969 26.8789C206.7 27.2617 206.34 27.5671 205.889 27.7949C205.442 28.0228 204.968 28.1367 204.467 28.1367C203.46 28.1367 202.658 27.8018 202.061 27.1318C201.468 26.4574 201.172 25.5368 201.172 24.3701V24.1582C201.172 23.4382 201.304 22.7979 201.568 22.2373C201.833 21.6768 202.211 21.2415 202.703 20.9316C203.2 20.6217 203.785 20.4668 204.46 20.4668C205.289 20.4668 205.978 20.7152 206.524 21.2119C207.076 21.7087 207.37 22.3535 207.406 23.1465H206.21C206.174 22.668 205.991 22.276 205.663 21.9707C205.34 21.6608 204.938 21.5059 204.46 21.5059C203.817 21.5059 203.318 21.7383 202.963 22.2031C202.612 22.6634 202.437 23.3311 202.437 24.2061V24.4453C202.437 25.2975 202.612 25.9538 202.963 26.4141C203.314 26.8743 203.815 27.1045 204.467 27.1045ZM208.743 24.2334C208.743 23.5088 208.884 22.8571 209.167 22.2783C209.454 21.6995 209.851 21.2529 210.356 20.9385C210.867 20.624 211.448 20.4668 212.1 20.4668C213.107 20.4668 213.92 20.8154 214.54 21.5127C215.164 22.21 215.477 23.1374 215.477 24.2949V24.3838C215.477 25.1038 215.338 25.751 215.06 26.3252C214.786 26.8949 214.392 27.3392 213.877 27.6582C213.367 27.9772 212.779 28.1367 212.113 28.1367C211.111 28.1367 210.297 27.7881 209.673 27.0908C209.053 26.3936 208.743 25.4707 208.743 24.3223V24.2334ZM210.015 24.3838C210.015 25.2041 210.204 25.8626 210.582 26.3594C210.965 26.8561 211.475 27.1045 212.113 27.1045C212.756 27.1045 213.266 26.8538 213.645 26.3525C214.023 25.8467 214.212 25.1403 214.212 24.2334C214.212 23.4222 214.018 22.766 213.631 22.2646C213.248 21.7588 212.738 21.5059 212.1 21.5059C211.475 21.5059 210.972 21.7542 210.589 22.251C210.206 22.7477 210.015 23.4587 210.015 24.3838ZM218.509 20.6035L218.55 21.5332C219.115 20.8223 219.853 20.4668 220.765 20.4668C222.328 20.4668 223.116 21.3486 223.13 23.1123V28H221.865V23.1055C221.861 22.5723 221.738 22.1781 221.496 21.9229C221.259 21.6676 220.888 21.54 220.382 21.54C219.972 21.54 219.612 21.6494 219.302 21.8682C218.992 22.0869 218.75 22.374 218.577 22.7295V28H217.312V20.6035H218.509ZM229.594 26.0381C229.594 25.6963 229.464 25.432 229.204 25.2451C228.949 25.0537 228.5 24.8896 227.857 24.7529C227.219 24.6162 226.711 24.4521 226.333 24.2607C225.959 24.0693 225.681 23.8415 225.499 23.5771C225.321 23.3128 225.232 22.9984 225.232 22.6338C225.232 22.0277 225.488 21.515 225.998 21.0957C226.513 20.6764 227.169 20.4668 227.967 20.4668C228.805 20.4668 229.484 20.6833 230.004 21.1162C230.528 21.5492 230.79 22.1029 230.79 22.7773H229.519C229.519 22.431 229.37 22.1325 229.074 21.8818C228.783 21.6312 228.413 21.5059 227.967 21.5059C227.507 21.5059 227.146 21.6061 226.887 21.8066C226.627 22.0072 226.497 22.2692 226.497 22.5928C226.497 22.8981 226.618 23.1283 226.859 23.2832C227.101 23.4382 227.536 23.5863 228.165 23.7275C228.799 23.8688 229.311 24.0374 229.703 24.2334C230.095 24.4294 230.384 24.6663 230.571 24.9443C230.763 25.2178 230.858 25.5527 230.858 25.9492C230.858 26.61 230.594 27.141 230.065 27.542C229.537 27.9385 228.851 28.1367 228.008 28.1367C227.415 28.1367 226.891 28.0319 226.436 27.8223C225.98 27.6126 225.622 27.321 225.362 26.9473C225.107 26.569 224.979 26.1611 224.979 25.7236H226.244C226.267 26.1475 226.436 26.4847 226.75 26.7354C227.069 26.9814 227.488 27.1045 228.008 27.1045C228.486 27.1045 228.869 27.0088 229.156 26.8174C229.448 26.6214 229.594 26.3617 229.594 26.0381ZM235.825 28.1367C234.823 28.1367 234.007 27.8086 233.378 27.1523C232.749 26.4915 232.435 25.6097 232.435 24.5068V24.2744C232.435 23.5407 232.574 22.8867 232.852 22.3125C233.134 21.7337 233.526 21.2826 234.027 20.959C234.533 20.6309 235.08 20.4668 235.668 20.4668C236.63 20.4668 237.377 20.7835 237.91 21.417C238.443 22.0505 238.71 22.9574 238.71 24.1377V24.6641H233.699C233.717 25.3932 233.929 25.9834 234.335 26.4346C234.745 26.8812 235.265 27.1045 235.894 27.1045C236.34 27.1045 236.718 27.0133 237.028 26.8311C237.338 26.6488 237.609 26.4072 237.842 26.1064L238.614 26.708C237.994 27.6605 237.065 28.1367 235.825 28.1367ZM235.668 21.5059C235.158 21.5059 234.729 21.6927 234.383 22.0664C234.036 22.4355 233.822 22.9551 233.74 23.625H237.445V23.5293C237.409 22.8867 237.236 22.39 236.926 22.0391C236.616 21.6836 236.197 21.5059 235.668 21.5059ZM243.396 27.1045C243.848 27.1045 244.242 26.9678 244.579 26.6943C244.916 26.4209 245.103 26.0791 245.14 25.6689H246.336C246.313 26.0928 246.167 26.4961 245.898 26.8789C245.63 27.2617 245.27 27.5671 244.818 27.7949C244.372 28.0228 243.898 28.1367 243.396 28.1367C242.389 28.1367 241.587 27.8018 240.99 27.1318C240.398 26.4574 240.102 25.5368 240.102 24.3701V24.1582C240.102 23.4382 240.234 22.7979 240.498 22.2373C240.762 21.6768 241.141 21.2415 241.633 20.9316C242.13 20.6217 242.715 20.4668 243.39 20.4668C244.219 20.4668 244.907 20.7152 245.454 21.2119C246.006 21.7087 246.299 22.3535 246.336 23.1465H245.14C245.103 22.668 244.921 22.276 244.593 21.9707C244.269 21.6608 243.868 21.5059 243.39 21.5059C242.747 21.5059 242.248 21.7383 241.893 22.2031C241.542 22.6634 241.366 23.3311 241.366 24.2061V24.4453C241.366 25.2975 241.542 25.9538 241.893 26.4141C242.243 26.8743 242.745 27.1045 243.396 27.1045ZM249.724 18.8125V20.6035H251.104V21.5811H249.724V26.168C249.724 26.4642 249.785 26.6875 249.908 26.8379C250.031 26.9837 250.241 27.0566 250.537 27.0566C250.683 27.0566 250.883 27.0293 251.139 26.9746V28C250.806 28.0911 250.482 28.1367 250.168 28.1367C249.603 28.1367 249.177 27.9658 248.89 27.624C248.603 27.2822 248.459 26.7969 248.459 26.168V21.5811H247.112V20.6035H248.459V18.8125H249.724ZM255.907 28.1367C254.905 28.1367 254.089 27.8086 253.46 27.1523C252.831 26.4915 252.517 25.6097 252.517 24.5068V24.2744C252.517 23.5407 252.656 22.8867 252.934 22.3125C253.216 21.7337 253.608 21.2826 254.109 20.959C254.615 20.6309 255.162 20.4668 255.75 20.4668C256.712 20.4668 257.459 20.7835 257.992 21.417C258.525 22.0505 258.792 22.9574 258.792 24.1377V24.6641H253.781C253.799 25.3932 254.011 25.9834 254.417 26.4346C254.827 26.8812 255.347 27.1045 255.976 27.1045C256.422 27.1045 256.8 27.0133 257.11 26.8311C257.42 26.6488 257.691 26.4072 257.924 26.1064L258.696 26.708C258.076 27.6605 257.147 28.1367 255.907 28.1367ZM255.75 21.5059C255.24 21.5059 254.811 21.6927 254.465 22.0664C254.118 22.4355 253.904 22.9551 253.822 23.625H257.527V23.5293C257.491 22.8867 257.318 22.39 257.008 22.0391C256.698 21.6836 256.279 21.5059 255.75 21.5059ZM262.228 18.8125V20.6035H263.608V21.5811H262.228V26.168C262.228 26.4642 262.289 26.6875 262.412 26.8379C262.535 26.9837 262.745 27.0566 263.041 27.0566C263.187 27.0566 263.387 27.0293 263.643 26.9746V28C263.31 28.0911 262.986 28.1367 262.672 28.1367C262.107 28.1367 261.681 27.9658 261.394 27.624C261.106 27.2822 260.963 26.7969 260.963 26.168V21.5811H259.616V20.6035H260.963V18.8125H262.228ZM269.908 27.2686C269.416 27.8473 268.694 28.1367 267.741 28.1367C266.953 28.1367 266.351 27.9089 265.937 27.4531C265.526 26.9928 265.319 26.3138 265.314 25.416V20.6035H266.579V25.3818C266.579 26.5029 267.035 27.0635 267.946 27.0635C268.912 27.0635 269.555 26.7035 269.874 25.9834V20.6035H271.139V28H269.936L269.908 27.2686ZM276.892 21.7383C276.7 21.7064 276.493 21.6904 276.27 21.6904C275.44 21.6904 274.877 22.0436 274.581 22.75V28H273.316V20.6035H274.547L274.567 21.458C274.982 20.7972 275.57 20.4668 276.331 20.4668C276.577 20.4668 276.764 20.4987 276.892 20.5625V21.7383ZM21.5234 48C21.4505 47.8542 21.3913 47.5944 21.3457 47.2207C20.7578 47.8314 20.056 48.1367 19.2402 48.1367C18.5111 48.1367 17.9118 47.9316 17.4424 47.5215C16.9775 47.1068 16.7451 46.5827 16.7451 45.9492C16.7451 45.179 17.0368 44.582 17.6201 44.1582C18.208 43.7298 19.0329 43.5156 20.0947 43.5156H21.3252V42.9346C21.3252 42.4925 21.193 42.1416 20.9287 41.8818C20.6644 41.6175 20.2747 41.4854 19.7598 41.4854C19.3086 41.4854 18.9303 41.5993 18.625 41.8271C18.3197 42.055 18.167 42.3307 18.167 42.6543H16.8955C16.8955 42.2852 17.0254 41.9297 17.2852 41.5879C17.5495 41.2415 17.9049 40.9681 18.3516 40.7676C18.8027 40.5671 19.2972 40.4668 19.835 40.4668C20.6872 40.4668 21.3548 40.681 21.8379 41.1094C22.321 41.5332 22.5716 42.1188 22.5898 42.8662V46.2705C22.5898 46.9495 22.6764 47.4896 22.8496 47.8906V48H21.5234ZM19.4248 47.0361C19.8213 47.0361 20.1973 46.9336 20.5527 46.7285C20.9082 46.5234 21.1657 46.2568 21.3252 45.9287V44.4111H20.334C18.7845 44.4111 18.0098 44.8646 18.0098 45.7715C18.0098 46.168 18.1419 46.4779 18.4062 46.7012C18.6706 46.9245 19.0101 47.0361 19.4248 47.0361ZM24.5146 44.2402C24.5146 43.1055 24.7835 42.194 25.3213 41.5059C25.859 40.8132 26.5632 40.4668 27.4336 40.4668C28.2995 40.4668 28.9854 40.763 29.4912 41.3555V37.5H30.7559V48H29.5938L29.5322 47.207C29.0264 47.8268 28.3223 48.1367 27.4199 48.1367C26.5632 48.1367 25.8636 47.7858 25.3213 47.084C24.7835 46.3822 24.5146 45.4661 24.5146 44.3359V44.2402ZM25.7793 44.3838C25.7793 45.2223 25.9525 45.8786 26.2988 46.3525C26.6452 46.8265 27.1237 47.0635 27.7344 47.0635C28.5365 47.0635 29.1221 46.7035 29.4912 45.9834V42.5859C29.113 41.8887 28.5319 41.54 27.748 41.54C27.1283 41.54 26.6452 41.7793 26.2988 42.2578C25.9525 42.7363 25.7793 43.445 25.7793 44.3838ZM34.3486 48H33.084V40.6035H34.3486V48ZM32.9814 38.6416C32.9814 38.4365 33.043 38.2633 33.166 38.1221C33.2936 37.9808 33.4805 37.9102 33.7266 37.9102C33.9727 37.9102 34.1595 37.9808 34.2871 38.1221C34.4147 38.2633 34.4785 38.4365 34.4785 38.6416C34.4785 38.8467 34.4147 39.0176 34.2871 39.1543C34.1595 39.291 33.9727 39.3594 33.7266 39.3594C33.4805 39.3594 33.2936 39.291 33.166 39.1543C33.043 39.0176 32.9814 38.8467 32.9814 38.6416ZM42.877 44.3838C42.877 45.5094 42.6195 46.4163 42.1045 47.1045C41.5895 47.7926 40.8923 48.1367 40.0127 48.1367C39.1149 48.1367 38.4085 47.8519 37.8936 47.2822V50.8438H36.6289V40.6035H37.7842L37.8457 41.4238C38.3607 40.7858 39.0762 40.4668 39.9922 40.4668C40.8809 40.4668 41.5827 40.8018 42.0977 41.4717C42.6172 42.1416 42.877 43.0736 42.877 44.2676V44.3838ZM41.6123 44.2402C41.6123 43.4062 41.4346 42.7477 41.0791 42.2646C40.7236 41.7816 40.236 41.54 39.6162 41.54C38.8506 41.54 38.2764 41.8796 37.8936 42.5586V46.0928C38.2718 46.7673 38.8506 47.1045 39.6299 47.1045C40.236 47.1045 40.7168 46.8652 41.0723 46.3867C41.4323 45.9036 41.6123 45.1882 41.6123 44.2402ZM46.1143 48H44.8496V40.6035H46.1143V48ZM44.7471 38.6416C44.7471 38.4365 44.8086 38.2633 44.9316 38.1221C45.0592 37.9808 45.2461 37.9102 45.4922 37.9102C45.7383 37.9102 45.9251 37.9808 46.0527 38.1221C46.1803 38.2633 46.2441 38.4365 46.2441 38.6416C46.2441 38.8467 46.1803 39.0176 46.0527 39.1543C45.9251 39.291 45.7383 39.3594 45.4922 39.3594C45.2461 39.3594 45.0592 39.291 44.9316 39.1543C44.8086 39.0176 44.7471 38.8467 44.7471 38.6416ZM52.7012 46.0381C52.7012 45.6963 52.5713 45.432 52.3115 45.2451C52.0563 45.0537 51.6074 44.8896 50.9648 44.7529C50.3268 44.6162 49.8187 44.4521 49.4404 44.2607C49.0667 44.0693 48.7887 43.8415 48.6064 43.5771C48.4287 43.3128 48.3398 42.9984 48.3398 42.6338C48.3398 42.0277 48.5951 41.515 49.1055 41.0957C49.6204 40.6764 50.2767 40.4668 51.0742 40.4668C51.9128 40.4668 52.5918 40.6833 53.1113 41.1162C53.6354 41.5492 53.8975 42.1029 53.8975 42.7773H52.626C52.626 42.431 52.4779 42.1325 52.1816 41.8818C51.89 41.6312 51.5208 41.5059 51.0742 41.5059C50.6139 41.5059 50.2539 41.6061 49.9941 41.8066C49.7344 42.0072 49.6045 42.2692 49.6045 42.5928C49.6045 42.8981 49.7253 43.1283 49.9668 43.2832C50.2083 43.4382 50.6436 43.5863 51.2725 43.7275C51.9059 43.8688 52.4186 44.0374 52.8105 44.2334C53.2025 44.4294 53.4919 44.6663 53.6787 44.9443C53.8701 45.2178 53.9658 45.5527 53.9658 45.9492C53.9658 46.61 53.7015 47.141 53.1729 47.542C52.6442 47.9385 51.9583 48.1367 51.1152 48.1367C50.5228 48.1367 49.9987 48.0319 49.543 47.8223C49.0872 47.6126 48.7295 47.321 48.4697 46.9473C48.2145 46.569 48.0869 46.1611 48.0869 45.7236H49.3516C49.3743 46.1475 49.543 46.4847 49.8574 46.7354C50.1764 46.9814 50.5957 47.1045 51.1152 47.1045C51.5938 47.1045 51.9766 47.0088 52.2637 46.8174C52.5553 46.6214 52.7012 46.3617 52.7012 46.0381ZM58.8301 47.1045C59.2812 47.1045 59.6755 46.9678 60.0127 46.6943C60.3499 46.4209 60.5368 46.0791 60.5732 45.6689H61.7695C61.7467 46.0928 61.6009 46.4961 61.332 46.8789C61.0632 47.2617 60.7031 47.5671 60.252 47.7949C59.8053 48.0228 59.3314 48.1367 58.8301 48.1367C57.8229 48.1367 57.0208 47.8018 56.4238 47.1318C55.8314 46.4574 55.5352 45.5368 55.5352 44.3701V44.1582C55.5352 43.4382 55.6673 42.7979 55.9316 42.2373C56.196 41.6768 56.5742 41.2415 57.0664 40.9316C57.5632 40.6217 58.1488 40.4668 58.8232 40.4668C59.6527 40.4668 60.3408 40.7152 60.8877 41.2119C61.4391 41.7087 61.7331 42.3535 61.7695 43.1465H60.5732C60.5368 42.668 60.3545 42.276 60.0264 41.9707C59.7028 41.6608 59.3018 41.5059 58.8232 41.5059C58.1807 41.5059 57.6816 41.7383 57.3262 42.2031C56.9753 42.6634 56.7998 43.3311 56.7998 44.2061V44.4453C56.7998 45.2975 56.9753 45.9538 57.3262 46.4141C57.6771 46.8743 58.1784 47.1045 58.8301 47.1045ZM64.8154 48H63.5508V40.6035H64.8154V48ZM63.4482 38.6416C63.4482 38.4365 63.5098 38.2633 63.6328 38.1221C63.7604 37.9808 63.9473 37.9102 64.1934 37.9102C64.4395 37.9102 64.6263 37.9808 64.7539 38.1221C64.8815 38.2633 64.9453 38.4365 64.9453 38.6416C64.9453 38.8467 64.8815 39.0176 64.7539 39.1543C64.6263 39.291 64.4395 39.3594 64.1934 39.3594C63.9473 39.3594 63.7604 39.291 63.6328 39.1543C63.5098 39.0176 63.4482 38.8467 63.4482 38.6416ZM68.292 40.6035L68.333 41.5332C68.8981 40.8223 69.6364 40.4668 70.5479 40.4668C72.111 40.4668 72.8994 41.3486 72.9131 43.1123V48H71.6484V43.1055C71.6439 42.5723 71.5208 42.1781 71.2793 41.9229C71.0423 41.6676 70.6709 41.54 70.165 41.54C69.7549 41.54 69.3949 41.6494 69.085 41.8682C68.7751 42.0869 68.5335 42.374 68.3604 42.7295V48H67.0957V40.6035H68.292ZM74.7695 44.2402C74.7695 43.0872 75.0361 42.1712 75.5693 41.4922C76.1025 40.8086 76.8089 40.4668 77.6885 40.4668C78.5908 40.4668 79.2949 40.7858 79.8008 41.4238L79.8623 40.6035H81.0176V47.8223C81.0176 48.7793 80.7327 49.5335 80.1631 50.085C79.598 50.6364 78.8369 50.9121 77.8799 50.9121C77.3467 50.9121 76.8249 50.7982 76.3145 50.5703C75.804 50.3424 75.4144 50.0303 75.1455 49.6338L75.8018 48.875C76.3441 49.5449 77.0072 49.8799 77.791 49.8799C78.4062 49.8799 78.8848 49.7067 79.2266 49.3604C79.5729 49.014 79.7461 48.5264 79.7461 47.8975V47.2617C79.2402 47.8451 78.5498 48.1367 77.6748 48.1367C76.8089 48.1367 76.1071 47.7881 75.5693 47.0908C75.0361 46.3936 74.7695 45.4434 74.7695 44.2402ZM76.041 44.3838C76.041 45.2178 76.2119 45.874 76.5537 46.3525C76.8955 46.8265 77.374 47.0635 77.9893 47.0635C78.7868 47.0635 79.3724 46.7012 79.7461 45.9766V42.5996C79.3587 41.8932 78.7777 41.54 78.0029 41.54C77.3877 41.54 76.9069 41.7793 76.5605 42.2578C76.2142 42.7363 76.041 43.445 76.041 44.3838ZM89.9736 48.1367C88.971 48.1367 88.1553 47.8086 87.5264 47.1523C86.8975 46.4915 86.583 45.6097 86.583 44.5068V44.2744C86.583 43.5407 86.722 42.8867 87 42.3125C87.2826 41.7337 87.6745 41.2826 88.1758 40.959C88.6816 40.6309 89.2285 40.4668 89.8164 40.4668C90.778 40.4668 91.5254 40.7835 92.0586 41.417C92.5918 42.0505 92.8584 42.9574 92.8584 44.1377V44.6641H87.8477C87.8659 45.3932 88.0778 45.9834 88.4834 46.4346C88.8936 46.8812 89.4131 47.1045 90.042 47.1045C90.4886 47.1045 90.8669 47.0133 91.1768 46.8311C91.4867 46.6488 91.7578 46.4072 91.9902 46.1064L92.7627 46.708C92.1429 47.6605 91.2132 48.1367 89.9736 48.1367ZM89.8164 41.5059C89.306 41.5059 88.8776 41.6927 88.5312 42.0664C88.1849 42.4355 87.9707 42.9551 87.8887 43.625H91.5938V43.5293C91.5573 42.8867 91.3841 42.39 91.0742 42.0391C90.7643 41.6836 90.3451 41.5059 89.8164 41.5059ZM95.9521 48H94.6875V37.5H95.9521V48ZM99.6064 48H98.3418V40.6035H99.6064V48ZM98.2393 38.6416C98.2393 38.4365 98.3008 38.2633 98.4238 38.1221C98.5514 37.9808 98.7383 37.9102 98.9844 37.9102C99.2305 37.9102 99.4173 37.9808 99.5449 38.1221C99.6725 38.2633 99.7363 38.4365 99.7363 38.6416C99.7363 38.8467 99.6725 39.0176 99.5449 39.1543C99.4173 39.291 99.2305 39.3594 98.9844 39.3594C98.7383 39.3594 98.5514 39.291 98.4238 39.1543C98.3008 39.0176 98.2393 38.8467 98.2393 38.6416ZM103.603 38.8125V40.6035H104.983V41.5811H103.603V46.168C103.603 46.4642 103.664 46.6875 103.787 46.8379C103.91 46.9837 104.12 47.0566 104.416 47.0566C104.562 47.0566 104.762 47.0293 105.018 46.9746V48C104.685 48.0911 104.361 48.1367 104.047 48.1367C103.482 48.1367 103.056 47.9658 102.769 47.624C102.481 47.2822 102.338 46.7969 102.338 46.168V41.5811H100.991V40.6035H102.338V38.8125H103.603ZM106.676 49.9824L105.958 49.4902C106.386 48.8932 106.61 48.278 106.628 47.6445V46.5029H107.865V47.4941C107.865 47.9544 107.751 48.4147 107.523 48.875C107.3 49.3353 107.018 49.7044 106.676 49.9824ZM117.744 46.0381C117.744 45.6963 117.614 45.432 117.354 45.2451C117.099 45.0537 116.65 44.8896 116.008 44.7529C115.37 44.6162 114.862 44.4521 114.483 44.2607C114.11 44.0693 113.832 43.8415 113.649 43.5771C113.472 43.3128 113.383 42.9984 113.383 42.6338C113.383 42.0277 113.638 41.515 114.148 41.0957C114.663 40.6764 115.32 40.4668 116.117 40.4668C116.956 40.4668 117.635 40.6833 118.154 41.1162C118.678 41.5492 118.94 42.1029 118.94 42.7773H117.669C117.669 42.431 117.521 42.1325 117.225 41.8818C116.933 41.6312 116.564 41.5059 116.117 41.5059C115.657 41.5059 115.297 41.6061 115.037 41.8066C114.777 42.0072 114.647 42.2692 114.647 42.5928C114.647 42.8981 114.768 43.1283 115.01 43.2832C115.251 43.4382 115.687 43.5863 116.315 43.7275C116.949 43.8688 117.462 44.0374 117.854 44.2334C118.245 44.4294 118.535 44.6663 118.722 44.9443C118.913 45.2178 119.009 45.5527 119.009 45.9492C119.009 46.61 118.744 47.141 118.216 47.542C117.687 47.9385 117.001 48.1367 116.158 48.1367C115.566 48.1367 115.042 48.0319 114.586 47.8223C114.13 47.6126 113.772 47.321 113.513 46.9473C113.257 46.569 113.13 46.1611 113.13 45.7236H114.395C114.417 46.1475 114.586 46.4847 114.9 46.7354C115.219 46.9814 115.639 47.1045 116.158 47.1045C116.637 47.1045 117.02 47.0088 117.307 46.8174C117.598 46.6214 117.744 46.3617 117.744 46.0381ZM123.976 48.1367C122.973 48.1367 122.157 47.8086 121.528 47.1523C120.899 46.4915 120.585 45.6097 120.585 44.5068V44.2744C120.585 43.5407 120.724 42.8867 121.002 42.3125C121.285 41.7337 121.676 41.2826 122.178 40.959C122.684 40.6309 123.23 40.4668 123.818 40.4668C124.78 40.4668 125.527 40.7835 126.061 41.417C126.594 42.0505 126.86 42.9574 126.86 44.1377V44.6641H121.85C121.868 45.3932 122.08 45.9834 122.485 46.4346C122.896 46.8812 123.415 47.1045 124.044 47.1045C124.491 47.1045 124.869 47.0133 125.179 46.8311C125.489 46.6488 125.76 46.4072 125.992 46.1064L126.765 46.708C126.145 47.6605 125.215 48.1367 123.976 48.1367ZM123.818 41.5059C123.308 41.5059 122.88 41.6927 122.533 42.0664C122.187 42.4355 121.973 42.9551 121.891 43.625H125.596V43.5293C125.559 42.8867 125.386 42.39 125.076 42.0391C124.766 41.6836 124.347 41.5059 123.818 41.5059ZM128.272 44.2402C128.272 43.1055 128.541 42.194 129.079 41.5059C129.617 40.8132 130.321 40.4668 131.191 40.4668C132.057 40.4668 132.743 40.763 133.249 41.3555V37.5H134.514V48H133.352L133.29 47.207C132.784 47.8268 132.08 48.1367 131.178 48.1367C130.321 48.1367 129.621 47.7858 129.079 47.084C128.541 46.3822 128.272 45.4661 128.272 44.3359V44.2402ZM129.537 44.3838C129.537 45.2223 129.71 45.8786 130.057 46.3525C130.403 46.8265 130.882 47.0635 131.492 47.0635C132.294 47.0635 132.88 46.7035 133.249 45.9834V42.5859C132.871 41.8887 132.29 41.54 131.506 41.54C130.886 41.54 130.403 41.7793 130.057 42.2578C129.71 42.7363 129.537 43.445 129.537 44.3838ZM140.147 44.2402C140.147 43.1055 140.416 42.194 140.954 41.5059C141.492 40.8132 142.196 40.4668 143.066 40.4668C143.932 40.4668 144.618 40.763 145.124 41.3555V37.5H146.389V48H145.227L145.165 47.207C144.659 47.8268 143.955 48.1367 143.053 48.1367C142.196 48.1367 141.496 47.7858 140.954 47.084C140.416 46.3822 140.147 45.4661 140.147 44.3359V44.2402ZM141.412 44.3838C141.412 45.2223 141.585 45.8786 141.932 46.3525C142.278 46.8265 142.757 47.0635 143.367 47.0635C144.169 47.0635 144.755 46.7035 145.124 45.9834V42.5859C144.746 41.8887 144.165 41.54 143.381 41.54C142.761 41.54 142.278 41.7793 141.932 42.2578C141.585 42.7363 141.412 43.445 141.412 44.3838ZM148.272 44.2334C148.272 43.5088 148.414 42.8571 148.696 42.2783C148.983 41.6995 149.38 41.2529 149.886 40.9385C150.396 40.624 150.977 40.4668 151.629 40.4668C152.636 40.4668 153.45 40.8154 154.069 41.5127C154.694 42.21 155.006 43.1374 155.006 44.2949V44.3838C155.006 45.1038 154.867 45.751 154.589 46.3252C154.315 46.8949 153.921 47.3392 153.406 47.6582C152.896 47.9772 152.308 48.1367 151.643 48.1367C150.64 48.1367 149.826 47.7881 149.202 47.0908C148.582 46.3936 148.272 45.4707 148.272 44.3223V44.2334ZM149.544 44.3838C149.544 45.2041 149.733 45.8626 150.111 46.3594C150.494 46.8561 151.005 47.1045 151.643 47.1045C152.285 47.1045 152.796 46.8538 153.174 46.3525C153.552 45.8467 153.741 45.1403 153.741 44.2334C153.741 43.4222 153.548 42.766 153.16 42.2646C152.777 41.7588 152.267 41.5059 151.629 41.5059C151.005 41.5059 150.501 41.7542 150.118 42.251C149.735 42.7477 149.544 43.4587 149.544 44.3838ZM163.634 48.1367C162.631 48.1367 161.815 47.8086 161.187 47.1523C160.558 46.4915 160.243 45.6097 160.243 44.5068V44.2744C160.243 43.5407 160.382 42.8867 160.66 42.3125C160.943 41.7337 161.335 41.2826 161.836 40.959C162.342 40.6309 162.889 40.4668 163.477 40.4668C164.438 40.4668 165.186 40.7835 165.719 41.417C166.252 42.0505 166.519 42.9574 166.519 44.1377V44.6641H161.508C161.526 45.3932 161.738 45.9834 162.144 46.4346C162.554 46.8812 163.073 47.1045 163.702 47.1045C164.149 47.1045 164.527 47.0133 164.837 46.8311C165.147 46.6488 165.418 46.4072 165.65 46.1064L166.423 46.708C165.803 47.6605 164.873 48.1367 163.634 48.1367ZM163.477 41.5059C162.966 41.5059 162.538 41.6927 162.191 42.0664C161.845 42.4355 161.631 42.9551 161.549 43.625H165.254V43.5293C165.217 42.8867 165.044 42.39 164.734 42.0391C164.424 41.6836 164.005 41.5059 163.477 41.5059ZM169.612 48H168.348V40.6035H169.612V48ZM168.245 38.6416C168.245 38.4365 168.307 38.2633 168.43 38.1221C168.557 37.9808 168.744 37.9102 168.99 37.9102C169.236 37.9102 169.423 37.9808 169.551 38.1221C169.678 38.2633 169.742 38.4365 169.742 38.6416C169.742 38.8467 169.678 39.0176 169.551 39.1543C169.423 39.291 169.236 39.3594 168.99 39.3594C168.744 39.3594 168.557 39.291 168.43 39.1543C168.307 39.0176 168.245 38.8467 168.245 38.6416ZM176.459 47.2686C175.967 47.8473 175.244 48.1367 174.292 48.1367C173.504 48.1367 172.902 47.9089 172.487 47.4531C172.077 46.9928 171.87 46.3138 171.865 45.416V40.6035H173.13V45.3818C173.13 46.5029 173.586 47.0635 174.497 47.0635C175.463 47.0635 176.106 46.7035 176.425 45.9834V40.6035H177.689V48H176.486L176.459 47.2686ZM184.174 46.0381C184.174 45.6963 184.044 45.432 183.784 45.2451C183.529 45.0537 183.08 44.8896 182.438 44.7529C181.799 44.6162 181.291 44.4521 180.913 44.2607C180.539 44.0693 180.261 43.8415 180.079 43.5771C179.901 43.3128 179.812 42.9984 179.812 42.6338C179.812 42.0277 180.068 41.515 180.578 41.0957C181.093 40.6764 181.749 40.4668 182.547 40.4668C183.385 40.4668 184.064 40.6833 184.584 41.1162C185.108 41.5492 185.37 42.1029 185.37 42.7773H184.099C184.099 42.431 183.951 42.1325 183.654 41.8818C183.363 41.6312 182.993 41.5059 182.547 41.5059C182.087 41.5059 181.727 41.6061 181.467 41.8066C181.207 42.0072 181.077 42.2692 181.077 42.5928C181.077 42.8981 181.198 43.1283 181.439 43.2832C181.681 43.4382 182.116 43.5863 182.745 43.7275C183.379 43.8688 183.891 44.0374 184.283 44.2334C184.675 44.4294 184.965 44.6663 185.151 44.9443C185.343 45.2178 185.438 45.5527 185.438 45.9492C185.438 46.61 185.174 47.141 184.646 47.542C184.117 47.9385 183.431 48.1367 182.588 48.1367C181.995 48.1367 181.471 48.0319 181.016 47.8223C180.56 47.6126 180.202 47.321 179.942 46.9473C179.687 46.569 179.56 46.1611 179.56 45.7236H180.824C180.847 46.1475 181.016 46.4847 181.33 46.7354C181.649 46.9814 182.068 47.1045 182.588 47.1045C183.066 47.1045 183.449 47.0088 183.736 46.8174C184.028 46.6214 184.174 46.3617 184.174 46.0381ZM188.525 40.6035L188.56 41.4238C189.102 40.7858 189.833 40.4668 190.754 40.4668C191.788 40.4668 192.493 40.8633 192.866 41.6562C193.112 41.3008 193.431 41.0137 193.823 40.7949C194.22 40.5762 194.687 40.4668 195.225 40.4668C196.847 40.4668 197.672 41.3258 197.699 43.0439V48H196.435V43.1191C196.435 42.5905 196.314 42.1963 196.072 41.9365C195.831 41.6722 195.425 41.54 194.855 41.54C194.386 41.54 193.996 41.6813 193.687 41.9639C193.377 42.2419 193.197 42.6178 193.146 43.0918V48H191.875V43.1533C191.875 42.0778 191.349 41.54 190.296 41.54C189.466 41.54 188.899 41.8932 188.594 42.5996V48H187.329V40.6035H188.525ZM199.528 44.2334C199.528 43.5088 199.67 42.8571 199.952 42.2783C200.239 41.6995 200.636 41.2529 201.142 40.9385C201.652 40.624 202.233 40.4668 202.885 40.4668C203.892 40.4668 204.705 40.8154 205.325 41.5127C205.95 42.21 206.262 43.1374 206.262 44.2949V44.3838C206.262 45.1038 206.123 45.751 205.845 46.3252C205.571 46.8949 205.177 47.3392 204.662 47.6582C204.152 47.9772 203.564 48.1367 202.898 48.1367C201.896 48.1367 201.082 47.7881 200.458 47.0908C199.838 46.3936 199.528 45.4707 199.528 44.3223V44.2334ZM200.8 44.3838C200.8 45.2041 200.989 45.8626 201.367 46.3594C201.75 46.8561 202.26 47.1045 202.898 47.1045C203.541 47.1045 204.051 46.8538 204.43 46.3525C204.808 45.8467 204.997 45.1403 204.997 44.2334C204.997 43.4222 204.803 42.766 204.416 42.2646C204.033 41.7588 203.523 41.5059 202.885 41.5059C202.26 41.5059 201.757 41.7542 201.374 42.251C200.991 42.7477 200.8 43.4587 200.8 44.3838ZM207.79 44.2402C207.79 43.1055 208.059 42.194 208.597 41.5059C209.134 40.8132 209.839 40.4668 210.709 40.4668C211.575 40.4668 212.261 40.763 212.767 41.3555V37.5H214.031V48H212.869L212.808 47.207C212.302 47.8268 211.598 48.1367 210.695 48.1367C209.839 48.1367 209.139 47.7858 208.597 47.084C208.059 46.3822 207.79 45.4661 207.79 44.3359V44.2402ZM209.055 44.3838C209.055 45.2223 209.228 45.8786 209.574 46.3525C209.921 46.8265 210.399 47.0635 211.01 47.0635C211.812 47.0635 212.397 46.7035 212.767 45.9834V42.5859C212.388 41.8887 211.807 41.54 211.023 41.54C210.404 41.54 209.921 41.7793 209.574 42.2578C209.228 42.7363 209.055 43.445 209.055 44.3838ZM221.688 38.8125V40.6035H223.069V41.5811H221.688V46.168C221.688 46.4642 221.75 46.6875 221.873 46.8379C221.996 46.9837 222.206 47.0566 222.502 47.0566C222.648 47.0566 222.848 47.0293 223.104 46.9746V48C222.771 48.0911 222.447 48.1367 222.133 48.1367C221.568 48.1367 221.142 47.9658 220.854 47.624C220.567 47.2822 220.424 46.7969 220.424 46.168V41.5811H219.077V40.6035H220.424V38.8125H221.688ZM227.872 48.1367C226.869 48.1367 226.054 47.8086 225.425 47.1523C224.796 46.4915 224.481 45.6097 224.481 44.5068V44.2744C224.481 43.5407 224.62 42.8867 224.898 42.3125C225.181 41.7337 225.573 41.2826 226.074 40.959C226.58 40.6309 227.127 40.4668 227.715 40.4668C228.676 40.4668 229.424 40.7835 229.957 41.417C230.49 42.0505 230.757 42.9574 230.757 44.1377V44.6641H225.746C225.764 45.3932 225.976 45.9834 226.382 46.4346C226.792 46.8812 227.312 47.1045 227.94 47.1045C228.387 47.1045 228.765 47.0133 229.075 46.8311C229.385 46.6488 229.656 46.4072 229.889 46.1064L230.661 46.708C230.041 47.6605 229.112 48.1367 227.872 48.1367ZM227.715 41.5059C227.204 41.5059 226.776 41.6927 226.43 42.0664C226.083 42.4355 225.869 42.9551 225.787 43.625H229.492V43.5293C229.456 42.8867 229.283 42.39 228.973 42.0391C228.663 41.6836 228.243 41.5059 227.715 41.5059ZM233.666 40.6035L233.7 41.4238C234.243 40.7858 234.974 40.4668 235.895 40.4668C236.929 40.4668 237.633 40.8633 238.007 41.6562C238.253 41.3008 238.572 41.0137 238.964 40.7949C239.36 40.5762 239.827 40.4668 240.365 40.4668C241.988 40.4668 242.812 41.3258 242.84 43.0439V48H241.575V43.1191C241.575 42.5905 241.454 42.1963 241.213 41.9365C240.971 41.6722 240.566 41.54 239.996 41.54C239.527 41.54 239.137 41.6813 238.827 41.9639C238.517 42.2419 238.337 42.6178 238.287 43.0918V48H237.016V43.1533C237.016 42.0778 236.489 41.54 235.437 41.54C234.607 41.54 234.04 41.8932 233.734 42.5996V48H232.47V40.6035H233.666ZM251.252 44.3838C251.252 45.5094 250.994 46.4163 250.479 47.1045C249.965 47.7926 249.267 48.1367 248.388 48.1367C247.49 48.1367 246.784 47.8519 246.269 47.2822V50.8438H245.004V40.6035H246.159L246.221 41.4238C246.736 40.7858 247.451 40.4668 248.367 40.4668C249.256 40.4668 249.958 40.8018 250.473 41.4717C250.992 42.1416 251.252 43.0736 251.252 44.2676V44.3838ZM249.987 44.2402C249.987 43.4062 249.81 42.7477 249.454 42.2646C249.099 41.7816 248.611 41.54 247.991 41.54C247.226 41.54 246.651 41.8796 246.269 42.5586V46.0928C246.647 46.7673 247.226 47.1045 248.005 47.1045C248.611 47.1045 249.092 46.8652 249.447 46.3867C249.807 45.9036 249.987 45.1882 249.987 44.2402ZM252.78 44.2334C252.78 43.5088 252.922 42.8571 253.204 42.2783C253.491 41.6995 253.888 41.2529 254.394 40.9385C254.904 40.624 255.485 40.4668 256.137 40.4668C257.144 40.4668 257.957 40.8154 258.577 41.5127C259.201 42.21 259.514 43.1374 259.514 44.2949V44.3838C259.514 45.1038 259.375 45.751 259.097 46.3252C258.823 46.8949 258.429 47.3392 257.914 47.6582C257.404 47.9772 256.816 48.1367 256.15 48.1367C255.148 48.1367 254.334 47.7881 253.71 47.0908C253.09 46.3936 252.78 45.4707 252.78 44.3223V44.2334ZM254.052 44.3838C254.052 45.2041 254.241 45.8626 254.619 46.3594C255.002 46.8561 255.512 47.1045 256.15 47.1045C256.793 47.1045 257.303 46.8538 257.682 46.3525C258.06 45.8467 258.249 45.1403 258.249 44.2334C258.249 43.4222 258.055 42.766 257.668 42.2646C257.285 41.7588 256.775 41.5059 256.137 41.5059C255.512 41.5059 255.009 41.7542 254.626 42.251C254.243 42.7477 254.052 43.4587 254.052 44.3838ZM264.925 41.7383C264.733 41.7064 264.526 41.6904 264.303 41.6904C263.473 41.6904 262.91 42.0436 262.614 42.75V48H261.35V40.6035H262.58L262.601 41.458C263.015 40.7972 263.603 40.4668 264.364 40.4668C264.61 40.4668 264.797 40.4987 264.925 40.5625V41.7383Z" fill="white" fill-opacity="0.6"/>
</svg>
