<svg width="344" height="51" viewBox="0 0 344 51" fill="none" xmlns="http://www.w3.org/2000/svg">
<mask id="mask0" mask-type="alpha" maskUnits="userSpaceOnUse" x="8" y="7" width="74" height="36">
<rect x="8" y="7" width="74" height="36" rx="4" fill="white"/>
</mask>
<g mask="url(#mask0)">
<path d="M16.0117 30V20.0469H19.4229C20.5485 20.0469 21.4053 20.2725 21.9932 20.7236C22.5811 21.1748 22.875 21.847 22.875 22.7402C22.875 23.196 22.752 23.6061 22.5059 23.9707C22.2598 24.3353 21.8997 24.6178 21.4258 24.8184C21.9635 24.9642 22.3783 25.2399 22.6699 25.6455C22.9661 26.0465 23.1143 26.5296 23.1143 27.0947C23.1143 28.029 22.8135 28.7467 22.2119 29.248C21.6149 29.7493 20.7581 30 19.6416 30H16.0117ZM17.7412 25.5088V28.6191H19.6621C20.2044 28.6191 20.6283 28.4847 20.9336 28.2158C21.2389 27.9469 21.3916 27.5732 21.3916 27.0947C21.3916 26.0602 20.863 25.5316 19.8057 25.5088H17.7412ZM17.7412 24.2373H19.4365C19.9743 24.2373 20.3936 24.1165 20.6943 23.875C20.9997 23.6289 21.1523 23.2826 21.1523 22.8359C21.1523 22.3438 21.0111 21.9883 20.7285 21.7695C20.4505 21.5508 20.0153 21.4414 19.4229 21.4414H17.7412V24.2373ZM33.374 20.0469V26.6982C33.374 27.7555 33.0345 28.5941 32.3555 29.2139C31.681 29.8291 30.7809 30.1367 29.6553 30.1367C28.516 30.1367 27.6113 29.8337 26.9414 29.2275C26.2715 28.6169 25.9365 27.7715 25.9365 26.6914V20.0469H27.6592V26.7051C27.6592 27.3704 27.8278 27.8786 28.165 28.2295C28.5023 28.5804 28.999 28.7559 29.6553 28.7559C30.986 28.7559 31.6514 28.054 31.6514 26.6504V20.0469H33.374ZM43.668 21.4414H40.5645V30H38.8486V21.4414H35.7725V20.0469H43.668V21.4414ZM53.5312 21.4414H50.4277V30H48.7119V21.4414H45.6357V20.0469H53.5312V21.4414ZM63.8457 25.2832C63.8457 26.2585 63.6771 27.1152 63.3398 27.8535C63.0026 28.5872 62.5195 29.1523 61.8906 29.5488C61.2663 29.9408 60.5462 30.1367 59.7305 30.1367C58.9238 30.1367 58.2038 29.9408 57.5703 29.5488C56.9414 29.1523 56.4538 28.5895 56.1074 27.8604C55.7656 27.1312 55.5924 26.2904 55.5879 25.3379V24.7773C55.5879 23.8066 55.7588 22.9499 56.1006 22.207C56.4469 21.4642 56.9323 20.8968 57.5566 20.5049C58.1855 20.1084 58.9056 19.9102 59.7168 19.9102C60.528 19.9102 61.2458 20.1061 61.8701 20.498C62.499 20.8854 62.9844 21.446 63.3262 22.1797C63.668 22.9089 63.8411 23.7588 63.8457 24.7295V25.2832ZM62.1162 24.7637C62.1162 23.6608 61.9066 22.8154 61.4873 22.2275C61.0726 21.6396 60.4824 21.3457 59.7168 21.3457C58.9694 21.3457 58.3838 21.6396 57.96 22.2275C57.5407 22.8109 57.3265 23.638 57.3174 24.709V25.2832C57.3174 26.377 57.5293 27.2223 57.9531 27.8193C58.3815 28.4163 58.974 28.7148 59.7305 28.7148C60.4961 28.7148 61.084 28.4232 61.4941 27.8398C61.9089 27.2565 62.1162 26.4043 62.1162 25.2832V24.7637ZM74.7139 30H72.9844L68.5479 22.9385V30H66.8184V20.0469H68.5479L72.998 27.1357V20.0469H74.7139V30Z" fill="white" fill-opacity="0.38"/>
</g>
<mask id="mask1" mask-type="alpha" maskUnits="userSpaceOnUse" x="98" y="7" width="74" height="36">
<rect x="98" y="7" width="74" height="36" rx="4" fill="white"/>
</mask>
<g mask="url(#mask1)">
<path d="M106.012 30V20.0469H109.423C110.549 20.0469 111.405 20.2725 111.993 20.7236C112.581 21.1748 112.875 21.847 112.875 22.7402C112.875 23.196 112.752 23.6061 112.506 23.9707C112.26 24.3353 111.9 24.6178 111.426 24.8184C111.964 24.9642 112.378 25.2399 112.67 25.6455C112.966 26.0465 113.114 26.5296 113.114 27.0947C113.114 28.029 112.813 28.7467 112.212 29.248C111.615 29.7493 110.758 30 109.642 30H106.012ZM107.741 25.5088V28.6191H109.662C110.204 28.6191 110.628 28.4847 110.934 28.2158C111.239 27.9469 111.392 27.5732 111.392 27.0947C111.392 26.0602 110.863 25.5316 109.806 25.5088H107.741ZM107.741 24.2373H109.437C109.974 24.2373 110.394 24.1165 110.694 23.875C111 23.6289 111.152 23.2826 111.152 22.8359C111.152 22.3438 111.011 21.9883 110.729 21.7695C110.451 21.5508 110.015 21.4414 109.423 21.4414H107.741V24.2373ZM123.374 20.0469V26.6982C123.374 27.7555 123.035 28.5941 122.355 29.2139C121.681 29.8291 120.781 30.1367 119.655 30.1367C118.516 30.1367 117.611 29.8337 116.941 29.2275C116.271 28.6169 115.937 27.7715 115.937 26.6914V20.0469H117.659V26.7051C117.659 27.3704 117.828 27.8786 118.165 28.2295C118.502 28.5804 118.999 28.7559 119.655 28.7559C120.986 28.7559 121.651 28.054 121.651 26.6504V20.0469H123.374ZM133.668 21.4414H130.564V30H128.849V21.4414H125.772V20.0469H133.668V21.4414ZM143.531 21.4414H140.428V30H138.712V21.4414H135.636V20.0469H143.531V21.4414ZM153.846 25.2832C153.846 26.2585 153.677 27.1152 153.34 27.8535C153.003 28.5872 152.52 29.1523 151.891 29.5488C151.266 29.9408 150.546 30.1367 149.73 30.1367C148.924 30.1367 148.204 29.9408 147.57 29.5488C146.941 29.1523 146.454 28.5895 146.107 27.8604C145.766 27.1312 145.592 26.2904 145.588 25.3379V24.7773C145.588 23.8066 145.759 22.9499 146.101 22.207C146.447 21.4642 146.932 20.8968 147.557 20.5049C148.186 20.1084 148.906 19.9102 149.717 19.9102C150.528 19.9102 151.246 20.1061 151.87 20.498C152.499 20.8854 152.984 21.446 153.326 22.1797C153.668 22.9089 153.841 23.7588 153.846 24.7295V25.2832ZM152.116 24.7637C152.116 23.6608 151.907 22.8154 151.487 22.2275C151.073 21.6396 150.482 21.3457 149.717 21.3457C148.969 21.3457 148.384 21.6396 147.96 22.2275C147.541 22.8109 147.326 23.638 147.317 24.709V25.2832C147.317 26.377 147.529 27.2223 147.953 27.8193C148.382 28.4163 148.974 28.7148 149.73 28.7148C150.496 28.7148 151.084 28.4232 151.494 27.8398C151.909 27.2565 152.116 26.4043 152.116 25.2832V24.7637ZM164.714 30H162.984L158.548 22.9385V30H156.818V20.0469H158.548L162.998 27.1357V20.0469H164.714V30Z" fill="white" fill-opacity="0.38"/>
</g>
</svg>
