<svg width="104" height="36" viewBox="0 0 104 36" fill="none" xmlns="http://www.w3.org/2000/svg">
<rect width="104" height="36" rx="4" fill="white" fill-opacity="0.12"/>
<path d="M22.1387 23V13.0469H25.5498C26.6755 13.0469 27.5322 13.2725 28.1201 13.7236C28.708 14.1748 29.002 14.847 29.002 15.7402C29.002 16.196 28.8789 16.6061 28.6328 16.9707C28.3867 17.3353 28.0267 17.6178 27.5527 17.8184C28.0905 17.9642 28.5052 18.2399 28.7969 18.6455C29.0931 19.0465 29.2412 19.5296 29.2412 20.0947C29.2412 21.029 28.9404 21.7467 28.3389 22.248C27.7419 22.7493 26.8851 23 25.7686 23H22.1387ZM23.8682 18.5088V21.6191H25.7891C26.3314 21.6191 26.7552 21.4847 27.0605 21.2158C27.3659 20.9469 27.5186 20.5732 27.5186 20.0947C27.5186 19.0602 26.9899 18.5316 25.9326 18.5088H23.8682ZM23.8682 17.2373H25.5635C26.1012 17.2373 26.5205 17.1165 26.8213 16.875C27.1266 16.6289 27.2793 16.2826 27.2793 15.8359C27.2793 15.3438 27.138 14.9883 26.8555 14.7695C26.5775 14.5508 26.1423 14.4414 25.5498 14.4414H23.8682V17.2373ZM39.501 13.0469V19.6982C39.501 20.7555 39.1615 21.5941 38.4824 22.2139C37.8079 22.8291 36.9079 23.1367 35.7822 23.1367C34.6429 23.1367 33.7383 22.8337 33.0684 22.2275C32.3984 21.6169 32.0635 20.7715 32.0635 19.6914V13.0469H33.7861V19.7051C33.7861 20.3704 33.9548 20.8786 34.292 21.2295C34.6292 21.5804 35.126 21.7559 35.7822 21.7559C37.113 21.7559 37.7783 21.054 37.7783 19.6504V13.0469H39.501ZM49.7949 14.4414H46.6914V23H44.9756V14.4414H41.8994V13.0469H49.7949V14.4414ZM59.6582 14.4414H56.5547V23H54.8389V14.4414H51.7627V13.0469H59.6582V14.4414ZM69.9727 18.2832C69.9727 19.2585 69.804 20.1152 69.4668 20.8535C69.1296 21.5872 68.6465 22.1523 68.0176 22.5488C67.3932 22.9408 66.6732 23.1367 65.8574 23.1367C65.0508 23.1367 64.3307 22.9408 63.6973 22.5488C63.0684 22.1523 62.5807 21.5895 62.2344 20.8604C61.8926 20.1312 61.7194 19.2904 61.7148 18.3379V17.7773C61.7148 16.8066 61.8857 15.9499 62.2275 15.207C62.5739 14.4642 63.0592 13.8968 63.6836 13.5049C64.3125 13.1084 65.0326 12.9102 65.8438 12.9102C66.6549 12.9102 67.3727 13.1061 67.9971 13.498C68.626 13.8854 69.1113 14.446 69.4531 15.1797C69.7949 15.9089 69.9681 16.7588 69.9727 17.7295V18.2832ZM68.2432 17.7637C68.2432 16.6608 68.0335 15.8154 67.6143 15.2275C67.1995 14.6396 66.6094 14.3457 65.8438 14.3457C65.0964 14.3457 64.5107 14.6396 64.0869 15.2275C63.6676 15.8109 63.4535 16.638 63.4443 17.709V18.2832C63.4443 19.377 63.6562 20.2223 64.0801 20.8193C64.5085 21.4163 65.1009 21.7148 65.8574 21.7148C66.623 21.7148 67.2109 21.4232 67.6211 20.8398C68.0358 20.2565 68.2432 19.4043 68.2432 18.2832V17.7637ZM80.8408 23H79.1113L74.6748 15.9385V23H72.9453V13.0469H74.6748L79.125 20.1357V13.0469H80.8408V23Z" fill="white" fill-opacity="0.38"/>
</svg>
