<svg width="74" height="36" viewBox="0 0 74 36" fill="none" xmlns="http://www.w3.org/2000/svg">
<mask id="mask0" mask-type="alpha" maskUnits="userSpaceOnUse" x="0" y="0" width="74" height="36">
<rect width="74" height="36" rx="4" fill="white"/>
</mask>
<g mask="url(#mask0)">
<path d="M8.01172 23V13.0469H11.4229C12.5485 13.0469 13.4053 13.2725 13.9932 13.7236C14.5811 14.1748 14.875 14.847 14.875 15.7402C14.875 16.196 14.752 16.6061 14.5059 16.9707C14.2598 17.3353 13.8997 17.6178 13.4258 17.8184C13.9635 17.9642 14.3783 18.2399 14.6699 18.6455C14.9661 19.0465 15.1143 19.5296 15.1143 20.0947C15.1143 21.029 14.8135 21.7467 14.2119 22.248C13.6149 22.7493 12.7581 23 11.6416 23H8.01172ZM9.74121 18.5088V21.6191H11.6621C12.2044 21.6191 12.6283 21.4847 12.9336 21.2158C13.2389 20.9469 13.3916 20.5732 13.3916 20.0947C13.3916 19.0602 12.863 18.5316 11.8057 18.5088H9.74121ZM9.74121 17.2373H11.4365C11.9743 17.2373 12.3936 17.1165 12.6943 16.875C12.9997 16.6289 13.1523 16.2826 13.1523 15.8359C13.1523 15.3438 13.0111 14.9883 12.7285 14.7695C12.4505 14.5508 12.0153 14.4414 11.4229 14.4414H9.74121V17.2373ZM25.374 13.0469V19.6982C25.374 20.7555 25.0345 21.5941 24.3555 22.2139C23.681 22.8291 22.7809 23.1367 21.6553 23.1367C20.516 23.1367 19.6113 22.8337 18.9414 22.2275C18.2715 21.6169 17.9365 20.7715 17.9365 19.6914V13.0469H19.6592V19.7051C19.6592 20.3704 19.8278 20.8786 20.165 21.2295C20.5023 21.5804 20.999 21.7559 21.6553 21.7559C22.986 21.7559 23.6514 21.054 23.6514 19.6504V13.0469H25.374ZM35.668 14.4414H32.5645V23H30.8486V14.4414H27.7725V13.0469H35.668V14.4414ZM45.5312 14.4414H42.4277V23H40.7119V14.4414H37.6357V13.0469H45.5312V14.4414ZM55.8457 18.2832C55.8457 19.2585 55.6771 20.1152 55.3398 20.8535C55.0026 21.5872 54.5195 22.1523 53.8906 22.5488C53.2663 22.9408 52.5462 23.1367 51.7305 23.1367C50.9238 23.1367 50.2038 22.9408 49.5703 22.5488C48.9414 22.1523 48.4538 21.5895 48.1074 20.8604C47.7656 20.1312 47.5924 19.2904 47.5879 18.3379V17.7773C47.5879 16.8066 47.7588 15.9499 48.1006 15.207C48.4469 14.4642 48.9323 13.8968 49.5566 13.5049C50.1855 13.1084 50.9056 12.9102 51.7168 12.9102C52.528 12.9102 53.2458 13.1061 53.8701 13.498C54.499 13.8854 54.9844 14.446 55.3262 15.1797C55.668 15.9089 55.8411 16.7588 55.8457 17.7295V18.2832ZM54.1162 17.7637C54.1162 16.6608 53.9066 15.8154 53.4873 15.2275C53.0726 14.6396 52.4824 14.3457 51.7168 14.3457C50.9694 14.3457 50.3838 14.6396 49.96 15.2275C49.5407 15.8109 49.3265 16.638 49.3174 17.709V18.2832C49.3174 19.377 49.5293 20.2223 49.9531 20.8193C50.3815 21.4163 50.974 21.7148 51.7305 21.7148C52.4961 21.7148 53.084 21.4232 53.4941 20.8398C53.9089 20.2565 54.1162 19.4043 54.1162 18.2832V17.7637ZM66.7139 23H64.9844L60.5479 15.9385V23H58.8184V13.0469H60.5479L64.998 20.1357V13.0469H66.7139V23Z" fill="#BB86FC"/>
</g>
</svg>
