<svg width="66" height="13" viewBox="0 0 66 13" fill="none" xmlns="http://www.w3.org/2000/svg">
<path d="M4.67188 6.92969C3.38542 6.5599 2.44792 6.10677 1.85938 5.57031C1.27604 5.02865 0.984375 4.36198 0.984375 3.57031C0.984375 2.67448 1.34115 1.9349 2.05469 1.35156C2.77344 0.763021 3.70573 0.46875 4.85156 0.46875C5.63281 0.46875 6.32812 0.619792 6.9375 0.921875C7.55208 1.22396 8.02604 1.64062 8.35938 2.17188C8.69792 2.70312 8.86719 3.28385 8.86719 3.91406H7.35938C7.35938 3.22656 7.14062 2.6875 6.70312 2.29688C6.26562 1.90104 5.64844 1.70312 4.85156 1.70312C4.11198 1.70312 3.53385 1.86719 3.11719 2.19531C2.70573 2.51823 2.5 2.96875 2.5 3.54688C2.5 4.01042 2.69531 4.40365 3.08594 4.72656C3.48177 5.04427 4.15104 5.33594 5.09375 5.60156C6.04167 5.86719 6.78125 6.16146 7.3125 6.48438C7.84896 6.80208 8.24479 7.17448 8.5 7.60156C8.76042 8.02865 8.89062 8.53125 8.89062 9.10938C8.89062 10.0312 8.53125 10.7708 7.8125 11.3281C7.09375 11.8802 6.13281 12.1562 4.92969 12.1562C4.14844 12.1562 3.41927 12.0078 2.74219 11.7109C2.0651 11.4089 1.54167 10.9974 1.17188 10.4766C0.807292 9.95573 0.625 9.36458 0.625 8.70312H2.13281C2.13281 9.39062 2.38542 9.9349 2.89062 10.3359C3.40104 10.7318 4.08073 10.9297 4.92969 10.9297C5.72135 10.9297 6.32812 10.7682 6.75 10.4453C7.17188 10.1224 7.38281 9.68229 7.38281 9.125C7.38281 8.56771 7.1875 8.13802 6.79688 7.83594C6.40625 7.52865 5.69792 7.22656 4.67188 6.92969ZM15.9625 11.1641C15.4 11.8255 14.5745 12.1562 13.4859 12.1562C12.5849 12.1562 11.8974 11.8958 11.4234 11.375C10.9547 10.849 10.7177 10.0729 10.7125 9.04688V3.54688H12.1578V9.00781C12.1578 10.2891 12.6786 10.9297 13.7203 10.9297C14.8245 10.9297 15.5589 10.5182 15.9234 9.69531V3.54688H17.3687V12H15.9937L15.9625 11.1641ZM26.8781 7.86719C26.8781 9.15885 26.5812 10.1979 25.9875 10.9844C25.3937 11.7656 24.5969 12.1562 23.5969 12.1562C22.5292 12.1562 21.7036 11.7786 21.1203 11.0234L21.05 12H19.7219V0H21.1672V4.47656C21.7505 3.7526 22.5552 3.39062 23.5812 3.39062C24.6073 3.39062 25.412 3.77865 25.9953 4.55469C26.5839 5.33073 26.8781 6.39323 26.8781 7.74219V7.86719ZM25.4328 7.70312C25.4328 6.71875 25.2427 5.95833 24.8625 5.42188C24.4823 4.88542 23.9354 4.61719 23.2219 4.61719C22.2687 4.61719 21.5839 5.0599 21.1672 5.94531V9.60156C21.6099 10.487 22.3 10.9297 23.2375 10.9297C23.9302 10.9297 24.4693 10.6615 24.8547 10.125C25.2401 9.58854 25.4328 8.78125 25.4328 7.70312ZM30.8172 1.5V3.54688H32.3953V4.66406H30.8172V9.90625C30.8172 10.2448 30.8875 10.5 31.0281 10.6719C31.1688 10.8385 31.4083 10.9219 31.7469 10.9219C31.9135 10.9219 32.1427 10.8906 32.4344 10.8281V12C32.0542 12.1042 31.6844 12.1562 31.325 12.1562C30.6792 12.1562 30.1922 11.9609 29.8641 11.5703C29.5359 11.1797 29.3719 10.625 29.3719 9.90625V4.66406H27.8328V3.54688H29.3719V1.5H30.8172ZM35.8109 12H34.3656V3.54688H35.8109V12ZM34.2484 1.30469C34.2484 1.07031 34.3187 0.872396 34.4594 0.710938C34.6052 0.549479 34.8187 0.46875 35.1 0.46875C35.3812 0.46875 35.5948 0.549479 35.7406 0.710938C35.8865 0.872396 35.9594 1.07031 35.9594 1.30469C35.9594 1.53906 35.8865 1.73438 35.7406 1.89062C35.5948 2.04688 35.3812 2.125 35.1 2.125C34.8187 2.125 34.6052 2.04688 34.4594 1.89062C34.3187 1.73438 34.2484 1.53906 34.2484 1.30469ZM40.2422 1.5V3.54688H41.8203V4.66406H40.2422V9.90625C40.2422 10.2448 40.3125 10.5 40.4531 10.6719C40.5938 10.8385 40.8333 10.9219 41.1719 10.9219C41.3385 10.9219 41.5677 10.8906 41.8594 10.8281V12C41.4792 12.1042 41.1094 12.1562 40.75 12.1562C40.1042 12.1562 39.6172 11.9609 39.2891 11.5703C38.9609 11.1797 38.7969 10.625 38.7969 9.90625V4.66406H37.2578V3.54688H38.7969V1.5H40.2422ZM45.2359 12H43.7906V0H45.2359V12ZM51.2141 12.1562C50.0682 12.1562 49.1359 11.7812 48.4172 11.0312C47.6984 10.276 47.3391 9.26823 47.3391 8.00781V7.74219C47.3391 6.90365 47.4979 6.15625 47.8156 5.5C48.1385 4.83854 48.5865 4.32292 49.1594 3.95312C49.7375 3.57812 50.3625 3.39062 51.0344 3.39062C52.1333 3.39062 52.9875 3.7526 53.5969 4.47656C54.2062 5.20052 54.5109 6.23698 54.5109 7.58594V8.1875H48.7844C48.8052 9.02083 49.0474 9.69531 49.5109 10.2109C49.9797 10.7214 50.5734 10.9766 51.2922 10.9766C51.8026 10.9766 52.2349 10.8724 52.5891 10.6641C52.9432 10.4557 53.2531 10.1797 53.5187 9.83594L54.4016 10.5234C53.6932 11.612 52.6307 12.1562 51.2141 12.1562ZM51.0344 4.57812C50.451 4.57812 49.9615 4.79167 49.5656 5.21875C49.1698 5.64062 48.925 6.23438 48.8312 7H53.0656V6.89062C53.024 6.15625 52.826 5.58854 52.4719 5.1875C52.1177 4.78125 51.6385 4.57812 51.0344 4.57812ZM65.0609 12H63.6078V2.36719L60.6937 3.4375V2.125L64.8344 0.570312H65.0609V12Z" fill="white" fill-opacity="0.87"/>
</svg>
