<svg width="200" height="88" viewBox="0 0 200 88" fill="none" xmlns="http://www.w3.org/2000/svg">
<path d="M17.1553 74V64.0469H20.4092C21.4893 64.0469 22.3005 64.2702 22.8428 64.7168C23.3896 65.1634 23.6631 65.8242 23.6631 66.6992C23.6631 67.1641 23.5309 67.5765 23.2666 67.9365C23.0023 68.292 22.6423 68.5677 22.1865 68.7637C22.7243 68.9141 23.1481 69.2012 23.458 69.625C23.7725 70.0443 23.9297 70.5456 23.9297 71.1289C23.9297 72.0221 23.6403 72.724 23.0615 73.2344C22.4827 73.7448 21.6647 74 20.6074 74H17.1553ZM18.4678 69.3447V72.9268H20.6348C21.2454 72.9268 21.7262 72.7695 22.0771 72.4551C22.4326 72.1361 22.6104 71.6986 22.6104 71.1426C22.6104 69.944 21.9587 69.3447 20.6553 69.3447H18.4678ZM18.4678 68.292H20.4502C21.0244 68.292 21.4824 68.1484 21.8242 67.8613C22.1706 67.5742 22.3438 67.1846 22.3438 66.6924C22.3438 66.1455 22.1842 65.749 21.8652 65.5029C21.5462 65.2523 21.0609 65.127 20.4092 65.127H18.4678V68.292ZM25.5947 70.2334C25.5947 69.5088 25.736 68.8571 26.0186 68.2783C26.3057 67.6995 26.7021 67.2529 27.208 66.9385C27.7184 66.624 28.2995 66.4668 28.9512 66.4668C29.9583 66.4668 30.7718 66.8154 31.3916 67.5127C32.016 68.21 32.3281 69.1374 32.3281 70.2949V70.3838C32.3281 71.1038 32.1891 71.751 31.9111 72.3252C31.6377 72.8949 31.2435 73.3392 30.7285 73.6582C30.2181 73.9772 29.6302 74.1367 28.9648 74.1367C27.9622 74.1367 27.1488 73.7881 26.5244 73.0908C25.9046 72.3936 25.5947 71.4707 25.5947 70.3223V70.2334ZM26.8662 70.3838C26.8662 71.2041 27.0553 71.8626 27.4336 72.3594C27.8164 72.8561 28.3268 73.1045 28.9648 73.1045C29.6074 73.1045 30.1178 72.8538 30.4961 72.3525C30.8743 71.8467 31.0635 71.1403 31.0635 70.2334C31.0635 69.4222 30.8698 68.766 30.4824 68.2646C30.0996 67.7588 29.5892 67.5059 28.9512 67.5059C28.3268 67.5059 27.8232 67.7542 27.4404 68.251C27.0576 68.7477 26.8662 69.4587 26.8662 70.3838ZM33.8564 70.2402C33.8564 69.1055 34.1253 68.194 34.6631 67.5059C35.2008 66.8132 35.9049 66.4668 36.7754 66.4668C37.6413 66.4668 38.3271 66.763 38.833 67.3555V63.5H40.0977V74H38.9355L38.874 73.207C38.3682 73.8268 37.6641 74.1367 36.7617 74.1367C35.9049 74.1367 35.2054 73.7858 34.6631 73.084C34.1253 72.3822 33.8564 71.4661 33.8564 70.3359V70.2402ZM35.1211 70.3838C35.1211 71.2223 35.2943 71.8786 35.6406 72.3525C35.987 72.8265 36.4655 73.0635 37.0762 73.0635C37.8783 73.0635 38.4639 72.7035 38.833 71.9834V68.5859C38.4548 67.8887 37.8737 67.54 37.0898 67.54C36.4701 67.54 35.987 67.7793 35.6406 68.2578C35.2943 68.7363 35.1211 69.445 35.1211 70.3838ZM44.7363 72.1475L46.459 66.6035H47.8125L44.8389 75.1416C44.3786 76.3721 43.6471 76.9873 42.6445 76.9873L42.4053 76.9668L41.9336 76.8779V75.8525L42.2754 75.8799C42.7038 75.8799 43.0365 75.7933 43.2734 75.6201C43.515 75.4469 43.7132 75.1302 43.8682 74.6699L44.1484 73.918L41.5098 66.6035H42.8906L44.7363 72.1475ZM59.3115 74H52.79V73.0908L56.2354 69.2627C56.7458 68.6839 57.0967 68.2145 57.2881 67.8545C57.484 67.4899 57.582 67.1139 57.582 66.7266C57.582 66.207 57.4248 65.7809 57.1104 65.4482C56.7959 65.1156 56.3766 64.9492 55.8525 64.9492C55.2236 64.9492 54.7337 65.1292 54.3828 65.4893C54.0365 65.8447 53.8633 66.3415 53.8633 66.9795H52.5986C52.5986 66.0635 52.8926 65.3229 53.4805 64.7578C54.0729 64.1927 54.8636 63.9102 55.8525 63.9102C56.7777 63.9102 57.5091 64.154 58.0469 64.6416C58.5846 65.1247 58.8535 65.7695 58.8535 66.5762C58.8535 67.556 58.2292 68.7227 56.9805 70.0762L54.3145 72.9678H59.3115V74Z" fill="white" fill-opacity="0.6"/>
<path d="M37.3828 47H34.1787V35.8271H21.9932V47H18.8057V22.8281H21.9932V33.2207H34.1787V22.8281H37.3828V47ZM50.0166 47.332C47.5817 47.332 45.6006 46.5352 44.0732 44.9414C42.5459 43.3366 41.7822 41.195 41.7822 38.5166V37.9521C41.7822 36.1702 42.1198 34.582 42.7949 33.1875C43.4811 31.7819 44.4329 30.6862 45.6504 29.9004C46.8789 29.1035 48.207 28.7051 49.6348 28.7051C51.9701 28.7051 53.7852 29.4743 55.0801 31.0127C56.375 32.5511 57.0225 34.7536 57.0225 37.6201V38.8984H44.8535C44.8978 40.6693 45.4124 42.1025 46.3975 43.1982C47.3936 44.2829 48.6553 44.8252 50.1826 44.8252C51.2673 44.8252 52.1859 44.6038 52.9385 44.1611C53.6911 43.7184 54.3496 43.1318 54.9141 42.4014L56.79 43.8623C55.2848 46.1755 53.027 47.332 50.0166 47.332ZM49.6348 31.2285C48.3952 31.2285 47.3548 31.6823 46.5137 32.5898C45.6725 33.4863 45.1523 34.748 44.9531 36.375H53.9512V36.1426C53.8626 34.582 53.4421 33.3757 52.6895 32.5234C51.9368 31.6602 50.9186 31.2285 49.6348 31.2285ZM71.6816 47C71.5046 46.6458 71.3607 46.015 71.25 45.1074C69.8223 46.5905 68.1178 47.332 66.1367 47.332C64.3659 47.332 62.9105 46.834 61.7705 45.8379C60.6416 44.8307 60.0771 43.5579 60.0771 42.0195C60.0771 40.1491 60.7855 38.6992 62.2021 37.6699C63.6299 36.6296 65.6331 36.1094 68.2119 36.1094H71.2002V34.6982C71.2002 33.6247 70.8792 32.7725 70.2373 32.1416C69.5954 31.4997 68.6491 31.1787 67.3984 31.1787C66.3027 31.1787 65.3841 31.4554 64.6426 32.0088C63.901 32.5622 63.5303 33.2318 63.5303 34.0176H60.4424C60.4424 33.1211 60.7578 32.2578 61.3887 31.4277C62.0306 30.5866 62.8939 29.9225 63.9785 29.4355C65.0742 28.9486 66.2751 28.7051 67.5811 28.7051C69.6507 28.7051 71.2721 29.2253 72.4453 30.2656C73.6185 31.2949 74.2272 32.7171 74.2715 34.5322V42.7998C74.2715 44.4489 74.4818 45.7604 74.9023 46.7344V47H71.6816ZM66.585 44.6592C67.5479 44.6592 68.4609 44.4102 69.3242 43.9121C70.1875 43.4141 70.8128 42.7666 71.2002 41.9697V38.2842H68.793C65.0299 38.2842 63.1484 39.3854 63.1484 41.5879C63.1484 42.5508 63.4694 43.3034 64.1113 43.8457C64.7533 44.388 65.5778 44.6592 66.585 44.6592ZM78.3389 37.8691C78.3389 35.1133 78.9919 32.8997 80.2979 31.2285C81.6038 29.5462 83.3138 28.7051 85.4277 28.7051C87.5306 28.7051 89.1963 29.4245 90.4248 30.8633V21.5H93.4961V47H90.6738L90.5244 45.0742C89.2959 46.5794 87.5859 47.332 85.3945 47.332C83.3138 47.332 81.6149 46.4798 80.2979 44.7754C78.9919 43.071 78.3389 40.8464 78.3389 38.1016V37.8691ZM81.4102 38.2178C81.4102 40.2542 81.8307 41.848 82.6719 42.999C83.513 44.1501 84.6751 44.7256 86.1582 44.7256C88.1061 44.7256 89.5283 43.8512 90.4248 42.1025V33.8516C89.5062 32.1582 88.0951 31.3115 86.1914 31.3115C84.6862 31.3115 83.513 31.8926 82.6719 33.0547C81.8307 34.2168 81.4102 35.9378 81.4102 38.2178ZM101.614 47H98.543V21.5H101.614V47ZM109.882 47H106.811V29.0371H109.882V47ZM106.562 24.2725C106.562 23.7744 106.711 23.3538 107.01 23.0107C107.32 22.6676 107.773 22.4961 108.371 22.4961C108.969 22.4961 109.423 22.6676 109.732 23.0107C110.042 23.3538 110.197 23.7744 110.197 24.2725C110.197 24.7705 110.042 25.1855 109.732 25.5176C109.423 25.8496 108.969 26.0156 108.371 26.0156C107.773 26.0156 107.32 25.8496 107.01 25.5176C106.711 25.1855 106.562 24.7705 106.562 24.2725ZM117.718 29.0371L117.817 31.2949C119.19 29.5684 120.983 28.7051 123.196 28.7051C126.993 28.7051 128.907 30.8467 128.94 35.1299V47H125.869V35.1133C125.858 33.8184 125.559 32.861 124.973 32.2412C124.397 31.6214 123.495 31.3115 122.267 31.3115C121.271 31.3115 120.396 31.5771 119.644 32.1084C118.891 32.6396 118.304 33.3369 117.884 34.2002V47H114.812V29.0371H117.718ZM141.026 47.332C138.591 47.332 136.61 46.5352 135.083 44.9414C133.556 43.3366 132.792 41.195 132.792 38.5166V37.9521C132.792 36.1702 133.13 34.582 133.805 33.1875C134.491 31.7819 135.443 30.6862 136.66 29.9004C137.889 29.1035 139.217 28.7051 140.645 28.7051C142.98 28.7051 144.795 29.4743 146.09 31.0127C147.385 32.5511 148.032 34.7536 148.032 37.6201V38.8984H135.863C135.908 40.6693 136.422 42.1025 137.407 43.1982C138.403 44.2829 139.665 44.8252 141.192 44.8252C142.277 44.8252 143.196 44.6038 143.948 44.1611C144.701 43.7184 145.359 43.1318 145.924 42.4014L147.8 43.8623C146.295 46.1755 144.037 47.332 141.026 47.332ZM140.645 31.2285C139.405 31.2285 138.365 31.6823 137.523 32.5898C136.682 33.4863 136.162 34.748 135.963 36.375H144.961V36.1426C144.872 34.582 144.452 33.3757 143.699 32.5234C142.947 31.6602 141.928 31.2285 140.645 31.2285ZM172.686 38.8818H176.039V41.3887H172.686V47H169.598V41.3887H158.591V39.5791L169.415 22.8281H172.686V38.8818ZM162.077 38.8818H169.598V27.0283L169.232 27.6924L162.077 38.8818Z" fill="white" fill-opacity="0.87"/>
</svg>
