<svg width="397" height="86" viewBox="0 0 397 86" fill="none" xmlns="http://www.w3.org/2000/svg">
<path d="M17.1553 64V54.0469H20.4092C21.4893 54.0469 22.3005 54.2702 22.8428 54.7168C23.3896 55.1634 23.6631 55.8242 23.6631 56.6992C23.6631 57.1641 23.5309 57.5765 23.2666 57.9365C23.0023 58.292 22.6423 58.5677 22.1865 58.7637C22.7243 58.9141 23.1481 59.2012 23.458 59.625C23.7725 60.0443 23.9297 60.5456 23.9297 61.1289C23.9297 62.0221 23.6403 62.724 23.0615 63.2344C22.4827 63.7448 21.6647 64 20.6074 64H17.1553ZM18.4678 59.3447V62.9268H20.6348C21.2454 62.9268 21.7262 62.7695 22.0771 62.4551C22.4326 62.1361 22.6104 61.6986 22.6104 61.1426C22.6104 59.944 21.9587 59.3447 20.6553 59.3447H18.4678ZM18.4678 58.292H20.4502C21.0244 58.292 21.4824 58.1484 21.8242 57.8613C22.1706 57.5742 22.3438 57.1846 22.3438 56.6924C22.3438 56.1455 22.1842 55.749 21.8652 55.5029C21.5462 55.2523 21.0609 55.127 20.4092 55.127H18.4678V58.292ZM25.5947 60.2334C25.5947 59.5088 25.736 58.8571 26.0186 58.2783C26.3057 57.6995 26.7021 57.2529 27.208 56.9385C27.7184 56.624 28.2995 56.4668 28.9512 56.4668C29.9583 56.4668 30.7718 56.8154 31.3916 57.5127C32.016 58.21 32.3281 59.1374 32.3281 60.2949V60.3838C32.3281 61.1038 32.1891 61.751 31.9111 62.3252C31.6377 62.8949 31.2435 63.3392 30.7285 63.6582C30.2181 63.9772 29.6302 64.1367 28.9648 64.1367C27.9622 64.1367 27.1488 63.7881 26.5244 63.0908C25.9046 62.3936 25.5947 61.4707 25.5947 60.3223V60.2334ZM26.8662 60.3838C26.8662 61.2041 27.0553 61.8626 27.4336 62.3594C27.8164 62.8561 28.3268 63.1045 28.9648 63.1045C29.6074 63.1045 30.1178 62.8538 30.4961 62.3525C30.8743 61.8467 31.0635 61.1403 31.0635 60.2334C31.0635 59.4222 30.8698 58.766 30.4824 58.2646C30.0996 57.7588 29.5892 57.5059 28.9512 57.5059C28.3268 57.5059 27.8232 57.7542 27.4404 58.251C27.0576 58.7477 26.8662 59.4587 26.8662 60.3838ZM33.8564 60.2402C33.8564 59.1055 34.1253 58.194 34.6631 57.5059C35.2008 56.8132 35.9049 56.4668 36.7754 56.4668C37.6413 56.4668 38.3271 56.763 38.833 57.3555V53.5H40.0977V64H38.9355L38.874 63.207C38.3682 63.8268 37.6641 64.1367 36.7617 64.1367C35.9049 64.1367 35.2054 63.7858 34.6631 63.084C34.1253 62.3822 33.8564 61.4661 33.8564 60.3359V60.2402ZM35.1211 60.3838C35.1211 61.2223 35.2943 61.8786 35.6406 62.3525C35.987 62.8265 36.4655 63.0635 37.0762 63.0635C37.8783 63.0635 38.4639 62.7035 38.833 61.9834V58.5859C38.4548 57.8887 37.8737 57.54 37.0898 57.54C36.4701 57.54 35.987 57.7793 35.6406 58.2578C35.2943 58.7363 35.1211 59.445 35.1211 60.3838ZM44.7363 62.1475L46.459 56.6035H47.8125L44.8389 65.1416C44.3786 66.3721 43.6471 66.9873 42.6445 66.9873L42.4053 66.9668L41.9336 66.8779V65.8525L42.2754 65.8799C42.7038 65.8799 43.0365 65.7933 43.2734 65.6201C43.515 65.4469 43.7132 65.1302 43.8682 64.6699L44.1484 63.918L41.5098 56.6035H42.8906L44.7363 62.1475ZM59.3115 64H52.79V63.0908L56.2354 59.2627C56.7458 58.6839 57.0967 58.2145 57.2881 57.8545C57.484 57.4899 57.582 57.1139 57.582 56.7266C57.582 56.207 57.4248 55.7809 57.1104 55.4482C56.7959 55.1156 56.3766 54.9492 55.8525 54.9492C55.2236 54.9492 54.7337 55.1292 54.3828 55.4893C54.0365 55.8447 53.8633 56.3415 53.8633 56.9795H52.5986C52.5986 56.0635 52.8926 55.3229 53.4805 54.7578C54.0729 54.1927 54.8636 53.9102 55.8525 53.9102C56.7777 53.9102 57.5091 54.154 58.0469 54.6416C58.5846 55.1247 58.8535 55.7695 58.8535 56.5762C58.8535 57.556 58.2292 58.7227 56.9805 60.0762L54.3145 62.9678H59.3115V64Z" fill="white" fill-opacity="0.6"/>
<path d="M31.0938 39H28.832V31.1133H20.2305V39H17.9805V21.9375H20.2305V29.2734H28.832V21.9375H31.0938V39ZM40.1917 39.2344C38.473 39.2344 37.0745 38.6719 35.9964 37.5469C34.9183 36.4141 34.3792 34.9023 34.3792 33.0117V32.6133C34.3792 31.3555 34.6175 30.2344 35.0941 29.25C35.5784 28.2578 36.2503 27.4844 37.1097 26.9297C37.9769 26.3672 38.9144 26.0859 39.9222 26.0859C41.5706 26.0859 42.8519 26.6289 43.7659 27.7148C44.68 28.8008 45.137 30.3555 45.137 32.3789V33.2812H36.5472C36.5784 34.5312 36.9417 35.543 37.637 36.3164C38.3402 37.082 39.2308 37.4648 40.3089 37.4648C41.0745 37.4648 41.723 37.3086 42.2542 36.9961C42.7855 36.6836 43.2503 36.2695 43.6488 35.7539L44.973 36.7852C43.9105 38.418 42.3167 39.2344 40.1917 39.2344ZM39.9222 27.8672C39.0472 27.8672 38.3128 28.1875 37.7191 28.8281C37.1253 29.4609 36.7581 30.3516 36.6175 31.5H42.9691V31.3359C42.9066 30.2344 42.6097 29.3828 42.0784 28.7812C41.5472 28.1719 40.8284 27.8672 39.9222 27.8672ZM55.6647 39C55.5397 38.75 55.4381 38.3047 55.36 37.6641C54.3522 38.7109 53.1491 39.2344 51.7506 39.2344C50.5006 39.2344 49.4733 38.8828 48.6686 38.1797C47.8717 37.4688 47.4733 36.5703 47.4733 35.4844C47.4733 34.1641 47.9733 33.1406 48.9733 32.4141C49.9811 31.6797 51.3952 31.3125 53.2155 31.3125H55.3248V30.3164C55.3248 29.5586 55.0983 28.957 54.6452 28.5117C54.192 28.0586 53.5241 27.832 52.6413 27.832C51.8678 27.832 51.2194 28.0273 50.6959 28.418C50.1725 28.8086 49.9108 29.2812 49.9108 29.8359H47.7311C47.7311 29.2031 47.9538 28.5938 48.3991 28.0078C48.8522 27.4141 49.4616 26.9453 50.2272 26.6016C51.0006 26.2578 51.8483 26.0859 52.7702 26.0859C54.2311 26.0859 55.3756 26.4531 56.2038 27.1875C57.0319 27.9141 57.4616 28.918 57.4928 30.1992V36.0352C57.4928 37.1992 57.6413 38.125 57.9381 38.8125V39H55.6647ZM52.067 37.3477C52.7467 37.3477 53.3913 37.1719 54.0006 36.8203C54.61 36.4688 55.0514 36.0117 55.3248 35.4492V32.8477H53.6256C50.9694 32.8477 49.6413 33.625 49.6413 35.1797C49.6413 35.8594 49.8678 36.3906 50.3209 36.7734C50.7741 37.1562 51.3561 37.3477 52.067 37.3477ZM60.5439 32.5547C60.5439 30.6094 61.0048 29.0469 61.9267 27.8672C62.8486 26.6797 64.0556 26.0859 65.5478 26.0859C67.0322 26.0859 68.208 26.5938 69.0752 27.6094V21H71.2431V39H69.2509L69.1455 37.6406C68.2783 38.7031 67.0713 39.2344 65.5244 39.2344C64.0556 39.2344 62.8564 38.6328 61.9267 37.4297C61.0048 36.2266 60.5439 34.6562 60.5439 32.7188V32.5547ZM62.7119 32.8008C62.7119 34.2383 63.0088 35.3633 63.6025 36.1758C64.1963 36.9883 65.0166 37.3945 66.0634 37.3945C67.4384 37.3945 68.4423 36.7773 69.0752 35.543V29.7188C68.4267 28.5234 67.4306 27.9258 66.0869 27.9258C65.0244 27.9258 64.1963 28.3359 63.6025 29.1562C63.0088 29.9766 62.7119 31.1914 62.7119 32.8008ZM77.1536 39H74.9856V21H77.1536V39ZM83.1695 39H81.0016V26.3203H83.1695V39ZM80.8258 22.957C80.8258 22.6055 80.9313 22.3086 81.1422 22.0664C81.3609 21.8242 81.6813 21.7031 82.1031 21.7031C82.525 21.7031 82.8453 21.8242 83.0641 22.0664C83.2828 22.3086 83.3922 22.6055 83.3922 22.957C83.3922 23.3086 83.2828 23.6016 83.0641 23.8359C82.8453 24.0703 82.525 24.1875 82.1031 24.1875C81.6813 24.1875 81.3609 24.0703 81.1422 23.8359C80.9313 23.6016 80.8258 23.3086 80.8258 22.957ZM88.8808 26.3203L88.9511 27.9141C89.9198 26.6953 91.1855 26.0859 92.748 26.0859C95.4277 26.0859 96.7792 27.5977 96.8027 30.6211V39H94.6347V30.6094C94.6269 29.6953 94.4159 29.0195 94.0019 28.582C93.5956 28.1445 92.9589 27.9258 92.0917 27.9258C91.3886 27.9258 90.7714 28.1133 90.2402 28.4883C89.7089 28.8633 89.2948 29.3555 88.998 29.9648V39H86.83V26.3203H88.8808ZM105.514 39.2344C103.795 39.2344 102.397 38.6719 101.319 37.5469C100.24 36.4141 99.7014 34.9023 99.7014 33.0117V32.6133C99.7014 31.3555 99.9397 30.2344 100.416 29.25C100.901 28.2578 101.573 27.4844 102.432 26.9297C103.299 26.3672 104.237 26.0859 105.244 26.0859C106.893 26.0859 108.174 26.6289 109.088 27.7148C110.002 28.8008 110.459 30.3555 110.459 32.3789V33.2812H101.869C101.901 34.5312 102.264 35.543 102.959 36.3164C103.662 37.082 104.553 37.4648 105.631 37.4648C106.397 37.4648 107.045 37.3086 107.576 36.9961C108.108 36.6836 108.573 36.2695 108.971 35.7539L110.295 36.7852C109.233 38.418 107.639 39.2344 105.514 39.2344ZM105.244 27.8672C104.369 27.8672 103.635 28.1875 103.041 28.8281C102.448 29.4609 102.08 30.3516 101.94 31.5H108.291V31.3359C108.229 30.2344 107.932 29.3828 107.401 28.7812C106.869 28.1719 106.151 27.8672 105.244 27.8672ZM120.065 30.4453L120.933 21.9375H129.675V23.9414H122.772L122.257 28.5938C123.093 28.1016 124.042 27.8555 125.104 27.8555C126.659 27.8555 127.893 28.3711 128.808 29.4023C129.722 30.4258 130.179 31.8125 130.179 33.5625C130.179 35.3203 129.702 36.707 128.749 37.7227C127.804 38.7305 126.479 39.2344 124.776 39.2344C123.268 39.2344 122.038 38.8164 121.085 37.9805C120.132 37.1445 119.589 35.9883 119.456 34.5117H121.507C121.64 35.4883 121.987 36.2266 122.55 36.7266C123.112 37.2188 123.854 37.4648 124.776 37.4648C125.784 37.4648 126.573 37.1211 127.143 36.4336C127.722 35.7461 128.011 34.7969 128.011 33.5859C128.011 32.4453 127.698 31.5312 127.073 30.8438C126.456 30.1484 125.632 29.8008 124.6 29.8008C123.655 29.8008 122.913 30.0078 122.374 30.4219L121.8 30.8906L120.065 30.4453Z" fill="white" fill-opacity="0.87"/>
</svg>
