<svg width="191" height="65" viewBox="0 0 191 65" fill="none" xmlns="http://www.w3.org/2000/svg">
<path fill-rule="evenodd" clip-rule="evenodd" d="M0 13C0 10.7909 1.79086 9 4 9H8V10H4.5C2.567 10 1 11.567 1 13.5V60.5C1 62.433 2.567 64 4.5 64H186.5C188.433 64 190 62.433 190 60.5V13.5C190 11.567 188.433 10 186.5 10H185V9H187C189.209 9 191 10.7909 191 13V61C191 63.2091 189.209 65 187 65H4C1.79086 65 0 63.2091 0 61V13Z" fill="white" fill-opacity="0.38"/>
<path d="M18.8281 40.7734H24.2188V42H17.3203V30.625H18.8281V40.7734ZM31.0719 42C30.9885 41.8333 30.9208 41.5365 30.8687 41.1094C30.1969 41.8073 29.3948 42.1562 28.4625 42.1562C27.6292 42.1562 26.9443 41.9219 26.4078 41.4531C25.8766 40.9792 25.6109 40.3802 25.6109 39.6562C25.6109 38.776 25.9443 38.0938 26.6109 37.6094C27.2828 37.1198 28.2255 36.875 29.4391 36.875H30.8453V36.2109C30.8453 35.7057 30.6943 35.3047 30.3922 35.0078C30.0901 34.7057 29.6448 34.5547 29.0562 34.5547C28.5406 34.5547 28.1083 34.6849 27.7594 34.9453C27.4104 35.2057 27.2359 35.5208 27.2359 35.8906H25.7828C25.7828 35.4688 25.9312 35.0625 26.2281 34.6719C26.5302 34.276 26.9365 33.9635 27.4469 33.7344C27.9625 33.5052 28.5276 33.3906 29.1422 33.3906C30.1161 33.3906 30.8792 33.6354 31.4312 34.125C31.9833 34.6094 32.2698 35.2786 32.2906 36.1328V40.0234C32.2906 40.7995 32.3896 41.4167 32.5875 41.875V42H31.0719ZM28.6734 40.8984C29.1266 40.8984 29.5562 40.7812 29.9625 40.5469C30.3687 40.3125 30.663 40.0078 30.8453 39.6328V37.8984H29.7125C27.9417 37.8984 27.0562 38.4167 27.0562 39.4531C27.0562 39.9062 27.2073 40.2604 27.5094 40.5156C27.8115 40.7708 28.1995 40.8984 28.6734 40.8984ZM41.8625 37.8672C41.8625 39.1589 41.5656 40.1979 40.9719 40.9844C40.3781 41.7656 39.5812 42.1562 38.5812 42.1562C37.5135 42.1562 36.688 41.7786 36.1047 41.0234L36.0344 42H34.7062V30H36.1516V34.4766C36.7349 33.7526 37.5396 33.3906 38.5656 33.3906C39.5917 33.3906 40.3964 33.7786 40.9797 34.5547C41.5682 35.3307 41.8625 36.3932 41.8625 37.7422V37.8672ZM40.4172 37.7031C40.4172 36.7188 40.2271 35.9583 39.8469 35.4219C39.4667 34.8854 38.9198 34.6172 38.2062 34.6172C37.2531 34.6172 36.5682 35.0599 36.1516 35.9453V39.6016C36.5943 40.487 37.2844 40.9297 38.2219 40.9297C38.9146 40.9297 39.4536 40.6615 39.8391 40.125C40.2245 39.5885 40.4172 38.7812 40.4172 37.7031ZM47.3484 42.1562C46.2026 42.1562 45.2703 41.7812 44.5516 41.0312C43.8328 40.276 43.4734 39.2682 43.4734 38.0078V37.7422C43.4734 36.9036 43.6323 36.1562 43.95 35.5C44.2729 34.8385 44.7208 34.3229 45.2938 33.9531C45.8719 33.5781 46.4969 33.3906 47.1688 33.3906C48.2677 33.3906 49.1219 33.7526 49.7313 34.4766C50.3406 35.2005 50.6453 36.237 50.6453 37.5859V38.1875H44.9188C44.9396 39.0208 45.1818 39.6953 45.6453 40.2109C46.1141 40.7214 46.7078 40.9766 47.4266 40.9766C47.937 40.9766 48.3693 40.8724 48.7234 40.6641C49.0776 40.4557 49.3875 40.1797 49.6531 39.8359L50.5359 40.5234C49.8276 41.612 48.7651 42.1562 47.3484 42.1562ZM47.1688 34.5781C46.5854 34.5781 46.0958 34.7917 45.7 35.2188C45.3042 35.6406 45.0594 36.2344 44.9656 37H49.2V36.8906C49.1583 36.1562 48.9604 35.5885 48.6063 35.1875C48.2521 34.7812 47.7729 34.5781 47.1688 34.5781ZM54.0453 42H52.6V30H54.0453V42Z" fill="white" fill-opacity="0.6"/>
<mask id="mask0" mask-type="alpha" maskUnits="userSpaceOnUse" x="13" y="0" width="172" height="16">
<rect x="13" width="172" height="16" fill="white"/>
</mask>
<g mask="url(#mask0)">
<path d="M18.1211 12.0801H22.1641V13H16.9902V4.46875H18.1211V12.0801ZM27.5914 13C27.5289 12.875 27.4781 12.6523 27.4391 12.332C26.9352 12.8555 26.3336 13.1172 25.6344 13.1172C25.0094 13.1172 24.4957 12.9414 24.0934 12.5898C23.6949 12.2344 23.4957 11.7852 23.4957 11.2422C23.4957 10.582 23.7457 10.0703 24.2457 9.70703C24.7496 9.33984 25.4566 9.15625 26.3668 9.15625H27.4215V8.6582C27.4215 8.2793 27.3082 7.97852 27.0816 7.75586C26.8551 7.5293 26.5211 7.41602 26.0797 7.41602C25.693 7.41602 25.3688 7.51367 25.107 7.70898C24.8453 7.9043 24.7145 8.14062 24.7145 8.41797H23.6246C23.6246 8.10156 23.7359 7.79688 23.9586 7.50391C24.1852 7.20703 24.4898 6.97266 24.8727 6.80078C25.2594 6.62891 25.6832 6.54297 26.1441 6.54297C26.8746 6.54297 27.4469 6.72656 27.8609 7.09375C28.275 7.45703 28.4898 7.95898 28.5055 8.59961V11.5176C28.5055 12.0996 28.5797 12.5625 28.7281 12.9062V13H27.5914ZM25.7926 12.1738C26.1324 12.1738 26.4547 12.0859 26.7594 11.9102C27.0641 11.7344 27.2848 11.5059 27.4215 11.2246V9.92383H26.5719C25.2438 9.92383 24.5797 10.3125 24.5797 11.0898C24.5797 11.4297 24.693 11.6953 24.9195 11.8867C25.1461 12.0781 25.4371 12.1738 25.7926 12.1738ZM35.9719 9.90039C35.9719 10.8691 35.7492 11.6484 35.3039 12.2383C34.8586 12.8242 34.2609 13.1172 33.5109 13.1172C32.7102 13.1172 32.091 12.834 31.6535 12.2676L31.6008 13H30.6047V4H31.6887V7.35742C32.1262 6.81445 32.7297 6.54297 33.4992 6.54297C34.2688 6.54297 34.8723 6.83398 35.3098 7.41602C35.7512 7.99805 35.9719 8.79492 35.9719 9.80664V9.90039ZM34.8879 9.77734C34.8879 9.03906 34.7453 8.46875 34.4602 8.06641C34.175 7.66406 33.7648 7.46289 33.2297 7.46289C32.5148 7.46289 32.0012 7.79492 31.6887 8.45898V11.2012C32.0207 11.8652 32.5383 12.1973 33.2414 12.1973C33.7609 12.1973 34.1652 11.9961 34.4543 11.5938C34.7434 11.1914 34.8879 10.5859 34.8879 9.77734ZM40.3738 13.1172C39.5145 13.1172 38.8152 12.8359 38.2762 12.2734C37.7371 11.707 37.4676 10.9512 37.4676 10.0059V9.80664C37.4676 9.17773 37.5867 8.61719 37.825 8.125C38.0672 7.62891 38.4031 7.24219 38.8328 6.96484C39.2664 6.68359 39.7352 6.54297 40.2391 6.54297C41.0633 6.54297 41.7039 6.81445 42.1609 7.35742C42.618 7.90039 42.8465 8.67773 42.8465 9.68945V10.1406H38.5516C38.5672 10.7656 38.7488 11.2715 39.0965 11.6582C39.448 12.041 39.8934 12.2324 40.4324 12.2324C40.8152 12.2324 41.1395 12.1543 41.4051 11.998C41.6707 11.8418 41.9031 11.6348 42.1023 11.377L42.7645 11.8926C42.2332 12.709 41.4363 13.1172 40.3738 13.1172ZM40.2391 7.43359C39.8016 7.43359 39.4344 7.59375 39.1375 7.91406C38.8406 8.23047 38.657 8.67578 38.5867 9.25H41.7625V9.16797C41.7313 8.61719 41.5828 8.19141 41.3172 7.89062C41.0516 7.58594 40.6922 7.43359 40.2391 7.43359ZM45.684 13H44.6V4H45.684V13Z" fill="white" fill-opacity="0.38"/>
<rect x="50" y="9" width="135" height="1" fill="white" fill-opacity="0.38"/>
</g>
</svg>
