<svg width="328" height="65" viewBox="0 0 328 65" fill="none" xmlns="http://www.w3.org/2000/svg">
<path fill-rule="evenodd" clip-rule="evenodd" d="M0 13C0 10.7909 1.79086 9 4 9H13V10H4.5C2.567 10 1 11.567 1 13.5V60.5C1 62.433 2.56701 64 4.50001 64H323.5C325.433 64 327 62.433 327 60.5V13.5C327 11.567 325.433 10 323.5 10H317V9H324C326.209 9 328 10.7909 328 13V61C328 63.2091 326.209 65 324 65H4C1.79086 65 0 63.2091 0 61V13Z" fill="white" fill-opacity="0.38"/>
<path d="M18.9297 42H17.4297V30.625H18.9297V42ZM22.9703 33.5469L23.0172 34.6094C23.663 33.7969 24.5068 33.3906 25.5484 33.3906C27.3349 33.3906 28.2359 34.3984 28.2516 36.4141V42H26.8063V36.4062C26.801 35.7969 26.6604 35.3464 26.3844 35.0547C26.1135 34.763 25.6891 34.6172 25.1109 34.6172C24.6422 34.6172 24.2307 34.7422 23.8766 34.9922C23.5224 35.2422 23.2464 35.5703 23.0484 35.9766V42H21.6031V33.5469H22.9703ZM37.7219 37.8672C37.7219 39.1536 37.4276 40.1901 36.8391 40.9766C36.2505 41.763 35.4536 42.1562 34.4484 42.1562C33.4224 42.1562 32.6151 41.8307 32.0266 41.1797V45.25H30.5813V33.5469H31.9016L31.9719 34.4844C32.5604 33.7552 33.3781 33.3906 34.425 33.3906C35.4406 33.3906 36.2427 33.7734 36.8313 34.5391C37.425 35.3047 37.7219 36.3698 37.7219 37.7344V37.8672ZM36.2766 37.7031C36.2766 36.75 36.0734 35.9974 35.6672 35.4453C35.2609 34.8932 34.7036 34.6172 33.9953 34.6172C33.1203 34.6172 32.4641 35.0052 32.0266 35.7812V39.8203C32.4589 40.5911 33.1203 40.9766 34.0109 40.9766C34.7036 40.9766 35.2531 40.7031 35.6594 40.1562C36.0708 39.6042 36.2766 38.7865 36.2766 37.7031ZM44.9344 41.1641C44.3719 41.8255 43.5464 42.1562 42.4578 42.1562C41.5568 42.1562 40.8693 41.8958 40.3953 41.375C39.9266 40.849 39.6896 40.0729 39.6844 39.0469V33.5469H41.1297V39.0078C41.1297 40.2891 41.6505 40.9297 42.6922 40.9297C43.7964 40.9297 44.5307 40.5182 44.8953 39.6953V33.5469H46.3406V42H44.9656L44.9344 41.1641ZM50.6547 31.5V33.5469H52.2328V34.6641H50.6547V39.9062C50.6547 40.2448 50.725 40.5 50.8656 40.6719C51.0063 40.8385 51.2458 40.9219 51.5844 40.9219C51.751 40.9219 51.9802 40.8906 52.2719 40.8281V42C51.8917 42.1042 51.5219 42.1562 51.1625 42.1562C50.5167 42.1562 50.0297 41.9609 49.7016 41.5703C49.3734 41.1797 49.2094 40.625 49.2094 39.9062V34.6641H47.6703V33.5469H49.2094V31.5H50.6547ZM60.1578 31.5V33.5469H61.7359V34.6641H60.1578V39.9062C60.1578 40.2448 60.2281 40.5 60.3688 40.6719C60.5094 40.8385 60.749 40.9219 61.0875 40.9219C61.2542 40.9219 61.4833 40.8906 61.775 40.8281V42C61.3948 42.1042 61.025 42.1562 60.6656 42.1562C60.0198 42.1562 59.5328 41.9609 59.2047 41.5703C58.8766 41.1797 58.7125 40.625 58.7125 39.9062V34.6641H57.1734V33.5469H58.7125V31.5H60.1578ZM67.0891 42.1562C65.9432 42.1562 65.0109 41.7812 64.2922 41.0312C63.5734 40.276 63.2141 39.2682 63.2141 38.0078V37.7422C63.2141 36.9036 63.3729 36.1562 63.6906 35.5C64.0135 34.8385 64.4615 34.3229 65.0344 33.9531C65.6125 33.5781 66.2375 33.3906 66.9094 33.3906C68.0083 33.3906 68.8625 33.7526 69.4719 34.4766C70.0812 35.2005 70.3859 36.237 70.3859 37.5859V38.1875H64.6594C64.6802 39.0208 64.9224 39.6953 65.3859 40.2109C65.8547 40.7214 66.4484 40.9766 67.1672 40.9766C67.6776 40.9766 68.1099 40.8724 68.4641 40.6641C68.8182 40.4557 69.1281 40.1797 69.3937 39.8359L70.2766 40.5234C69.5682 41.612 68.5057 42.1562 67.0891 42.1562ZM66.9094 34.5781C66.326 34.5781 65.8365 34.7917 65.4406 35.2188C65.0448 35.6406 64.8 36.2344 64.7062 37H68.9406V36.8906C68.899 36.1562 68.701 35.5885 68.3469 35.1875C67.9927 34.7812 67.5135 34.5781 66.9094 34.5781ZM75.0516 36.6328L76.9266 33.5469H78.6141L75.8484 37.7266L78.7 42H77.0281L75.075 38.8359L73.1219 42H71.4422L74.2938 37.7266L71.5281 33.5469H73.2L75.0516 36.6328ZM82.2641 31.5V33.5469H83.8422V34.6641H82.2641V39.9062C82.2641 40.2448 82.3344 40.5 82.475 40.6719C82.6156 40.8385 82.8552 40.9219 83.1937 40.9219C83.3604 40.9219 83.5896 40.8906 83.8812 40.8281V42C83.501 42.1042 83.1312 42.1562 82.7719 42.1562C82.126 42.1562 81.6391 41.9609 81.3109 41.5703C80.9828 41.1797 80.8187 40.625 80.8187 39.9062V34.6641H79.2797V33.5469H80.8187V31.5H82.2641Z" fill="white" fill-opacity="0.87"/>
<rect x="89" y="29" width="1" height="17" fill="white" fill-opacity="0.87"/>
<mask id="mask0" mask-type="alpha" maskUnits="userSpaceOnUse" x="13" y="0" width="304" height="16">
<rect x="13" width="304" height="16" fill="white"/>
</mask>
<g mask="url(#mask0)">
<path d="M18.1211 12.0801H22.1641V13H16.9902V4.46875H18.1211V12.0801ZM27.5914 13C27.5289 12.875 27.4781 12.6523 27.4391 12.332C26.9352 12.8555 26.3336 13.1172 25.6344 13.1172C25.0094 13.1172 24.4957 12.9414 24.0934 12.5898C23.6949 12.2344 23.4957 11.7852 23.4957 11.2422C23.4957 10.582 23.7457 10.0703 24.2457 9.70703C24.7496 9.33984 25.4566 9.15625 26.3668 9.15625H27.4215V8.6582C27.4215 8.2793 27.3082 7.97852 27.0816 7.75586C26.8551 7.5293 26.5211 7.41602 26.0797 7.41602C25.693 7.41602 25.3688 7.51367 25.107 7.70898C24.8453 7.9043 24.7145 8.14062 24.7145 8.41797H23.6246C23.6246 8.10156 23.7359 7.79688 23.9586 7.50391C24.1852 7.20703 24.4898 6.97266 24.8727 6.80078C25.2594 6.62891 25.6832 6.54297 26.1441 6.54297C26.8746 6.54297 27.4469 6.72656 27.8609 7.09375C28.275 7.45703 28.4898 7.95898 28.5055 8.59961V11.5176C28.5055 12.0996 28.5797 12.5625 28.7281 12.9062V13H27.5914ZM25.7926 12.1738C26.1324 12.1738 26.4547 12.0859 26.7594 11.9102C27.0641 11.7344 27.2848 11.5059 27.4215 11.2246V9.92383H26.5719C25.2438 9.92383 24.5797 10.3125 24.5797 11.0898C24.5797 11.4297 24.693 11.6953 24.9195 11.8867C25.1461 12.0781 25.4371 12.1738 25.7926 12.1738ZM35.9719 9.90039C35.9719 10.8691 35.7492 11.6484 35.3039 12.2383C34.8586 12.8242 34.2609 13.1172 33.5109 13.1172C32.7102 13.1172 32.091 12.834 31.6535 12.2676L31.6008 13H30.6047V4H31.6887V7.35742C32.1262 6.81445 32.7297 6.54297 33.4992 6.54297C34.2688 6.54297 34.8723 6.83398 35.3098 7.41602C35.7512 7.99805 35.9719 8.79492 35.9719 9.80664V9.90039ZM34.8879 9.77734C34.8879 9.03906 34.7453 8.46875 34.4602 8.06641C34.175 7.66406 33.7648 7.46289 33.2297 7.46289C32.5148 7.46289 32.0012 7.79492 31.6887 8.45898V11.2012C32.0207 11.8652 32.5383 12.1973 33.2414 12.1973C33.7609 12.1973 34.1652 11.9961 34.4543 11.5938C34.7434 11.1914 34.8879 10.5859 34.8879 9.77734ZM40.3738 13.1172C39.5145 13.1172 38.8152 12.8359 38.2762 12.2734C37.7371 11.707 37.4676 10.9512 37.4676 10.0059V9.80664C37.4676 9.17773 37.5867 8.61719 37.825 8.125C38.0672 7.62891 38.4031 7.24219 38.8328 6.96484C39.2664 6.68359 39.7352 6.54297 40.2391 6.54297C41.0633 6.54297 41.7039 6.81445 42.1609 7.35742C42.618 7.90039 42.8465 8.67773 42.8465 9.68945V10.1406H38.5516C38.5672 10.7656 38.7488 11.2715 39.0965 11.6582C39.448 12.041 39.8934 12.2324 40.4324 12.2324C40.8152 12.2324 41.1395 12.1543 41.4051 11.998C41.6707 11.8418 41.9031 11.6348 42.1023 11.377L42.7645 11.8926C42.2332 12.709 41.4363 13.1172 40.3738 13.1172ZM40.2391 7.43359C39.8016 7.43359 39.4344 7.59375 39.1375 7.91406C38.8406 8.23047 38.657 8.67578 38.5867 9.25H41.7625V9.16797C41.7313 8.61719 41.5828 8.19141 41.3172 7.89062C41.0516 7.58594 40.6922 7.43359 40.2391 7.43359ZM45.684 13H44.6V4H45.684V13Z" fill="white" fill-opacity="0.38"/>
<rect x="50" y="9" width="1006" height="1" fill="white" fill-opacity="0.38"/>
</g>
</svg>
