<svg width="328" height="72" viewBox="0 0 328 72" fill="none" xmlns="http://www.w3.org/2000/svg">
<path fill-rule="evenodd" clip-rule="evenodd" d="M304 20C299 20 294.73 23.11 293 27.5C294.73 31.89 299 35 304 35C309 35 313.27 31.89 315 27.5C313.27 23.11 309 20 304 20ZM304 32.5C301.24 32.5 299 30.26 299 27.5C299 24.74 301.24 22.5 304 22.5C306.76 22.5 309 24.74 309 27.5C309 30.26 306.76 32.5 304 32.5ZM304 24.5C302.34 24.5 301 25.84 301 27.5C301 29.16 302.34 30.5 304 30.5C305.66 30.5 307 29.16 307 27.5C307 25.84 305.66 24.5 304 24.5Z" fill="white" fill-opacity="0.6"/>
<path fill-rule="evenodd" clip-rule="evenodd" d="M0 4C0 1.79086 1.79086 0 4 0H11H317H324C326.209 0 328 1.79086 328 4V52C328 54.2091 326.209 56 324 56H4C1.79086 56 0 54.2091 0 52V4ZM317 1H11H4.5C2.567 1 1 2.567 1 4.5V51.5C1 53.433 2.56701 55 4.50001 55H323.5C325.433 55 327 53.433 327 51.5V4.5C327 2.567 325.433 1 323.5 1H317Z" fill="white" fill-opacity="0.38"/>
<path d="M18.8281 31.7734H24.2188V33H17.3203V21.625H18.8281V31.7734ZM31.0719 33C30.9885 32.8333 30.9208 32.5365 30.8687 32.1094C30.1969 32.8073 29.3948 33.1562 28.4625 33.1562C27.6292 33.1562 26.9443 32.9219 26.4078 32.4531C25.8766 31.9792 25.6109 31.3802 25.6109 30.6562C25.6109 29.776 25.9443 29.0938 26.6109 28.6094C27.2828 28.1198 28.2255 27.875 29.4391 27.875H30.8453V27.2109C30.8453 26.7057 30.6943 26.3047 30.3922 26.0078C30.0901 25.7057 29.6448 25.5547 29.0562 25.5547C28.5406 25.5547 28.1083 25.6849 27.7594 25.9453C27.4104 26.2057 27.2359 26.5208 27.2359 26.8906H25.7828C25.7828 26.4688 25.9312 26.0625 26.2281 25.6719C26.5302 25.276 26.9365 24.9635 27.4469 24.7344C27.9625 24.5052 28.5276 24.3906 29.1422 24.3906C30.1161 24.3906 30.8792 24.6354 31.4312 25.125C31.9833 25.6094 32.2698 26.2786 32.2906 27.1328V31.0234C32.2906 31.7995 32.3896 32.4167 32.5875 32.875V33H31.0719ZM28.6734 31.8984C29.1266 31.8984 29.5562 31.7812 29.9625 31.5469C30.3687 31.3125 30.663 31.0078 30.8453 30.6328V28.8984H29.7125C27.9417 28.8984 27.0562 29.4167 27.0562 30.4531C27.0562 30.9062 27.2073 31.2604 27.5094 31.5156C27.8115 31.7708 28.1995 31.8984 28.6734 31.8984ZM41.8625 28.8672C41.8625 30.1589 41.5656 31.1979 40.9719 31.9844C40.3781 32.7656 39.5812 33.1562 38.5812 33.1562C37.5135 33.1562 36.688 32.7786 36.1047 32.0234L36.0344 33H34.7062V21H36.1516V25.4766C36.7349 24.7526 37.5396 24.3906 38.5656 24.3906C39.5917 24.3906 40.3964 24.7786 40.9797 25.5547C41.5682 26.3307 41.8625 27.3932 41.8625 28.7422V28.8672ZM40.4172 28.7031C40.4172 27.7188 40.2271 26.9583 39.8469 26.4219C39.4667 25.8854 38.9198 25.6172 38.2062 25.6172C37.2531 25.6172 36.5682 26.0599 36.1516 26.9453V30.6016C36.5943 31.487 37.2844 31.9297 38.2219 31.9297C38.9146 31.9297 39.4536 31.6615 39.8391 31.125C40.2245 30.5885 40.4172 29.7812 40.4172 28.7031ZM47.3484 33.1562C46.2026 33.1562 45.2703 32.7812 44.5516 32.0312C43.8328 31.276 43.4734 30.2682 43.4734 29.0078V28.7422C43.4734 27.9036 43.6323 27.1562 43.95 26.5C44.2729 25.8385 44.7208 25.3229 45.2938 24.9531C45.8719 24.5781 46.4969 24.3906 47.1688 24.3906C48.2677 24.3906 49.1219 24.7526 49.7313 25.4766C50.3406 26.2005 50.6453 27.237 50.6453 28.5859V29.1875H44.9188C44.9396 30.0208 45.1818 30.6953 45.6453 31.2109C46.1141 31.7214 46.7078 31.9766 47.4266 31.9766C47.937 31.9766 48.3693 31.8724 48.7234 31.6641C49.0776 31.4557 49.3875 31.1797 49.6531 30.8359L50.5359 31.5234C49.8276 32.612 48.7651 33.1562 47.3484 33.1562ZM47.1688 25.5781C46.5854 25.5781 46.0958 25.7917 45.7 26.2188C45.3042 26.6406 45.0594 27.2344 44.9656 28H49.2V27.8906C49.1583 27.1562 48.9604 26.5885 48.6063 26.1875C48.2521 25.7812 47.7729 25.5781 47.1688 25.5781ZM54.0453 33H52.6V21H54.0453V33Z" fill="white" fill-opacity="0.6"/>
</svg>
