<svg width="128" height="65" viewBox="0 0 128 65" fill="none" xmlns="http://www.w3.org/2000/svg">
<path fill-rule="evenodd" clip-rule="evenodd" d="M0 13C0 10.7909 1.79086 9 4 9H8.60506H118.319H124C126.209 9 128 10.7909 128 13V61C128 63.2091 126.209 65 124 65H4C1.79086 65 0 63.2091 0 61V13ZM118.319 10H8.60506H4.5C2.567 10 1 11.567 1 13.5V60.5C1 62.433 2.56701 64 4.5 64H123.5C125.433 64 127 62.433 127 60.5V13.5C127 11.567 125.433 10 123.5 10H118.319Z" fill="white" fill-opacity="0.38"/>
<path d="M18.8281 40.7734H24.2188V42H17.3203V30.625H18.8281V40.7734ZM31.0719 42C30.9885 41.8333 30.9208 41.5365 30.8687 41.1094C30.1969 41.8073 29.3948 42.1562 28.4625 42.1562C27.6292 42.1562 26.9443 41.9219 26.4078 41.4531C25.8766 40.9792 25.6109 40.3802 25.6109 39.6562C25.6109 38.776 25.9443 38.0938 26.6109 37.6094C27.2828 37.1198 28.2255 36.875 29.4391 36.875H30.8453V36.2109C30.8453 35.7057 30.6943 35.3047 30.3922 35.0078C30.0901 34.7057 29.6448 34.5547 29.0562 34.5547C28.5406 34.5547 28.1083 34.6849 27.7594 34.9453C27.4104 35.2057 27.2359 35.5208 27.2359 35.8906H25.7828C25.7828 35.4688 25.9312 35.0625 26.2281 34.6719C26.5302 34.276 26.9365 33.9635 27.4469 33.7344C27.9625 33.5052 28.5276 33.3906 29.1422 33.3906C30.1161 33.3906 30.8792 33.6354 31.4312 34.125C31.9833 34.6094 32.2698 35.2786 32.2906 36.1328V40.0234C32.2906 40.7995 32.3896 41.4167 32.5875 41.875V42H31.0719ZM28.6734 40.8984C29.1266 40.8984 29.5562 40.7812 29.9625 40.5469C30.3687 40.3125 30.663 40.0078 30.8453 39.6328V37.8984H29.7125C27.9417 37.8984 27.0562 38.4167 27.0562 39.4531C27.0562 39.9062 27.2073 40.2604 27.5094 40.5156C27.8115 40.7708 28.1995 40.8984 28.6734 40.8984ZM41.8625 37.8672C41.8625 39.1589 41.5656 40.1979 40.9719 40.9844C40.3781 41.7656 39.5812 42.1562 38.5812 42.1562C37.5135 42.1562 36.688 41.7786 36.1047 41.0234L36.0344 42H34.7062V30H36.1516V34.4766C36.7349 33.7526 37.5396 33.3906 38.5656 33.3906C39.5917 33.3906 40.3964 33.7786 40.9797 34.5547C41.5682 35.3307 41.8625 36.3932 41.8625 37.7422V37.8672ZM40.4172 37.7031C40.4172 36.7188 40.2271 35.9583 39.8469 35.4219C39.4667 34.8854 38.9198 34.6172 38.2062 34.6172C37.2531 34.6172 36.5682 35.0599 36.1516 35.9453V39.6016C36.5943 40.487 37.2844 40.9297 38.2219 40.9297C38.9146 40.9297 39.4536 40.6615 39.8391 40.125C40.2245 39.5885 40.4172 38.7812 40.4172 37.7031ZM47.3484 42.1562C46.2026 42.1562 45.2703 41.7812 44.5516 41.0312C43.8328 40.276 43.4734 39.2682 43.4734 38.0078V37.7422C43.4734 36.9036 43.6323 36.1562 43.95 35.5C44.2729 34.8385 44.7208 34.3229 45.2938 33.9531C45.8719 33.5781 46.4969 33.3906 47.1688 33.3906C48.2677 33.3906 49.1219 33.7526 49.7313 34.4766C50.3406 35.2005 50.6453 36.237 50.6453 37.5859V38.1875H44.9188C44.9396 39.0208 45.1818 39.6953 45.6453 40.2109C46.1141 40.7214 46.7078 40.9766 47.4266 40.9766C47.937 40.9766 48.3693 40.8724 48.7234 40.6641C49.0776 40.4557 49.3875 40.1797 49.6531 39.8359L50.5359 40.5234C49.8276 41.612 48.7651 42.1562 47.3484 42.1562ZM47.1688 34.5781C46.5854 34.5781 46.0958 34.7917 45.7 35.2188C45.3042 35.6406 45.0594 36.2344 44.9656 37H49.2V36.8906C49.1583 36.1562 48.9604 35.5885 48.6063 35.1875C48.2521 34.7812 47.7729 34.5781 47.1688 34.5781ZM54.0453 42H52.6V30H54.0453V42Z" fill="white" fill-opacity="0.6"/>
</svg>
