<svg width="360" height="48" viewBox="0 0 360 48" fill="none" xmlns="http://www.w3.org/2000/svg">
<rect opacity="0.12" x="16" y="47" width="344" height="1" fill="white"/>
<path fill-rule="evenodd" clip-rule="evenodd" d="M339 15H325C323.89 15 323 15.9 323 17V31C323 32.1 323.89 33 325 33H339C340.11 33 341 32.1 341 31V17C341 15.9 340.11 15 339 15ZM330 29L325 24L326.41 22.59L330 26.17L337.59 18.58L339 20L330 29Z" fill="#BB86FC"/>
<path d="M20.6719 23.9297C19.3854 23.5599 18.4479 23.1068 17.8594 22.5703C17.276 22.0286 16.9844 21.362 16.9844 20.5703C16.9844 19.6745 17.3411 18.9349 18.0547 18.3516C18.7734 17.763 19.7057 17.4688 20.8516 17.4688C21.6328 17.4688 22.3281 17.6198 22.9375 17.9219C23.5521 18.224 24.026 18.6406 24.3594 19.1719C24.6979 19.7031 24.8672 20.2839 24.8672 20.9141H23.3594C23.3594 20.2266 23.1406 19.6875 22.7031 19.2969C22.2656 18.901 21.6484 18.7031 20.8516 18.7031C20.112 18.7031 19.5339 18.8672 19.1172 19.1953C18.7057 19.5182 18.5 19.9688 18.5 20.5469C18.5 21.0104 18.6953 21.4036 19.0859 21.7266C19.4818 22.0443 20.151 22.3359 21.0938 22.6016C22.0417 22.8672 22.7812 23.1615 23.3125 23.4844C23.849 23.8021 24.2448 24.1745 24.5 24.6016C24.7604 25.0286 24.8906 25.5312 24.8906 26.1094C24.8906 27.0312 24.5312 27.7708 23.8125 28.3281C23.0938 28.8802 22.1328 29.1562 20.9297 29.1562C20.1484 29.1562 19.4193 29.0078 18.7422 28.7109C18.0651 28.4089 17.5417 27.9974 17.1719 27.4766C16.8073 26.9557 16.625 26.3646 16.625 25.7031H18.1328C18.1328 26.3906 18.3854 26.9349 18.8906 27.3359C19.401 27.7318 20.0807 27.9297 20.9297 27.9297C21.7214 27.9297 22.3281 27.7682 22.75 27.4453C23.1719 27.1224 23.3828 26.6823 23.3828 26.125C23.3828 25.5677 23.1875 25.138 22.7969 24.8359C22.4062 24.5286 21.6979 24.2266 20.6719 23.9297ZM31.9625 28.1641C31.4 28.8255 30.5745 29.1562 29.4859 29.1562C28.5849 29.1562 27.8974 28.8958 27.4234 28.375C26.9547 27.849 26.7177 27.0729 26.7125 26.0469V20.5469H28.1578V26.0078C28.1578 27.2891 28.6786 27.9297 29.7203 27.9297C30.8245 27.9297 31.5589 27.5182 31.9234 26.6953V20.5469H33.3687V29H31.9937L31.9625 28.1641ZM42.8781 24.8672C42.8781 26.1589 42.5812 27.1979 41.9875 27.9844C41.3937 28.7656 40.5969 29.1562 39.5969 29.1562C38.5292 29.1562 37.7036 28.7786 37.1203 28.0234L37.05 29H35.7219V17H37.1672V21.4766C37.7505 20.7526 38.5552 20.3906 39.5812 20.3906C40.6073 20.3906 41.412 20.7786 41.9953 21.5547C42.5839 22.3307 42.8781 23.3932 42.8781 24.7422V24.8672ZM41.4328 24.7031C41.4328 23.7188 41.2427 22.9583 40.8625 22.4219C40.4823 21.8854 39.9354 21.6172 39.2219 21.6172C38.2687 21.6172 37.5839 22.0599 37.1672 22.9453V26.6016C37.6099 27.487 38.3 27.9297 39.2375 27.9297C39.9302 27.9297 40.4693 27.6615 40.8547 27.125C41.2401 26.5885 41.4328 25.7812 41.4328 24.7031ZM46.8172 18.5V20.5469H48.3953V21.6641H46.8172V26.9062C46.8172 27.2448 46.8875 27.5 47.0281 27.6719C47.1688 27.8385 47.4083 27.9219 47.7469 27.9219C47.9135 27.9219 48.1427 27.8906 48.4344 27.8281V29C48.0542 29.1042 47.6844 29.1562 47.325 29.1562C46.6792 29.1562 46.1922 28.9609 45.8641 28.5703C45.5359 28.1797 45.3719 27.625 45.3719 26.9062V21.6641H43.8328V20.5469H45.3719V18.5H46.8172ZM51.8109 29H50.3656V20.5469H51.8109V29ZM50.2484 18.3047C50.2484 18.0703 50.3187 17.8724 50.4594 17.7109C50.6052 17.5495 50.8187 17.4688 51.1 17.4688C51.3812 17.4688 51.5948 17.5495 51.7406 17.7109C51.8865 17.8724 51.9594 18.0703 51.9594 18.3047C51.9594 18.5391 51.8865 18.7344 51.7406 18.8906C51.5948 19.0469 51.3812 19.125 51.1 19.125C50.8187 19.125 50.6052 19.0469 50.4594 18.8906C50.3187 18.7344 50.2484 18.5391 50.2484 18.3047ZM56.2422 18.5V20.5469H57.8203V21.6641H56.2422V26.9062C56.2422 27.2448 56.3125 27.5 56.4531 27.6719C56.5938 27.8385 56.8333 27.9219 57.1719 27.9219C57.3385 27.9219 57.5677 27.8906 57.8594 27.8281V29C57.4792 29.1042 57.1094 29.1562 56.75 29.1562C56.1042 29.1562 55.6172 28.9609 55.2891 28.5703C54.9609 28.1797 54.7969 27.625 54.7969 26.9062V21.6641H53.2578V20.5469H54.7969V18.5H56.2422ZM61.2359 29H59.7906V17H61.2359V29ZM67.2141 29.1562C66.0682 29.1562 65.1359 28.7812 64.4172 28.0312C63.6984 27.276 63.3391 26.2682 63.3391 25.0078V24.7422C63.3391 23.9036 63.4979 23.1562 63.8156 22.5C64.1385 21.8385 64.5865 21.3229 65.1594 20.9531C65.7375 20.5781 66.3625 20.3906 67.0344 20.3906C68.1333 20.3906 68.9875 20.7526 69.5969 21.4766C70.2062 22.2005 70.5109 23.237 70.5109 24.5859V25.1875H64.7844C64.8052 26.0208 65.0474 26.6953 65.5109 27.2109C65.9797 27.7214 66.5734 27.9766 67.2922 27.9766C67.8026 27.9766 68.2349 27.8724 68.5891 27.6641C68.9432 27.4557 69.2531 27.1797 69.5187 26.8359L70.4016 27.5234C69.6932 28.612 68.6307 29.1562 67.2141 29.1562ZM67.0344 21.5781C66.451 21.5781 65.9615 21.7917 65.5656 22.2188C65.1698 22.6406 64.925 23.2344 64.8312 24H69.0656V23.8906C69.024 23.1562 68.826 22.5885 68.4719 22.1875C68.1177 21.7812 67.6385 21.5781 67.0344 21.5781ZM81.0609 29H79.6078V19.3672L76.6937 20.4375V19.125L80.8344 17.5703H81.0609V29Z" fill="white" fill-opacity="0.87"/>
</svg>
