<svg width="372" height="355" viewBox="0 0 372 355" fill="none" xmlns="http://www.w3.org/2000/svg">
<g filter="url(#filter0_ddd)">
<rect x="46" y="37" width="280" height="256" rx="4" fill="#121212"/>
<rect x="46" y="37" width="280" height="256" rx="4" fill="white" fill-opacity="0.16"/>
</g>
<mask id="mask0" mask-type="alpha" maskUnits="userSpaceOnUse" x="46" y="37" width="280" height="256">
<rect x="46" y="37" width="280" height="256" rx="4" fill="white"/>
<rect x="46" y="37" width="280" height="256" rx="4" stroke="white"/>
</mask>
<g mask="url(#mask0)">
<mask id="mask1" mask-type="alpha" maskUnits="userSpaceOnUse" x="244" y="249" width="74" height="36">
<rect x="244" y="249" width="74" height="36" rx="4" fill="white"/>
</mask>
<g mask="url(#mask1)">
<path d="M252.012 272V262.047H255.423C256.549 262.047 257.405 262.272 257.993 262.724C258.581 263.175 258.875 263.847 258.875 264.74C258.875 265.196 258.752 265.606 258.506 265.971C258.26 266.335 257.9 266.618 257.426 266.818C257.964 266.964 258.378 267.24 258.67 267.646C258.966 268.047 259.114 268.53 259.114 269.095C259.114 270.029 258.813 270.747 258.212 271.248C257.615 271.749 256.758 272 255.642 272H252.012ZM253.741 267.509V270.619H255.662C256.204 270.619 256.628 270.485 256.934 270.216C257.239 269.947 257.392 269.573 257.392 269.095C257.392 268.06 256.863 267.532 255.806 267.509H253.741ZM253.741 266.237H255.437C255.974 266.237 256.394 266.117 256.694 265.875C257 265.629 257.152 265.283 257.152 264.836C257.152 264.344 257.011 263.988 256.729 263.77C256.451 263.551 256.015 263.441 255.423 263.441H253.741V266.237ZM269.374 262.047V268.698C269.374 269.756 269.035 270.594 268.355 271.214C267.681 271.829 266.781 272.137 265.655 272.137C264.516 272.137 263.611 271.834 262.941 271.228C262.271 270.617 261.937 269.771 261.937 268.691V262.047H263.659V268.705C263.659 269.37 263.828 269.879 264.165 270.229C264.502 270.58 264.999 270.756 265.655 270.756C266.986 270.756 267.651 270.054 267.651 268.65V262.047H269.374ZM279.668 263.441H276.564V272H274.849V263.441H271.772V262.047H279.668V263.441ZM289.531 263.441H286.428V272H284.712V263.441H281.636V262.047H289.531V263.441ZM299.846 267.283C299.846 268.258 299.677 269.115 299.34 269.854C299.003 270.587 298.52 271.152 297.891 271.549C297.266 271.941 296.546 272.137 295.73 272.137C294.924 272.137 294.204 271.941 293.57 271.549C292.941 271.152 292.454 270.59 292.107 269.86C291.766 269.131 291.592 268.29 291.588 267.338V266.777C291.588 265.807 291.759 264.95 292.101 264.207C292.447 263.464 292.932 262.897 293.557 262.505C294.186 262.108 294.906 261.91 295.717 261.91C296.528 261.91 297.246 262.106 297.87 262.498C298.499 262.885 298.984 263.446 299.326 264.18C299.668 264.909 299.841 265.759 299.846 266.729V267.283ZM298.116 266.764C298.116 265.661 297.907 264.815 297.487 264.228C297.073 263.64 296.482 263.346 295.717 263.346C294.969 263.346 294.384 263.64 293.96 264.228C293.541 264.811 293.326 265.638 293.317 266.709V267.283C293.317 268.377 293.529 269.222 293.953 269.819C294.382 270.416 294.974 270.715 295.73 270.715C296.496 270.715 297.084 270.423 297.494 269.84C297.909 269.257 298.116 268.404 298.116 267.283V266.764ZM310.714 272H308.984L304.548 264.938V272H302.818V262.047H304.548L308.998 269.136V262.047H310.714V272Z" fill="white" fill-opacity="0.38"/>
</g>
<mask id="mask2" mask-type="alpha" maskUnits="userSpaceOnUse" x="162" y="249" width="74" height="36">
<rect x="162" y="249" width="74" height="36" rx="4" fill="white"/>
</mask>
<g mask="url(#mask2)">
<path d="M170.012 272V262.047H173.423C174.549 262.047 175.405 262.272 175.993 262.724C176.581 263.175 176.875 263.847 176.875 264.74C176.875 265.196 176.752 265.606 176.506 265.971C176.26 266.335 175.9 266.618 175.426 266.818C175.964 266.964 176.378 267.24 176.67 267.646C176.966 268.047 177.114 268.53 177.114 269.095C177.114 270.029 176.813 270.747 176.212 271.248C175.615 271.749 174.758 272 173.642 272H170.012ZM171.741 267.509V270.619H173.662C174.204 270.619 174.628 270.485 174.934 270.216C175.239 269.947 175.392 269.573 175.392 269.095C175.392 268.06 174.863 267.532 173.806 267.509H171.741ZM171.741 266.237H173.437C173.974 266.237 174.394 266.117 174.694 265.875C175 265.629 175.152 265.283 175.152 264.836C175.152 264.344 175.011 263.988 174.729 263.77C174.451 263.551 174.015 263.441 173.423 263.441H171.741V266.237ZM187.374 262.047V268.698C187.374 269.756 187.035 270.594 186.355 271.214C185.681 271.829 184.781 272.137 183.655 272.137C182.516 272.137 181.611 271.834 180.941 271.228C180.271 270.617 179.937 269.771 179.937 268.691V262.047H181.659V268.705C181.659 269.37 181.828 269.879 182.165 270.229C182.502 270.58 182.999 270.756 183.655 270.756C184.986 270.756 185.651 270.054 185.651 268.65V262.047H187.374ZM197.668 263.441H194.564V272H192.849V263.441H189.772V262.047H197.668V263.441ZM207.531 263.441H204.428V272H202.712V263.441H199.636V262.047H207.531V263.441ZM217.846 267.283C217.846 268.258 217.677 269.115 217.34 269.854C217.003 270.587 216.52 271.152 215.891 271.549C215.266 271.941 214.546 272.137 213.73 272.137C212.924 272.137 212.204 271.941 211.57 271.549C210.941 271.152 210.454 270.59 210.107 269.86C209.766 269.131 209.592 268.29 209.588 267.338V266.777C209.588 265.807 209.759 264.95 210.101 264.207C210.447 263.464 210.932 262.897 211.557 262.505C212.186 262.108 212.906 261.91 213.717 261.91C214.528 261.91 215.246 262.106 215.87 262.498C216.499 262.885 216.984 263.446 217.326 264.18C217.668 264.909 217.841 265.759 217.846 266.729V267.283ZM216.116 266.764C216.116 265.661 215.907 264.815 215.487 264.228C215.073 263.64 214.482 263.346 213.717 263.346C212.969 263.346 212.384 263.64 211.96 264.228C211.541 264.811 211.326 265.638 211.317 266.709V267.283C211.317 268.377 211.529 269.222 211.953 269.819C212.382 270.416 212.974 270.715 213.73 270.715C214.496 270.715 215.084 270.423 215.494 269.84C215.909 269.257 216.116 268.404 216.116 267.283V266.764ZM228.714 272H226.984L222.548 264.938V272H220.818V262.047H222.548L226.998 269.136V262.047H228.714V272Z" fill="white" fill-opacity="0.38"/>
</g>
</g>
<path d="M71.1553 137V127.047H74.4092C75.4893 127.047 76.3005 127.27 76.8428 127.717C77.3896 128.163 77.6631 128.824 77.6631 129.699C77.6631 130.164 77.5309 130.576 77.2666 130.937C77.0023 131.292 76.6423 131.568 76.1865 131.764C76.7243 131.914 77.1481 132.201 77.458 132.625C77.7725 133.044 77.9297 133.546 77.9297 134.129C77.9297 135.022 77.6403 135.724 77.0615 136.234C76.4827 136.745 75.6647 137 74.6074 137H71.1553ZM72.4678 132.345V135.927H74.6348C75.2454 135.927 75.7262 135.77 76.0771 135.455C76.4326 135.136 76.6104 134.699 76.6104 134.143C76.6104 132.944 75.9587 132.345 74.6553 132.345H72.4678ZM72.4678 131.292H74.4502C75.0244 131.292 75.4824 131.148 75.8242 130.861C76.1706 130.574 76.3438 130.185 76.3438 129.692C76.3438 129.146 76.1842 128.749 75.8652 128.503C75.5462 128.252 75.0609 128.127 74.4092 128.127H72.4678V131.292ZM79.5947 133.233C79.5947 132.509 79.736 131.857 80.0186 131.278C80.3057 130.7 80.7021 130.253 81.208 129.938C81.7184 129.624 82.2995 129.467 82.9512 129.467C83.9583 129.467 84.7718 129.815 85.3916 130.513C86.016 131.21 86.3281 132.137 86.3281 133.295V133.384C86.3281 134.104 86.1891 134.751 85.9111 135.325C85.6377 135.895 85.2435 136.339 84.7285 136.658C84.2181 136.977 83.6302 137.137 82.9648 137.137C81.9622 137.137 81.1488 136.788 80.5244 136.091C79.9046 135.394 79.5947 134.471 79.5947 133.322V133.233ZM80.8662 133.384C80.8662 134.204 81.0553 134.863 81.4336 135.359C81.8164 135.856 82.3268 136.104 82.9648 136.104C83.6074 136.104 84.1178 135.854 84.4961 135.353C84.8743 134.847 85.0635 134.14 85.0635 133.233C85.0635 132.422 84.8698 131.766 84.4824 131.265C84.0996 130.759 83.5892 130.506 82.9512 130.506C82.3268 130.506 81.8232 130.754 81.4404 131.251C81.0576 131.748 80.8662 132.459 80.8662 133.384ZM87.8564 133.24C87.8564 132.105 88.1253 131.194 88.6631 130.506C89.2008 129.813 89.9049 129.467 90.7754 129.467C91.6413 129.467 92.3271 129.763 92.833 130.355V126.5H94.0977V137H92.9355L92.874 136.207C92.3682 136.827 91.6641 137.137 90.7617 137.137C89.9049 137.137 89.2054 136.786 88.6631 136.084C88.1253 135.382 87.8564 134.466 87.8564 133.336V133.24ZM89.1211 133.384C89.1211 134.222 89.2943 134.879 89.6406 135.353C89.987 135.826 90.4655 136.063 91.0762 136.063C91.8783 136.063 92.4639 135.703 92.833 134.983V131.586C92.4548 130.889 91.8737 130.54 91.0898 130.54C90.4701 130.54 89.987 130.779 89.6406 131.258C89.2943 131.736 89.1211 132.445 89.1211 133.384ZM98.7363 135.147L100.459 129.604H101.812L98.8389 138.142C98.3786 139.372 97.6471 139.987 96.6445 139.987L96.4053 139.967L95.9336 139.878V138.853L96.2754 138.88C96.7038 138.88 97.0365 138.793 97.2734 138.62C97.515 138.447 97.7132 138.13 97.8682 137.67L98.1484 136.918L95.5098 129.604H96.8906L98.7363 135.147ZM113.312 137H106.79V136.091L110.235 132.263C110.746 131.684 111.097 131.215 111.288 130.854C111.484 130.49 111.582 130.114 111.582 129.727C111.582 129.207 111.425 128.781 111.11 128.448C110.796 128.116 110.377 127.949 109.853 127.949C109.224 127.949 108.734 128.129 108.383 128.489C108.036 128.845 107.863 129.341 107.863 129.979H106.599C106.599 129.063 106.893 128.323 107.48 127.758C108.073 127.193 108.864 126.91 109.853 126.91C110.778 126.91 111.509 127.154 112.047 127.642C112.585 128.125 112.854 128.77 112.854 129.576C112.854 130.556 112.229 131.723 110.98 133.076L108.314 135.968H113.312V137ZM114.99 136.337C114.99 136.118 115.054 135.936 115.182 135.79C115.314 135.644 115.51 135.571 115.77 135.571C116.029 135.571 116.225 135.644 116.357 135.79C116.494 135.936 116.562 136.118 116.562 136.337C116.562 136.547 116.494 136.722 116.357 136.863C116.225 137.005 116.029 137.075 115.77 137.075C115.51 137.075 115.314 137.005 115.182 136.863C115.054 136.722 114.99 136.547 114.99 136.337ZM114.997 130.301C114.997 130.082 115.061 129.9 115.188 129.754C115.321 129.608 115.517 129.535 115.776 129.535C116.036 129.535 116.232 129.608 116.364 129.754C116.501 129.9 116.569 130.082 116.569 130.301C116.569 130.51 116.501 130.686 116.364 130.827C116.232 130.968 116.036 131.039 115.776 131.039C115.517 131.039 115.321 130.968 115.188 130.827C115.061 130.686 114.997 130.51 114.997 130.301ZM123.912 135.927H128.629V137H122.593V127.047H123.912V135.927ZM129.843 133.233C129.843 132.509 129.984 131.857 130.267 131.278C130.554 130.7 130.95 130.253 131.456 129.938C131.966 129.624 132.548 129.467 133.199 129.467C134.206 129.467 135.02 129.815 135.64 130.513C136.264 131.21 136.576 132.137 136.576 133.295V133.384C136.576 134.104 136.437 134.751 136.159 135.325C135.886 135.895 135.492 136.339 134.977 136.658C134.466 136.977 133.878 137.137 133.213 137.137C132.21 137.137 131.397 136.788 130.772 136.091C130.153 135.394 129.843 134.471 129.843 133.322V133.233ZM131.114 133.384C131.114 134.204 131.303 134.863 131.682 135.359C132.064 135.856 132.575 136.104 133.213 136.104C133.855 136.104 134.366 135.854 134.744 135.353C135.122 134.847 135.312 134.14 135.312 133.233C135.312 132.422 135.118 131.766 134.73 131.265C134.348 130.759 133.837 130.506 133.199 130.506C132.575 130.506 132.071 130.754 131.688 131.251C131.306 131.748 131.114 132.459 131.114 133.384ZM141.987 130.738C141.796 130.706 141.589 130.69 141.365 130.69C140.536 130.69 139.973 131.044 139.677 131.75V137H138.412V129.604H139.643L139.663 130.458C140.078 129.797 140.666 129.467 141.427 129.467C141.673 129.467 141.86 129.499 141.987 129.562V130.738ZM146.339 137.137C145.336 137.137 144.521 136.809 143.892 136.152C143.263 135.492 142.948 134.61 142.948 133.507V133.274C142.948 132.541 143.087 131.887 143.365 131.312C143.648 130.734 144.04 130.283 144.541 129.959C145.047 129.631 145.594 129.467 146.182 129.467C147.143 129.467 147.891 129.784 148.424 130.417C148.957 131.05 149.224 131.957 149.224 133.138V133.664H144.213C144.231 134.393 144.443 134.983 144.849 135.435C145.259 135.881 145.778 136.104 146.407 136.104C146.854 136.104 147.232 136.013 147.542 135.831C147.852 135.649 148.123 135.407 148.355 135.106L149.128 135.708C148.508 136.66 147.578 137.137 146.339 137.137ZM146.182 130.506C145.671 130.506 145.243 130.693 144.896 131.066C144.55 131.436 144.336 131.955 144.254 132.625H147.959V132.529C147.923 131.887 147.749 131.39 147.439 131.039C147.13 130.684 146.71 130.506 146.182 130.506ZM152.133 129.604L152.167 130.424C152.709 129.786 153.441 129.467 154.361 129.467C155.396 129.467 156.1 129.863 156.474 130.656C156.72 130.301 157.039 130.014 157.431 129.795C157.827 129.576 158.294 129.467 158.832 129.467C160.454 129.467 161.279 130.326 161.307 132.044V137H160.042V132.119C160.042 131.59 159.921 131.196 159.68 130.937C159.438 130.672 159.033 130.54 158.463 130.54C157.993 130.54 157.604 130.681 157.294 130.964C156.984 131.242 156.804 131.618 156.754 132.092V137H155.482V132.153C155.482 131.078 154.956 130.54 153.903 130.54C153.074 130.54 152.507 130.893 152.201 131.6V137H150.937V129.604H152.133ZM168.567 137H167.303V129.604H168.567V137ZM167.2 127.642C167.2 127.437 167.262 127.263 167.385 127.122C167.512 126.981 167.699 126.91 167.945 126.91C168.191 126.91 168.378 126.981 168.506 127.122C168.633 127.263 168.697 127.437 168.697 127.642C168.697 127.847 168.633 128.018 168.506 128.154C168.378 128.291 168.191 128.359 167.945 128.359C167.699 128.359 167.512 128.291 167.385 128.154C167.262 128.018 167.2 127.847 167.2 127.642ZM177.096 133.384C177.096 134.509 176.838 135.416 176.323 136.104C175.808 136.793 175.111 137.137 174.231 137.137C173.334 137.137 172.627 136.852 172.112 136.282V139.844H170.848V129.604H172.003L172.064 130.424C172.579 129.786 173.295 129.467 174.211 129.467C175.1 129.467 175.801 129.802 176.316 130.472C176.836 131.142 177.096 132.074 177.096 133.268V133.384ZM175.831 133.24C175.831 132.406 175.653 131.748 175.298 131.265C174.942 130.782 174.455 130.54 173.835 130.54C173.069 130.54 172.495 130.88 172.112 131.559V135.093C172.491 135.767 173.069 136.104 173.849 136.104C174.455 136.104 174.936 135.865 175.291 135.387C175.651 134.904 175.831 134.188 175.831 133.24ZM183.266 135.038C183.266 134.696 183.136 134.432 182.876 134.245C182.621 134.054 182.172 133.89 181.529 133.753C180.891 133.616 180.383 133.452 180.005 133.261C179.631 133.069 179.353 132.841 179.171 132.577C178.993 132.313 178.904 131.998 178.904 131.634C178.904 131.028 179.16 130.515 179.67 130.096C180.185 129.676 180.841 129.467 181.639 129.467C182.477 129.467 183.156 129.683 183.676 130.116C184.2 130.549 184.462 131.103 184.462 131.777H183.19C183.19 131.431 183.042 131.132 182.746 130.882C182.454 130.631 182.085 130.506 181.639 130.506C181.178 130.506 180.818 130.606 180.559 130.807C180.299 131.007 180.169 131.269 180.169 131.593C180.169 131.898 180.29 132.128 180.531 132.283C180.773 132.438 181.208 132.586 181.837 132.728C182.47 132.869 182.983 133.037 183.375 133.233C183.767 133.429 184.056 133.666 184.243 133.944C184.435 134.218 184.53 134.553 184.53 134.949C184.53 135.61 184.266 136.141 183.737 136.542C183.209 136.938 182.523 137.137 181.68 137.137C181.087 137.137 180.563 137.032 180.107 136.822C179.652 136.613 179.294 136.321 179.034 135.947C178.779 135.569 178.651 135.161 178.651 134.724H179.916C179.939 135.147 180.107 135.485 180.422 135.735C180.741 135.981 181.16 136.104 181.68 136.104C182.158 136.104 182.541 136.009 182.828 135.817C183.12 135.621 183.266 135.362 183.266 135.038ZM190.994 136.269C190.502 136.847 189.78 137.137 188.827 137.137C188.039 137.137 187.437 136.909 187.022 136.453C186.612 135.993 186.405 135.314 186.4 134.416V129.604H187.665V134.382C187.665 135.503 188.121 136.063 189.032 136.063C189.998 136.063 190.641 135.703 190.96 134.983V129.604H192.225V137H191.021L190.994 136.269ZM195.592 129.604L195.626 130.424C196.168 129.786 196.9 129.467 197.82 129.467C198.855 129.467 199.559 129.863 199.933 130.656C200.179 130.301 200.498 130.014 200.89 129.795C201.286 129.576 201.753 129.467 202.291 129.467C203.913 129.467 204.738 130.326 204.766 132.044V137H203.501V132.119C203.501 131.59 203.38 131.196 203.139 130.937C202.897 130.672 202.492 130.54 201.922 130.54C201.452 130.54 201.063 130.681 200.753 130.964C200.443 131.242 200.263 131.618 200.213 132.092V137H198.941V132.153C198.941 131.078 198.415 130.54 197.362 130.54C196.533 130.54 195.965 130.893 195.66 131.6V137H194.396V129.604H195.592ZM210.345 133.24C210.345 132.105 210.614 131.194 211.151 130.506C211.689 129.813 212.393 129.467 213.264 129.467C214.13 129.467 214.815 129.763 215.321 130.355V126.5H216.586V137H215.424L215.362 136.207C214.856 136.827 214.152 137.137 213.25 137.137C212.393 137.137 211.694 136.786 211.151 136.084C210.614 135.382 210.345 134.466 210.345 133.336V133.24ZM211.609 133.384C211.609 134.222 211.783 134.879 212.129 135.353C212.475 135.826 212.954 136.063 213.564 136.063C214.367 136.063 214.952 135.703 215.321 134.983V131.586C214.943 130.889 214.362 130.54 213.578 130.54C212.958 130.54 212.475 130.779 212.129 131.258C211.783 131.736 211.609 132.445 211.609 133.384ZM218.47 133.233C218.47 132.509 218.611 131.857 218.894 131.278C219.181 130.7 219.577 130.253 220.083 129.938C220.593 129.624 221.174 129.467 221.826 129.467C222.833 129.467 223.647 129.815 224.267 130.513C224.891 131.21 225.203 132.137 225.203 133.295V133.384C225.203 134.104 225.064 134.751 224.786 135.325C224.513 135.895 224.118 136.339 223.604 136.658C223.093 136.977 222.505 137.137 221.84 137.137C220.837 137.137 220.024 136.788 219.399 136.091C218.78 135.394 218.47 134.471 218.47 133.322V133.233ZM219.741 133.384C219.741 134.204 219.93 134.863 220.309 135.359C220.691 135.856 221.202 136.104 221.84 136.104C222.482 136.104 222.993 135.854 223.371 135.353C223.749 134.847 223.938 134.14 223.938 133.233C223.938 132.422 223.745 131.766 223.357 131.265C222.975 130.759 222.464 130.506 221.826 130.506C221.202 130.506 220.698 130.754 220.315 131.251C219.933 131.748 219.741 132.459 219.741 133.384ZM228.413 137H227.148V126.5H228.413V137ZM230.358 133.233C230.358 132.509 230.5 131.857 230.782 131.278C231.069 130.7 231.466 130.253 231.972 129.938C232.482 129.624 233.063 129.467 233.715 129.467C234.722 129.467 235.535 129.815 236.155 130.513C236.78 131.21 237.092 132.137 237.092 133.295V133.384C237.092 134.104 236.953 134.751 236.675 135.325C236.401 135.895 236.007 136.339 235.492 136.658C234.982 136.977 234.394 137.137 233.729 137.137C232.726 137.137 231.912 136.788 231.288 136.091C230.668 135.394 230.358 134.471 230.358 133.322V133.233ZM231.63 133.384C231.63 134.204 231.819 134.863 232.197 135.359C232.58 135.856 233.09 136.104 233.729 136.104C234.371 136.104 234.882 135.854 235.26 135.353C235.638 134.847 235.827 134.14 235.827 133.233C235.827 132.422 235.633 131.766 235.246 131.265C234.863 130.759 234.353 130.506 233.715 130.506C233.09 130.506 232.587 130.754 232.204 131.251C231.821 131.748 231.63 132.459 231.63 133.384ZM242.503 130.738C242.312 130.706 242.104 130.69 241.881 130.69C241.051 130.69 240.489 131.044 240.192 131.75V137H238.928V129.604H240.158L240.179 130.458C240.593 129.797 241.181 129.467 241.942 129.467C242.188 129.467 242.375 129.499 242.503 129.562V130.738ZM251.951 135.038C251.951 134.696 251.821 134.432 251.562 134.245C251.306 134.054 250.857 133.89 250.215 133.753C249.577 133.616 249.069 133.452 248.69 133.261C248.317 133.069 248.039 132.841 247.856 132.577C247.679 132.313 247.59 131.998 247.59 131.634C247.59 131.028 247.845 130.515 248.355 130.096C248.87 129.676 249.527 129.467 250.324 129.467C251.163 129.467 251.842 129.683 252.361 130.116C252.885 130.549 253.147 131.103 253.147 131.777H251.876C251.876 131.431 251.728 131.132 251.432 130.882C251.14 130.631 250.771 130.506 250.324 130.506C249.864 130.506 249.504 130.606 249.244 130.807C248.984 131.007 248.854 131.269 248.854 131.593C248.854 131.898 248.975 132.128 249.217 132.283C249.458 132.438 249.894 132.586 250.522 132.728C251.156 132.869 251.669 133.037 252.061 133.233C252.452 133.429 252.742 133.666 252.929 133.944C253.12 134.218 253.216 134.553 253.216 134.949C253.216 135.61 252.951 136.141 252.423 136.542C251.894 136.938 251.208 137.137 250.365 137.137C249.773 137.137 249.249 137.032 248.793 136.822C248.337 136.613 247.979 136.321 247.72 135.947C247.465 135.569 247.337 135.161 247.337 134.724H248.602C248.624 135.147 248.793 135.485 249.107 135.735C249.426 135.981 249.846 136.104 250.365 136.104C250.844 136.104 251.227 136.009 251.514 135.817C251.805 135.621 251.951 135.362 251.951 135.038ZM256.487 137H255.223V129.604H256.487V137ZM255.12 127.642C255.12 127.437 255.182 127.263 255.305 127.122C255.432 126.981 255.619 126.91 255.865 126.91C256.111 126.91 256.298 126.981 256.426 127.122C256.553 127.263 256.617 127.437 256.617 127.642C256.617 127.847 256.553 128.018 256.426 128.154C256.298 128.291 256.111 128.359 255.865 128.359C255.619 128.359 255.432 128.291 255.305 128.154C255.182 128.018 255.12 127.847 255.12 127.642ZM260.483 127.812V129.604H261.864V130.581H260.483V135.168C260.483 135.464 260.545 135.688 260.668 135.838C260.791 135.984 261.001 136.057 261.297 136.057C261.443 136.057 261.643 136.029 261.898 135.975V137C261.566 137.091 261.242 137.137 260.928 137.137C260.363 137.137 259.937 136.966 259.649 136.624C259.362 136.282 259.219 135.797 259.219 135.168V130.581H257.872V129.604H259.219V127.812H260.483ZM75.5234 157C75.4505 156.854 75.3913 156.594 75.3457 156.221C74.7578 156.831 74.056 157.137 73.2402 157.137C72.5111 157.137 71.9118 156.932 71.4424 156.521C70.9775 156.107 70.7451 155.583 70.7451 154.949C70.7451 154.179 71.0368 153.582 71.6201 153.158C72.208 152.73 73.0329 152.516 74.0947 152.516H75.3252V151.935C75.3252 151.493 75.193 151.142 74.9287 150.882C74.6644 150.618 74.2747 150.485 73.7598 150.485C73.3086 150.485 72.9303 150.599 72.625 150.827C72.3197 151.055 72.167 151.331 72.167 151.654H70.8955C70.8955 151.285 71.0254 150.93 71.2852 150.588C71.5495 150.242 71.9049 149.968 72.3516 149.768C72.8027 149.567 73.2972 149.467 73.835 149.467C74.6872 149.467 75.3548 149.681 75.8379 150.109C76.321 150.533 76.5716 151.119 76.5898 151.866V155.271C76.5898 155.95 76.6764 156.49 76.8496 156.891V157H75.5234ZM73.4248 156.036C73.8213 156.036 74.1973 155.934 74.5527 155.729C74.9082 155.523 75.1657 155.257 75.3252 154.929V153.411H74.334C72.7845 153.411 72.0098 153.865 72.0098 154.771C72.0098 155.168 72.1419 155.478 72.4062 155.701C72.6706 155.924 73.0101 156.036 73.4248 156.036ZM80.0117 149.604L80.0459 150.424C80.5882 149.786 81.3197 149.467 82.2402 149.467C83.2747 149.467 83.9788 149.863 84.3525 150.656C84.5986 150.301 84.9176 150.014 85.3096 149.795C85.7061 149.576 86.1732 149.467 86.7109 149.467C88.3333 149.467 89.1582 150.326 89.1855 152.044V157H87.9209V152.119C87.9209 151.59 87.8001 151.196 87.5586 150.937C87.3171 150.672 86.9115 150.54 86.3418 150.54C85.8724 150.54 85.4827 150.681 85.1729 150.964C84.863 151.242 84.6829 151.618 84.6328 152.092V157H83.3613V152.153C83.3613 151.078 82.835 150.54 81.7822 150.54C80.9528 150.54 80.3854 150.893 80.0801 151.6V157H78.8154V149.604H80.0117ZM94.4189 157.137C93.4163 157.137 92.6006 156.809 91.9717 156.152C91.3428 155.492 91.0283 154.61 91.0283 153.507V153.274C91.0283 152.541 91.1673 151.887 91.4453 151.312C91.7279 150.734 92.1198 150.283 92.6211 149.959C93.127 149.631 93.6738 149.467 94.2617 149.467C95.2233 149.467 95.9707 149.784 96.5039 150.417C97.0371 151.05 97.3037 151.957 97.3037 153.138V153.664H92.293C92.3112 154.393 92.5231 154.983 92.9287 155.435C93.3389 155.881 93.8584 156.104 94.4873 156.104C94.9339 156.104 95.3122 156.013 95.6221 155.831C95.932 155.649 96.2031 155.407 96.4355 155.106L97.208 155.708C96.5882 156.66 95.6585 157.137 94.4189 157.137ZM94.2617 150.506C93.7513 150.506 93.3229 150.693 92.9766 151.066C92.6302 151.436 92.416 151.955 92.334 152.625H96.0391V152.529C96.0026 151.887 95.8294 151.39 95.5195 151.039C95.2096 150.684 94.7904 150.506 94.2617 150.506ZM100.739 147.812V149.604H102.12V150.581H100.739V155.168C100.739 155.464 100.801 155.688 100.924 155.838C101.047 155.984 101.257 156.057 101.553 156.057C101.699 156.057 101.899 156.029 102.154 155.975V157C101.822 157.091 101.498 157.137 101.184 157.137C100.618 157.137 100.192 156.966 99.9053 156.624C99.6182 156.282 99.4746 155.797 99.4746 155.168V150.581H98.1279V149.604H99.4746V147.812H100.739ZM103.812 158.982L103.095 158.49C103.523 157.893 103.746 157.278 103.765 156.645V155.503H105.002V156.494C105.002 156.954 104.888 157.415 104.66 157.875C104.437 158.335 104.154 158.704 103.812 158.982ZM113.541 156.104C113.992 156.104 114.386 155.968 114.724 155.694C115.061 155.421 115.248 155.079 115.284 154.669H116.48C116.458 155.093 116.312 155.496 116.043 155.879C115.774 156.262 115.414 156.567 114.963 156.795C114.516 157.023 114.042 157.137 113.541 157.137C112.534 157.137 111.732 156.802 111.135 156.132C110.542 155.457 110.246 154.537 110.246 153.37V153.158C110.246 152.438 110.378 151.798 110.643 151.237C110.907 150.677 111.285 150.242 111.777 149.932C112.274 149.622 112.86 149.467 113.534 149.467C114.364 149.467 115.052 149.715 115.599 150.212C116.15 150.709 116.444 151.354 116.48 152.146H115.284C115.248 151.668 115.065 151.276 114.737 150.971C114.414 150.661 114.013 150.506 113.534 150.506C112.892 150.506 112.393 150.738 112.037 151.203C111.686 151.663 111.511 152.331 111.511 153.206V153.445C111.511 154.298 111.686 154.954 112.037 155.414C112.388 155.874 112.889 156.104 113.541 156.104ZM117.817 153.233C117.817 152.509 117.959 151.857 118.241 151.278C118.528 150.7 118.925 150.253 119.431 149.938C119.941 149.624 120.522 149.467 121.174 149.467C122.181 149.467 122.994 149.815 123.614 150.513C124.239 151.21 124.551 152.137 124.551 153.295V153.384C124.551 154.104 124.412 154.751 124.134 155.325C123.86 155.895 123.466 156.339 122.951 156.658C122.441 156.977 121.853 157.137 121.188 157.137C120.185 157.137 119.371 156.788 118.747 156.091C118.127 155.394 117.817 154.471 117.817 153.322V153.233ZM119.089 153.384C119.089 154.204 119.278 154.863 119.656 155.359C120.039 155.856 120.549 156.104 121.188 156.104C121.83 156.104 122.34 155.854 122.719 155.353C123.097 154.847 123.286 154.14 123.286 153.233C123.286 152.422 123.092 151.766 122.705 151.265C122.322 150.759 121.812 150.506 121.174 150.506C120.549 150.506 120.046 150.754 119.663 151.251C119.28 151.748 119.089 152.459 119.089 153.384ZM127.583 149.604L127.624 150.533C128.189 149.822 128.927 149.467 129.839 149.467C131.402 149.467 132.19 150.349 132.204 152.112V157H130.939V152.105C130.935 151.572 130.812 151.178 130.57 150.923C130.333 150.668 129.962 150.54 129.456 150.54C129.046 150.54 128.686 150.649 128.376 150.868C128.066 151.087 127.825 151.374 127.651 151.729V157H126.387V149.604H127.583ZM138.668 155.038C138.668 154.696 138.538 154.432 138.278 154.245C138.023 154.054 137.574 153.89 136.932 153.753C136.294 153.616 135.785 153.452 135.407 153.261C135.034 153.069 134.756 152.841 134.573 152.577C134.396 152.313 134.307 151.998 134.307 151.634C134.307 151.028 134.562 150.515 135.072 150.096C135.587 149.676 136.243 149.467 137.041 149.467C137.88 149.467 138.559 149.683 139.078 150.116C139.602 150.549 139.864 151.103 139.864 151.777H138.593C138.593 151.431 138.445 151.132 138.148 150.882C137.857 150.631 137.488 150.506 137.041 150.506C136.581 150.506 136.221 150.606 135.961 150.807C135.701 151.007 135.571 151.269 135.571 151.593C135.571 151.898 135.692 152.128 135.934 152.283C136.175 152.438 136.61 152.586 137.239 152.728C137.873 152.869 138.385 153.037 138.777 153.233C139.169 153.429 139.459 153.666 139.646 153.944C139.837 154.218 139.933 154.553 139.933 154.949C139.933 155.61 139.668 156.141 139.14 156.542C138.611 156.938 137.925 157.137 137.082 157.137C136.49 157.137 135.965 157.032 135.51 156.822C135.054 156.613 134.696 156.321 134.437 155.947C134.181 155.569 134.054 155.161 134.054 154.724H135.318C135.341 155.147 135.51 155.485 135.824 155.735C136.143 155.981 136.562 156.104 137.082 156.104C137.561 156.104 137.943 156.009 138.23 155.817C138.522 155.621 138.668 155.362 138.668 155.038ZM144.899 157.137C143.897 157.137 143.081 156.809 142.452 156.152C141.823 155.492 141.509 154.61 141.509 153.507V153.274C141.509 152.541 141.648 151.887 141.926 151.312C142.208 150.734 142.6 150.283 143.102 149.959C143.607 149.631 144.154 149.467 144.742 149.467C145.704 149.467 146.451 149.784 146.984 150.417C147.518 151.05 147.784 151.957 147.784 153.138V153.664H142.773C142.792 154.393 143.004 154.983 143.409 155.435C143.819 155.881 144.339 156.104 144.968 156.104C145.414 156.104 145.793 156.013 146.103 155.831C146.412 155.649 146.684 155.407 146.916 155.106L147.688 155.708C147.069 156.66 146.139 157.137 144.899 157.137ZM144.742 150.506C144.232 150.506 143.803 150.693 143.457 151.066C143.111 151.436 142.896 151.955 142.814 152.625H146.52V152.529C146.483 151.887 146.31 151.39 146 151.039C145.69 150.684 145.271 150.506 144.742 150.506ZM152.471 156.104C152.922 156.104 153.316 155.968 153.653 155.694C153.991 155.421 154.177 155.079 154.214 154.669H155.41C155.387 155.093 155.242 155.496 154.973 155.879C154.704 156.262 154.344 156.567 153.893 156.795C153.446 157.023 152.972 157.137 152.471 157.137C151.464 157.137 150.661 156.802 150.064 156.132C149.472 155.457 149.176 154.537 149.176 153.37V153.158C149.176 152.438 149.308 151.798 149.572 151.237C149.837 150.677 150.215 150.242 150.707 149.932C151.204 149.622 151.789 149.467 152.464 149.467C153.293 149.467 153.981 149.715 154.528 150.212C155.08 150.709 155.374 151.354 155.41 152.146H154.214C154.177 151.668 153.995 151.276 153.667 150.971C153.343 150.661 152.942 150.506 152.464 150.506C151.821 150.506 151.322 150.738 150.967 151.203C150.616 151.663 150.44 152.331 150.44 153.206V153.445C150.44 154.298 150.616 154.954 150.967 155.414C151.318 155.874 151.819 156.104 152.471 156.104ZM158.798 147.812V149.604H160.179V150.581H158.798V155.168C158.798 155.464 158.859 155.688 158.982 155.838C159.105 155.984 159.315 156.057 159.611 156.057C159.757 156.057 159.958 156.029 160.213 155.975V157C159.88 157.091 159.557 157.137 159.242 157.137C158.677 157.137 158.251 156.966 157.964 156.624C157.677 156.282 157.533 155.797 157.533 155.168V150.581H156.187V149.604H157.533V147.812H158.798ZM164.981 157.137C163.979 157.137 163.163 156.809 162.534 156.152C161.905 155.492 161.591 154.61 161.591 153.507V153.274C161.591 152.541 161.73 151.887 162.008 151.312C162.29 150.734 162.682 150.283 163.184 149.959C163.689 149.631 164.236 149.467 164.824 149.467C165.786 149.467 166.533 149.784 167.066 150.417C167.6 151.05 167.866 151.957 167.866 153.138V153.664H162.855C162.874 154.393 163.086 154.983 163.491 155.435C163.901 155.881 164.421 156.104 165.05 156.104C165.496 156.104 165.875 156.013 166.185 155.831C166.494 155.649 166.766 155.407 166.998 155.106L167.771 155.708C167.151 156.66 166.221 157.137 164.981 157.137ZM164.824 150.506C164.314 150.506 163.885 150.693 163.539 151.066C163.193 151.436 162.979 151.955 162.896 152.625H166.602V152.529C166.565 151.887 166.392 151.39 166.082 151.039C165.772 150.684 165.353 150.506 164.824 150.506ZM171.302 147.812V149.604H172.683V150.581H171.302V155.168C171.302 155.464 171.363 155.688 171.486 155.838C171.609 155.984 171.819 156.057 172.115 156.057C172.261 156.057 172.462 156.029 172.717 155.975V157C172.384 157.091 172.061 157.137 171.746 157.137C171.181 157.137 170.755 156.966 170.468 156.624C170.181 156.282 170.037 155.797 170.037 155.168V150.581H168.69V149.604H170.037V147.812H171.302ZM178.982 156.269C178.49 156.847 177.768 157.137 176.815 157.137C176.027 157.137 175.425 156.909 175.011 156.453C174.601 155.993 174.393 155.314 174.389 154.416V149.604H175.653V154.382C175.653 155.503 176.109 156.063 177.021 156.063C177.987 156.063 178.629 155.703 178.948 154.983V149.604H180.213V157H179.01L178.982 156.269ZM185.966 150.738C185.774 150.706 185.567 150.69 185.344 150.69C184.514 150.69 183.951 151.044 183.655 151.75V157H182.391V149.604H183.621L183.642 150.458C184.056 149.797 184.644 149.467 185.405 149.467C185.651 149.467 185.838 149.499 185.966 149.562V150.738ZM195.674 157C195.601 156.854 195.542 156.594 195.496 156.221C194.908 156.831 194.206 157.137 193.391 157.137C192.661 157.137 192.062 156.932 191.593 156.521C191.128 156.107 190.896 155.583 190.896 154.949C190.896 154.179 191.187 153.582 191.771 153.158C192.358 152.73 193.183 152.516 194.245 152.516H195.476V151.935C195.476 151.493 195.343 151.142 195.079 150.882C194.815 150.618 194.425 150.485 193.91 150.485C193.459 150.485 193.081 150.599 192.775 150.827C192.47 151.055 192.317 151.331 192.317 151.654H191.046C191.046 151.285 191.176 150.93 191.436 150.588C191.7 150.242 192.055 149.968 192.502 149.768C192.953 149.567 193.448 149.467 193.985 149.467C194.838 149.467 195.505 149.681 195.988 150.109C196.471 150.533 196.722 151.119 196.74 151.866V155.271C196.74 155.95 196.827 156.49 197 156.891V157H195.674ZM193.575 156.036C193.972 156.036 194.348 155.934 194.703 155.729C195.059 155.523 195.316 155.257 195.476 154.929V153.411H194.484C192.935 153.411 192.16 153.865 192.16 154.771C192.16 155.168 192.292 155.478 192.557 155.701C192.821 155.924 193.16 156.036 193.575 156.036ZM198.665 153.24C198.665 152.105 198.934 151.194 199.472 150.506C200.009 149.813 200.714 149.467 201.584 149.467C202.45 149.467 203.136 149.763 203.642 150.355V146.5H204.906V157H203.744L203.683 156.207C203.177 156.827 202.473 157.137 201.57 157.137C200.714 157.137 200.014 156.786 199.472 156.084C198.934 155.382 198.665 154.466 198.665 153.336V153.24ZM199.93 153.384C199.93 154.222 200.103 154.879 200.449 155.353C200.796 155.826 201.274 156.063 201.885 156.063C202.687 156.063 203.272 155.703 203.642 154.983V151.586C203.263 150.889 202.682 150.54 201.898 150.54C201.279 150.54 200.796 150.779 200.449 151.258C200.103 151.736 199.93 152.445 199.93 153.384ZM208.499 157H207.234V149.604H208.499V157ZM207.132 147.642C207.132 147.437 207.193 147.263 207.316 147.122C207.444 146.981 207.631 146.91 207.877 146.91C208.123 146.91 208.31 146.981 208.438 147.122C208.565 147.263 208.629 147.437 208.629 147.642C208.629 147.847 208.565 148.018 208.438 148.154C208.31 148.291 208.123 148.359 207.877 148.359C207.631 148.359 207.444 148.291 207.316 148.154C207.193 148.018 207.132 147.847 207.132 147.642ZM217.027 153.384C217.027 154.509 216.77 155.416 216.255 156.104C215.74 156.793 215.043 157.137 214.163 157.137C213.265 157.137 212.559 156.852 212.044 156.282V159.844H210.779V149.604H211.935L211.996 150.424C212.511 149.786 213.227 149.467 214.143 149.467C215.031 149.467 215.733 149.802 216.248 150.472C216.768 151.142 217.027 152.074 217.027 153.268V153.384ZM215.763 153.24C215.763 152.406 215.585 151.748 215.229 151.265C214.874 150.782 214.386 150.54 213.767 150.54C213.001 150.54 212.427 150.88 212.044 151.559V155.093C212.422 155.767 213.001 156.104 213.78 156.104C214.386 156.104 214.867 155.865 215.223 155.387C215.583 154.904 215.763 154.188 215.763 153.24ZM220.265 157H219V149.604H220.265V157ZM218.897 147.642C218.897 147.437 218.959 147.263 219.082 147.122C219.21 146.981 219.396 146.91 219.643 146.91C219.889 146.91 220.076 146.981 220.203 147.122C220.331 147.263 220.395 147.437 220.395 147.642C220.395 147.847 220.331 148.018 220.203 148.154C220.076 148.291 219.889 148.359 219.643 148.359C219.396 148.359 219.21 148.291 219.082 148.154C218.959 148.018 218.897 147.847 218.897 147.642ZM226.852 155.038C226.852 154.696 226.722 154.432 226.462 154.245C226.207 154.054 225.758 153.89 225.115 153.753C224.477 153.616 223.969 153.452 223.591 153.261C223.217 153.069 222.939 152.841 222.757 152.577C222.579 152.313 222.49 151.998 222.49 151.634C222.49 151.028 222.745 150.515 223.256 150.096C223.771 149.676 224.427 149.467 225.225 149.467C226.063 149.467 226.742 149.683 227.262 150.116C227.786 150.549 228.048 151.103 228.048 151.777H226.776C226.776 151.431 226.628 151.132 226.332 150.882C226.04 150.631 225.671 150.506 225.225 150.506C224.764 150.506 224.404 150.606 224.145 150.807C223.885 151.007 223.755 151.269 223.755 151.593C223.755 151.898 223.876 152.128 224.117 152.283C224.359 152.438 224.794 152.586 225.423 152.728C226.056 152.869 226.569 153.037 226.961 153.233C227.353 153.429 227.642 153.666 227.829 153.944C228.021 154.218 228.116 154.553 228.116 154.949C228.116 155.61 227.852 156.141 227.323 156.542C226.795 156.938 226.109 157.137 225.266 157.137C224.673 157.137 224.149 157.032 223.693 156.822C223.238 156.613 222.88 156.321 222.62 155.947C222.365 155.569 222.237 155.161 222.237 154.724H223.502C223.525 155.147 223.693 155.485 224.008 155.735C224.327 155.981 224.746 156.104 225.266 156.104C225.744 156.104 226.127 156.009 226.414 155.817C226.706 155.621 226.852 155.362 226.852 155.038ZM232.98 156.104C233.432 156.104 233.826 155.968 234.163 155.694C234.5 155.421 234.687 155.079 234.724 154.669H235.92C235.897 155.093 235.751 155.496 235.482 155.879C235.214 156.262 234.854 156.567 234.402 156.795C233.956 157.023 233.482 157.137 232.98 157.137C231.973 157.137 231.171 156.802 230.574 156.132C229.982 155.457 229.686 154.537 229.686 153.37V153.158C229.686 152.438 229.818 151.798 230.082 151.237C230.346 150.677 230.725 150.242 231.217 149.932C231.714 149.622 232.299 149.467 232.974 149.467C233.803 149.467 234.491 149.715 235.038 150.212C235.59 150.709 235.883 151.354 235.92 152.146H234.724C234.687 151.668 234.505 151.276 234.177 150.971C233.853 150.661 233.452 150.506 232.974 150.506C232.331 150.506 231.832 150.738 231.477 151.203C231.126 151.663 230.95 152.331 230.95 153.206V153.445C230.95 154.298 231.126 154.954 231.477 155.414C231.827 155.874 232.329 156.104 232.98 156.104ZM238.966 157H237.701V149.604H238.966V157ZM237.599 147.642C237.599 147.437 237.66 147.263 237.783 147.122C237.911 146.981 238.098 146.91 238.344 146.91C238.59 146.91 238.777 146.981 238.904 147.122C239.032 147.263 239.096 147.437 239.096 147.642C239.096 147.847 239.032 148.018 238.904 148.154C238.777 148.291 238.59 148.359 238.344 148.359C238.098 148.359 237.911 148.291 237.783 148.154C237.66 148.018 237.599 147.847 237.599 147.642ZM242.442 149.604L242.483 150.533C243.049 149.822 243.787 149.467 244.698 149.467C246.261 149.467 247.05 150.349 247.063 152.112V157H245.799V152.105C245.794 151.572 245.671 151.178 245.43 150.923C245.193 150.668 244.821 150.54 244.315 150.54C243.905 150.54 243.545 150.649 243.235 150.868C242.925 151.087 242.684 151.374 242.511 151.729V157H241.246V149.604H242.442ZM248.92 153.24C248.92 152.087 249.187 151.171 249.72 150.492C250.253 149.809 250.959 149.467 251.839 149.467C252.741 149.467 253.445 149.786 253.951 150.424L254.013 149.604H255.168V156.822C255.168 157.779 254.883 158.534 254.313 159.085C253.748 159.636 252.987 159.912 252.03 159.912C251.497 159.912 250.975 159.798 250.465 159.57C249.954 159.342 249.565 159.03 249.296 158.634L249.952 157.875C250.494 158.545 251.158 158.88 251.941 158.88C252.557 158.88 253.035 158.707 253.377 158.36C253.723 158.014 253.896 157.526 253.896 156.897V156.262C253.391 156.845 252.7 157.137 251.825 157.137C250.959 157.137 250.257 156.788 249.72 156.091C249.187 155.394 248.92 154.443 248.92 153.24ZM250.191 153.384C250.191 154.218 250.362 154.874 250.704 155.353C251.046 155.826 251.524 156.063 252.14 156.063C252.937 156.063 253.523 155.701 253.896 154.977V151.6C253.509 150.893 252.928 150.54 252.153 150.54C251.538 150.54 251.057 150.779 250.711 151.258C250.365 151.736 250.191 152.445 250.191 153.384ZM264.124 157.137C263.121 157.137 262.306 156.809 261.677 156.152C261.048 155.492 260.733 154.61 260.733 153.507V153.274C260.733 152.541 260.872 151.887 261.15 151.312C261.433 150.734 261.825 150.283 262.326 149.959C262.832 149.631 263.379 149.467 263.967 149.467C264.928 149.467 265.676 149.784 266.209 150.417C266.742 151.05 267.009 151.957 267.009 153.138V153.664H261.998C262.016 154.393 262.228 154.983 262.634 155.435C263.044 155.881 263.563 156.104 264.192 156.104C264.639 156.104 265.017 156.013 265.327 155.831C265.637 155.649 265.908 155.407 266.141 155.106L266.913 155.708C266.293 156.66 265.364 157.137 264.124 157.137ZM263.967 150.506C263.456 150.506 263.028 150.693 262.682 151.066C262.335 151.436 262.121 151.955 262.039 152.625H265.744V152.529C265.708 151.887 265.535 151.39 265.225 151.039C264.915 150.684 264.495 150.506 263.967 150.506ZM270.103 157H268.838V146.5H270.103V157ZM273.757 157H272.492V149.604H273.757V157ZM272.39 147.642C272.39 147.437 272.451 147.263 272.574 147.122C272.702 146.981 272.889 146.91 273.135 146.91C273.381 146.91 273.568 146.981 273.695 147.122C273.823 147.263 273.887 147.437 273.887 147.642C273.887 147.847 273.823 148.018 273.695 148.154C273.568 148.291 273.381 148.359 273.135 148.359C272.889 148.359 272.702 148.291 272.574 148.154C272.451 148.018 272.39 147.847 272.39 147.642ZM277.753 147.812V149.604H279.134V150.581H277.753V155.168C277.753 155.464 277.814 155.688 277.938 155.838C278.061 155.984 278.27 156.057 278.566 156.057C278.712 156.057 278.913 156.029 279.168 155.975V157C278.835 157.091 278.512 157.137 278.197 157.137C277.632 157.137 277.206 156.966 276.919 156.624C276.632 156.282 276.488 155.797 276.488 155.168V150.581H275.142V149.604H276.488V147.812H277.753ZM280.826 158.982L280.108 158.49C280.537 157.893 280.76 157.278 280.778 156.645V155.503H282.016V156.494C282.016 156.954 281.902 157.415 281.674 157.875C281.451 158.335 281.168 158.704 280.826 158.982ZM75.2637 175.038C75.2637 174.696 75.1338 174.432 74.874 174.245C74.6188 174.054 74.1699 173.89 73.5273 173.753C72.8893 173.616 72.3812 173.452 72.0029 173.261C71.6292 173.069 71.3512 172.841 71.1689 172.577C70.9912 172.313 70.9023 171.998 70.9023 171.634C70.9023 171.028 71.1576 170.515 71.668 170.096C72.1829 169.676 72.8392 169.467 73.6367 169.467C74.4753 169.467 75.1543 169.683 75.6738 170.116C76.1979 170.549 76.46 171.103 76.46 171.777H75.1885C75.1885 171.431 75.0404 171.132 74.7441 170.882C74.4525 170.631 74.0833 170.506 73.6367 170.506C73.1764 170.506 72.8164 170.606 72.5566 170.807C72.2969 171.007 72.167 171.269 72.167 171.593C72.167 171.898 72.2878 172.128 72.5293 172.283C72.7708 172.438 73.2061 172.586 73.835 172.728C74.4684 172.869 74.9811 173.037 75.373 173.233C75.765 173.429 76.0544 173.666 76.2412 173.944C76.4326 174.218 76.5283 174.553 76.5283 174.949C76.5283 175.61 76.264 176.141 75.7354 176.542C75.2067 176.938 74.5208 177.137 73.6777 177.137C73.0853 177.137 72.5612 177.032 72.1055 176.822C71.6497 176.613 71.292 176.321 71.0322 175.947C70.777 175.569 70.6494 175.161 70.6494 174.724H71.9141C71.9368 175.147 72.1055 175.485 72.4199 175.735C72.7389 175.981 73.1582 176.104 73.6777 176.104C74.1562 176.104 74.5391 176.009 74.8262 175.817C75.1178 175.621 75.2637 175.362 75.2637 175.038ZM81.4951 177.137C80.4925 177.137 79.6768 176.809 79.0479 176.152C78.4189 175.492 78.1045 174.61 78.1045 173.507V173.274C78.1045 172.541 78.2435 171.887 78.5215 171.312C78.804 170.734 79.196 170.283 79.6973 169.959C80.2031 169.631 80.75 169.467 81.3379 169.467C82.2995 169.467 83.0469 169.784 83.5801 170.417C84.1133 171.05 84.3799 171.957 84.3799 173.138V173.664H79.3691C79.3874 174.393 79.5993 174.983 80.0049 175.435C80.415 175.881 80.9346 176.104 81.5635 176.104C82.0101 176.104 82.3883 176.013 82.6982 175.831C83.0081 175.649 83.2793 175.407 83.5117 175.106L84.2842 175.708C83.6644 176.66 82.7347 177.137 81.4951 177.137ZM81.3379 170.506C80.8275 170.506 80.3991 170.693 80.0527 171.066C79.7064 171.436 79.4922 171.955 79.4102 172.625H83.1152V172.529C83.0788 171.887 82.9056 171.39 82.5957 171.039C82.2858 170.684 81.8665 170.506 81.3379 170.506ZM85.792 173.24C85.792 172.105 86.0609 171.194 86.5986 170.506C87.1364 169.813 87.8405 169.467 88.7109 169.467C89.5768 169.467 90.2627 169.763 90.7686 170.355V166.5H92.0332V177H90.8711L90.8096 176.207C90.3037 176.827 89.5996 177.137 88.6973 177.137C87.8405 177.137 87.141 176.786 86.5986 176.084C86.0609 175.382 85.792 174.466 85.792 173.336V173.24ZM87.0566 173.384C87.0566 174.222 87.2298 174.879 87.5762 175.353C87.9225 175.826 88.401 176.063 89.0117 176.063C89.8138 176.063 90.3994 175.703 90.7686 174.983V171.586C90.3903 170.889 89.8092 170.54 89.0254 170.54C88.4056 170.54 87.9225 170.779 87.5762 171.258C87.2298 171.736 87.0566 172.445 87.0566 173.384ZM97.667 173.24C97.667 172.105 97.9359 171.194 98.4736 170.506C99.0114 169.813 99.7155 169.467 100.586 169.467C101.452 169.467 102.138 169.763 102.644 170.355V166.5H103.908V177H102.746L102.685 176.207C102.179 176.827 101.475 177.137 100.572 177.137C99.7155 177.137 99.016 176.786 98.4736 176.084C97.9359 175.382 97.667 174.466 97.667 173.336V173.24ZM98.9316 173.384C98.9316 174.222 99.1048 174.879 99.4512 175.353C99.7975 175.826 100.276 176.063 100.887 176.063C101.689 176.063 102.274 175.703 102.644 174.983V171.586C102.265 170.889 101.684 170.54 100.9 170.54C100.281 170.54 99.7975 170.779 99.4512 171.258C99.1048 171.736 98.9316 172.445 98.9316 173.384ZM105.792 173.233C105.792 172.509 105.933 171.857 106.216 171.278C106.503 170.7 106.899 170.253 107.405 169.938C107.916 169.624 108.497 169.467 109.148 169.467C110.156 169.467 110.969 169.815 111.589 170.513C112.213 171.21 112.525 172.137 112.525 173.295V173.384C112.525 174.104 112.386 174.751 112.108 175.325C111.835 175.895 111.441 176.339 110.926 176.658C110.415 176.977 109.827 177.137 109.162 177.137C108.16 177.137 107.346 176.788 106.722 176.091C106.102 175.394 105.792 174.471 105.792 173.322V173.233ZM107.063 173.384C107.063 174.204 107.253 174.863 107.631 175.359C108.014 175.856 108.524 176.104 109.162 176.104C109.805 176.104 110.315 175.854 110.693 175.353C111.072 174.847 111.261 174.14 111.261 173.233C111.261 172.422 111.067 171.766 110.68 171.265C110.297 170.759 109.786 170.506 109.148 170.506C108.524 170.506 108.021 170.754 107.638 171.251C107.255 171.748 107.063 172.459 107.063 173.384ZM121.153 177.137C120.151 177.137 119.335 176.809 118.706 176.152C118.077 175.492 117.763 174.61 117.763 173.507V173.274C117.763 172.541 117.902 171.887 118.18 171.312C118.462 170.734 118.854 170.283 119.355 169.959C119.861 169.631 120.408 169.467 120.996 169.467C121.958 169.467 122.705 169.784 123.238 170.417C123.771 171.05 124.038 171.957 124.038 173.138V173.664H119.027C119.046 174.393 119.257 174.983 119.663 175.435C120.073 175.881 120.593 176.104 121.222 176.104C121.668 176.104 122.047 176.013 122.356 175.831C122.666 175.649 122.938 175.407 123.17 175.106L123.942 175.708C123.323 176.66 122.393 177.137 121.153 177.137ZM120.996 170.506C120.486 170.506 120.057 170.693 119.711 171.066C119.365 171.436 119.15 171.955 119.068 172.625H122.773V172.529C122.737 171.887 122.564 171.39 122.254 171.039C121.944 170.684 121.525 170.506 120.996 170.506ZM127.132 177H125.867V169.604H127.132V177ZM125.765 167.642C125.765 167.437 125.826 167.263 125.949 167.122C126.077 166.981 126.264 166.91 126.51 166.91C126.756 166.91 126.943 166.981 127.07 167.122C127.198 167.263 127.262 167.437 127.262 167.642C127.262 167.847 127.198 168.018 127.07 168.154C126.943 168.291 126.756 168.359 126.51 168.359C126.264 168.359 126.077 168.291 125.949 168.154C125.826 168.018 125.765 167.847 125.765 167.642ZM133.979 176.269C133.486 176.847 132.764 177.137 131.812 177.137C131.023 177.137 130.422 176.909 130.007 176.453C129.597 175.993 129.389 175.314 129.385 174.416V169.604H130.649V174.382C130.649 175.503 131.105 176.063 132.017 176.063C132.983 176.063 133.625 175.703 133.944 174.983V169.604H135.209V177H134.006L133.979 176.269ZM141.693 175.038C141.693 174.696 141.563 174.432 141.304 174.245C141.049 174.054 140.6 173.89 139.957 173.753C139.319 173.616 138.811 173.452 138.433 173.261C138.059 173.069 137.781 172.841 137.599 172.577C137.421 172.313 137.332 171.998 137.332 171.634C137.332 171.028 137.587 170.515 138.098 170.096C138.613 169.676 139.269 169.467 140.066 169.467C140.905 169.467 141.584 169.683 142.104 170.116C142.628 170.549 142.89 171.103 142.89 171.777H141.618C141.618 171.431 141.47 171.132 141.174 170.882C140.882 170.631 140.513 170.506 140.066 170.506C139.606 170.506 139.246 170.606 138.986 170.807C138.727 171.007 138.597 171.269 138.597 171.593C138.597 171.898 138.717 172.128 138.959 172.283C139.201 172.438 139.636 172.586 140.265 172.728C140.898 172.869 141.411 173.037 141.803 173.233C142.195 173.429 142.484 173.666 142.671 173.944C142.862 174.218 142.958 174.553 142.958 174.949C142.958 175.61 142.694 176.141 142.165 176.542C141.636 176.938 140.951 177.137 140.107 177.137C139.515 177.137 138.991 177.032 138.535 176.822C138.079 176.613 137.722 176.321 137.462 175.947C137.207 175.569 137.079 175.161 137.079 174.724H138.344C138.367 175.147 138.535 175.485 138.85 175.735C139.169 175.981 139.588 176.104 140.107 176.104C140.586 176.104 140.969 176.009 141.256 175.817C141.548 175.621 141.693 175.362 141.693 175.038ZM146.045 169.604L146.079 170.424C146.621 169.786 147.353 169.467 148.273 169.467C149.308 169.467 150.012 169.863 150.386 170.656C150.632 170.301 150.951 170.014 151.343 169.795C151.739 169.576 152.206 169.467 152.744 169.467C154.367 169.467 155.191 170.326 155.219 172.044V177H153.954V172.119C153.954 171.59 153.833 171.196 153.592 170.937C153.35 170.672 152.945 170.54 152.375 170.54C151.906 170.54 151.516 170.681 151.206 170.964C150.896 171.242 150.716 171.618 150.666 172.092V177H149.395V172.153C149.395 171.078 148.868 170.54 147.815 170.54C146.986 170.54 146.419 170.893 146.113 171.6V177H144.849V169.604H146.045ZM157.048 173.233C157.048 172.509 157.189 171.857 157.472 171.278C157.759 170.7 158.155 170.253 158.661 169.938C159.172 169.624 159.753 169.467 160.404 169.467C161.411 169.467 162.225 169.815 162.845 170.513C163.469 171.21 163.781 172.137 163.781 173.295V173.384C163.781 174.104 163.642 174.751 163.364 175.325C163.091 175.895 162.697 176.339 162.182 176.658C161.671 176.977 161.083 177.137 160.418 177.137C159.415 177.137 158.602 176.788 157.978 176.091C157.358 175.394 157.048 174.471 157.048 173.322V173.233ZM158.319 173.384C158.319 174.204 158.508 174.863 158.887 175.359C159.27 175.856 159.78 176.104 160.418 176.104C161.061 176.104 161.571 175.854 161.949 175.353C162.327 174.847 162.517 174.14 162.517 173.233C162.517 172.422 162.323 171.766 161.936 171.265C161.553 170.759 161.042 170.506 160.404 170.506C159.78 170.506 159.276 170.754 158.894 171.251C158.511 171.748 158.319 172.459 158.319 173.384ZM165.31 173.24C165.31 172.105 165.578 171.194 166.116 170.506C166.654 169.813 167.358 169.467 168.229 169.467C169.094 169.467 169.78 169.763 170.286 170.355V166.5H171.551V177H170.389L170.327 176.207C169.821 176.827 169.117 177.137 168.215 177.137C167.358 177.137 166.659 176.786 166.116 176.084C165.578 175.382 165.31 174.466 165.31 173.336V173.24ZM166.574 173.384C166.574 174.222 166.747 174.879 167.094 175.353C167.44 175.826 167.919 176.063 168.529 176.063C169.331 176.063 169.917 175.703 170.286 174.983V171.586C169.908 170.889 169.327 170.54 168.543 170.54C167.923 170.54 167.44 170.779 167.094 171.258C166.747 171.736 166.574 172.445 166.574 173.384ZM179.208 167.812V169.604H180.589V170.581H179.208V175.168C179.208 175.464 179.27 175.688 179.393 175.838C179.516 175.984 179.725 176.057 180.021 176.057C180.167 176.057 180.368 176.029 180.623 175.975V177C180.29 177.091 179.967 177.137 179.652 177.137C179.087 177.137 178.661 176.966 178.374 176.624C178.087 176.282 177.943 175.797 177.943 175.168V170.581H176.597V169.604H177.943V167.812H179.208ZM185.392 177.137C184.389 177.137 183.573 176.809 182.944 176.152C182.315 175.492 182.001 174.61 182.001 173.507V173.274C182.001 172.541 182.14 171.887 182.418 171.312C182.701 170.734 183.092 170.283 183.594 169.959C184.1 169.631 184.646 169.467 185.234 169.467C186.196 169.467 186.943 169.784 187.477 170.417C188.01 171.05 188.276 171.957 188.276 173.138V173.664H183.266C183.284 174.393 183.496 174.983 183.901 175.435C184.312 175.881 184.831 176.104 185.46 176.104C185.907 176.104 186.285 176.013 186.595 175.831C186.905 175.649 187.176 175.407 187.408 175.106L188.181 175.708C187.561 176.66 186.631 177.137 185.392 177.137ZM185.234 170.506C184.724 170.506 184.296 170.693 183.949 171.066C183.603 171.436 183.389 171.955 183.307 172.625H187.012V172.529C186.975 171.887 186.802 171.39 186.492 171.039C186.182 170.684 185.763 170.506 185.234 170.506ZM191.186 169.604L191.22 170.424C191.762 169.786 192.493 169.467 193.414 169.467C194.449 169.467 195.153 169.863 195.526 170.656C195.772 170.301 196.091 170.014 196.483 169.795C196.88 169.576 197.347 169.467 197.885 169.467C199.507 169.467 200.332 170.326 200.359 172.044V177H199.095V172.119C199.095 171.59 198.974 171.196 198.732 170.937C198.491 170.672 198.085 170.54 197.516 170.54C197.046 170.54 196.657 170.681 196.347 170.964C196.037 171.242 195.857 171.618 195.807 172.092V177H194.535V172.153C194.535 171.078 194.009 170.54 192.956 170.54C192.127 170.54 191.559 170.893 191.254 171.6V177H189.989V169.604H191.186ZM208.771 173.384C208.771 174.509 208.514 175.416 207.999 176.104C207.484 176.793 206.787 177.137 205.907 177.137C205.009 177.137 204.303 176.852 203.788 176.282V179.844H202.523V169.604H203.679L203.74 170.424C204.255 169.786 204.971 169.467 205.887 169.467C206.775 169.467 207.477 169.802 207.992 170.472C208.512 171.142 208.771 172.074 208.771 173.268V173.384ZM207.507 173.24C207.507 172.406 207.329 171.748 206.974 171.265C206.618 170.782 206.131 170.54 205.511 170.54C204.745 170.54 204.171 170.88 203.788 171.559V175.093C204.166 175.767 204.745 176.104 205.524 176.104C206.131 176.104 206.611 175.865 206.967 175.387C207.327 174.904 207.507 174.188 207.507 173.24ZM210.3 173.233C210.3 172.509 210.441 171.857 210.724 171.278C211.011 170.7 211.407 170.253 211.913 169.938C212.424 169.624 213.005 169.467 213.656 169.467C214.663 169.467 215.477 169.815 216.097 170.513C216.721 171.21 217.033 172.137 217.033 173.295V173.384C217.033 174.104 216.894 174.751 216.616 175.325C216.343 175.895 215.949 176.339 215.434 176.658C214.923 176.977 214.335 177.137 213.67 177.137C212.667 177.137 211.854 176.788 211.229 176.091C210.61 175.394 210.3 174.471 210.3 173.322V173.233ZM211.571 173.384C211.571 174.204 211.76 174.863 212.139 175.359C212.521 175.856 213.032 176.104 213.67 176.104C214.312 176.104 214.823 175.854 215.201 175.353C215.579 174.847 215.769 174.14 215.769 173.233C215.769 172.422 215.575 171.766 215.188 171.265C214.805 170.759 214.294 170.506 213.656 170.506C213.032 170.506 212.528 170.754 212.146 171.251C211.763 171.748 211.571 172.459 211.571 173.384ZM222.444 170.738C222.253 170.706 222.046 170.69 221.822 170.69C220.993 170.69 220.43 171.044 220.134 171.75V177H218.869V169.604H220.1L220.12 170.458C220.535 169.797 221.123 169.467 221.884 169.467C222.13 169.467 222.317 169.499 222.444 169.562V170.738ZM228.96 177H227.695V169.604H228.96V177ZM227.593 167.642C227.593 167.437 227.654 167.263 227.777 167.122C227.905 166.981 228.092 166.91 228.338 166.91C228.584 166.91 228.771 166.981 228.898 167.122C229.026 167.263 229.09 167.437 229.09 167.642C229.09 167.847 229.026 168.018 228.898 168.154C228.771 168.291 228.584 168.359 228.338 168.359C228.092 168.359 227.905 168.291 227.777 168.154C227.654 168.018 227.593 167.847 227.593 167.642ZM232.437 169.604L232.478 170.533C233.043 169.822 233.781 169.467 234.692 169.467C236.256 169.467 237.044 170.349 237.058 172.112V177H235.793V172.105C235.788 171.572 235.665 171.178 235.424 170.923C235.187 170.668 234.815 170.54 234.31 170.54C233.899 170.54 233.539 170.649 233.229 170.868C232.92 171.087 232.678 171.374 232.505 171.729V177H231.24V169.604H232.437ZM242.182 176.104C242.633 176.104 243.027 175.968 243.364 175.694C243.701 175.421 243.888 175.079 243.925 174.669H245.121C245.098 175.093 244.952 175.496 244.684 175.879C244.415 176.262 244.055 176.567 243.604 176.795C243.157 177.023 242.683 177.137 242.182 177.137C241.174 177.137 240.372 176.802 239.775 176.132C239.183 175.457 238.887 174.537 238.887 173.37V173.158C238.887 172.438 239.019 171.798 239.283 171.237C239.548 170.677 239.926 170.242 240.418 169.932C240.915 169.622 241.5 169.467 242.175 169.467C243.004 169.467 243.692 169.715 244.239 170.212C244.791 170.709 245.085 171.354 245.121 172.146H243.925C243.888 171.668 243.706 171.276 243.378 170.971C243.054 170.661 242.653 170.506 242.175 170.506C241.532 170.506 241.033 170.738 240.678 171.203C240.327 171.663 240.151 172.331 240.151 173.206V173.445C240.151 174.298 240.327 174.954 240.678 175.414C241.029 175.874 241.53 176.104 242.182 176.104ZM248.167 177H246.902V169.604H248.167V177ZM246.8 167.642C246.8 167.437 246.861 167.263 246.984 167.122C247.112 166.981 247.299 166.91 247.545 166.91C247.791 166.91 247.978 166.981 248.105 167.122C248.233 167.263 248.297 167.437 248.297 167.642C248.297 167.847 248.233 168.018 248.105 168.154C247.978 168.291 247.791 168.359 247.545 168.359C247.299 168.359 247.112 168.291 246.984 168.154C246.861 168.018 246.8 167.847 246.8 167.642ZM250.14 173.24C250.14 172.105 250.409 171.194 250.946 170.506C251.484 169.813 252.188 169.467 253.059 169.467C253.924 169.467 254.61 169.763 255.116 170.355V166.5H256.381V177H255.219L255.157 176.207C254.651 176.827 253.947 177.137 253.045 177.137C252.188 177.137 251.489 176.786 250.946 176.084C250.409 175.382 250.14 174.466 250.14 173.336V173.24ZM251.404 173.384C251.404 174.222 251.577 174.879 251.924 175.353C252.27 175.826 252.749 176.063 253.359 176.063C254.161 176.063 254.747 175.703 255.116 174.983V171.586C254.738 170.889 254.157 170.54 253.373 170.54C252.753 170.54 252.27 170.779 251.924 171.258C251.577 171.736 251.404 172.445 251.404 173.384ZM259.974 177H258.709V169.604H259.974V177ZM258.606 167.642C258.606 167.437 258.668 167.263 258.791 167.122C258.919 166.981 259.105 166.91 259.352 166.91C259.598 166.91 259.785 166.981 259.912 167.122C260.04 167.263 260.104 167.437 260.104 167.642C260.104 167.847 260.04 168.018 259.912 168.154C259.785 168.291 259.598 168.359 259.352 168.359C259.105 168.359 258.919 168.291 258.791 168.154C258.668 168.018 258.606 167.847 258.606 167.642ZM261.946 173.24C261.946 172.105 262.215 171.194 262.753 170.506C263.291 169.813 263.995 169.467 264.865 169.467C265.731 169.467 266.417 169.763 266.923 170.355V166.5H268.188V177H267.025L266.964 176.207C266.458 176.827 265.754 177.137 264.852 177.137C263.995 177.137 263.295 176.786 262.753 176.084C262.215 175.382 261.946 174.466 261.946 173.336V173.24ZM263.211 173.384C263.211 174.222 263.384 174.879 263.73 175.353C264.077 175.826 264.555 176.063 265.166 176.063C265.968 176.063 266.554 175.703 266.923 174.983V171.586C266.545 170.889 265.964 170.54 265.18 170.54C264.56 170.54 264.077 170.779 263.73 171.258C263.384 171.736 263.211 172.445 263.211 173.384ZM274.973 176.269C274.48 176.847 273.758 177.137 272.806 177.137C272.017 177.137 271.416 176.909 271.001 176.453C270.591 175.993 270.383 175.314 270.379 174.416V169.604H271.644V174.382C271.644 175.503 272.099 176.063 273.011 176.063C273.977 176.063 274.619 175.703 274.938 174.983V169.604H276.203V177H275L274.973 176.269ZM279.577 169.604L279.618 170.533C280.183 169.822 280.922 169.467 281.833 169.467C283.396 169.467 284.185 170.349 284.198 172.112V177H282.934V172.105C282.929 171.572 282.806 171.178 282.564 170.923C282.327 170.668 281.956 170.54 281.45 170.54C281.04 170.54 280.68 170.649 280.37 170.868C280.06 171.087 279.819 171.374 279.646 171.729V177H278.381V169.604H279.577ZM288.071 167.812V169.604H289.452V170.581H288.071V175.168C288.071 175.464 288.133 175.688 288.256 175.838C288.379 175.984 288.589 176.057 288.885 176.057C289.031 176.057 289.231 176.029 289.486 175.975V177C289.154 177.091 288.83 177.137 288.516 177.137C287.951 177.137 287.524 176.966 287.237 176.624C286.95 176.282 286.807 175.797 286.807 175.168V170.581H285.46V169.604H286.807V167.812H288.071ZM75.5234 196.269C75.0312 196.847 74.3089 197.137 73.3564 197.137C72.568 197.137 71.9665 196.909 71.5518 196.453C71.1416 195.993 70.9342 195.314 70.9297 194.416V189.604H72.1943V194.382C72.1943 195.503 72.6501 196.063 73.5615 196.063C74.5277 196.063 75.1702 195.703 75.4893 194.983V189.604H76.7539V197H75.5508L75.5234 196.269ZM80.6475 187.812V189.604H82.0283V190.581H80.6475V195.168C80.6475 195.464 80.709 195.688 80.832 195.838C80.9551 195.984 81.1647 196.057 81.4609 196.057C81.6068 196.057 81.8073 196.029 82.0625 195.975V197C81.7298 197.091 81.4062 197.137 81.0918 197.137C80.5267 197.137 80.1006 196.966 79.8135 196.624C79.5264 196.282 79.3828 195.797 79.3828 195.168V190.581H78.0361V189.604H79.3828V187.812H80.6475ZM88.8584 197H87.5938V186.5H88.8584V197ZM95.7051 197C95.6322 196.854 95.5729 196.594 95.5273 196.221C94.9395 196.831 94.2376 197.137 93.4219 197.137C92.6927 197.137 92.0934 196.932 91.624 196.521C91.1592 196.107 90.9268 195.583 90.9268 194.949C90.9268 194.179 91.2184 193.582 91.8018 193.158C92.3896 192.73 93.2145 192.516 94.2764 192.516H95.5068V191.935C95.5068 191.493 95.3747 191.142 95.1104 190.882C94.846 190.618 94.4564 190.485 93.9414 190.485C93.4902 190.485 93.112 190.599 92.8066 190.827C92.5013 191.055 92.3486 191.331 92.3486 191.654H91.0771C91.0771 191.285 91.207 190.93 91.4668 190.588C91.7311 190.242 92.0866 189.968 92.5332 189.768C92.9844 189.567 93.4788 189.467 94.0166 189.467C94.8688 189.467 95.5365 189.681 96.0195 190.109C96.5026 190.533 96.7533 191.119 96.7715 191.866V195.271C96.7715 195.95 96.8581 196.49 97.0312 196.891V197H95.7051ZM93.6064 196.036C94.0029 196.036 94.3789 195.934 94.7344 195.729C95.0898 195.523 95.3473 195.257 95.5068 194.929V193.411H94.5156C92.9661 193.411 92.1914 193.865 92.1914 194.771C92.1914 195.168 92.3236 195.478 92.5879 195.701C92.8522 195.924 93.1917 196.036 93.6064 196.036ZM105.266 193.384C105.266 194.514 105.006 195.423 104.486 196.111C103.967 196.795 103.27 197.137 102.395 197.137C101.46 197.137 100.738 196.806 100.228 196.146L100.166 197H99.0039V186.5H100.269V190.417C100.779 189.784 101.483 189.467 102.381 189.467C103.279 189.467 103.983 189.806 104.493 190.485C105.008 191.164 105.266 192.094 105.266 193.274V193.384ZM104.001 193.24C104.001 192.379 103.835 191.714 103.502 191.244C103.169 190.775 102.691 190.54 102.066 190.54C101.232 190.54 100.633 190.927 100.269 191.702V194.901C100.656 195.676 101.26 196.063 102.08 196.063C102.686 196.063 103.158 195.829 103.495 195.359C103.832 194.89 104.001 194.184 104.001 193.24ZM106.78 193.233C106.78 192.509 106.922 191.857 107.204 191.278C107.491 190.7 107.888 190.253 108.394 189.938C108.904 189.624 109.485 189.467 110.137 189.467C111.144 189.467 111.957 189.815 112.577 190.513C113.201 191.21 113.514 192.137 113.514 193.295V193.384C113.514 194.104 113.375 194.751 113.097 195.325C112.823 195.895 112.429 196.339 111.914 196.658C111.404 196.977 110.816 197.137 110.15 197.137C109.148 197.137 108.334 196.788 107.71 196.091C107.09 195.394 106.78 194.471 106.78 193.322V193.233ZM108.052 193.384C108.052 194.204 108.241 194.863 108.619 195.359C109.002 195.856 109.512 196.104 110.15 196.104C110.793 196.104 111.303 195.854 111.682 195.353C112.06 194.847 112.249 194.14 112.249 193.233C112.249 192.422 112.055 191.766 111.668 191.265C111.285 190.759 110.775 190.506 110.137 190.506C109.512 190.506 109.009 190.754 108.626 191.251C108.243 191.748 108.052 192.459 108.052 193.384ZM118.925 190.738C118.733 190.706 118.526 190.69 118.303 190.69C117.473 190.69 116.91 191.044 116.614 191.75V197H115.35V189.604H116.58L116.601 190.458C117.015 189.797 117.603 189.467 118.364 189.467C118.61 189.467 118.797 189.499 118.925 189.562V190.738ZM123.276 197.137C122.274 197.137 121.458 196.809 120.829 196.152C120.2 195.492 119.886 194.61 119.886 193.507V193.274C119.886 192.541 120.025 191.887 120.303 191.312C120.585 190.734 120.977 190.283 121.479 189.959C121.984 189.631 122.531 189.467 123.119 189.467C124.081 189.467 124.828 189.784 125.361 190.417C125.895 191.05 126.161 191.957 126.161 193.138V193.664H121.15C121.169 194.393 121.381 194.983 121.786 195.435C122.196 195.881 122.716 196.104 123.345 196.104C123.791 196.104 124.17 196.013 124.479 195.831C124.789 195.649 125.061 195.407 125.293 195.106L126.065 195.708C125.446 196.66 124.516 197.137 123.276 197.137ZM123.119 190.506C122.609 190.506 122.18 190.693 121.834 191.066C121.488 191.436 121.273 191.955 121.191 192.625H124.896V192.529C124.86 191.887 124.687 191.39 124.377 191.039C124.067 190.684 123.648 190.506 123.119 190.506ZM134.673 197.137C133.67 197.137 132.854 196.809 132.226 196.152C131.597 195.492 131.282 194.61 131.282 193.507V193.274C131.282 192.541 131.421 191.887 131.699 191.312C131.982 190.734 132.374 190.283 132.875 189.959C133.381 189.631 133.928 189.467 134.516 189.467C135.477 189.467 136.225 189.784 136.758 190.417C137.291 191.05 137.558 191.957 137.558 193.138V193.664H132.547C132.565 194.393 132.777 194.983 133.183 195.435C133.593 195.881 134.112 196.104 134.741 196.104C135.188 196.104 135.566 196.013 135.876 195.831C136.186 195.649 136.457 195.407 136.689 195.106L137.462 195.708C136.842 196.66 135.912 197.137 134.673 197.137ZM134.516 190.506C134.005 190.506 133.577 190.693 133.23 191.066C132.884 191.436 132.67 191.955 132.588 192.625H136.293V192.529C136.257 191.887 136.083 191.39 135.773 191.039C135.464 190.684 135.044 190.506 134.516 190.506ZM140.993 187.812V189.604H142.374V190.581H140.993V195.168C140.993 195.464 141.055 195.688 141.178 195.838C141.301 195.984 141.51 196.057 141.807 196.057C141.952 196.057 142.153 196.029 142.408 195.975V197C142.076 197.091 141.752 197.137 141.438 197.137C140.872 197.137 140.446 196.966 140.159 196.624C139.872 196.282 139.729 195.797 139.729 195.168V190.581H138.382V189.604H139.729V187.812H140.993ZM147.522 193.24C147.522 192.105 147.791 191.194 148.329 190.506C148.867 189.813 149.571 189.467 150.441 189.467C151.307 189.467 151.993 189.763 152.499 190.355V186.5H153.764V197H152.602L152.54 196.207C152.034 196.827 151.33 197.137 150.428 197.137C149.571 197.137 148.871 196.786 148.329 196.084C147.791 195.382 147.522 194.466 147.522 193.336V193.24ZM148.787 193.384C148.787 194.222 148.96 194.879 149.307 195.353C149.653 195.826 150.132 196.063 150.742 196.063C151.544 196.063 152.13 195.703 152.499 194.983V191.586C152.121 190.889 151.54 190.54 150.756 190.54C150.136 190.54 149.653 190.779 149.307 191.258C148.96 191.736 148.787 192.445 148.787 193.384ZM155.647 193.233C155.647 192.509 155.789 191.857 156.071 191.278C156.358 190.7 156.755 190.253 157.261 189.938C157.771 189.624 158.352 189.467 159.004 189.467C160.011 189.467 160.825 189.815 161.444 190.513C162.069 191.21 162.381 192.137 162.381 193.295V193.384C162.381 194.104 162.242 194.751 161.964 195.325C161.69 195.895 161.296 196.339 160.781 196.658C160.271 196.977 159.683 197.137 159.018 197.137C158.015 197.137 157.201 196.788 156.577 196.091C155.957 195.394 155.647 194.471 155.647 193.322V193.233ZM156.919 193.384C156.919 194.204 157.108 194.863 157.486 195.359C157.869 195.856 158.38 196.104 159.018 196.104C159.66 196.104 160.171 195.854 160.549 195.353C160.927 194.847 161.116 194.14 161.116 193.233C161.116 192.422 160.923 191.766 160.535 191.265C160.152 190.759 159.642 190.506 159.004 190.506C158.38 190.506 157.876 190.754 157.493 191.251C157.11 191.748 156.919 192.459 156.919 193.384ZM165.591 197H164.326V186.5H165.591V197ZM167.536 193.233C167.536 192.509 167.677 191.857 167.96 191.278C168.247 190.7 168.644 190.253 169.149 189.938C169.66 189.624 170.241 189.467 170.893 189.467C171.9 189.467 172.713 189.815 173.333 190.513C173.957 191.21 174.27 192.137 174.27 193.295V193.384C174.27 194.104 174.131 194.751 173.853 195.325C173.579 195.895 173.185 196.339 172.67 196.658C172.16 196.977 171.572 197.137 170.906 197.137C169.904 197.137 169.09 196.788 168.466 196.091C167.846 195.394 167.536 194.471 167.536 193.322V193.233ZM168.808 193.384C168.808 194.204 168.997 194.863 169.375 195.359C169.758 195.856 170.268 196.104 170.906 196.104C171.549 196.104 172.059 195.854 172.438 195.353C172.816 194.847 173.005 194.14 173.005 193.233C173.005 192.422 172.811 191.766 172.424 191.265C172.041 190.759 171.531 190.506 170.893 190.506C170.268 190.506 169.765 190.754 169.382 191.251C168.999 191.748 168.808 192.459 168.808 193.384ZM179.681 190.738C179.489 190.706 179.282 190.69 179.059 190.69C178.229 190.69 177.666 191.044 177.37 191.75V197H176.105V189.604H177.336L177.356 190.458C177.771 189.797 178.359 189.467 179.12 189.467C179.366 189.467 179.553 189.499 179.681 189.562V190.738ZM184.032 197.137C183.03 197.137 182.214 196.809 181.585 196.152C180.956 195.492 180.642 194.61 180.642 193.507V193.274C180.642 192.541 180.781 191.887 181.059 191.312C181.341 190.734 181.733 190.283 182.234 189.959C182.74 189.631 183.287 189.467 183.875 189.467C184.837 189.467 185.584 189.784 186.117 190.417C186.65 191.05 186.917 191.957 186.917 193.138V193.664H181.906C181.924 194.393 182.136 194.983 182.542 195.435C182.952 195.881 183.472 196.104 184.101 196.104C184.547 196.104 184.925 196.013 185.235 195.831C185.545 195.649 185.816 195.407 186.049 195.106L186.821 195.708C186.201 196.66 185.272 197.137 184.032 197.137ZM183.875 190.506C183.365 190.506 182.936 190.693 182.59 191.066C182.243 191.436 182.029 191.955 181.947 192.625H185.652V192.529C185.616 191.887 185.443 191.39 185.133 191.039C184.823 190.684 184.404 190.506 183.875 190.506ZM193.549 189.604L193.583 190.424C194.125 189.786 194.857 189.467 195.777 189.467C196.812 189.467 197.516 189.863 197.89 190.656C198.136 190.301 198.455 190.014 198.847 189.795C199.243 189.576 199.71 189.467 200.248 189.467C201.87 189.467 202.695 190.326 202.723 192.044V197H201.458V192.119C201.458 191.59 201.337 191.196 201.096 190.937C200.854 190.672 200.449 190.54 199.879 190.54C199.41 190.54 199.02 190.681 198.71 190.964C198.4 191.242 198.22 191.618 198.17 192.092V197H196.898V192.153C196.898 191.078 196.372 190.54 195.319 190.54C194.49 190.54 193.923 190.893 193.617 191.6V197H192.353V189.604H193.549ZM209.453 197C209.38 196.854 209.321 196.594 209.275 196.221C208.688 196.831 207.986 197.137 207.17 197.137C206.441 197.137 205.841 196.932 205.372 196.521C204.907 196.107 204.675 195.583 204.675 194.949C204.675 194.179 204.966 193.582 205.55 193.158C206.138 192.73 206.963 192.516 208.024 192.516H209.255V191.935C209.255 191.493 209.123 191.142 208.858 190.882C208.594 190.618 208.204 190.485 207.689 190.485C207.238 190.485 206.86 190.599 206.555 190.827C206.249 191.055 206.097 191.331 206.097 191.654H204.825C204.825 191.285 204.955 190.93 205.215 190.588C205.479 190.242 205.835 189.968 206.281 189.768C206.732 189.567 207.227 189.467 207.765 189.467C208.617 189.467 209.285 189.681 209.768 190.109C210.251 190.533 210.501 191.119 210.52 191.866V195.271C210.52 195.95 210.606 196.49 210.779 196.891V197H209.453ZM207.354 196.036C207.751 196.036 208.127 195.934 208.482 195.729C208.838 195.523 209.095 195.257 209.255 194.929V193.411H208.264C206.714 193.411 205.939 193.865 205.939 194.771C205.939 195.168 206.072 195.478 206.336 195.701C206.6 195.924 206.94 196.036 207.354 196.036ZM212.451 193.24C212.451 192.087 212.718 191.171 213.251 190.492C213.784 189.809 214.491 189.467 215.37 189.467C216.272 189.467 216.977 189.786 217.482 190.424L217.544 189.604H218.699V196.822C218.699 197.779 218.414 198.534 217.845 199.085C217.28 199.636 216.519 199.912 215.562 199.912C215.028 199.912 214.507 199.798 213.996 199.57C213.486 199.342 213.096 199.03 212.827 198.634L213.483 197.875C214.026 198.545 214.689 198.88 215.473 198.88C216.088 198.88 216.566 198.707 216.908 198.36C217.255 198.014 217.428 197.526 217.428 196.897V196.262C216.922 196.845 216.231 197.137 215.356 197.137C214.491 197.137 213.789 196.788 213.251 196.091C212.718 195.394 212.451 194.443 212.451 193.24ZM213.723 193.384C213.723 194.218 213.894 194.874 214.235 195.353C214.577 195.826 215.056 196.063 215.671 196.063C216.468 196.063 217.054 195.701 217.428 194.977V191.6C217.04 190.893 216.459 190.54 215.685 190.54C215.069 190.54 214.589 190.779 214.242 191.258C213.896 191.736 213.723 192.445 213.723 193.384ZM222.06 189.604L222.101 190.533C222.666 189.822 223.404 189.467 224.315 189.467C225.879 189.467 226.667 190.349 226.681 192.112V197H225.416V192.105C225.411 191.572 225.288 191.178 225.047 190.923C224.81 190.668 224.438 190.54 223.933 190.54C223.522 190.54 223.162 190.649 222.853 190.868C222.543 191.087 222.301 191.374 222.128 191.729V197H220.863V189.604H222.06ZM233.404 197C233.331 196.854 233.272 196.594 233.227 196.221C232.639 196.831 231.937 197.137 231.121 197.137C230.392 197.137 229.793 196.932 229.323 196.521C228.858 196.107 228.626 195.583 228.626 194.949C228.626 194.179 228.918 193.582 229.501 193.158C230.089 192.73 230.914 192.516 231.976 192.516H233.206V191.935C233.206 191.493 233.074 191.142 232.81 190.882C232.545 190.618 232.156 190.485 231.641 190.485C231.189 190.485 230.811 190.599 230.506 190.827C230.201 191.055 230.048 191.331 230.048 191.654H228.776C228.776 191.285 228.906 190.93 229.166 190.588C229.43 190.242 229.786 189.968 230.232 189.768C230.684 189.567 231.178 189.467 231.716 189.467C232.568 189.467 233.236 189.681 233.719 190.109C234.202 190.533 234.452 191.119 234.471 191.866V195.271C234.471 195.95 234.557 196.49 234.73 196.891V197H233.404ZM231.306 196.036C231.702 196.036 232.078 195.934 232.434 195.729C232.789 195.523 233.047 195.257 233.206 194.929V193.411H232.215C230.665 193.411 229.891 193.865 229.891 194.771C229.891 195.168 230.023 195.478 230.287 195.701C230.551 195.924 230.891 196.036 231.306 196.036ZM244.992 197C244.919 196.854 244.86 196.594 244.814 196.221C244.227 196.831 243.525 197.137 242.709 197.137C241.98 197.137 241.381 196.932 240.911 196.521C240.446 196.107 240.214 195.583 240.214 194.949C240.214 194.179 240.506 193.582 241.089 193.158C241.677 192.73 242.502 192.516 243.563 192.516H244.794V191.935C244.794 191.493 244.662 191.142 244.397 190.882C244.133 190.618 243.743 190.485 243.229 190.485C242.777 190.485 242.399 190.599 242.094 190.827C241.788 191.055 241.636 191.331 241.636 191.654H240.364C240.364 191.285 240.494 190.93 240.754 190.588C241.018 190.242 241.374 189.968 241.82 189.768C242.271 189.567 242.766 189.467 243.304 189.467C244.156 189.467 244.824 189.681 245.307 190.109C245.79 190.533 246.04 191.119 246.059 191.866V195.271C246.059 195.95 246.145 196.49 246.318 196.891V197H244.992ZM242.894 196.036C243.29 196.036 243.666 195.934 244.021 195.729C244.377 195.523 244.634 195.257 244.794 194.929V193.411H243.803C242.253 193.411 241.479 193.865 241.479 194.771C241.479 195.168 241.611 195.478 241.875 195.701C242.139 195.924 242.479 196.036 242.894 196.036ZM249.665 197H248.4V186.5H249.665V197ZM253.319 197H252.055V189.604H253.319V197ZM251.952 187.642C251.952 187.437 252.014 187.263 252.137 187.122C252.264 186.981 252.451 186.91 252.697 186.91C252.943 186.91 253.13 186.981 253.258 187.122C253.385 187.263 253.449 187.437 253.449 187.642C253.449 187.847 253.385 188.018 253.258 188.154C253.13 188.291 252.943 188.359 252.697 188.359C252.451 188.359 252.264 188.291 252.137 188.154C252.014 188.018 251.952 187.847 251.952 187.642ZM255.292 193.24C255.292 192.078 255.559 191.16 256.092 190.485C256.625 189.806 257.34 189.467 258.238 189.467C259.113 189.467 259.804 189.761 260.31 190.349L260.364 189.604H261.526V199.844H260.262V196.316C259.751 196.863 259.072 197.137 258.225 197.137C257.331 197.137 256.618 196.79 256.085 196.098C255.556 195.4 255.292 194.478 255.292 193.329V193.24ZM256.557 193.384C256.557 194.231 256.734 194.897 257.09 195.38C257.45 195.863 257.933 196.104 258.539 196.104C259.291 196.104 259.865 195.772 260.262 195.106V191.483C259.861 190.832 259.291 190.506 258.553 190.506C257.942 190.506 257.457 190.75 257.097 191.237C256.737 191.72 256.557 192.436 256.557 193.384ZM268.373 196.269C267.881 196.847 267.159 197.137 266.206 197.137C265.418 197.137 264.816 196.909 264.401 196.453C263.991 195.993 263.784 195.314 263.779 194.416V189.604H265.044V194.382C265.044 195.503 265.5 196.063 266.411 196.063C267.377 196.063 268.02 195.703 268.339 194.983V189.604H269.604V197H268.4L268.373 196.269ZM276.348 197C276.275 196.854 276.215 196.594 276.17 196.221C275.582 196.831 274.88 197.137 274.064 197.137C273.335 197.137 272.736 196.932 272.267 196.521C271.802 196.107 271.569 195.583 271.569 194.949C271.569 194.179 271.861 193.582 272.444 193.158C273.032 192.73 273.857 192.516 274.919 192.516H276.149V191.935C276.149 191.493 276.017 191.142 275.753 190.882C275.489 190.618 275.099 190.485 274.584 190.485C274.133 190.485 273.755 190.599 273.449 190.827C273.144 191.055 272.991 191.331 272.991 191.654H271.72C271.72 191.285 271.85 190.93 272.109 190.588C272.374 190.242 272.729 189.968 273.176 189.768C273.627 189.567 274.121 189.467 274.659 189.467C275.511 189.467 276.179 189.681 276.662 190.109C277.145 190.533 277.396 191.119 277.414 191.866V195.271C277.414 195.95 277.501 196.49 277.674 196.891V197H276.348ZM274.249 196.036C274.646 196.036 275.021 195.934 275.377 195.729C275.732 195.523 275.99 195.257 276.149 194.929V193.411H275.158C273.609 193.411 272.834 193.865 272.834 194.771C272.834 195.168 272.966 195.478 273.23 195.701C273.495 195.924 273.834 196.036 274.249 196.036ZM279.674 196.337C279.674 196.118 279.738 195.936 279.865 195.79C279.997 195.644 280.193 195.571 280.453 195.571C280.713 195.571 280.909 195.644 281.041 195.79C281.178 195.936 281.246 196.118 281.246 196.337C281.246 196.547 281.178 196.722 281.041 196.863C280.909 197.005 280.713 197.075 280.453 197.075C280.193 197.075 279.997 197.005 279.865 196.863C279.738 196.722 279.674 196.547 279.674 196.337ZM294.516 187.047V193.814C294.511 194.753 294.215 195.521 293.627 196.118C293.044 196.715 292.251 197.05 291.248 197.123L290.899 197.137C289.81 197.137 288.942 196.843 288.295 196.255C287.648 195.667 287.32 194.858 287.311 193.828V187.047H288.609V193.787C288.609 194.507 288.808 195.068 289.204 195.469C289.601 195.865 290.166 196.063 290.899 196.063C291.642 196.063 292.21 195.865 292.602 195.469C292.998 195.072 293.196 194.514 293.196 193.794V187.047H294.516ZM298.354 187.812V189.604H299.735V190.581H298.354V195.168C298.354 195.464 298.416 195.688 298.539 195.838C298.662 195.984 298.872 196.057 299.168 196.057C299.314 196.057 299.514 196.029 299.77 195.975V197C299.437 197.091 299.113 197.137 298.799 197.137C298.234 197.137 297.808 196.966 297.521 196.624C297.233 196.282 297.09 195.797 297.09 195.168V190.581H295.743V189.604H297.09V187.812H298.354ZM74.0264 217.137C73.0238 217.137 72.208 216.809 71.5791 216.152C70.9502 215.492 70.6357 214.61 70.6357 213.507V213.274C70.6357 212.541 70.7747 211.887 71.0527 211.312C71.3353 210.734 71.7272 210.283 72.2285 209.959C72.7344 209.631 73.2812 209.467 73.8691 209.467C74.8307 209.467 75.5781 209.784 76.1113 210.417C76.6445 211.05 76.9111 211.957 76.9111 213.138V213.664H71.9004C71.9186 214.393 72.1305 214.983 72.5361 215.435C72.9463 215.881 73.4658 216.104 74.0947 216.104C74.5413 216.104 74.9196 216.013 75.2295 215.831C75.5394 215.649 75.8105 215.407 76.043 215.106L76.8154 215.708C76.1956 216.66 75.266 217.137 74.0264 217.137ZM73.8691 210.506C73.3587 210.506 72.9303 210.693 72.584 211.066C72.2376 211.436 72.0234 211.955 71.9414 212.625H75.6465V212.529C75.61 211.887 75.4368 211.39 75.127 211.039C74.8171 210.684 74.3978 210.506 73.8691 210.506ZM79.8271 209.604L79.8682 210.533C80.4333 209.822 81.1715 209.467 82.083 209.467C83.6462 209.467 84.4346 210.349 84.4482 212.112V217H83.1836V212.105C83.179 211.572 83.056 211.178 82.8145 210.923C82.5775 210.668 82.2061 210.54 81.7002 210.54C81.29 210.54 80.93 210.649 80.6201 210.868C80.3102 211.087 80.0687 211.374 79.8955 211.729V217H78.6309V209.604H79.8271ZM87.9795 217H86.7148V209.604H87.9795V217ZM86.6123 207.642C86.6123 207.437 86.6738 207.263 86.7969 207.122C86.9245 206.981 87.1113 206.91 87.3574 206.91C87.6035 206.91 87.7904 206.981 87.918 207.122C88.0456 207.263 88.1094 207.437 88.1094 207.642C88.1094 207.847 88.0456 208.018 87.918 208.154C87.7904 208.291 87.6035 208.359 87.3574 208.359C87.1113 208.359 86.9245 208.291 86.7969 208.154C86.6738 208.018 86.6123 207.847 86.6123 207.642ZM91.4492 209.604L91.4834 210.424C92.0257 209.786 92.7572 209.467 93.6777 209.467C94.7122 209.467 95.4163 209.863 95.79 210.656C96.0361 210.301 96.3551 210.014 96.7471 209.795C97.1436 209.576 97.6107 209.467 98.1484 209.467C99.7708 209.467 100.596 210.326 100.623 212.044V217H99.3584V212.119C99.3584 211.59 99.2376 211.196 98.9961 210.937C98.7546 210.672 98.349 210.54 97.7793 210.54C97.3099 210.54 96.9202 210.681 96.6104 210.964C96.3005 211.242 96.1204 211.618 96.0703 212.092V217H94.7988V212.153C94.7988 211.078 94.2725 210.54 93.2197 210.54C92.3903 210.54 91.8229 210.893 91.5176 211.6V217H90.2529V209.604H91.4492ZM111.076 217C111.003 216.854 110.944 216.594 110.898 216.221C110.311 216.831 109.609 217.137 108.793 217.137C108.064 217.137 107.465 216.932 106.995 216.521C106.53 216.107 106.298 215.583 106.298 214.949C106.298 214.179 106.59 213.582 107.173 213.158C107.761 212.73 108.586 212.516 109.647 212.516H110.878V211.935C110.878 211.493 110.746 211.142 110.481 210.882C110.217 210.618 109.827 210.485 109.312 210.485C108.861 210.485 108.483 210.599 108.178 210.827C107.872 211.055 107.72 211.331 107.72 211.654H106.448C106.448 211.285 106.578 210.93 106.838 210.588C107.102 210.242 107.458 209.968 107.904 209.768C108.355 209.567 108.85 209.467 109.388 209.467C110.24 209.467 110.908 209.681 111.391 210.109C111.874 210.533 112.124 211.119 112.143 211.866V215.271C112.143 215.95 112.229 216.49 112.402 216.891V217H111.076ZM108.978 216.036C109.374 216.036 109.75 215.934 110.105 215.729C110.461 215.523 110.718 215.257 110.878 214.929V213.411H109.887C108.337 213.411 107.562 213.865 107.562 214.771C107.562 215.168 107.695 215.478 107.959 215.701C108.223 215.924 108.563 216.036 108.978 216.036ZM114.067 213.24C114.067 212.105 114.336 211.194 114.874 210.506C115.412 209.813 116.116 209.467 116.986 209.467C117.852 209.467 118.538 209.763 119.044 210.355V206.5H120.309V217H119.146L119.085 216.207C118.579 216.827 117.875 217.137 116.973 217.137C116.116 217.137 115.416 216.786 114.874 216.084C114.336 215.382 114.067 214.466 114.067 213.336V213.24ZM115.332 213.384C115.332 214.222 115.505 214.879 115.852 215.353C116.198 215.826 116.676 216.063 117.287 216.063C118.089 216.063 118.675 215.703 119.044 214.983V211.586C118.666 210.889 118.085 210.54 117.301 210.54C116.681 210.54 116.198 210.779 115.852 211.258C115.505 211.736 115.332 212.445 115.332 213.384ZM127.439 209.604L127.474 210.424C128.016 209.786 128.747 209.467 129.668 209.467C130.702 209.467 131.407 209.863 131.78 210.656C132.026 210.301 132.345 210.014 132.737 209.795C133.134 209.576 133.601 209.467 134.139 209.467C135.761 209.467 136.586 210.326 136.613 212.044V217H135.349V212.119C135.349 211.59 135.228 211.196 134.986 210.937C134.745 210.672 134.339 210.54 133.77 210.54C133.3 210.54 132.91 210.681 132.601 210.964C132.291 211.242 132.111 211.618 132.061 212.092V217H130.789V212.153C130.789 211.078 130.263 210.54 129.21 210.54C128.381 210.54 127.813 210.893 127.508 211.6V217H126.243V209.604H127.439ZM140.151 217H138.887V209.604H140.151V217ZM138.784 207.642C138.784 207.437 138.846 207.263 138.969 207.122C139.096 206.981 139.283 206.91 139.529 206.91C139.775 206.91 139.962 206.981 140.09 207.122C140.217 207.263 140.281 207.437 140.281 207.642C140.281 207.847 140.217 208.018 140.09 208.154C139.962 208.291 139.775 208.359 139.529 208.359C139.283 208.359 139.096 208.291 138.969 208.154C138.846 208.018 138.784 207.847 138.784 207.642ZM143.628 209.604L143.669 210.533C144.234 209.822 144.972 209.467 145.884 209.467C147.447 209.467 148.235 210.349 148.249 212.112V217H146.984V212.105C146.98 211.572 146.857 211.178 146.615 210.923C146.378 210.668 146.007 210.54 145.501 210.54C145.091 210.54 144.731 210.649 144.421 210.868C144.111 211.087 143.869 211.374 143.696 211.729V217H142.432V209.604H143.628ZM151.78 217H150.516V209.604H151.78V217ZM150.413 207.642C150.413 207.437 150.475 207.263 150.598 207.122C150.725 206.981 150.912 206.91 151.158 206.91C151.404 206.91 151.591 206.981 151.719 207.122C151.846 207.263 151.91 207.437 151.91 207.642C151.91 207.847 151.846 208.018 151.719 208.154C151.591 208.291 151.404 208.359 151.158 208.359C150.912 208.359 150.725 208.291 150.598 208.154C150.475 208.018 150.413 207.847 150.413 207.642ZM155.25 209.604L155.284 210.424C155.826 209.786 156.558 209.467 157.479 209.467C158.513 209.467 159.217 209.863 159.591 210.656C159.837 210.301 160.156 210.014 160.548 209.795C160.944 209.576 161.411 209.467 161.949 209.467C163.572 209.467 164.396 210.326 164.424 212.044V217H163.159V212.119C163.159 211.59 163.038 211.196 162.797 210.937C162.555 210.672 162.15 210.54 161.58 210.54C161.111 210.54 160.721 210.681 160.411 210.964C160.101 211.242 159.921 211.618 159.871 212.092V217H158.6V212.153C158.6 211.078 158.073 210.54 157.021 210.54C156.191 210.54 155.624 210.893 155.318 211.6V217H154.054V209.604H155.25ZM172.751 215.284L174.583 209.604H175.875L173.223 217H172.259L169.579 209.604H170.871L172.751 215.284ZM180.315 217.137C179.313 217.137 178.497 216.809 177.868 216.152C177.239 215.492 176.925 214.61 176.925 213.507V213.274C176.925 212.541 177.064 211.887 177.342 211.312C177.624 210.734 178.016 210.283 178.518 209.959C179.023 209.631 179.57 209.467 180.158 209.467C181.12 209.467 181.867 209.784 182.4 210.417C182.934 211.05 183.2 211.957 183.2 213.138V213.664H178.189C178.208 214.393 178.42 214.983 178.825 215.435C179.235 215.881 179.755 216.104 180.384 216.104C180.83 216.104 181.209 216.013 181.519 215.831C181.828 215.649 182.1 215.407 182.332 215.106L183.104 215.708C182.485 216.66 181.555 217.137 180.315 217.137ZM180.158 210.506C179.648 210.506 179.219 210.693 178.873 211.066C178.527 211.436 178.312 211.955 178.23 212.625H181.936V212.529C181.899 211.887 181.726 211.39 181.416 211.039C181.106 210.684 180.687 210.506 180.158 210.506ZM186.116 209.604L186.157 210.533C186.722 209.822 187.461 209.467 188.372 209.467C189.935 209.467 190.724 210.349 190.737 212.112V217H189.473V212.105C189.468 211.572 189.345 211.178 189.104 210.923C188.867 210.668 188.495 210.54 187.989 210.54C187.579 210.54 187.219 210.649 186.909 210.868C186.599 211.087 186.358 211.374 186.185 211.729V217H184.92V209.604H186.116ZM194.269 217H193.004V209.604H194.269V217ZM192.901 207.642C192.901 207.437 192.963 207.263 193.086 207.122C193.214 206.981 193.4 206.91 193.646 206.91C193.893 206.91 194.079 206.981 194.207 207.122C194.335 207.263 194.398 207.437 194.398 207.642C194.398 207.847 194.335 208.018 194.207 208.154C194.079 208.291 193.893 208.359 193.646 208.359C193.4 208.359 193.214 208.291 193.086 208.154C192.963 208.018 192.901 207.847 192.901 207.642ZM201.115 217C201.042 216.854 200.983 216.594 200.938 216.221C200.35 216.831 199.648 217.137 198.832 217.137C198.103 217.137 197.504 216.932 197.034 216.521C196.569 216.107 196.337 215.583 196.337 214.949C196.337 214.179 196.629 213.582 197.212 213.158C197.8 212.73 198.625 212.516 199.687 212.516H200.917V211.935C200.917 211.493 200.785 211.142 200.521 210.882C200.256 210.618 199.867 210.485 199.352 210.485C198.9 210.485 198.522 210.599 198.217 210.827C197.911 211.055 197.759 211.331 197.759 211.654H196.487C196.487 211.285 196.617 210.93 196.877 210.588C197.141 210.242 197.497 209.968 197.943 209.768C198.395 209.567 198.889 209.467 199.427 209.467C200.279 209.467 200.947 209.681 201.43 210.109C201.913 210.533 202.163 211.119 202.182 211.866V215.271C202.182 215.95 202.268 216.49 202.441 216.891V217H201.115ZM199.017 216.036C199.413 216.036 199.789 215.934 200.145 215.729C200.5 215.523 200.757 215.257 200.917 214.929V213.411H199.926C198.376 213.411 197.602 213.865 197.602 214.771C197.602 215.168 197.734 215.478 197.998 215.701C198.262 215.924 198.602 216.036 199.017 216.036ZM205.604 209.604L205.638 210.424C206.18 209.786 206.911 209.467 207.832 209.467C208.867 209.467 209.571 209.863 209.944 210.656C210.19 210.301 210.509 210.014 210.901 209.795C211.298 209.576 211.765 209.467 212.303 209.467C213.925 209.467 214.75 210.326 214.777 212.044V217H213.513V212.119C213.513 211.59 213.392 211.196 213.15 210.937C212.909 210.672 212.503 210.54 211.934 210.54C211.464 210.54 211.075 210.681 210.765 210.964C210.455 211.242 210.275 211.618 210.225 212.092V217H208.953V212.153C208.953 211.078 208.427 210.54 207.374 210.54C206.545 210.54 205.977 210.893 205.672 211.6V217H204.407V209.604H205.604ZM216.9 218.982L216.183 218.49C216.611 217.893 216.834 217.278 216.853 216.645V215.503H218.09V216.494C218.09 216.954 217.976 217.415 217.748 217.875C217.525 218.335 217.242 218.704 216.9 218.982Z" fill="white" fill-opacity="0.6"/>
<path d="M156.745 88.625L160.464 97.9062L164.183 88.625H166.128V100H164.628V95.5703L164.769 90.7891L161.034 100H159.886L156.159 90.8125L156.308 95.5703V100H154.808V88.625H156.745ZM172.208 100.156C171.062 100.156 170.13 99.7812 169.411 99.0312C168.692 98.276 168.333 97.2682 168.333 96.0078V95.7422C168.333 94.9036 168.492 94.1562 168.809 93.5C169.132 92.8385 169.58 92.3229 170.153 91.9531C170.731 91.5781 171.356 91.3906 172.028 91.3906C173.127 91.3906 173.981 91.7526 174.591 92.4766C175.2 93.2005 175.505 94.237 175.505 95.5859V96.1875H169.778C169.799 97.0208 170.041 97.6953 170.505 98.2109C170.973 98.7214 171.567 98.9766 172.286 98.9766C172.796 98.9766 173.229 98.8724 173.583 98.6641C173.937 98.4557 174.247 98.1797 174.512 97.8359L175.395 98.5234C174.687 99.612 173.624 100.156 172.208 100.156ZM172.028 92.5781C171.445 92.5781 170.955 92.7917 170.559 93.2188C170.164 93.6406 169.919 94.2344 169.825 95H174.059V94.8906C174.018 94.1562 173.82 93.5885 173.466 93.1875C173.111 92.7812 172.632 92.5781 172.028 92.5781ZM182.256 97.7578C182.256 97.3672 182.108 97.0651 181.811 96.8516C181.519 96.6328 181.006 96.4453 180.272 96.2891C179.543 96.1328 178.962 95.9453 178.53 95.7266C178.103 95.5078 177.785 95.2474 177.577 94.9453C177.373 94.6432 177.272 94.2839 177.272 93.8672C177.272 93.1745 177.564 92.5885 178.147 92.1094C178.735 91.6302 179.485 91.3906 180.397 91.3906C181.355 91.3906 182.131 91.638 182.725 92.1328C183.324 92.6276 183.623 93.2604 183.623 94.0312H182.17C182.17 93.6354 182.001 93.2943 181.662 93.0078C181.329 92.7214 180.907 92.5781 180.397 92.5781C179.871 92.5781 179.459 92.6927 179.162 92.9219C178.866 93.151 178.717 93.4505 178.717 93.8203C178.717 94.1693 178.855 94.4323 179.131 94.6094C179.407 94.7865 179.905 94.9557 180.623 95.1172C181.347 95.2786 181.933 95.4714 182.381 95.6953C182.829 95.9193 183.16 96.1901 183.373 96.5078C183.592 96.8203 183.702 97.2031 183.702 97.6562C183.702 98.4115 183.399 99.0182 182.795 99.4766C182.191 99.9297 181.407 100.156 180.444 100.156C179.767 100.156 179.168 100.036 178.647 99.7969C178.126 99.5573 177.717 99.224 177.42 98.7969C177.129 98.3646 176.983 97.8984 176.983 97.3984H178.428C178.454 97.8828 178.647 98.2682 179.006 98.5547C179.371 98.8359 179.85 98.9766 180.444 98.9766C180.991 98.9766 181.428 98.8672 181.756 98.6484C182.09 98.4245 182.256 98.1276 182.256 97.7578ZM190.656 97.7578C190.656 97.3672 190.508 97.0651 190.211 96.8516C189.919 96.6328 189.406 96.4453 188.672 96.2891C187.943 96.1328 187.362 95.9453 186.93 95.7266C186.503 95.5078 186.185 95.2474 185.977 94.9453C185.773 94.6432 185.672 94.2839 185.672 93.8672C185.672 93.1745 185.964 92.5885 186.547 92.1094C187.135 91.6302 187.885 91.3906 188.797 91.3906C189.755 91.3906 190.531 91.638 191.125 92.1328C191.724 92.6276 192.023 93.2604 192.023 94.0312H190.57C190.57 93.6354 190.401 93.2943 190.062 93.0078C189.729 92.7214 189.307 92.5781 188.797 92.5781C188.271 92.5781 187.859 92.6927 187.562 92.9219C187.266 93.151 187.117 93.4505 187.117 93.8203C187.117 94.1693 187.255 94.4323 187.531 94.6094C187.807 94.7865 188.305 94.9557 189.023 95.1172C189.747 95.2786 190.333 95.4714 190.781 95.6953C191.229 95.9193 191.56 96.1901 191.773 96.5078C191.992 96.8203 192.102 97.2031 192.102 97.6562C192.102 98.4115 191.799 99.0182 191.195 99.4766C190.591 99.9297 189.807 100.156 188.844 100.156C188.167 100.156 187.568 100.036 187.047 99.7969C186.526 99.5573 186.117 99.224 185.82 98.7969C185.529 98.3646 185.383 97.8984 185.383 97.3984H186.828C186.854 97.8828 187.047 98.2682 187.406 98.5547C187.771 98.8359 188.25 98.9766 188.844 98.9766C189.391 98.9766 189.828 98.8672 190.156 98.6484C190.49 98.4245 190.656 98.1276 190.656 97.7578ZM199.353 100C199.27 99.8333 199.202 99.5365 199.15 99.1094C198.478 99.8073 197.676 100.156 196.744 100.156C195.91 100.156 195.226 99.9219 194.689 99.4531C194.158 98.9792 193.892 98.3802 193.892 97.6562C193.892 96.776 194.226 96.0938 194.892 95.6094C195.564 95.1198 196.507 94.875 197.72 94.875H199.127V94.2109C199.127 93.7057 198.976 93.3047 198.673 93.0078C198.371 92.7057 197.926 92.5547 197.337 92.5547C196.822 92.5547 196.39 92.6849 196.041 92.9453C195.692 93.2057 195.517 93.5208 195.517 93.8906H194.064C194.064 93.4688 194.212 93.0625 194.509 92.6719C194.811 92.276 195.218 91.9635 195.728 91.7344C196.244 91.5052 196.809 91.3906 197.423 91.3906C198.397 91.3906 199.16 91.6354 199.712 92.125C200.265 92.6094 200.551 93.2786 200.572 94.1328V98.0234C200.572 98.7995 200.671 99.4167 200.869 99.875V100H199.353ZM196.955 98.8984C197.408 98.8984 197.837 98.7812 198.244 98.5469C198.65 98.3125 198.944 98.0078 199.127 97.6328V95.8984H197.994C196.223 95.8984 195.337 96.4167 195.337 97.4531C195.337 97.9062 195.489 98.2604 195.791 98.5156C196.093 98.7708 196.481 98.8984 196.955 98.8984ZM202.644 95.7031C202.644 94.3854 202.948 93.3385 203.558 92.5625C204.167 91.7812 204.974 91.3906 205.98 91.3906C207.011 91.3906 207.816 91.7552 208.394 92.4844L208.464 91.5469H209.784V99.7969C209.784 100.891 209.459 101.753 208.808 102.383C208.162 103.013 207.292 103.328 206.198 103.328C205.589 103.328 204.993 103.198 204.409 102.938C203.826 102.677 203.381 102.32 203.073 101.867L203.823 101C204.443 101.766 205.201 102.148 206.097 102.148C206.8 102.148 207.347 101.951 207.737 101.555C208.133 101.159 208.331 100.602 208.331 99.8828V99.1562C207.753 99.8229 206.964 100.156 205.964 100.156C204.974 100.156 204.172 99.7578 203.558 98.9609C202.948 98.1641 202.644 97.0781 202.644 95.7031ZM204.097 95.8672C204.097 96.8203 204.292 97.5703 204.683 98.1172C205.073 98.6589 205.62 98.9297 206.323 98.9297C207.235 98.9297 207.904 98.5156 208.331 97.6875V93.8281C207.889 93.0208 207.224 92.6172 206.339 92.6172C205.636 92.6172 205.086 92.8906 204.691 93.4375C204.295 93.9844 204.097 94.7943 204.097 95.8672ZM215.63 100.156C214.484 100.156 213.552 99.7812 212.833 99.0312C212.114 98.276 211.755 97.2682 211.755 96.0078V95.7422C211.755 94.9036 211.914 94.1562 212.231 93.5C212.554 92.8385 213.002 92.3229 213.575 91.9531C214.153 91.5781 214.778 91.3906 215.45 91.3906C216.549 91.3906 217.403 91.7526 218.013 92.4766C218.622 93.2005 218.927 94.237 218.927 95.5859V96.1875H213.2C213.221 97.0208 213.463 97.6953 213.927 98.2109C214.395 98.7214 214.989 98.9766 215.708 98.9766C216.218 98.9766 216.651 98.8724 217.005 98.6641C217.359 98.4557 217.669 98.1797 217.934 97.8359L218.817 98.5234C218.109 99.612 217.046 100.156 215.63 100.156ZM215.45 92.5781C214.867 92.5781 214.377 92.7917 213.981 93.2188C213.585 93.6406 213.341 94.2344 213.247 95H217.481V94.8906C217.44 94.1562 217.242 93.5885 216.888 93.1875C216.533 92.7812 216.054 92.5781 215.45 92.5781Z" fill="white" fill-opacity="0.87"/>
<path fill-rule="evenodd" clip-rule="evenodd" d="M186 55C182.13 55 179 58.13 179 62C179 67.25 186 75 186 75C186 75 193 67.25 193 62C193 58.13 189.87 55 186 55ZM186 64.5C184.62 64.5 183.5 63.38 183.5 62C183.5 60.62 184.62 59.5 186 59.5C187.38 59.5 188.5 60.62 188.5 62C188.5 63.38 187.38 64.5 186 64.5Z" fill="#BB86FC"/>
<defs>
<filter id="filter0_ddd" x="0" y="0" width="372" height="355" filterUnits="userSpaceOnUse" color-interpolation-filters="sRGB">
<feFlood flood-opacity="0" result="BackgroundImageFix"/>
<feColorMatrix in="SourceAlpha" type="matrix" values="0 0 0 0 0 0 0 0 0 0 0 0 0 0 0 0 0 0 127 0"/>
<feOffset dy="11"/>
<feGaussianBlur stdDeviation="7.5"/>
<feColorMatrix type="matrix" values="0 0 0 0 0 0 0 0 0 0 0 0 0 0 0 0 0 0 0.2 0"/>
<feBlend mode="normal" in2="BackgroundImageFix" result="effect1_dropShadow"/>
<feColorMatrix in="SourceAlpha" type="matrix" values="0 0 0 0 0 0 0 0 0 0 0 0 0 0 0 0 0 0 127 0"/>
<feOffset dy="9"/>
<feGaussianBlur stdDeviation="23"/>
<feColorMatrix type="matrix" values="0 0 0 0 0 0 0 0 0 0 0 0 0 0 0 0 0 0 0.12 0"/>
<feBlend mode="normal" in2="effect1_dropShadow" result="effect2_dropShadow"/>
<feColorMatrix in="SourceAlpha" type="matrix" values="0 0 0 0 0 0 0 0 0 0 0 0 0 0 0 0 0 0 127 0"/>
<feOffset dy="24"/>
<feGaussianBlur stdDeviation="19"/>
<feColorMatrix type="matrix" values="0 0 0 0 0 0 0 0 0 0 0 0 0 0 0 0 0 0 0.14 0"/>
<feBlend mode="normal" in2="effect2_dropShadow" result="effect3_dropShadow"/>
<feBlend mode="normal" in="SourceGraphic" in2="effect3_dropShadow" result="shape"/>
</filter>
</defs>
</svg>
