<svg width="360" height="88" viewBox="0 0 360 88" fill="none" xmlns="http://www.w3.org/2000/svg">
<rect opacity="0.12" x="16" y="87" width="344" height="1" fill="white"/>
<path d="M307.475 25.293C307.37 26.1953 307.036 26.8926 306.473 27.3848C305.914 27.873 305.17 28.1172 304.241 28.1172C303.233 28.1172 302.424 27.7559 301.815 27.0332C301.209 26.3105 300.907 25.3438 300.907 24.1328V23.3125C300.907 22.5195 301.047 21.8223 301.329 21.2207C301.614 20.6191 302.016 20.1582 302.536 19.8379C303.055 19.5137 303.657 19.3516 304.34 19.3516C305.246 19.3516 305.973 19.6055 306.52 20.1133C307.067 20.6172 307.385 21.3164 307.475 22.2109H306.344C306.246 21.5312 306.034 21.0391 305.705 20.7344C305.381 20.4297 304.926 20.2773 304.34 20.2773C303.621 20.2773 303.057 20.543 302.647 21.0742C302.241 21.6055 302.037 22.3613 302.037 23.3418V24.168C302.037 25.0938 302.231 25.8301 302.618 26.377C303.004 26.9238 303.545 27.1973 304.241 27.1973C304.866 27.1973 305.344 27.0566 305.676 26.7754C306.012 26.4902 306.235 25.9961 306.344 25.293H307.475ZM313.16 28C313.098 27.875 313.047 27.6523 313.008 27.332C312.504 27.8555 311.902 28.1172 311.203 28.1172C310.578 28.1172 310.064 27.9414 309.662 27.5898C309.264 27.2344 309.064 26.7852 309.064 26.2422C309.064 25.582 309.314 25.0703 309.814 24.707C310.318 24.3398 311.025 24.1562 311.936 24.1562H312.99V23.6582C312.99 23.2793 312.877 22.9785 312.65 22.7559C312.424 22.5293 312.09 22.416 311.648 22.416C311.262 22.416 310.937 22.5137 310.676 22.709C310.414 22.9043 310.283 23.1406 310.283 23.418H309.193C309.193 23.1016 309.305 22.7969 309.527 22.5039C309.754 22.207 310.059 21.9727 310.441 21.8008C310.828 21.6289 311.252 21.543 311.713 21.543C312.443 21.543 313.016 21.7266 313.43 22.0938C313.844 22.457 314.059 22.959 314.074 23.5996V26.5176C314.074 27.0996 314.148 27.5625 314.297 27.9062V28H313.16ZM311.361 27.1738C311.701 27.1738 312.023 27.0859 312.328 26.9102C312.633 26.7344 312.854 26.5059 312.99 26.2246V24.9238H312.141C310.812 24.9238 310.148 25.3125 310.148 26.0898C310.148 26.4297 310.262 26.6953 310.488 26.8867C310.715 27.0781 311.006 27.1738 311.361 27.1738ZM321.529 24.9004C321.529 25.8652 321.308 26.6426 320.867 27.2324C320.425 27.8223 319.828 28.1172 319.074 28.1172C318.304 28.1172 317.699 27.873 317.257 27.3848V30.4375H316.173V21.6602H317.164L317.216 22.3633C317.658 21.8164 318.271 21.543 319.056 21.543C319.818 21.543 320.42 21.8301 320.861 22.4043C321.306 22.9785 321.529 23.7773 321.529 24.8008V24.9004ZM320.445 24.7773C320.445 24.0625 320.293 23.498 319.988 23.084C319.683 22.6699 319.265 22.4629 318.734 22.4629C318.078 22.4629 317.586 22.7539 317.257 23.3359V26.3652C317.582 26.9434 318.078 27.2324 318.746 27.2324C319.265 27.2324 319.677 27.0273 319.982 26.6172C320.291 26.2031 320.445 25.5898 320.445 24.7773ZM324.782 20.125V21.6602H325.966V22.498H324.782V26.4297C324.782 26.6836 324.835 26.875 324.941 27.0039C325.046 27.1289 325.226 27.1914 325.48 27.1914C325.605 27.1914 325.777 27.168 325.995 27.1211V28C325.71 28.0781 325.433 28.1172 325.163 28.1172C324.679 28.1172 324.314 27.9707 324.068 27.6777C323.821 27.3848 323.698 26.9688 323.698 26.4297V22.498H322.544V21.6602H323.698V20.125H324.782ZM328.815 28H327.731V21.6602H328.815V28ZM327.643 19.9785C327.643 19.8027 327.696 19.6543 327.802 19.5332C327.911 19.4121 328.071 19.3516 328.282 19.3516C328.493 19.3516 328.653 19.4121 328.762 19.5332C328.872 19.6543 328.927 19.8027 328.927 19.9785C328.927 20.1543 328.872 20.3008 328.762 20.418C328.653 20.5352 328.493 20.5938 328.282 20.5938C328.071 20.5938 327.911 20.5352 327.802 20.418C327.696 20.3008 327.643 20.1543 327.643 19.9785ZM330.668 24.7715C330.668 24.1504 330.789 23.5918 331.032 23.0957C331.278 22.5996 331.618 22.2168 332.051 21.9473C332.489 21.6777 332.987 21.543 333.545 21.543C334.409 21.543 335.106 21.8418 335.637 22.4395C336.172 23.0371 336.44 23.832 336.44 24.8242V24.9004C336.44 25.5176 336.321 26.0723 336.082 26.5645C335.848 27.0527 335.51 27.4336 335.069 27.707C334.631 27.9805 334.127 28.1172 333.557 28.1172C332.698 28.1172 332 27.8184 331.465 27.2207C330.934 26.623 330.668 25.832 330.668 24.8477V24.7715ZM331.758 24.9004C331.758 25.6035 331.92 26.168 332.245 26.5938C332.573 27.0195 333.01 27.2324 333.557 27.2324C334.108 27.2324 334.545 27.0176 334.87 26.5879C335.194 26.1543 335.356 25.5488 335.356 24.7715C335.356 24.0762 335.19 23.5137 334.858 23.084C334.53 22.6504 334.092 22.4336 333.545 22.4336C333.01 22.4336 332.579 22.6465 332.25 23.0723C331.922 23.498 331.758 24.1074 331.758 24.9004ZM339.225 21.6602L339.26 22.457C339.744 21.8477 340.377 21.543 341.158 21.543C342.498 21.543 343.174 22.2988 343.186 23.8105V28H342.102V23.8047C342.098 23.3477 341.992 23.0098 341.785 22.791C341.582 22.5723 341.264 22.4629 340.83 22.4629C340.479 22.4629 340.17 22.5566 339.904 22.7441C339.639 22.9316 339.432 23.1777 339.283 23.4824V28H338.199V21.6602H339.225Z" fill="white" fill-opacity="0.87"/>
<path d="M18.4746 46.9268H23.1914V48H17.1553V38.0469H18.4746V46.9268ZM24.4053 44.2334C24.4053 43.5088 24.5465 42.8571 24.8291 42.2783C25.1162 41.6995 25.5127 41.2529 26.0186 40.9385C26.529 40.624 27.11 40.4668 27.7617 40.4668C28.7689 40.4668 29.5824 40.8154 30.2021 41.5127C30.8265 42.21 31.1387 43.1374 31.1387 44.2949V44.3838C31.1387 45.1038 30.9997 45.751 30.7217 46.3252C30.4482 46.8949 30.054 47.3392 29.5391 47.6582C29.0286 47.9772 28.4408 48.1367 27.7754 48.1367C26.7728 48.1367 25.9593 47.7881 25.335 47.0908C24.7152 46.3936 24.4053 45.4707 24.4053 44.3223V44.2334ZM25.6768 44.3838C25.6768 45.2041 25.8659 45.8626 26.2441 46.3594C26.627 46.8561 27.1374 47.1045 27.7754 47.1045C28.418 47.1045 28.9284 46.8538 29.3066 46.3525C29.6849 45.8467 29.874 45.1403 29.874 44.2334C29.874 43.4222 29.6803 42.766 29.293 42.2646C28.9102 41.7588 28.3997 41.5059 27.7617 41.5059C27.1374 41.5059 26.6338 41.7542 26.251 42.251C25.8682 42.7477 25.6768 43.4587 25.6768 44.3838ZM36.5498 41.7383C36.3584 41.7064 36.151 41.6904 35.9277 41.6904C35.0983 41.6904 34.5355 42.0436 34.2393 42.75V48H32.9746V40.6035H34.2051L34.2256 41.458C34.6403 40.7972 35.2282 40.4668 35.9893 40.4668C36.2354 40.4668 36.4222 40.4987 36.5498 40.5625V41.7383ZM40.9014 48.1367C39.8988 48.1367 39.083 47.8086 38.4541 47.1523C37.8252 46.4915 37.5107 45.6097 37.5107 44.5068V44.2744C37.5107 43.5407 37.6497 42.8867 37.9277 42.3125C38.2103 41.7337 38.6022 41.2826 39.1035 40.959C39.6094 40.6309 40.1562 40.4668 40.7441 40.4668C41.7057 40.4668 42.4531 40.7835 42.9863 41.417C43.5195 42.0505 43.7861 42.9574 43.7861 44.1377V44.6641H38.7754C38.7936 45.3932 39.0055 45.9834 39.4111 46.4346C39.8213 46.8812 40.3408 47.1045 40.9697 47.1045C41.4163 47.1045 41.7946 47.0133 42.1045 46.8311C42.4144 46.6488 42.6855 46.4072 42.918 46.1064L43.6904 46.708C43.0706 47.6605 42.141 48.1367 40.9014 48.1367ZM40.7441 41.5059C40.2337 41.5059 39.8053 41.6927 39.459 42.0664C39.1126 42.4355 38.8984 42.9551 38.8164 43.625H42.5215V43.5293C42.485 42.8867 42.3118 42.39 42.002 42.0391C41.6921 41.6836 41.2728 41.5059 40.7441 41.5059ZM46.6953 40.6035L46.7295 41.4238C47.2718 40.7858 48.0033 40.4668 48.9238 40.4668C49.9583 40.4668 50.6624 40.8633 51.0361 41.6562C51.2822 41.3008 51.6012 41.0137 51.9932 40.7949C52.3896 40.5762 52.8568 40.4668 53.3945 40.4668C55.0169 40.4668 55.8418 41.3258 55.8691 43.0439V48H54.6045V43.1191C54.6045 42.5905 54.4837 42.1963 54.2422 41.9365C54.0007 41.6722 53.5951 41.54 53.0254 41.54C52.556 41.54 52.1663 41.6813 51.8564 41.9639C51.5465 42.2419 51.3665 42.6178 51.3164 43.0918V48H50.0449V43.1533C50.0449 42.0778 49.5186 41.54 48.4658 41.54C47.6364 41.54 47.069 41.8932 46.7637 42.5996V48H45.499V40.6035H46.6953ZM63.1299 48H61.8652V40.6035H63.1299V48ZM61.7627 38.6416C61.7627 38.4365 61.8242 38.2633 61.9473 38.1221C62.0749 37.9808 62.2617 37.9102 62.5078 37.9102C62.7539 37.9102 62.9408 37.9808 63.0684 38.1221C63.196 38.2633 63.2598 38.4365 63.2598 38.6416C63.2598 38.8467 63.196 39.0176 63.0684 39.1543C62.9408 39.291 62.7539 39.3594 62.5078 39.3594C62.2617 39.3594 62.0749 39.291 61.9473 39.1543C61.8242 39.0176 61.7627 38.8467 61.7627 38.6416ZM71.6582 44.3838C71.6582 45.5094 71.4007 46.4163 70.8857 47.1045C70.3708 47.7926 69.6735 48.1367 68.7939 48.1367C67.8962 48.1367 67.1898 47.8519 66.6748 47.2822V50.8438H65.4102V40.6035H66.5654L66.627 41.4238C67.1419 40.7858 67.8574 40.4668 68.7734 40.4668C69.6621 40.4668 70.3639 40.8018 70.8789 41.4717C71.3984 42.1416 71.6582 43.0736 71.6582 44.2676V44.3838ZM70.3936 44.2402C70.3936 43.4062 70.2158 42.7477 69.8604 42.2646C69.5049 41.7816 69.0173 41.54 68.3975 41.54C67.6318 41.54 67.0576 41.8796 66.6748 42.5586V46.0928C67.0531 46.7673 67.6318 47.1045 68.4111 47.1045C69.0173 47.1045 69.498 46.8652 69.8535 46.3867C70.2135 45.9036 70.3936 45.1882 70.3936 44.2402ZM77.8281 46.0381C77.8281 45.6963 77.6982 45.432 77.4385 45.2451C77.1833 45.0537 76.7344 44.8896 76.0918 44.7529C75.4538 44.6162 74.9456 44.4521 74.5674 44.2607C74.1937 44.0693 73.9157 43.8415 73.7334 43.5771C73.5557 43.3128 73.4668 42.9984 73.4668 42.6338C73.4668 42.0277 73.722 41.515 74.2324 41.0957C74.7474 40.6764 75.4036 40.4668 76.2012 40.4668C77.0397 40.4668 77.7188 40.6833 78.2383 41.1162C78.7624 41.5492 79.0244 42.1029 79.0244 42.7773H77.7529C77.7529 42.431 77.6048 42.1325 77.3086 41.8818C77.0169 41.6312 76.6478 41.5059 76.2012 41.5059C75.7409 41.5059 75.3809 41.6061 75.1211 41.8066C74.8613 42.0072 74.7314 42.2692 74.7314 42.5928C74.7314 42.8981 74.8522 43.1283 75.0938 43.2832C75.3353 43.4382 75.7705 43.5863 76.3994 43.7275C77.0329 43.8688 77.5456 44.0374 77.9375 44.2334C78.3294 44.4294 78.6188 44.6663 78.8057 44.9443C78.9971 45.2178 79.0928 45.5527 79.0928 45.9492C79.0928 46.61 78.8285 47.141 78.2998 47.542C77.7712 47.9385 77.0853 48.1367 76.2422 48.1367C75.6497 48.1367 75.1257 48.0319 74.6699 47.8223C74.2142 47.6126 73.8564 47.321 73.5967 46.9473C73.3415 46.569 73.2139 46.1611 73.2139 45.7236H74.4785C74.5013 46.1475 74.6699 46.4847 74.9844 46.7354C75.3034 46.9814 75.7227 47.1045 76.2422 47.1045C76.7207 47.1045 77.1035 47.0088 77.3906 46.8174C77.6823 46.6214 77.8281 46.3617 77.8281 46.0381ZM85.5566 47.2686C85.0645 47.8473 84.3421 48.1367 83.3896 48.1367C82.6012 48.1367 81.9997 47.9089 81.585 47.4531C81.1748 46.9928 80.9674 46.3138 80.9629 45.416V40.6035H82.2275V45.3818C82.2275 46.5029 82.6833 47.0635 83.5947 47.0635C84.5609 47.0635 85.2035 46.7035 85.5225 45.9834V40.6035H86.7871V48H85.584L85.5566 47.2686ZM90.1543 40.6035L90.1885 41.4238C90.7308 40.7858 91.4622 40.4668 92.3828 40.4668C93.4173 40.4668 94.1214 40.8633 94.4951 41.6562C94.7412 41.3008 95.0602 41.0137 95.4521 40.7949C95.8486 40.5762 96.3158 40.4668 96.8535 40.4668C98.4759 40.4668 99.3008 41.3258 99.3281 43.0439V48H98.0635V43.1191C98.0635 42.5905 97.9427 42.1963 97.7012 41.9365C97.4596 41.6722 97.054 41.54 96.4844 41.54C96.015 41.54 95.6253 41.6813 95.3154 41.9639C95.0055 42.2419 94.8255 42.6178 94.7754 43.0918V48H93.5039V43.1533C93.5039 42.0778 92.9775 41.54 91.9248 41.54C91.0954 41.54 90.528 41.8932 90.2227 42.5996V48H88.958V40.6035H90.1543ZM104.907 44.2402C104.907 43.1055 105.176 42.194 105.714 41.5059C106.252 40.8132 106.956 40.4668 107.826 40.4668C108.692 40.4668 109.378 40.763 109.884 41.3555V37.5H111.148V48H109.986L109.925 47.207C109.419 47.8268 108.715 48.1367 107.812 48.1367C106.956 48.1367 106.256 47.7858 105.714 47.084C105.176 46.3822 104.907 45.4661 104.907 44.3359V44.2402ZM106.172 44.3838C106.172 45.2223 106.345 45.8786 106.691 46.3525C107.038 46.8265 107.516 47.0635 108.127 47.0635C108.929 47.0635 109.515 46.7035 109.884 45.9834V42.5859C109.506 41.8887 108.924 41.54 108.141 41.54C107.521 41.54 107.038 41.7793 106.691 42.2578C106.345 42.7363 106.172 43.445 106.172 44.3838ZM113.032 44.2334C113.032 43.5088 113.174 42.8571 113.456 42.2783C113.743 41.6995 114.14 41.2529 114.646 40.9385C115.156 40.624 115.737 40.4668 116.389 40.4668C117.396 40.4668 118.209 40.8154 118.829 41.5127C119.453 42.21 119.766 43.1374 119.766 44.2949V44.3838C119.766 45.1038 119.627 45.751 119.349 46.3252C119.075 46.8949 118.681 47.3392 118.166 47.6582C117.656 47.9772 117.068 48.1367 116.402 48.1367C115.4 48.1367 114.586 47.7881 113.962 47.0908C113.342 46.3936 113.032 45.4707 113.032 44.3223V44.2334ZM114.304 44.3838C114.304 45.2041 114.493 45.8626 114.871 46.3594C115.254 46.8561 115.764 47.1045 116.402 47.1045C117.045 47.1045 117.555 46.8538 117.934 46.3525C118.312 45.8467 118.501 45.1403 118.501 44.2334C118.501 43.4222 118.307 42.766 117.92 42.2646C117.537 41.7588 117.027 41.5059 116.389 41.5059C115.764 41.5059 115.261 41.7542 114.878 42.251C114.495 42.7477 114.304 43.4587 114.304 44.3838ZM122.976 48H121.711V37.5H122.976V48ZM124.921 44.2334C124.921 43.5088 125.062 42.8571 125.345 42.2783C125.632 41.6995 126.028 41.2529 126.534 40.9385C127.045 40.624 127.626 40.4668 128.277 40.4668C129.285 40.4668 130.098 40.8154 130.718 41.5127C131.342 42.21 131.654 43.1374 131.654 44.2949V44.3838C131.654 45.1038 131.515 45.751 131.237 46.3252C130.964 46.8949 130.57 47.3392 130.055 47.6582C129.544 47.9772 128.956 48.1367 128.291 48.1367C127.288 48.1367 126.475 47.7881 125.851 47.0908C125.231 46.3936 124.921 45.4707 124.921 44.3223V44.2334ZM126.192 44.3838C126.192 45.2041 126.382 45.8626 126.76 46.3594C127.143 46.8561 127.653 47.1045 128.291 47.1045C128.934 47.1045 129.444 46.8538 129.822 46.3525C130.201 45.8467 130.39 45.1403 130.39 44.2334C130.39 43.4222 130.196 42.766 129.809 42.2646C129.426 41.7588 128.915 41.5059 128.277 41.5059C127.653 41.5059 127.149 41.7542 126.767 42.251C126.384 42.7477 126.192 43.4587 126.192 44.3838ZM137.065 41.7383C136.874 41.7064 136.667 41.6904 136.443 41.6904C135.614 41.6904 135.051 42.0436 134.755 42.75V48H133.49V40.6035H134.721L134.741 41.458C135.156 40.7972 135.744 40.4668 136.505 40.4668C136.751 40.4668 136.938 40.4987 137.065 40.5625V41.7383ZM146.514 46.0381C146.514 45.6963 146.384 45.432 146.124 45.2451C145.869 45.0537 145.42 44.8896 144.777 44.7529C144.139 44.6162 143.631 44.4521 143.253 44.2607C142.879 44.0693 142.601 43.8415 142.419 43.5771C142.241 43.3128 142.152 42.9984 142.152 42.6338C142.152 42.0277 142.408 41.515 142.918 41.0957C143.433 40.6764 144.089 40.4668 144.887 40.4668C145.725 40.4668 146.404 40.6833 146.924 41.1162C147.448 41.5492 147.71 42.1029 147.71 42.7773H146.438C146.438 42.431 146.29 42.1325 145.994 41.8818C145.702 41.6312 145.333 41.5059 144.887 41.5059C144.426 41.5059 144.066 41.6061 143.807 41.8066C143.547 42.0072 143.417 42.2692 143.417 42.5928C143.417 42.8981 143.538 43.1283 143.779 43.2832C144.021 43.4382 144.456 43.5863 145.085 43.7275C145.718 43.8688 146.231 44.0374 146.623 44.2334C147.015 44.4294 147.304 44.6663 147.491 44.9443C147.683 45.2178 147.778 45.5527 147.778 45.9492C147.778 46.61 147.514 47.141 146.985 47.542C146.457 47.9385 145.771 48.1367 144.928 48.1367C144.335 48.1367 143.811 48.0319 143.355 47.8223C142.9 47.6126 142.542 47.321 142.282 46.9473C142.027 46.569 141.899 46.1611 141.899 45.7236H143.164C143.187 46.1475 143.355 46.4847 143.67 46.7354C143.989 46.9814 144.408 47.1045 144.928 47.1045C145.406 47.1045 145.789 47.0088 146.076 46.8174C146.368 46.6214 146.514 46.3617 146.514 46.0381ZM151.05 48H149.785V40.6035H151.05V48ZM149.683 38.6416C149.683 38.4365 149.744 38.2633 149.867 38.1221C149.995 37.9808 150.182 37.9102 150.428 37.9102C150.674 37.9102 150.861 37.9808 150.988 38.1221C151.116 38.2633 151.18 38.4365 151.18 38.6416C151.18 38.8467 151.116 39.0176 150.988 39.1543C150.861 39.291 150.674 39.3594 150.428 39.3594C150.182 39.3594 149.995 39.291 149.867 39.1543C149.744 39.0176 149.683 38.8467 149.683 38.6416ZM155.046 38.8125V40.6035H156.427V41.5811H155.046V46.168C155.046 46.4642 155.107 46.6875 155.23 46.8379C155.354 46.9837 155.563 47.0566 155.859 47.0566C156.005 47.0566 156.206 47.0293 156.461 46.9746V48C156.128 48.0911 155.805 48.1367 155.49 48.1367C154.925 48.1367 154.499 47.9658 154.212 47.624C153.925 47.2822 153.781 46.7969 153.781 46.168V41.5811H152.435V40.6035H153.781V38.8125H155.046ZM166.449 48C166.376 47.8542 166.317 47.5944 166.271 47.2207C165.684 47.8314 164.982 48.1367 164.166 48.1367C163.437 48.1367 162.838 47.9316 162.368 47.5215C161.903 47.1068 161.671 46.5827 161.671 45.9492C161.671 45.179 161.963 44.582 162.546 44.1582C163.134 43.7298 163.959 43.5156 165.021 43.5156H166.251V42.9346C166.251 42.4925 166.119 42.1416 165.854 41.8818C165.59 41.6175 165.201 41.4854 164.686 41.4854C164.234 41.4854 163.856 41.5993 163.551 41.8271C163.245 42.055 163.093 42.3307 163.093 42.6543H161.821C161.821 42.2852 161.951 41.9297 162.211 41.5879C162.475 41.2415 162.831 40.9681 163.277 40.7676C163.729 40.5671 164.223 40.4668 164.761 40.4668C165.613 40.4668 166.281 40.681 166.764 41.1094C167.247 41.5332 167.497 42.1188 167.516 42.8662V46.2705C167.516 46.9495 167.602 47.4896 167.775 47.8906V48H166.449ZM164.351 47.0361C164.747 47.0361 165.123 46.9336 165.479 46.7285C165.834 46.5234 166.091 46.2568 166.251 45.9287V44.4111H165.26C163.71 44.4111 162.936 44.8646 162.936 45.7715C162.936 46.168 163.068 46.4779 163.332 46.7012C163.596 46.9245 163.936 47.0361 164.351 47.0361ZM170.938 40.6035L170.972 41.4238C171.514 40.7858 172.245 40.4668 173.166 40.4668C174.201 40.4668 174.905 40.8633 175.278 41.6562C175.524 41.3008 175.843 41.0137 176.235 40.7949C176.632 40.5762 177.099 40.4668 177.637 40.4668C179.259 40.4668 180.084 41.3258 180.111 43.0439V48H178.847V43.1191C178.847 42.5905 178.726 42.1963 178.484 41.9365C178.243 41.6722 177.837 41.54 177.268 41.54C176.798 41.54 176.409 41.6813 176.099 41.9639C175.789 42.2419 175.609 42.6178 175.559 43.0918V48H174.287V43.1533C174.287 42.0778 173.761 41.54 172.708 41.54C171.879 41.54 171.311 41.8932 171.006 42.5996V48H169.741V40.6035H170.938ZM185.345 48.1367C184.342 48.1367 183.526 47.8086 182.897 47.1523C182.269 46.4915 181.954 45.6097 181.954 44.5068V44.2744C181.954 43.5407 182.093 42.8867 182.371 42.3125C182.654 41.7337 183.046 41.2826 183.547 40.959C184.053 40.6309 184.6 40.4668 185.188 40.4668C186.149 40.4668 186.896 40.7835 187.43 41.417C187.963 42.0505 188.229 42.9574 188.229 44.1377V44.6641H183.219C183.237 45.3932 183.449 45.9834 183.854 46.4346C184.265 46.8812 184.784 47.1045 185.413 47.1045C185.86 47.1045 186.238 47.0133 186.548 46.8311C186.858 46.6488 187.129 46.4072 187.361 46.1064L188.134 46.708C187.514 47.6605 186.584 48.1367 185.345 48.1367ZM185.188 41.5059C184.677 41.5059 184.249 41.6927 183.902 42.0664C183.556 42.4355 183.342 42.9551 183.26 43.625H186.965V43.5293C186.928 42.8867 186.755 42.39 186.445 42.0391C186.135 41.6836 185.716 41.5059 185.188 41.5059ZM191.665 38.8125V40.6035H193.046V41.5811H191.665V46.168C191.665 46.4642 191.727 46.6875 191.85 46.8379C191.973 46.9837 192.182 47.0566 192.479 47.0566C192.624 47.0566 192.825 47.0293 193.08 46.9746V48C192.747 48.0911 192.424 48.1367 192.109 48.1367C191.544 48.1367 191.118 47.9658 190.831 47.624C190.544 47.2822 190.4 46.7969 190.4 46.168V41.5811H189.054V40.6035H190.4V38.8125H191.665ZM194.738 49.9824L194.021 49.4902C194.449 48.8932 194.672 48.278 194.69 47.6445V46.5029H195.928V47.4941C195.928 47.9544 195.814 48.4147 195.586 48.875C195.363 49.3353 195.08 49.7044 194.738 49.9824ZM204.467 47.1045C204.918 47.1045 205.312 46.9678 205.649 46.6943C205.987 46.4209 206.174 46.0791 206.21 45.6689H207.406C207.383 46.0928 207.238 46.4961 206.969 46.8789C206.7 47.2617 206.34 47.5671 205.889 47.7949C205.442 48.0228 204.968 48.1367 204.467 48.1367C203.46 48.1367 202.658 47.8018 202.061 47.1318C201.468 46.4574 201.172 45.5368 201.172 44.3701V44.1582C201.172 43.4382 201.304 42.7979 201.568 42.2373C201.833 41.6768 202.211 41.2415 202.703 40.9316C203.2 40.6217 203.785 40.4668 204.46 40.4668C205.289 40.4668 205.978 40.7152 206.524 41.2119C207.076 41.7087 207.37 42.3535 207.406 43.1465H206.21C206.174 42.668 205.991 42.276 205.663 41.9707C205.34 41.6608 204.938 41.5059 204.46 41.5059C203.817 41.5059 203.318 41.7383 202.963 42.2031C202.612 42.6634 202.437 43.3311 202.437 44.2061V44.4453C202.437 45.2975 202.612 45.9538 202.963 46.4141C203.314 46.8743 203.815 47.1045 204.467 47.1045ZM208.743 44.2334C208.743 43.5088 208.884 42.8571 209.167 42.2783C209.454 41.6995 209.851 41.2529 210.356 40.9385C210.867 40.624 211.448 40.4668 212.1 40.4668C213.107 40.4668 213.92 40.8154 214.54 41.5127C215.164 42.21 215.477 43.1374 215.477 44.2949V44.3838C215.477 45.1038 215.338 45.751 215.06 46.3252C214.786 46.8949 214.392 47.3392 213.877 47.6582C213.367 47.9772 212.779 48.1367 212.113 48.1367C211.111 48.1367 210.297 47.7881 209.673 47.0908C209.053 46.3936 208.743 45.4707 208.743 44.3223V44.2334ZM210.015 44.3838C210.015 45.2041 210.204 45.8626 210.582 46.3594C210.965 46.8561 211.475 47.1045 212.113 47.1045C212.756 47.1045 213.266 46.8538 213.645 46.3525C214.023 45.8467 214.212 45.1403 214.212 44.2334C214.212 43.4222 214.018 42.766 213.631 42.2646C213.248 41.7588 212.738 41.5059 212.1 41.5059C211.475 41.5059 210.972 41.7542 210.589 42.251C210.206 42.7477 210.015 43.4587 210.015 44.3838ZM218.509 40.6035L218.55 41.5332C219.115 40.8223 219.853 40.4668 220.765 40.4668C222.328 40.4668 223.116 41.3486 223.13 43.1123V48H221.865V43.1055C221.861 42.5723 221.738 42.1781 221.496 41.9229C221.259 41.6676 220.888 41.54 220.382 41.54C219.972 41.54 219.612 41.6494 219.302 41.8682C218.992 42.0869 218.75 42.374 218.577 42.7295V48H217.312V40.6035H218.509ZM229.594 46.0381C229.594 45.6963 229.464 45.432 229.204 45.2451C228.949 45.0537 228.5 44.8896 227.857 44.7529C227.219 44.6162 226.711 44.4521 226.333 44.2607C225.959 44.0693 225.681 43.8415 225.499 43.5771C225.321 43.3128 225.232 42.9984 225.232 42.6338C225.232 42.0277 225.488 41.515 225.998 41.0957C226.513 40.6764 227.169 40.4668 227.967 40.4668C228.805 40.4668 229.484 40.6833 230.004 41.1162C230.528 41.5492 230.79 42.1029 230.79 42.7773H229.519C229.519 42.431 229.37 42.1325 229.074 41.8818C228.783 41.6312 228.413 41.5059 227.967 41.5059C227.507 41.5059 227.146 41.6061 226.887 41.8066C226.627 42.0072 226.497 42.2692 226.497 42.5928C226.497 42.8981 226.618 43.1283 226.859 43.2832C227.101 43.4382 227.536 43.5863 228.165 43.7275C228.799 43.8688 229.311 44.0374 229.703 44.2334C230.095 44.4294 230.384 44.6663 230.571 44.9443C230.763 45.2178 230.858 45.5527 230.858 45.9492C230.858 46.61 230.594 47.141 230.065 47.542C229.537 47.9385 228.851 48.1367 228.008 48.1367C227.415 48.1367 226.891 48.0319 226.436 47.8223C225.98 47.6126 225.622 47.321 225.362 46.9473C225.107 46.569 224.979 46.1611 224.979 45.7236H226.244C226.267 46.1475 226.436 46.4847 226.75 46.7354C227.069 46.9814 227.488 47.1045 228.008 47.1045C228.486 47.1045 228.869 47.0088 229.156 46.8174C229.448 46.6214 229.594 46.3617 229.594 46.0381ZM235.825 48.1367C234.823 48.1367 234.007 47.8086 233.378 47.1523C232.749 46.4915 232.435 45.6097 232.435 44.5068V44.2744C232.435 43.5407 232.574 42.8867 232.852 42.3125C233.134 41.7337 233.526 41.2826 234.027 40.959C234.533 40.6309 235.08 40.4668 235.668 40.4668C236.63 40.4668 237.377 40.7835 237.91 41.417C238.443 42.0505 238.71 42.9574 238.71 44.1377V44.6641H233.699C233.717 45.3932 233.929 45.9834 234.335 46.4346C234.745 46.8812 235.265 47.1045 235.894 47.1045C236.34 47.1045 236.718 47.0133 237.028 46.8311C237.338 46.6488 237.609 46.4072 237.842 46.1064L238.614 46.708C237.994 47.6605 237.065 48.1367 235.825 48.1367ZM235.668 41.5059C235.158 41.5059 234.729 41.6927 234.383 42.0664C234.036 42.4355 233.822 42.9551 233.74 43.625H237.445V43.5293C237.409 42.8867 237.236 42.39 236.926 42.0391C236.616 41.6836 236.197 41.5059 235.668 41.5059ZM243.396 47.1045C243.848 47.1045 244.242 46.9678 244.579 46.6943C244.916 46.4209 245.103 46.0791 245.14 45.6689H246.336C246.313 46.0928 246.167 46.4961 245.898 46.8789C245.63 47.2617 245.27 47.5671 244.818 47.7949C244.372 48.0228 243.898 48.1367 243.396 48.1367C242.389 48.1367 241.587 47.8018 240.99 47.1318C240.398 46.4574 240.102 45.5368 240.102 44.3701V44.1582C240.102 43.4382 240.234 42.7979 240.498 42.2373C240.762 41.6768 241.141 41.2415 241.633 40.9316C242.13 40.6217 242.715 40.4668 243.39 40.4668C244.219 40.4668 244.907 40.7152 245.454 41.2119C246.006 41.7087 246.299 42.3535 246.336 43.1465H245.14C245.103 42.668 244.921 42.276 244.593 41.9707C244.269 41.6608 243.868 41.5059 243.39 41.5059C242.747 41.5059 242.248 41.7383 241.893 42.2031C241.542 42.6634 241.366 43.3311 241.366 44.2061V44.4453C241.366 45.2975 241.542 45.9538 241.893 46.4141C242.243 46.8743 242.745 47.1045 243.396 47.1045ZM249.724 38.8125V40.6035H251.104V41.5811H249.724V46.168C249.724 46.4642 249.785 46.6875 249.908 46.8379C250.031 46.9837 250.241 47.0566 250.537 47.0566C250.683 47.0566 250.883 47.0293 251.139 46.9746V48C250.806 48.0911 250.482 48.1367 250.168 48.1367C249.603 48.1367 249.177 47.9658 248.89 47.624C248.603 47.2822 248.459 46.7969 248.459 46.168V41.5811H247.112V40.6035H248.459V38.8125H249.724ZM255.907 48.1367C254.905 48.1367 254.089 47.8086 253.46 47.1523C252.831 46.4915 252.517 45.6097 252.517 44.5068V44.2744C252.517 43.5407 252.656 42.8867 252.934 42.3125C253.216 41.7337 253.608 41.2826 254.109 40.959C254.615 40.6309 255.162 40.4668 255.75 40.4668C256.712 40.4668 257.459 40.7835 257.992 41.417C258.525 42.0505 258.792 42.9574 258.792 44.1377V44.6641H253.781C253.799 45.3932 254.011 45.9834 254.417 46.4346C254.827 46.8812 255.347 47.1045 255.976 47.1045C256.422 47.1045 256.8 47.0133 257.11 46.8311C257.42 46.6488 257.691 46.4072 257.924 46.1064L258.696 46.708C258.076 47.6605 257.147 48.1367 255.907 48.1367ZM255.75 41.5059C255.24 41.5059 254.811 41.6927 254.465 42.0664C254.118 42.4355 253.904 42.9551 253.822 43.625H257.527V43.5293C257.491 42.8867 257.318 42.39 257.008 42.0391C256.698 41.6836 256.279 41.5059 255.75 41.5059ZM262.228 38.8125V40.6035H263.608V41.5811H262.228V46.168C262.228 46.4642 262.289 46.6875 262.412 46.8379C262.535 46.9837 262.745 47.0566 263.041 47.0566C263.187 47.0566 263.387 47.0293 263.643 46.9746V48C263.31 48.0911 262.986 48.1367 262.672 48.1367C262.107 48.1367 261.681 47.9658 261.394 47.624C261.106 47.2822 260.963 46.7969 260.963 46.168V41.5811H259.616V40.6035H260.963V38.8125H262.228ZM269.908 47.2686C269.416 47.8473 268.694 48.1367 267.741 48.1367C266.953 48.1367 266.351 47.9089 265.937 47.4531C265.526 46.9928 265.319 46.3138 265.314 45.416V40.6035H266.579V45.3818C266.579 46.5029 267.035 47.0635 267.946 47.0635C268.912 47.0635 269.555 46.7035 269.874 45.9834V40.6035H271.139V48H269.936L269.908 47.2686ZM276.892 41.7383C276.7 41.7064 276.493 41.6904 276.27 41.6904C275.44 41.6904 274.877 42.0436 274.581 42.75V48H273.316V40.6035H274.547L274.567 41.458C274.982 40.7972 275.57 40.4668 276.331 40.4668C276.577 40.4668 276.764 40.4987 276.892 40.5625V41.7383ZM21.5234 68C21.4505 67.8542 21.3913 67.5944 21.3457 67.2207C20.7578 67.8314 20.056 68.1367 19.2402 68.1367C18.5111 68.1367 17.9118 67.9316 17.4424 67.5215C16.9775 67.1068 16.7451 66.5827 16.7451 65.9492C16.7451 65.179 17.0368 64.582 17.6201 64.1582C18.208 63.7298 19.0329 63.5156 20.0947 63.5156H21.3252V62.9346C21.3252 62.4925 21.193 62.1416 20.9287 61.8818C20.6644 61.6175 20.2747 61.4854 19.7598 61.4854C19.3086 61.4854 18.9303 61.5993 18.625 61.8271C18.3197 62.055 18.167 62.3307 18.167 62.6543H16.8955C16.8955 62.2852 17.0254 61.9297 17.2852 61.5879C17.5495 61.2415 17.9049 60.9681 18.3516 60.7676C18.8027 60.5671 19.2972 60.4668 19.835 60.4668C20.6872 60.4668 21.3548 60.681 21.8379 61.1094C22.321 61.5332 22.5716 62.1188 22.5898 62.8662V66.2705C22.5898 66.9495 22.6764 67.4896 22.8496 67.8906V68H21.5234ZM19.4248 67.0361C19.8213 67.0361 20.1973 66.9336 20.5527 66.7285C20.9082 66.5234 21.1657 66.2568 21.3252 65.9287V64.4111H20.334C18.7845 64.4111 18.0098 64.8646 18.0098 65.7715C18.0098 66.168 18.1419 66.4779 18.4062 66.7012C18.6706 66.9245 19.0101 67.0361 19.4248 67.0361ZM24.5146 64.2402C24.5146 63.1055 24.7835 62.194 25.3213 61.5059C25.859 60.8132 26.5632 60.4668 27.4336 60.4668C28.2995 60.4668 28.9854 60.763 29.4912 61.3555V57.5H30.7559V68H29.5938L29.5322 67.207C29.0264 67.8268 28.3223 68.1367 27.4199 68.1367C26.5632 68.1367 25.8636 67.7858 25.3213 67.084C24.7835 66.3822 24.5146 65.4661 24.5146 64.3359V64.2402ZM25.7793 64.3838C25.7793 65.2223 25.9525 65.8786 26.2988 66.3525C26.6452 66.8265 27.1237 67.0635 27.7344 67.0635C28.5365 67.0635 29.1221 66.7035 29.4912 65.9834V62.5859C29.113 61.8887 28.5319 61.54 27.748 61.54C27.1283 61.54 26.6452 61.7793 26.2988 62.2578C25.9525 62.7363 25.7793 63.445 25.7793 64.3838ZM34.3486 68H33.084V60.6035H34.3486V68ZM32.9814 58.6416C32.9814 58.4365 33.043 58.2633 33.166 58.1221C33.2936 57.9808 33.4805 57.9102 33.7266 57.9102C33.9727 57.9102 34.1595 57.9808 34.2871 58.1221C34.4147 58.2633 34.4785 58.4365 34.4785 58.6416C34.4785 58.8467 34.4147 59.0176 34.2871 59.1543C34.1595 59.291 33.9727 59.3594 33.7266 59.3594C33.4805 59.3594 33.2936 59.291 33.166 59.1543C33.043 59.0176 32.9814 58.8467 32.9814 58.6416ZM42.877 64.3838C42.877 65.5094 42.6195 66.4163 42.1045 67.1045C41.5895 67.7926 40.8923 68.1367 40.0127 68.1367C39.1149 68.1367 38.4085 67.8519 37.8936 67.2822V70.8438H36.6289V60.6035H37.7842L37.8457 61.4238C38.3607 60.7858 39.0762 60.4668 39.9922 60.4668C40.8809 60.4668 41.5827 60.8018 42.0977 61.4717C42.6172 62.1416 42.877 63.0736 42.877 64.2676V64.3838ZM41.6123 64.2402C41.6123 63.4062 41.4346 62.7477 41.0791 62.2646C40.7236 61.7816 40.236 61.54 39.6162 61.54C38.8506 61.54 38.2764 61.8796 37.8936 62.5586V66.0928C38.2718 66.7673 38.8506 67.1045 39.6299 67.1045C40.236 67.1045 40.7168 66.8652 41.0723 66.3867C41.4323 65.9036 41.6123 65.1882 41.6123 64.2402ZM46.1143 68H44.8496V60.6035H46.1143V68ZM44.7471 58.6416C44.7471 58.4365 44.8086 58.2633 44.9316 58.1221C45.0592 57.9808 45.2461 57.9102 45.4922 57.9102C45.7383 57.9102 45.9251 57.9808 46.0527 58.1221C46.1803 58.2633 46.2441 58.4365 46.2441 58.6416C46.2441 58.8467 46.1803 59.0176 46.0527 59.1543C45.9251 59.291 45.7383 59.3594 45.4922 59.3594C45.2461 59.3594 45.0592 59.291 44.9316 59.1543C44.8086 59.0176 44.7471 58.8467 44.7471 58.6416ZM52.7012 66.0381C52.7012 65.6963 52.5713 65.432 52.3115 65.2451C52.0563 65.0537 51.6074 64.8896 50.9648 64.7529C50.3268 64.6162 49.8187 64.4521 49.4404 64.2607C49.0667 64.0693 48.7887 63.8415 48.6064 63.5771C48.4287 63.3128 48.3398 62.9984 48.3398 62.6338C48.3398 62.0277 48.5951 61.515 49.1055 61.0957C49.6204 60.6764 50.2767 60.4668 51.0742 60.4668C51.9128 60.4668 52.5918 60.6833 53.1113 61.1162C53.6354 61.5492 53.8975 62.1029 53.8975 62.7773H52.626C52.626 62.431 52.4779 62.1325 52.1816 61.8818C51.89 61.6312 51.5208 61.5059 51.0742 61.5059C50.6139 61.5059 50.2539 61.6061 49.9941 61.8066C49.7344 62.0072 49.6045 62.2692 49.6045 62.5928C49.6045 62.8981 49.7253 63.1283 49.9668 63.2832C50.2083 63.4382 50.6436 63.5863 51.2725 63.7275C51.9059 63.8688 52.4186 64.0374 52.8105 64.2334C53.2025 64.4294 53.4919 64.6663 53.6787 64.9443C53.8701 65.2178 53.9658 65.5527 53.9658 65.9492C53.9658 66.61 53.7015 67.141 53.1729 67.542C52.6442 67.9385 51.9583 68.1367 51.1152 68.1367C50.5228 68.1367 49.9987 68.0319 49.543 67.8223C49.0872 67.6126 48.7295 67.321 48.4697 66.9473C48.2145 66.569 48.0869 66.1611 48.0869 65.7236H49.3516C49.3743 66.1475 49.543 66.4847 49.8574 66.7354C50.1764 66.9814 50.5957 67.1045 51.1152 67.1045C51.5938 67.1045 51.9766 67.0088 52.2637 66.8174C52.5553 66.6214 52.7012 66.3617 52.7012 66.0381ZM58.8301 67.1045C59.2812 67.1045 59.6755 66.9678 60.0127 66.6943C60.3499 66.4209 60.5368 66.0791 60.5732 65.6689H61.7695C61.7467 66.0928 61.6009 66.4961 61.332 66.8789C61.0632 67.2617 60.7031 67.5671 60.252 67.7949C59.8053 68.0228 59.3314 68.1367 58.8301 68.1367C57.8229 68.1367 57.0208 67.8018 56.4238 67.1318C55.8314 66.4574 55.5352 65.5368 55.5352 64.3701V64.1582C55.5352 63.4382 55.6673 62.7979 55.9316 62.2373C56.196 61.6768 56.5742 61.2415 57.0664 60.9316C57.5632 60.6217 58.1488 60.4668 58.8232 60.4668C59.6527 60.4668 60.3408 60.7152 60.8877 61.2119C61.4391 61.7087 61.7331 62.3535 61.7695 63.1465H60.5732C60.5368 62.668 60.3545 62.276 60.0264 61.9707C59.7028 61.6608 59.3018 61.5059 58.8232 61.5059C58.1807 61.5059 57.6816 61.7383 57.3262 62.2031C56.9753 62.6634 56.7998 63.3311 56.7998 64.2061V64.4453C56.7998 65.2975 56.9753 65.9538 57.3262 66.4141C57.6771 66.8743 58.1784 67.1045 58.8301 67.1045ZM64.8154 68H63.5508V60.6035H64.8154V68ZM63.4482 58.6416C63.4482 58.4365 63.5098 58.2633 63.6328 58.1221C63.7604 57.9808 63.9473 57.9102 64.1934 57.9102C64.4395 57.9102 64.6263 57.9808 64.7539 58.1221C64.8815 58.2633 64.9453 58.4365 64.9453 58.6416C64.9453 58.8467 64.8815 59.0176 64.7539 59.1543C64.6263 59.291 64.4395 59.3594 64.1934 59.3594C63.9473 59.3594 63.7604 59.291 63.6328 59.1543C63.5098 59.0176 63.4482 58.8467 63.4482 58.6416ZM68.292 60.6035L68.333 61.5332C68.8981 60.8223 69.6364 60.4668 70.5479 60.4668C72.111 60.4668 72.8994 61.3486 72.9131 63.1123V68H71.6484V63.1055C71.6439 62.5723 71.5208 62.1781 71.2793 61.9229C71.0423 61.6676 70.6709 61.54 70.165 61.54C69.7549 61.54 69.3949 61.6494 69.085 61.8682C68.7751 62.0869 68.5335 62.374 68.3604 62.7295V68H67.0957V60.6035H68.292ZM74.7695 64.2402C74.7695 63.0872 75.0361 62.1712 75.5693 61.4922C76.1025 60.8086 76.8089 60.4668 77.6885 60.4668C78.5908 60.4668 79.2949 60.7858 79.8008 61.4238L79.8623 60.6035H81.0176V67.8223C81.0176 68.7793 80.7327 69.5335 80.1631 70.085C79.598 70.6364 78.8369 70.9121 77.8799 70.9121C77.3467 70.9121 76.8249 70.7982 76.3145 70.5703C75.804 70.3424 75.4144 70.0303 75.1455 69.6338L75.8018 68.875C76.3441 69.5449 77.0072 69.8799 77.791 69.8799C78.4062 69.8799 78.8848 69.7067 79.2266 69.3604C79.5729 69.014 79.7461 68.5264 79.7461 67.8975V67.2617C79.2402 67.8451 78.5498 68.1367 77.6748 68.1367C76.8089 68.1367 76.1071 67.7881 75.5693 67.0908C75.0361 66.3936 74.7695 65.4434 74.7695 64.2402ZM76.041 64.3838C76.041 65.2178 76.2119 65.874 76.5537 66.3525C76.8955 66.8265 77.374 67.0635 77.9893 67.0635C78.7868 67.0635 79.3724 66.7012 79.7461 65.9766V62.5996C79.3587 61.8932 78.7777 61.54 78.0029 61.54C77.3877 61.54 76.9069 61.7793 76.5605 62.2578C76.2142 62.7363 76.041 63.445 76.041 64.3838ZM89.9736 68.1367C88.971 68.1367 88.1553 67.8086 87.5264 67.1523C86.8975 66.4915 86.583 65.6097 86.583 64.5068V64.2744C86.583 63.5407 86.722 62.8867 87 62.3125C87.2826 61.7337 87.6745 61.2826 88.1758 60.959C88.6816 60.6309 89.2285 60.4668 89.8164 60.4668C90.778 60.4668 91.5254 60.7835 92.0586 61.417C92.5918 62.0505 92.8584 62.9574 92.8584 64.1377V64.6641H87.8477C87.8659 65.3932 88.0778 65.9834 88.4834 66.4346C88.8936 66.8812 89.4131 67.1045 90.042 67.1045C90.4886 67.1045 90.8669 67.0133 91.1768 66.8311C91.4867 66.6488 91.7578 66.4072 91.9902 66.1064L92.7627 66.708C92.1429 67.6605 91.2132 68.1367 89.9736 68.1367ZM89.8164 61.5059C89.306 61.5059 88.8776 61.6927 88.5312 62.0664C88.1849 62.4355 87.9707 62.9551 87.8887 63.625H91.5938V63.5293C91.5573 62.8867 91.3841 62.39 91.0742 62.0391C90.7643 61.6836 90.3451 61.5059 89.8164 61.5059ZM95.9521 68H94.6875V57.5H95.9521V68ZM99.6064 68H98.3418V60.6035H99.6064V68ZM98.2393 58.6416C98.2393 58.4365 98.3008 58.2633 98.4238 58.1221C98.5514 57.9808 98.7383 57.9102 98.9844 57.9102C99.2305 57.9102 99.4173 57.9808 99.5449 58.1221C99.6725 58.2633 99.7363 58.4365 99.7363 58.6416C99.7363 58.8467 99.6725 59.0176 99.5449 59.1543C99.4173 59.291 99.2305 59.3594 98.9844 59.3594C98.7383 59.3594 98.5514 59.291 98.4238 59.1543C98.3008 59.0176 98.2393 58.8467 98.2393 58.6416ZM103.603 58.8125V60.6035H104.983V61.5811H103.603V66.168C103.603 66.4642 103.664 66.6875 103.787 66.8379C103.91 66.9837 104.12 67.0566 104.416 67.0566C104.562 67.0566 104.762 67.0293 105.018 66.9746V68C104.685 68.0911 104.361 68.1367 104.047 68.1367C103.482 68.1367 103.056 67.9658 102.769 67.624C102.481 67.2822 102.338 66.7969 102.338 66.168V61.5811H100.991V60.6035H102.338V58.8125H103.603ZM106.676 69.9824L105.958 69.4902C106.386 68.8932 106.61 68.278 106.628 67.6445V66.5029H107.865V67.4941C107.865 67.9544 107.751 68.4147 107.523 68.875C107.3 69.3353 107.018 69.7044 106.676 69.9824ZM117.744 66.0381C117.744 65.6963 117.614 65.432 117.354 65.2451C117.099 65.0537 116.65 64.8896 116.008 64.7529C115.37 64.6162 114.862 64.4521 114.483 64.2607C114.11 64.0693 113.832 63.8415 113.649 63.5771C113.472 63.3128 113.383 62.9984 113.383 62.6338C113.383 62.0277 113.638 61.515 114.148 61.0957C114.663 60.6764 115.32 60.4668 116.117 60.4668C116.956 60.4668 117.635 60.6833 118.154 61.1162C118.678 61.5492 118.94 62.1029 118.94 62.7773H117.669C117.669 62.431 117.521 62.1325 117.225 61.8818C116.933 61.6312 116.564 61.5059 116.117 61.5059C115.657 61.5059 115.297 61.6061 115.037 61.8066C114.777 62.0072 114.647 62.2692 114.647 62.5928C114.647 62.8981 114.768 63.1283 115.01 63.2832C115.251 63.4382 115.687 63.5863 116.315 63.7275C116.949 63.8688 117.462 64.0374 117.854 64.2334C118.245 64.4294 118.535 64.6663 118.722 64.9443C118.913 65.2178 119.009 65.5527 119.009 65.9492C119.009 66.61 118.744 67.141 118.216 67.542C117.687 67.9385 117.001 68.1367 116.158 68.1367C115.566 68.1367 115.042 68.0319 114.586 67.8223C114.13 67.6126 113.772 67.321 113.513 66.9473C113.257 66.569 113.13 66.1611 113.13 65.7236H114.395C114.417 66.1475 114.586 66.4847 114.9 66.7354C115.219 66.9814 115.639 67.1045 116.158 67.1045C116.637 67.1045 117.02 67.0088 117.307 66.8174C117.598 66.6214 117.744 66.3617 117.744 66.0381ZM123.976 68.1367C122.973 68.1367 122.157 67.8086 121.528 67.1523C120.899 66.4915 120.585 65.6097 120.585 64.5068V64.2744C120.585 63.5407 120.724 62.8867 121.002 62.3125C121.285 61.7337 121.676 61.2826 122.178 60.959C122.684 60.6309 123.23 60.4668 123.818 60.4668C124.78 60.4668 125.527 60.7835 126.061 61.417C126.594 62.0505 126.86 62.9574 126.86 64.1377V64.6641H121.85C121.868 65.3932 122.08 65.9834 122.485 66.4346C122.896 66.8812 123.415 67.1045 124.044 67.1045C124.491 67.1045 124.869 67.0133 125.179 66.8311C125.489 66.6488 125.76 66.4072 125.992 66.1064L126.765 66.708C126.145 67.6605 125.215 68.1367 123.976 68.1367ZM123.818 61.5059C123.308 61.5059 122.88 61.6927 122.533 62.0664C122.187 62.4355 121.973 62.9551 121.891 63.625H125.596V63.5293C125.559 62.8867 125.386 62.39 125.076 62.0391C124.766 61.6836 124.347 61.5059 123.818 61.5059ZM128.272 64.2402C128.272 63.1055 128.541 62.194 129.079 61.5059C129.617 60.8132 130.321 60.4668 131.191 60.4668C132.057 60.4668 132.743 60.763 133.249 61.3555V57.5H134.514V68H133.352L133.29 67.207C132.784 67.8268 132.08 68.1367 131.178 68.1367C130.321 68.1367 129.621 67.7858 129.079 67.084C128.541 66.3822 128.272 65.4661 128.272 64.3359V64.2402ZM129.537 64.3838C129.537 65.2223 129.71 65.8786 130.057 66.3525C130.403 66.8265 130.882 67.0635 131.492 67.0635C132.294 67.0635 132.88 66.7035 133.249 65.9834V62.5859C132.871 61.8887 132.29 61.54 131.506 61.54C130.886 61.54 130.403 61.7793 130.057 62.2578C129.71 62.7363 129.537 63.445 129.537 64.3838ZM140.147 64.2402C140.147 63.1055 140.416 62.194 140.954 61.5059C141.492 60.8132 142.196 60.4668 143.066 60.4668C143.932 60.4668 144.618 60.763 145.124 61.3555V57.5H146.389V68H145.227L145.165 67.207C144.659 67.8268 143.955 68.1367 143.053 68.1367C142.196 68.1367 141.496 67.7858 140.954 67.084C140.416 66.3822 140.147 65.4661 140.147 64.3359V64.2402ZM141.412 64.3838C141.412 65.2223 141.585 65.8786 141.932 66.3525C142.278 66.8265 142.757 67.0635 143.367 67.0635C144.169 67.0635 144.755 66.7035 145.124 65.9834V62.5859C144.746 61.8887 144.165 61.54 143.381 61.54C142.761 61.54 142.278 61.7793 141.932 62.2578C141.585 62.7363 141.412 63.445 141.412 64.3838ZM148.272 64.2334C148.272 63.5088 148.414 62.8571 148.696 62.2783C148.983 61.6995 149.38 61.2529 149.886 60.9385C150.396 60.624 150.977 60.4668 151.629 60.4668C152.636 60.4668 153.45 60.8154 154.069 61.5127C154.694 62.21 155.006 63.1374 155.006 64.2949V64.3838C155.006 65.1038 154.867 65.751 154.589 66.3252C154.315 66.8949 153.921 67.3392 153.406 67.6582C152.896 67.9772 152.308 68.1367 151.643 68.1367C150.64 68.1367 149.826 67.7881 149.202 67.0908C148.582 66.3936 148.272 65.4707 148.272 64.3223V64.2334ZM149.544 64.3838C149.544 65.2041 149.733 65.8626 150.111 66.3594C150.494 66.8561 151.005 67.1045 151.643 67.1045C152.285 67.1045 152.796 66.8538 153.174 66.3525C153.552 65.8467 153.741 65.1403 153.741 64.2334C153.741 63.4222 153.548 62.766 153.16 62.2646C152.777 61.7588 152.267 61.5059 151.629 61.5059C151.005 61.5059 150.501 61.7542 150.118 62.251C149.735 62.7477 149.544 63.4587 149.544 64.3838ZM163.634 68.1367C162.631 68.1367 161.815 67.8086 161.187 67.1523C160.558 66.4915 160.243 65.6097 160.243 64.5068V64.2744C160.243 63.5407 160.382 62.8867 160.66 62.3125C160.943 61.7337 161.335 61.2826 161.836 60.959C162.342 60.6309 162.889 60.4668 163.477 60.4668C164.438 60.4668 165.186 60.7835 165.719 61.417C166.252 62.0505 166.519 62.9574 166.519 64.1377V64.6641H161.508C161.526 65.3932 161.738 65.9834 162.144 66.4346C162.554 66.8812 163.073 67.1045 163.702 67.1045C164.149 67.1045 164.527 67.0133 164.837 66.8311C165.147 66.6488 165.418 66.4072 165.65 66.1064L166.423 66.708C165.803 67.6605 164.873 68.1367 163.634 68.1367ZM163.477 61.5059C162.966 61.5059 162.538 61.6927 162.191 62.0664C161.845 62.4355 161.631 62.9551 161.549 63.625H165.254V63.5293C165.217 62.8867 165.044 62.39 164.734 62.0391C164.424 61.6836 164.005 61.5059 163.477 61.5059ZM169.612 68H168.348V60.6035H169.612V68ZM168.245 58.6416C168.245 58.4365 168.307 58.2633 168.43 58.1221C168.557 57.9808 168.744 57.9102 168.99 57.9102C169.236 57.9102 169.423 57.9808 169.551 58.1221C169.678 58.2633 169.742 58.4365 169.742 58.6416C169.742 58.8467 169.678 59.0176 169.551 59.1543C169.423 59.291 169.236 59.3594 168.99 59.3594C168.744 59.3594 168.557 59.291 168.43 59.1543C168.307 59.0176 168.245 58.8467 168.245 58.6416ZM176.459 67.2686C175.967 67.8473 175.244 68.1367 174.292 68.1367C173.504 68.1367 172.902 67.9089 172.487 67.4531C172.077 66.9928 171.87 66.3138 171.865 65.416V60.6035H173.13V65.3818C173.13 66.5029 173.586 67.0635 174.497 67.0635C175.463 67.0635 176.106 66.7035 176.425 65.9834V60.6035H177.689V68H176.486L176.459 67.2686ZM184.174 66.0381C184.174 65.6963 184.044 65.432 183.784 65.2451C183.529 65.0537 183.08 64.8896 182.438 64.7529C181.799 64.6162 181.291 64.4521 180.913 64.2607C180.539 64.0693 180.261 63.8415 180.079 63.5771C179.901 63.3128 179.812 62.9984 179.812 62.6338C179.812 62.0277 180.068 61.515 180.578 61.0957C181.093 60.6764 181.749 60.4668 182.547 60.4668C183.385 60.4668 184.064 60.6833 184.584 61.1162C185.108 61.5492 185.37 62.1029 185.37 62.7773H184.099C184.099 62.431 183.951 62.1325 183.654 61.8818C183.363 61.6312 182.993 61.5059 182.547 61.5059C182.087 61.5059 181.727 61.6061 181.467 61.8066C181.207 62.0072 181.077 62.2692 181.077 62.5928C181.077 62.8981 181.198 63.1283 181.439 63.2832C181.681 63.4382 182.116 63.5863 182.745 63.7275C183.379 63.8688 183.891 64.0374 184.283 64.2334C184.675 64.4294 184.965 64.6663 185.151 64.9443C185.343 65.2178 185.438 65.5527 185.438 65.9492C185.438 66.61 185.174 67.141 184.646 67.542C184.117 67.9385 183.431 68.1367 182.588 68.1367C181.995 68.1367 181.471 68.0319 181.016 67.8223C180.56 67.6126 180.202 67.321 179.942 66.9473C179.687 66.569 179.56 66.1611 179.56 65.7236H180.824C180.847 66.1475 181.016 66.4847 181.33 66.7354C181.649 66.9814 182.068 67.1045 182.588 67.1045C183.066 67.1045 183.449 67.0088 183.736 66.8174C184.028 66.6214 184.174 66.3617 184.174 66.0381ZM188.525 60.6035L188.56 61.4238C189.102 60.7858 189.833 60.4668 190.754 60.4668C191.788 60.4668 192.493 60.8633 192.866 61.6562C193.112 61.3008 193.431 61.0137 193.823 60.7949C194.22 60.5762 194.687 60.4668 195.225 60.4668C196.847 60.4668 197.672 61.3258 197.699 63.0439V68H196.435V63.1191C196.435 62.5905 196.314 62.1963 196.072 61.9365C195.831 61.6722 195.425 61.54 194.855 61.54C194.386 61.54 193.996 61.6813 193.687 61.9639C193.377 62.2419 193.197 62.6178 193.146 63.0918V68H191.875V63.1533C191.875 62.0778 191.349 61.54 190.296 61.54C189.466 61.54 188.899 61.8932 188.594 62.5996V68H187.329V60.6035H188.525ZM199.528 64.2334C199.528 63.5088 199.67 62.8571 199.952 62.2783C200.239 61.6995 200.636 61.2529 201.142 60.9385C201.652 60.624 202.233 60.4668 202.885 60.4668C203.892 60.4668 204.705 60.8154 205.325 61.5127C205.95 62.21 206.262 63.1374 206.262 64.2949V64.3838C206.262 65.1038 206.123 65.751 205.845 66.3252C205.571 66.8949 205.177 67.3392 204.662 67.6582C204.152 67.9772 203.564 68.1367 202.898 68.1367C201.896 68.1367 201.082 67.7881 200.458 67.0908C199.838 66.3936 199.528 65.4707 199.528 64.3223V64.2334ZM200.8 64.3838C200.8 65.2041 200.989 65.8626 201.367 66.3594C201.75 66.8561 202.26 67.1045 202.898 67.1045C203.541 67.1045 204.051 66.8538 204.43 66.3525C204.808 65.8467 204.997 65.1403 204.997 64.2334C204.997 63.4222 204.803 62.766 204.416 62.2646C204.033 61.7588 203.523 61.5059 202.885 61.5059C202.26 61.5059 201.757 61.7542 201.374 62.251C200.991 62.7477 200.8 63.4587 200.8 64.3838ZM207.79 64.2402C207.79 63.1055 208.059 62.194 208.597 61.5059C209.134 60.8132 209.839 60.4668 210.709 60.4668C211.575 60.4668 212.261 60.763 212.767 61.3555V57.5H214.031V68H212.869L212.808 67.207C212.302 67.8268 211.598 68.1367 210.695 68.1367C209.839 68.1367 209.139 67.7858 208.597 67.084C208.059 66.3822 207.79 65.4661 207.79 64.3359V64.2402ZM209.055 64.3838C209.055 65.2223 209.228 65.8786 209.574 66.3525C209.921 66.8265 210.399 67.0635 211.01 67.0635C211.812 67.0635 212.397 66.7035 212.767 65.9834V62.5859C212.388 61.8887 211.807 61.54 211.023 61.54C210.404 61.54 209.921 61.7793 209.574 62.2578C209.228 62.7363 209.055 63.445 209.055 64.3838ZM221.688 58.8125V60.6035H223.069V61.5811H221.688V66.168C221.688 66.4642 221.75 66.6875 221.873 66.8379C221.996 66.9837 222.206 67.0566 222.502 67.0566C222.648 67.0566 222.848 67.0293 223.104 66.9746V68C222.771 68.0911 222.447 68.1367 222.133 68.1367C221.568 68.1367 221.142 67.9658 220.854 67.624C220.567 67.2822 220.424 66.7969 220.424 66.168V61.5811H219.077V60.6035H220.424V58.8125H221.688ZM227.872 68.1367C226.869 68.1367 226.054 67.8086 225.425 67.1523C224.796 66.4915 224.481 65.6097 224.481 64.5068V64.2744C224.481 63.5407 224.62 62.8867 224.898 62.3125C225.181 61.7337 225.573 61.2826 226.074 60.959C226.58 60.6309 227.127 60.4668 227.715 60.4668C228.676 60.4668 229.424 60.7835 229.957 61.417C230.49 62.0505 230.757 62.9574 230.757 64.1377V64.6641H225.746C225.764 65.3932 225.976 65.9834 226.382 66.4346C226.792 66.8812 227.312 67.1045 227.94 67.1045C228.387 67.1045 228.765 67.0133 229.075 66.8311C229.385 66.6488 229.656 66.4072 229.889 66.1064L230.661 66.708C230.041 67.6605 229.112 68.1367 227.872 68.1367ZM227.715 61.5059C227.204 61.5059 226.776 61.6927 226.43 62.0664C226.083 62.4355 225.869 62.9551 225.787 63.625H229.492V63.5293C229.456 62.8867 229.283 62.39 228.973 62.0391C228.663 61.6836 228.243 61.5059 227.715 61.5059ZM233.666 60.6035L233.7 61.4238C234.243 60.7858 234.974 60.4668 235.895 60.4668C236.929 60.4668 237.633 60.8633 238.007 61.6562C238.253 61.3008 238.572 61.0137 238.964 60.7949C239.36 60.5762 239.827 60.4668 240.365 60.4668C241.988 60.4668 242.812 61.3258 242.84 63.0439V68H241.575V63.1191C241.575 62.5905 241.454 62.1963 241.213 61.9365C240.971 61.6722 240.566 61.54 239.996 61.54C239.527 61.54 239.137 61.6813 238.827 61.9639C238.517 62.2419 238.337 62.6178 238.287 63.0918V68H237.016V63.1533C237.016 62.0778 236.489 61.54 235.437 61.54C234.607 61.54 234.04 61.8932 233.734 62.5996V68H232.47V60.6035H233.666ZM251.252 64.3838C251.252 65.5094 250.994 66.4163 250.479 67.1045C249.965 67.7926 249.267 68.1367 248.388 68.1367C247.49 68.1367 246.784 67.8519 246.269 67.2822V70.8438H245.004V60.6035H246.159L246.221 61.4238C246.736 60.7858 247.451 60.4668 248.367 60.4668C249.256 60.4668 249.958 60.8018 250.473 61.4717C250.992 62.1416 251.252 63.0736 251.252 64.2676V64.3838ZM249.987 64.2402C249.987 63.4062 249.81 62.7477 249.454 62.2646C249.099 61.7816 248.611 61.54 247.991 61.54C247.226 61.54 246.651 61.8796 246.269 62.5586V66.0928C246.647 66.7673 247.226 67.1045 248.005 67.1045C248.611 67.1045 249.092 66.8652 249.447 66.3867C249.807 65.9036 249.987 65.1882 249.987 64.2402ZM252.78 64.2334C252.78 63.5088 252.922 62.8571 253.204 62.2783C253.491 61.6995 253.888 61.2529 254.394 60.9385C254.904 60.624 255.485 60.4668 256.137 60.4668C257.144 60.4668 257.957 60.8154 258.577 61.5127C259.201 62.21 259.514 63.1374 259.514 64.2949V64.3838C259.514 65.1038 259.375 65.751 259.097 66.3252C258.823 66.8949 258.429 67.3392 257.914 67.6582C257.404 67.9772 256.816 68.1367 256.15 68.1367C255.148 68.1367 254.334 67.7881 253.71 67.0908C253.09 66.3936 252.78 65.4707 252.78 64.3223V64.2334ZM254.052 64.3838C254.052 65.2041 254.241 65.8626 254.619 66.3594C255.002 66.8561 255.512 67.1045 256.15 67.1045C256.793 67.1045 257.303 66.8538 257.682 66.3525C258.06 65.8467 258.249 65.1403 258.249 64.2334C258.249 63.4222 258.055 62.766 257.668 62.2646C257.285 61.7588 256.775 61.5059 256.137 61.5059C255.512 61.5059 255.009 61.7542 254.626 62.251C254.243 62.7477 254.052 63.4587 254.052 64.3838ZM264.925 61.7383C264.733 61.7064 264.526 61.6904 264.303 61.6904C263.473 61.6904 262.91 62.0436 262.614 62.75V68H261.35V60.6035H262.58L262.601 61.458C263.015 60.7972 263.603 60.4668 264.364 60.4668C264.61 60.4668 264.797 60.4987 264.925 60.5625V61.7383ZM265.523 67.3369C265.523 67.1182 265.587 66.9359 265.715 66.79C265.847 66.6442 266.043 66.5713 266.303 66.5713C266.562 66.5713 266.758 66.6442 266.891 66.79C267.027 66.9359 267.096 67.1182 267.096 67.3369C267.096 67.5465 267.027 67.722 266.891 67.8633C266.758 68.0046 266.562 68.0752 266.303 68.0752C266.043 68.0752 265.847 68.0046 265.715 67.8633C265.587 67.722 265.523 67.5465 265.523 67.3369Z" fill="white" fill-opacity="0.6"/>
<path d="M20.6719 21.9297C19.3854 21.5599 18.4479 21.1068 17.8594 20.5703C17.276 20.0286 16.9844 19.362 16.9844 18.5703C16.9844 17.6745 17.3411 16.9349 18.0547 16.3516C18.7734 15.763 19.7057 15.4688 20.8516 15.4688C21.6328 15.4688 22.3281 15.6198 22.9375 15.9219C23.5521 16.224 24.026 16.6406 24.3594 17.1719C24.6979 17.7031 24.8672 18.2839 24.8672 18.9141H23.3594C23.3594 18.2266 23.1406 17.6875 22.7031 17.2969C22.2656 16.901 21.6484 16.7031 20.8516 16.7031C20.112 16.7031 19.5339 16.8672 19.1172 17.1953C18.7057 17.5182 18.5 17.9688 18.5 18.5469C18.5 19.0104 18.6953 19.4036 19.0859 19.7266C19.4818 20.0443 20.151 20.3359 21.0938 20.6016C22.0417 20.8672 22.7812 21.1615 23.3125 21.4844C23.849 21.8021 24.2448 22.1745 24.5 22.6016C24.7604 23.0286 24.8906 23.5312 24.8906 24.1094C24.8906 25.0312 24.5312 25.7708 23.8125 26.3281C23.0938 26.8802 22.1328 27.1562 20.9297 27.1562C20.1484 27.1562 19.4193 27.0078 18.7422 26.7109C18.0651 26.4089 17.5417 25.9974 17.1719 25.4766C16.8073 24.9557 16.625 24.3646 16.625 23.7031H18.1328C18.1328 24.3906 18.3854 24.9349 18.8906 25.3359C19.401 25.7318 20.0807 25.9297 20.9297 25.9297C21.7214 25.9297 22.3281 25.7682 22.75 25.4453C23.1719 25.1224 23.3828 24.6823 23.3828 24.125C23.3828 23.5677 23.1875 23.138 22.7969 22.8359C22.4062 22.5286 21.6979 22.2266 20.6719 21.9297ZM31.9625 26.1641C31.4 26.8255 30.5745 27.1562 29.4859 27.1562C28.5849 27.1562 27.8974 26.8958 27.4234 26.375C26.9547 25.849 26.7177 25.0729 26.7125 24.0469V18.5469H28.1578V24.0078C28.1578 25.2891 28.6786 25.9297 29.7203 25.9297C30.8245 25.9297 31.5589 25.5182 31.9234 24.6953V18.5469H33.3687V27H31.9937L31.9625 26.1641ZM42.8781 22.8672C42.8781 24.1589 42.5812 25.1979 41.9875 25.9844C41.3937 26.7656 40.5969 27.1562 39.5969 27.1562C38.5292 27.1562 37.7036 26.7786 37.1203 26.0234L37.05 27H35.7219V15H37.1672V19.4766C37.7505 18.7526 38.5552 18.3906 39.5812 18.3906C40.6073 18.3906 41.412 18.7786 41.9953 19.5547C42.5839 20.3307 42.8781 21.3932 42.8781 22.7422V22.8672ZM41.4328 22.7031C41.4328 21.7188 41.2427 20.9583 40.8625 20.4219C40.4823 19.8854 39.9354 19.6172 39.2219 19.6172C38.2687 19.6172 37.5839 20.0599 37.1672 20.9453V24.6016C37.6099 25.487 38.3 25.9297 39.2375 25.9297C39.9302 25.9297 40.4693 25.6615 40.8547 25.125C41.2401 24.5885 41.4328 23.7812 41.4328 22.7031ZM46.8172 16.5V18.5469H48.3953V19.6641H46.8172V24.9062C46.8172 25.2448 46.8875 25.5 47.0281 25.6719C47.1688 25.8385 47.4083 25.9219 47.7469 25.9219C47.9135 25.9219 48.1427 25.8906 48.4344 25.8281V27C48.0542 27.1042 47.6844 27.1562 47.325 27.1562C46.6792 27.1562 46.1922 26.9609 45.8641 26.5703C45.5359 26.1797 45.3719 25.625 45.3719 24.9062V19.6641H43.8328V18.5469H45.3719V16.5H46.8172ZM51.8109 27H50.3656V18.5469H51.8109V27ZM50.2484 16.3047C50.2484 16.0703 50.3187 15.8724 50.4594 15.7109C50.6052 15.5495 50.8187 15.4688 51.1 15.4688C51.3812 15.4688 51.5948 15.5495 51.7406 15.7109C51.8865 15.8724 51.9594 16.0703 51.9594 16.3047C51.9594 16.5391 51.8865 16.7344 51.7406 16.8906C51.5948 17.0469 51.3812 17.125 51.1 17.125C50.8187 17.125 50.6052 17.0469 50.4594 16.8906C50.3187 16.7344 50.2484 16.5391 50.2484 16.3047ZM56.2422 16.5V18.5469H57.8203V19.6641H56.2422V24.9062C56.2422 25.2448 56.3125 25.5 56.4531 25.6719C56.5938 25.8385 56.8333 25.9219 57.1719 25.9219C57.3385 25.9219 57.5677 25.8906 57.8594 25.8281V27C57.4792 27.1042 57.1094 27.1562 56.75 27.1562C56.1042 27.1562 55.6172 26.9609 55.2891 26.5703C54.9609 26.1797 54.7969 25.625 54.7969 24.9062V19.6641H53.2578V18.5469H54.7969V16.5H56.2422ZM61.2359 27H59.7906V15H61.2359V27ZM67.2141 27.1562C66.0682 27.1562 65.1359 26.7812 64.4172 26.0312C63.6984 25.276 63.3391 24.2682 63.3391 23.0078V22.7422C63.3391 21.9036 63.4979 21.1562 63.8156 20.5C64.1385 19.8385 64.5865 19.3229 65.1594 18.9531C65.7375 18.5781 66.3625 18.3906 67.0344 18.3906C68.1333 18.3906 68.9875 18.7526 69.5969 19.4766C70.2062 20.2005 70.5109 21.237 70.5109 22.5859V23.1875H64.7844C64.8052 24.0208 65.0474 24.6953 65.5109 25.2109C65.9797 25.7214 66.5734 25.9766 67.2922 25.9766C67.8026 25.9766 68.2349 25.8724 68.5891 25.6641C68.9432 25.4557 69.2531 25.1797 69.5187 24.8359L70.4016 25.5234C69.6932 26.612 68.6307 27.1562 67.2141 27.1562ZM67.0344 19.5781C66.451 19.5781 65.9615 19.7917 65.5656 20.2188C65.1698 20.6406 64.925 21.2344 64.8312 22H69.0656V21.8906C69.024 21.1562 68.826 20.5885 68.4719 20.1875C68.1177 19.7812 67.6385 19.5781 67.0344 19.5781ZM81.0609 27H79.6078V17.3672L76.6937 18.4375V17.125L80.8344 15.5703H81.0609V27Z" fill="white" fill-opacity="0.87"/>
</svg>
