<svg fill="none" height="13" viewBox="0 0 66 13" width="66" xmlns="http://www.w3.org/2000/svg"><path d="m4.67188 6.92969c-1.28646-.36979-2.22396-.82292-2.8125-1.35938-.58334-.54166-.875005-1.20833-.875005-2 0-.89583.356775-1.63541 1.070315-2.21875.71875-.588539 1.65104-.88281 2.79687-.88281.78125 0 1.47656.151042 2.08594.453125.61458.302085 1.08854.718745 1.42188 1.250005.33854.53124.50781 1.11197.50781 1.74218h-1.50781c0-.6875-.21876-1.22656-.65626-1.61718-.4375-.39584-1.05468-.59376-1.85156-.59376-.73958 0-1.31771.16407-1.73437.49219-.41146.32292-.61719.77344-.61719 1.35157 0 .46354.19531.85677.58594 1.17968.39583.31771 1.0651.60938 2.00781.875.94792.26563 1.6875.5599 2.21875.88282.53646.3177.93229.6901 1.1875 1.11718.26042.42709.39062.92969.39062 1.50782 0 .92182-.35937 1.66142-1.07812 2.21872-.71875.5521-1.67969.8281-2.88281.8281-.78125 0-1.51042-.1484-2.1875-.4453-.67709-.302-1.20052-.7135-1.57031-1.2343-.364588-.52087-.54688-1.11202-.54688-1.77348h1.50781c0 .6875.25261 1.23178.75781 1.63278.51042.3959 1.19011.5938 2.03907.5938.79166 0 1.39843-.1615 1.82031-.4844s.63281-.76301.63281-1.3203-.19531-.98698-.58593-1.28906c-.39063-.30729-1.09896-.60938-2.125-.90625zm11.29062 4.23441c-.5625.6614-1.388.9921-2.4766.9921-.901 0-1.5885-.2604-2.0625-.7812-.4687-.526-.7057-1.3021-.7109-2.32812v-5.5h1.4453v5.46093c0 1.28129.5208 1.92189 1.5625 1.92189 1.1042 0 1.8386-.4115 2.2031-1.23439v-6.14843h1.4453v8.45312h-1.375zm10.9156-3.29691c0 1.29166-.2969 2.33071-.8906 3.11721-.5938.7812-1.3906 1.1718-2.3906 1.1718-1.0677 0-1.8933-.3776-2.4766-1.1328l-.0703.9766h-1.3281v-12h1.4453v4.47656c.5833-.72396 1.388-1.08594 2.414-1.08594 1.0261 0 1.8308.38803 2.4141 1.16407.5886.77604.8828 1.83854.8828 3.1875zm-1.4453-.16407c0-.98437-.1901-1.74479-.5703-2.28124-.3802-.53646-.9271-.80469-1.6406-.80469-.9532 0-1.638.44271-2.0547 1.32812v3.65625c.4427.88544 1.1328 1.32814 2.0703 1.32814.6927 0 1.2318-.2682 1.6172-.8047.3854-.53646.5781-1.34375.5781-2.42188zm5.3844-6.20312v2.04688h1.5781v1.11718h-1.5781v5.24219c0 .33855.0703.59375.2109.76565.1407.1666.3802.25.7188.25.1666 0 .3958-.0313.6875-.0938v1.1719c-.3802.1042-.75.1562-1.1094.1562-.6458 0-1.1328-.1953-1.4609-.5859-.3282-.3906-.4922-.9453-.4922-1.66405v-5.24219h-1.5391v-1.11718h1.5391v-2.04688zm4.9937 10.5h-1.4453v-8.45312h1.4453zm-1.5625-10.69531c0-.23438.0703-.432294.211-.593752.1458-.161459.3593-.242188.6406-.242188.2812 0 .4948.080729.6406.242188.1459.161458.2188.359372.2188.593752 0 .23437-.0729.42969-.2188.58593-.1458.15626-.3594.23438-.6406.23438-.2813 0-.4948-.07812-.6406-.23438-.1407-.15624-.211-.35156-.211-.58593zm5.9938.19531v2.04688h1.5781v1.11718h-1.5781v5.24219c0 .33855.0703.59375.2109.76565.1407.1666.3802.25.7188.25.1666 0 .3958-.0313.6875-.0938v1.1719c-.3802.1042-.75.1562-1.1094.1562-.6458 0-1.1328-.1953-1.4609-.5859-.3282-.3906-.4922-.9453-.4922-1.66405v-5.24219h-1.5391v-1.11718h1.5391v-2.04688zm4.9937 10.5h-1.4453v-12h1.4453zm5.9782.1562c-1.1459 0-2.0782-.375-2.7969-1.125-.7188-.7552-1.0781-1.76297-1.0781-3.02339v-.26562c0-.83854.1588-1.58594.4765-2.24219.3229-.66146.7709-1.17708 1.3438-1.54688.5781-.375 1.2031-.5625 1.875-.5625 1.0989 0 1.9531.36198 2.5625 1.08594.6093.72396.914 1.76042.914 3.10938v.60156h-5.7265c.0208.83333.263 1.50781.7265 2.0234.4688.5105 1.0625.7657 1.7813.7657.5104 0 .9427-.1042 1.2969-.3125.3541-.2084.664-.4844.9296-.82816l.8829.68746c-.7084 1.0886-1.7709 1.6328-3.1875 1.6328zm-.1797-7.57808c-.5834 0-1.0729.21355-1.4688.64063-.3958.42187-.6406 1.01563-.7344 1.78125h4.2344v-.10938c-.0416-.73437-.2396-1.30208-.5937-1.70312-.3542-.40625-.8334-.60938-1.4375-.60938zm14.0265 7.42188h-1.4531v-9.63281l-2.9141 1.07031v-1.3125l4.1407-1.554688h.2265z" fill="#fff" fill-opacity=".87"/></svg>