<svg width="336" height="202" viewBox="0 0 336 202" fill="none" xmlns="http://www.w3.org/2000/svg">
<g filter="url(#filter0_d)">
<path fill-rule="evenodd" clip-rule="evenodd" d="M4 4C4 1.79086 5.79086 0 8 0H15H321H328C330.209 0 332 1.79086 332 4V190C332 192.209 330.209 194 328 194H8C5.79086 194 4 192.209 4 190V4ZM15 1V1.15476H321V1H327.5C329.433 1 331 2.567 331 4.5V189.5C331 191.433 329.433 193 327.5 193H8.50001C6.56701 193 5 191.433 5 189.5V4.5C5 2.56701 6.567 1 8.5 1H15Z" fill="white" fill-opacity="0.12"/>
<path d="M23.9297 27.6328L25.8047 24.5469H27.4922L24.7266 28.7266L27.5781 33H25.9062L23.9531 29.8359L22 33H20.3203L23.1719 28.7266L20.4062 24.5469H22.0781L23.9297 27.6328ZM32.0172 27.6328L33.8922 24.5469H35.5797L32.8141 28.7266L35.6656 33H33.9937L32.0406 29.8359L30.0875 33H28.4078L31.2594 28.7266L28.4937 24.5469H30.1656L32.0172 27.6328ZM40.1047 27.6328L41.9797 24.5469H43.6672L40.9016 28.7266L43.7531 33H42.0812L40.1281 29.8359L38.175 33H36.4953L39.3469 28.7266L36.5812 24.5469H38.2531L40.1047 27.6328ZM48.1922 27.6328L50.0672 24.5469H51.7547L48.9891 28.7266L51.8406 33H50.1688L48.2156 29.8359L46.2625 33H44.5828L47.4344 28.7266L44.6688 24.5469H46.3406L48.1922 27.6328ZM56.2797 27.6328L58.1547 24.5469H59.8422L57.0766 28.7266L59.9281 33H58.2562L56.3031 29.8359L54.35 33H52.6703L55.5219 28.7266L52.7562 24.5469H54.4281L56.2797 27.6328ZM68.4859 27.6328L70.3609 24.5469H72.0484L69.2828 28.7266L72.1344 33H70.4625L68.5094 29.8359L66.5563 33H64.8766L67.7281 28.7266L64.9625 24.5469H66.6344L68.4859 27.6328ZM76.5734 27.6328L78.4484 24.5469H80.1359L77.3703 28.7266L80.2219 33H78.55L76.5969 29.8359L74.6437 33H72.9641L75.8156 28.7266L73.05 24.5469H74.7219L76.5734 27.6328ZM84.6609 27.6328L86.5359 24.5469H88.2234L85.4578 28.7266L88.3094 33H86.6375L84.6844 29.8359L82.7313 33H81.0516L83.9031 28.7266L81.1375 24.5469H82.8094L84.6609 27.6328ZM96.8672 27.6328L98.7422 24.5469H100.43L97.6641 28.7266L100.516 33H98.8438L96.8906 29.8359L94.9375 33H93.2578L96.1094 28.7266L93.3438 24.5469H95.0156L96.8672 27.6328ZM104.955 27.6328L106.83 24.5469H108.517L105.752 28.7266L108.603 33H106.931L104.978 29.8359L103.025 33H101.345L104.197 28.7266L101.431 24.5469H103.103L104.955 27.6328ZM113.042 27.6328L114.917 24.5469H116.605L113.839 28.7266L116.691 33H115.019L113.066 29.8359L111.113 33H109.433L112.284 28.7266L109.519 24.5469H111.191L113.042 27.6328ZM121.13 27.6328L123.005 24.5469H124.692L121.927 28.7266L124.778 33H123.106L121.153 29.8359L119.2 33H117.52L120.372 28.7266L117.606 24.5469H119.278L121.13 27.6328ZM129.217 27.6328L131.092 24.5469H132.78L130.014 28.7266L132.866 33H131.194L129.241 29.8359L127.287 33H125.608L128.459 28.7266L125.694 24.5469H127.366L129.217 27.6328Z" fill="white" fill-opacity="0.6"/>
<path d="M29.6875 167.391C29.5469 168.594 29.1016 169.523 28.3516 170.18C27.6068 170.831 26.6146 171.156 25.375 171.156C24.0312 171.156 22.9531 170.674 22.1406 169.711C21.3333 168.747 20.9297 167.458 20.9297 165.844V164.75C20.9297 163.693 21.1172 162.763 21.4922 161.961C21.8724 161.159 22.4089 160.544 23.1016 160.117C23.7943 159.685 24.5964 159.469 25.5078 159.469C26.7161 159.469 27.6849 159.807 28.4141 160.484C29.1432 161.156 29.5677 162.089 29.6875 163.281H28.1797C28.0495 162.375 27.7656 161.719 27.3281 161.312C26.8958 160.906 26.2891 160.703 25.5078 160.703C24.5495 160.703 23.7969 161.057 23.25 161.766C22.7083 162.474 22.4375 163.482 22.4375 164.789V165.891C22.4375 167.125 22.6953 168.107 23.2109 168.836C23.7266 169.565 24.4479 169.93 25.375 169.93C26.2083 169.93 26.8464 169.742 27.2891 169.367C27.737 168.987 28.0339 168.328 28.1797 167.391H29.6875ZM36.8844 171C36.801 170.833 36.7333 170.536 36.6812 170.109C36.0094 170.807 35.2073 171.156 34.275 171.156C33.4417 171.156 32.7568 170.922 32.2203 170.453C31.6891 169.979 31.4234 169.38 31.4234 168.656C31.4234 167.776 31.7568 167.094 32.4234 166.609C33.0953 166.12 34.038 165.875 35.2516 165.875H36.6578V165.211C36.6578 164.706 36.5068 164.305 36.2047 164.008C35.9026 163.706 35.4573 163.555 34.8687 163.555C34.3531 163.555 33.9208 163.685 33.5719 163.945C33.2229 164.206 33.0484 164.521 33.0484 164.891H31.5953C31.5953 164.469 31.7437 164.062 32.0406 163.672C32.3427 163.276 32.749 162.964 33.2594 162.734C33.775 162.505 34.3401 162.391 34.9547 162.391C35.9286 162.391 36.6917 162.635 37.2437 163.125C37.7958 163.609 38.0823 164.279 38.1031 165.133V169.023C38.1031 169.799 38.2021 170.417 38.4 170.875V171H36.8844ZM34.4859 169.898C34.9391 169.898 35.3687 169.781 35.775 169.547C36.1812 169.312 36.4755 169.008 36.6578 168.633V166.898H35.525C33.7542 166.898 32.8687 167.417 32.8687 168.453C32.8687 168.906 33.0198 169.26 33.3219 169.516C33.624 169.771 34.012 169.898 34.4859 169.898ZM44.6047 163.844C44.3859 163.807 44.149 163.789 43.8937 163.789C42.9458 163.789 42.3026 164.193 41.9641 165V171H40.5187V162.547H41.925L41.9484 163.523C42.4224 162.768 43.0943 162.391 43.9641 162.391C44.2453 162.391 44.4589 162.427 44.6047 162.5V163.844ZM45.5828 166.703C45.5828 165.406 45.8901 164.365 46.5047 163.578C47.1193 162.786 47.924 162.391 48.9188 162.391C49.9083 162.391 50.6922 162.729 51.2703 163.406V159H52.7156V171H51.3875L51.3172 170.094C50.7391 170.802 49.9344 171.156 48.9031 171.156C47.924 171.156 47.1245 170.755 46.5047 169.953C45.8901 169.151 45.5828 168.104 45.5828 166.812V166.703ZM47.0281 166.867C47.0281 167.826 47.226 168.576 47.6219 169.117C48.0177 169.659 48.5646 169.93 49.2625 169.93C50.1792 169.93 50.8484 169.518 51.2703 168.695V164.812C50.838 164.016 50.174 163.617 49.2781 163.617C48.5698 163.617 48.0177 163.891 47.6219 164.438C47.226 164.984 47.0281 165.794 47.0281 166.867ZM68.2031 171H66.6953V165.742H60.9609V171H59.4609V159.625H60.9609V164.516H66.6953V159.625H68.2031V171ZM70.4078 166.695C70.4078 165.867 70.5693 165.122 70.8922 164.461C71.2203 163.799 71.6734 163.289 72.2516 162.93C72.8349 162.57 73.499 162.391 74.2438 162.391C75.3948 162.391 76.3245 162.789 77.0328 163.586C77.7464 164.383 78.1031 165.443 78.1031 166.766V166.867C78.1031 167.69 77.9443 168.43 77.6266 169.086C77.3141 169.737 76.8635 170.245 76.275 170.609C75.6917 170.974 75.0198 171.156 74.2594 171.156C73.1135 171.156 72.1839 170.758 71.4703 169.961C70.762 169.164 70.4078 168.109 70.4078 166.797V166.695ZM71.8609 166.867C71.8609 167.805 72.0771 168.557 72.5094 169.125C72.9469 169.693 73.5302 169.977 74.2594 169.977C74.9938 169.977 75.5771 169.69 76.0094 169.117C76.4417 168.539 76.6578 167.732 76.6578 166.695C76.6578 165.768 76.4365 165.018 75.9938 164.445C75.5563 163.867 74.9729 163.578 74.2438 163.578C73.5302 163.578 72.9547 163.862 72.5172 164.43C72.0797 164.997 71.8609 165.81 71.8609 166.867ZM81.6359 171H80.1906V159H81.6359V171ZM83.7547 166.703C83.7547 165.406 84.062 164.365 84.6766 163.578C85.2911 162.786 86.0958 162.391 87.0906 162.391C88.0802 162.391 88.8641 162.729 89.4422 163.406V159H90.8875V171H89.5594L89.4891 170.094C88.9109 170.802 88.1063 171.156 87.075 171.156C86.0958 171.156 85.2964 170.755 84.6766 169.953C84.062 169.151 83.7547 168.104 83.7547 166.812V166.703ZM85.2 166.867C85.2 167.826 85.3979 168.576 85.7938 169.117C86.1896 169.659 86.7365 169.93 87.4344 169.93C88.351 169.93 89.0203 169.518 89.4422 168.695V164.812C89.0099 164.016 88.3458 163.617 87.45 163.617C86.7417 163.617 86.1896 163.891 85.7938 164.438C85.3979 164.984 85.2 165.794 85.2 166.867ZM96.7953 171.156C95.6495 171.156 94.7172 170.781 93.9984 170.031C93.2797 169.276 92.9203 168.268 92.9203 167.008V166.742C92.9203 165.904 93.0792 165.156 93.3969 164.5C93.7198 163.839 94.1677 163.323 94.7406 162.953C95.3187 162.578 95.9437 162.391 96.6156 162.391C97.7146 162.391 98.5687 162.753 99.1781 163.477C99.7875 164.201 100.092 165.237 100.092 166.586V167.188H94.3656C94.3865 168.021 94.6286 168.695 95.0922 169.211C95.5609 169.721 96.1547 169.977 96.8734 169.977C97.3839 169.977 97.8161 169.872 98.1703 169.664C98.5245 169.456 98.8344 169.18 99.1 168.836L99.9828 169.523C99.2745 170.612 98.212 171.156 96.7953 171.156ZM96.6156 163.578C96.0323 163.578 95.5427 163.792 95.1469 164.219C94.751 164.641 94.5062 165.234 94.4125 166H98.6469V165.891C98.6052 165.156 98.4073 164.589 98.0531 164.188C97.699 163.781 97.2198 163.578 96.6156 163.578ZM106.008 163.844C105.789 163.807 105.552 163.789 105.297 163.789C104.349 163.789 103.706 164.193 103.367 165V171H101.922V162.547H103.328L103.352 163.523C103.826 162.768 104.497 162.391 105.367 162.391C105.648 162.391 105.862 162.427 106.008 162.5V163.844Z" fill="white" fill-opacity="0.6"/>
<path d="M286.312 31.0234L289.359 24.5469H290.852L286.594 33H285.516L283.859 24.5469H285.25L286.312 31.0234ZM292.517 33H291.111L292.58 24.5469H293.986L292.517 33ZM293.681 21.4609C293.921 21.4505 294.119 21.5234 294.275 21.6797C294.436 21.8307 294.517 22.0312 294.517 22.2812C294.512 22.526 294.431 22.7266 294.275 22.8828C294.124 23.0391 293.926 23.1224 293.681 23.1328C293.436 23.1432 293.236 23.0729 293.08 22.9219C292.923 22.7708 292.848 22.5729 292.853 22.3281C292.858 22.0833 292.936 21.8802 293.088 21.7188C293.239 21.5573 293.436 21.4714 293.681 21.4609ZM300.214 30.7109C300.292 30.1276 299.972 29.7161 299.253 29.4766L297.784 29.0469C296.545 28.6198 295.946 27.9115 295.988 26.9219C296.024 26.1771 296.363 25.5677 297.003 25.0938C297.649 24.6146 298.407 24.3802 299.277 24.3906C300.131 24.401 300.823 24.651 301.355 25.1406C301.891 25.625 302.149 26.2578 302.128 27.0391L300.722 27.0312C300.732 26.6094 300.599 26.2656 300.323 26C300.047 25.7344 299.68 25.5964 299.222 25.5859C298.732 25.5755 298.31 25.6953 297.956 25.9453C297.628 26.1797 297.438 26.487 297.386 26.8672C297.318 27.3568 297.618 27.7135 298.284 27.9375L298.995 28.1328C299.964 28.3828 300.652 28.7083 301.058 29.1094C301.464 29.5104 301.652 30.0078 301.62 30.6016C301.589 31.1276 301.417 31.5859 301.105 31.9766C300.792 32.3672 300.376 32.6667 299.855 32.875C299.334 33.0781 298.779 33.1719 298.191 33.1562C297.295 33.1458 296.555 32.8854 295.972 32.375C295.389 31.8594 295.107 31.1979 295.128 30.3906L296.542 30.3984C296.542 30.8724 296.693 31.2526 296.995 31.5391C297.297 31.8255 297.711 31.9688 298.238 31.9688C298.753 31.9792 299.198 31.8724 299.573 31.6484C299.948 31.4193 300.162 31.1068 300.214 30.7109ZM308.38 33C308.343 32.849 308.325 32.7005 308.325 32.5547L308.348 32.1094C307.572 32.8281 306.749 33.1771 305.88 33.1562C305.135 33.1458 304.528 32.9115 304.059 32.4531C303.596 31.9896 303.385 31.4115 303.427 30.7188C303.479 29.8229 303.869 29.125 304.598 28.625C305.333 28.1198 306.296 27.8672 307.489 27.8672L308.966 27.875L309.059 27.2031C309.111 26.6979 309.013 26.2995 308.763 26.0078C308.518 25.7109 308.148 25.5573 307.653 25.5469C307.169 25.5365 306.739 25.6562 306.364 25.9062C305.994 26.151 305.768 26.4766 305.684 26.8828L304.263 26.8906C304.309 26.3958 304.502 25.9583 304.841 25.5781C305.179 25.1927 305.614 24.8958 306.145 24.6875C306.677 24.474 307.226 24.3724 307.794 24.3828C308.674 24.4036 309.359 24.6719 309.848 25.1875C310.338 25.6979 310.544 26.3776 310.466 27.2266L309.778 31.4141L309.739 32.0156C309.729 32.3021 309.76 32.5859 309.833 32.8672L309.817 33H308.38ZM306.161 31.9062C306.614 31.9167 307.041 31.8099 307.442 31.5859C307.848 31.3568 308.197 31.0417 308.489 30.6406L308.794 28.8984L307.723 28.8906C306.833 28.8906 306.151 29.0312 305.677 29.3125C305.203 29.5938 304.934 29.9922 304.872 30.5078C304.825 30.9036 304.916 31.2344 305.145 31.5C305.38 31.7604 305.718 31.8958 306.161 31.9062Z" fill="white" fill-opacity="0.6"/>
</g>
<defs>
<filter id="filter0_d" x="0" y="0" width="336" height="202" filterUnits="userSpaceOnUse" color-interpolation-filters="sRGB">
<feFlood flood-opacity="0" result="BackgroundImageFix"/>
<feColorMatrix in="SourceAlpha" type="matrix" values="0 0 0 0 0 0 0 0 0 0 0 0 0 0 0 0 0 0 127 0"/>
<feOffset dy="4"/>
<feGaussianBlur stdDeviation="2"/>
<feColorMatrix type="matrix" values="0 0 0 0 0 0 0 0 0 0 0 0 0 0 0 0 0 0 0.25 0"/>
<feBlend mode="normal" in2="BackgroundImageFix" result="effect1_dropShadow"/>
<feBlend mode="normal" in="SourceGraphic" in2="effect1_dropShadow" result="shape"/>
</filter>
</defs>
</svg>
