<svg width="328" height="194" viewBox="0 0 328 194" fill="none" xmlns="http://www.w3.org/2000/svg">
<path fill-rule="evenodd" clip-rule="evenodd" d="M4 0C1.79086 0 0 1.79086 0 4V190C0 192.209 1.79086 194 4 194H324C326.209 194 328 192.209 328 190V4C328 1.79086 326.209 0 324 0H317H11H4Z" fill="white" fill-opacity="0.26"/>
<path d="M19.9297 27.6328L21.8047 24.5469H23.4922L20.7266 28.7266L23.5781 33H21.9062L19.9531 29.8359L18 33H16.3203L19.1719 28.7266L16.4062 24.5469H18.0781L19.9297 27.6328ZM28.0172 27.6328L29.8922 24.5469H31.5797L28.8141 28.7266L31.6656 33H29.9937L28.0406 29.8359L26.0875 33H24.4078L27.2594 28.7266L24.4937 24.5469H26.1656L28.0172 27.6328ZM36.1047 27.6328L37.9797 24.5469H39.6672L36.9016 28.7266L39.7531 33H38.0812L36.1281 29.8359L34.175 33H32.4953L35.3469 28.7266L32.5812 24.5469H34.2531L36.1047 27.6328ZM44.1922 27.6328L46.0672 24.5469H47.7547L44.9891 28.7266L47.8406 33H46.1688L44.2156 29.8359L42.2625 33H40.5828L43.4344 28.7266L40.6688 24.5469H42.3406L44.1922 27.6328ZM52.2797 27.6328L54.1547 24.5469H55.8422L53.0766 28.7266L55.9281 33H54.2562L52.3031 29.8359L50.35 33H48.6703L51.5219 28.7266L48.7562 24.5469H50.4281L52.2797 27.6328ZM64.4859 27.6328L66.3609 24.5469H68.0484L65.2828 28.7266L68.1344 33H66.4625L64.5094 29.8359L62.5563 33H60.8766L63.7281 28.7266L60.9625 24.5469H62.6344L64.4859 27.6328ZM72.5734 27.6328L74.4484 24.5469H76.1359L73.3703 28.7266L76.2219 33H74.55L72.5969 29.8359L70.6437 33H68.9641L71.8156 28.7266L69.05 24.5469H70.7219L72.5734 27.6328ZM80.6609 27.6328L82.5359 24.5469H84.2234L81.4578 28.7266L84.3094 33H82.6375L80.6844 29.8359L78.7313 33H77.0516L79.9031 28.7266L77.1375 24.5469H78.8094L80.6609 27.6328ZM92.8672 27.6328L94.7422 24.5469H96.4297L93.6641 28.7266L96.5156 33H94.8438L92.8906 29.8359L90.9375 33H89.2578L92.1094 28.7266L89.3438 24.5469H91.0156L92.8672 27.6328ZM100.955 27.6328L102.83 24.5469H104.517L101.752 28.7266L104.603 33H102.931L100.978 29.8359L99.025 33H97.3453L100.197 28.7266L97.4313 24.5469H99.1031L100.955 27.6328ZM109.042 27.6328L110.917 24.5469H112.605L109.839 28.7266L112.691 33H111.019L109.066 29.8359L107.113 33H105.433L108.284 28.7266L105.519 24.5469H107.191L109.042 27.6328ZM117.13 27.6328L119.005 24.5469H120.692L117.927 28.7266L120.778 33H119.106L117.153 29.8359L115.2 33H113.52L116.372 28.7266L113.606 24.5469H115.278L117.13 27.6328ZM125.217 27.6328L127.092 24.5469H128.78L126.014 28.7266L128.866 33H127.194L125.241 29.8359L123.287 33H121.608L124.459 28.7266L121.694 24.5469H123.366L125.217 27.6328Z" fill="white" fill-opacity="0.6"/>
<path d="M25.6875 167.391C25.5469 168.594 25.1016 169.523 24.3516 170.18C23.6068 170.831 22.6146 171.156 21.375 171.156C20.0312 171.156 18.9531 170.674 18.1406 169.711C17.3333 168.747 16.9297 167.458 16.9297 165.844V164.75C16.9297 163.693 17.1172 162.763 17.4922 161.961C17.8724 161.159 18.4089 160.544 19.1016 160.117C19.7943 159.685 20.5964 159.469 21.5078 159.469C22.7161 159.469 23.6849 159.807 24.4141 160.484C25.1432 161.156 25.5677 162.089 25.6875 163.281H24.1797C24.0495 162.375 23.7656 161.719 23.3281 161.312C22.8958 160.906 22.2891 160.703 21.5078 160.703C20.5495 160.703 19.7969 161.057 19.25 161.766C18.7083 162.474 18.4375 163.482 18.4375 164.789V165.891C18.4375 167.125 18.6953 168.107 19.2109 168.836C19.7266 169.565 20.4479 169.93 21.375 169.93C22.2083 169.93 22.8464 169.742 23.2891 169.367C23.737 168.987 24.0339 168.328 24.1797 167.391H25.6875ZM32.8844 171C32.801 170.833 32.7333 170.536 32.6812 170.109C32.0094 170.807 31.2073 171.156 30.275 171.156C29.4417 171.156 28.7568 170.922 28.2203 170.453C27.6891 169.979 27.4234 169.38 27.4234 168.656C27.4234 167.776 27.7568 167.094 28.4234 166.609C29.0953 166.12 30.038 165.875 31.2516 165.875H32.6578V165.211C32.6578 164.706 32.5068 164.305 32.2047 164.008C31.9026 163.706 31.4573 163.555 30.8687 163.555C30.3531 163.555 29.9208 163.685 29.5719 163.945C29.2229 164.206 29.0484 164.521 29.0484 164.891H27.5953C27.5953 164.469 27.7437 164.062 28.0406 163.672C28.3427 163.276 28.749 162.964 29.2594 162.734C29.775 162.505 30.3401 162.391 30.9547 162.391C31.9286 162.391 32.6917 162.635 33.2437 163.125C33.7958 163.609 34.0823 164.279 34.1031 165.133V169.023C34.1031 169.799 34.2021 170.417 34.4 170.875V171H32.8844ZM30.4859 169.898C30.9391 169.898 31.3687 169.781 31.775 169.547C32.1812 169.312 32.4755 169.008 32.6578 168.633V166.898H31.525C29.7542 166.898 28.8687 167.417 28.8687 168.453C28.8687 168.906 29.0198 169.26 29.3219 169.516C29.624 169.771 30.012 169.898 30.4859 169.898ZM40.6047 163.844C40.3859 163.807 40.149 163.789 39.8937 163.789C38.9458 163.789 38.3026 164.193 37.9641 165V171H36.5187V162.547H37.925L37.9484 163.523C38.4224 162.768 39.0943 162.391 39.9641 162.391C40.2453 162.391 40.4589 162.427 40.6047 162.5V163.844ZM41.5828 166.703C41.5828 165.406 41.8901 164.365 42.5047 163.578C43.1193 162.786 43.924 162.391 44.9188 162.391C45.9083 162.391 46.6922 162.729 47.2703 163.406V159H48.7156V171H47.3875L47.3172 170.094C46.7391 170.802 45.9344 171.156 44.9031 171.156C43.924 171.156 43.1245 170.755 42.5047 169.953C41.8901 169.151 41.5828 168.104 41.5828 166.812V166.703ZM43.0281 166.867C43.0281 167.826 43.226 168.576 43.6219 169.117C44.0177 169.659 44.5646 169.93 45.2625 169.93C46.1792 169.93 46.8484 169.518 47.2703 168.695V164.812C46.838 164.016 46.174 163.617 45.2781 163.617C44.5698 163.617 44.0177 163.891 43.6219 164.438C43.226 164.984 43.0281 165.794 43.0281 166.867ZM64.2031 171H62.6953V165.742H56.9609V171H55.4609V159.625H56.9609V164.516H62.6953V159.625H64.2031V171ZM66.4078 166.695C66.4078 165.867 66.5693 165.122 66.8922 164.461C67.2203 163.799 67.6734 163.289 68.2516 162.93C68.8349 162.57 69.499 162.391 70.2438 162.391C71.3948 162.391 72.3245 162.789 73.0328 163.586C73.7464 164.383 74.1031 165.443 74.1031 166.766V166.867C74.1031 167.69 73.9443 168.43 73.6266 169.086C73.3141 169.737 72.8635 170.245 72.275 170.609C71.6917 170.974 71.0198 171.156 70.2594 171.156C69.1135 171.156 68.1839 170.758 67.4703 169.961C66.762 169.164 66.4078 168.109 66.4078 166.797V166.695ZM67.8609 166.867C67.8609 167.805 68.0771 168.557 68.5094 169.125C68.9469 169.693 69.5302 169.977 70.2594 169.977C70.9938 169.977 71.5771 169.69 72.0094 169.117C72.4417 168.539 72.6578 167.732 72.6578 166.695C72.6578 165.768 72.4365 165.018 71.9938 164.445C71.5563 163.867 70.9729 163.578 70.2438 163.578C69.5302 163.578 68.9547 163.862 68.5172 164.43C68.0797 164.997 67.8609 165.81 67.8609 166.867ZM77.6359 171H76.1906V159H77.6359V171ZM79.7547 166.703C79.7547 165.406 80.062 164.365 80.6766 163.578C81.2911 162.786 82.0958 162.391 83.0906 162.391C84.0802 162.391 84.8641 162.729 85.4422 163.406V159H86.8875V171H85.5594L85.4891 170.094C84.9109 170.802 84.1063 171.156 83.075 171.156C82.0958 171.156 81.2964 170.755 80.6766 169.953C80.062 169.151 79.7547 168.104 79.7547 166.812V166.703ZM81.2 166.867C81.2 167.826 81.3979 168.576 81.7938 169.117C82.1896 169.659 82.7365 169.93 83.4344 169.93C84.351 169.93 85.0203 169.518 85.4422 168.695V164.812C85.0099 164.016 84.3458 163.617 83.45 163.617C82.7417 163.617 82.1896 163.891 81.7938 164.438C81.3979 164.984 81.2 165.794 81.2 166.867ZM92.7953 171.156C91.6495 171.156 90.7172 170.781 89.9984 170.031C89.2797 169.276 88.9203 168.268 88.9203 167.008V166.742C88.9203 165.904 89.0792 165.156 89.3969 164.5C89.7198 163.839 90.1677 163.323 90.7406 162.953C91.3187 162.578 91.9437 162.391 92.6156 162.391C93.7146 162.391 94.5687 162.753 95.1781 163.477C95.7875 164.201 96.0922 165.237 96.0922 166.586V167.188H90.3656C90.3865 168.021 90.6286 168.695 91.0922 169.211C91.5609 169.721 92.1547 169.977 92.8734 169.977C93.3839 169.977 93.8161 169.872 94.1703 169.664C94.5245 169.456 94.8344 169.18 95.1 168.836L95.9828 169.523C95.2745 170.612 94.212 171.156 92.7953 171.156ZM92.6156 163.578C92.0323 163.578 91.5427 163.792 91.1469 164.219C90.751 164.641 90.5062 165.234 90.4125 166H94.6469V165.891C94.6052 165.156 94.4073 164.589 94.0531 164.188C93.699 163.781 93.2198 163.578 92.6156 163.578ZM102.008 163.844C101.789 163.807 101.552 163.789 101.297 163.789C100.349 163.789 99.7057 164.193 99.3672 165V171H97.9219V162.547H99.3281L99.3516 163.523C99.8255 162.768 100.497 162.391 101.367 162.391C101.648 162.391 101.862 162.427 102.008 162.5V163.844Z" fill="white" fill-opacity="0.6"/>
<path d="M282.312 31.0234L285.359 24.5469H286.852L282.594 33H281.516L279.859 24.5469H281.25L282.312 31.0234ZM288.517 33H287.111L288.58 24.5469H289.986L288.517 33ZM289.681 21.4609C289.921 21.4505 290.119 21.5234 290.275 21.6797C290.436 21.8307 290.517 22.0312 290.517 22.2812C290.512 22.526 290.431 22.7266 290.275 22.8828C290.124 23.0391 289.926 23.1224 289.681 23.1328C289.436 23.1432 289.236 23.0729 289.08 22.9219C288.923 22.7708 288.848 22.5729 288.853 22.3281C288.858 22.0833 288.936 21.8802 289.088 21.7188C289.239 21.5573 289.436 21.4714 289.681 21.4609ZM296.214 30.7109C296.292 30.1276 295.972 29.7161 295.253 29.4766L293.784 29.0469C292.545 28.6198 291.946 27.9115 291.988 26.9219C292.024 26.1771 292.363 25.5677 293.003 25.0938C293.649 24.6146 294.407 24.3802 295.277 24.3906C296.131 24.401 296.823 24.651 297.355 25.1406C297.891 25.625 298.149 26.2578 298.128 27.0391L296.722 27.0312C296.732 26.6094 296.599 26.2656 296.323 26C296.047 25.7344 295.68 25.5964 295.222 25.5859C294.732 25.5755 294.31 25.6953 293.956 25.9453C293.628 26.1797 293.438 26.487 293.386 26.8672C293.318 27.3568 293.618 27.7135 294.284 27.9375L294.995 28.1328C295.964 28.3828 296.652 28.7083 297.058 29.1094C297.464 29.5104 297.652 30.0078 297.62 30.6016C297.589 31.1276 297.417 31.5859 297.105 31.9766C296.792 32.3672 296.376 32.6667 295.855 32.875C295.334 33.0781 294.779 33.1719 294.191 33.1562C293.295 33.1458 292.555 32.8854 291.972 32.375C291.389 31.8594 291.107 31.1979 291.128 30.3906L292.542 30.3984C292.542 30.8724 292.693 31.2526 292.995 31.5391C293.297 31.8255 293.711 31.9688 294.238 31.9688C294.753 31.9792 295.198 31.8724 295.573 31.6484C295.948 31.4193 296.162 31.1068 296.214 30.7109ZM304.38 33C304.343 32.849 304.325 32.7005 304.325 32.5547L304.348 32.1094C303.572 32.8281 302.749 33.1771 301.88 33.1562C301.135 33.1458 300.528 32.9115 300.059 32.4531C299.596 31.9896 299.385 31.4115 299.427 30.7188C299.479 29.8229 299.869 29.125 300.598 28.625C301.333 28.1198 302.296 27.8672 303.489 27.8672L304.966 27.875L305.059 27.2031C305.111 26.6979 305.013 26.2995 304.763 26.0078C304.518 25.7109 304.148 25.5573 303.653 25.5469C303.169 25.5365 302.739 25.6562 302.364 25.9062C301.994 26.151 301.768 26.4766 301.684 26.8828L300.263 26.8906C300.309 26.3958 300.502 25.9583 300.841 25.5781C301.179 25.1927 301.614 24.8958 302.145 24.6875C302.677 24.474 303.226 24.3724 303.794 24.3828C304.674 24.4036 305.359 24.6719 305.848 25.1875C306.338 25.6979 306.544 26.3776 306.466 27.2266L305.778 31.4141L305.739 32.0156C305.729 32.3021 305.76 32.5859 305.833 32.8672L305.817 33H304.38ZM302.161 31.9062C302.614 31.9167 303.041 31.8099 303.442 31.5859C303.848 31.3568 304.197 31.0417 304.489 30.6406L304.794 28.8984L303.723 28.8906C302.833 28.8906 302.151 29.0312 301.677 29.3125C301.203 29.5938 300.934 29.9922 300.872 30.5078C300.825 30.9036 300.916 31.2344 301.145 31.5C301.38 31.7604 301.718 31.8958 302.161 31.9062Z" fill="white" fill-opacity="0.6"/>
</svg>
