<svg fill="none" height="24" viewBox="0 0 24 24" width="24" xmlns="http://www.w3.org/2000/svg"><path d="m16.5 12c3.0376 0 5.5 2.4624 5.5 5.5s-2.4624 5.5-5.5 5.5-5.5-2.4624-5.5-5.5 2.4624-5.5 5.5-5.5zm-4.5-10.5c1.933 0 3.5 1.567 3.5 3.5h5c.5523 0 1 .44772 1 1s-.4477 1-1 1h-.8447l-.4517 4.5872c-.8232-.377-1.7389-.5872-2.7036-.5872-3.5899 0-6.5 2.9101-6.5 6.5 0 1.7464.6887 3.3319 1.8094 4.5h-3.49647c-1.41453 0-2.59833-1.0731-2.73679-2.4808l-1.2314-12.5192h-.84474c-.55228 0-1-.44772-1-1s.44772-1 1-1h5c0-1.933 1.567-3.5 3.5-3.5zm1.7157 13.0886-.0693.0578-.0578.0693c-.1181.1705-.1181.3981 0 .5686l.0578.0693 2.1466 2.1464-2.1466 2.1464-.0578.0693c-.1181.1705-.1181.3981 0 .5686l.0578.0693.0693.0578c.1705.1181.3981.1181.5686 0l.0693-.0578 2.1464-2.1466 2.1464 2.1466.0693.0578c.1705.1181.3981.1181.5686 0l.0693-.0578.0578-.0693c.1181-.1705.1181-.3981 0-.5686l-.0578-.0693-2.1466-2.1464 2.1466-2.1464.0578-.0693c.1181-.1705.1181-.3981 0-.5686l-.0578-.0693-.0693-.0578c-.1705-.1181-.3981-.1181-.5686 0l-.0693.0578-2.1464 2.1466-2.1464-2.1466-.0693-.0578c-.1461-.1013-.3342-.1157-.4924-.0434zm-1.7157-11.0886c-.8284 0-1.5.67157-1.5 1.5h3c0-.82843-.6716-1.5-1.5-1.5z" fill="#212121"/></svg>